<svg version="1.2" baseProfile="tiny-ps" xmlns="http://www.w3.org/2000/svg" viewBox="0 0 2132 2131" width="2132" height="2131">
	<title>Path 0</title>
	<style>
		tspan { white-space:pre }
		.shp0 { fill: #163078 }
	</style>
	<path id="Path 0" fill-rule="evenodd" class="shp0" d="M1064 0.13C1087.92 0.05 1113.12 0.44 1120 1C1126.87 1.55 1141.72 2.71 1153 3.57C1164.27 4.43 1180.92 5.99 1190 7.04C1199.07 8.1 1211.45 9.65 1217.5 10.5C1223.55 11.35 1235.47 13.2 1244 14.6C1252.52 16.01 1269.4 19.17 1281.5 21.63C1293.6 24.09 1311.6 28.09 1321.5 30.51C1331.4 32.93 1349.06 37.63 1360.75 40.96C1372.44 44.28 1391.34 50.1 1402.75 53.9C1414.16 57.69 1430.92 63.57 1440 66.97C1449.07 70.36 1463.92 76.21 1473 79.95C1482.07 83.7 1496.7 90.02 1505.5 94C1514.3 97.98 1531.29 106.14 1543.25 112.12C1555.21 118.1 1571.64 126.67 1579.75 131.16C1587.86 135.64 1601.7 143.59 1610.5 148.83C1619.3 154.06 1633.47 162.84 1642 168.34C1650.52 173.83 1663.35 182.37 1670.5 187.3C1677.65 192.24 1692.95 203.36 1704.5 212.03C1716.05 220.7 1731.35 232.58 1738.5 238.44C1745.65 244.3 1759.37 255.92 1769 264.26C1778.62 272.6 1801.37 294.29 1819.54 312.46C1837.71 330.63 1859.4 353.37 1867.74 363C1876.08 372.62 1887.7 386.35 1893.56 393.5C1899.42 400.65 1911.3 415.95 1919.97 427.5C1928.64 439.05 1939.76 454.35 1944.7 461.5C1949.63 468.65 1958.16 481.47 1963.66 490C1969.16 498.52 1977.94 512.7 1983.17 521.5C1988.41 530.3 1996.36 544.14 2000.84 552.25C2005.33 560.36 2013.9 576.79 2019.88 588.75C2025.86 600.71 2034.02 617.7 2038 626.5C2041.98 635.3 2048.3 649.92 2052.05 659C2055.79 668.07 2061.64 682.92 2065.03 692C2068.43 701.07 2074.31 717.84 2078.1 729.25C2081.9 740.66 2087.72 759.56 2091.04 771.25C2094.36 782.94 2099.07 800.6 2101.49 810.5C2103.91 820.4 2107.91 838.4 2110.37 850.5C2112.83 862.6 2115.99 879.47 2117.4 888C2118.8 896.52 2120.65 908.45 2121.5 914.5C2122.35 920.55 2123.9 932.92 2124.96 942C2126.01 951.07 2127.58 967.72 2128.44 979C2129.3 990.27 2130.45 1005.35 2131 1012.5C2131.56 1019.65 2132 1043.27 2132 1065C2132 1086.72 2131.53 1110.8 2130.97 1118.5C2130.4 1126.2 2129.25 1141.5 2128.4 1152.5C2127.56 1163.5 2126.01 1179.92 2124.96 1189C2123.9 1198.07 2122.34 1210.45 2121.49 1216.5C2120.64 1222.55 2118.62 1235.37 2117 1245C2115.38 1254.62 2112.22 1271.5 2109.97 1282.5C2107.73 1293.5 2103.91 1310.6 2101.49 1320.5C2099.06 1330.4 2094.36 1348.06 2091.04 1359.75C2087.72 1371.44 2081.9 1390.34 2078.1 1401.75C2074.31 1413.16 2068.43 1429.92 2065.03 1439C2061.64 1448.07 2055.79 1462.92 2052.05 1472C2048.3 1481.07 2041.98 1495.7 2038 1504.5C2034.02 1513.3 2025.86 1530.29 2019.88 1542.25C2013.9 1554.21 2005.33 1570.64 2000.84 1578.75C1996.36 1586.86 1988.41 1600.7 1983.17 1609.5C1977.94 1618.3 1969.16 1632.47 1963.66 1641C1958.16 1649.52 1949.63 1662.35 1944.7 1669.5C1939.76 1676.65 1928.64 1691.95 1919.97 1703.5C1911.3 1715.05 1899.42 1730.35 1893.56 1737.5C1887.7 1744.65 1876.08 1758.37 1867.74 1768C1859.4 1777.62 1837.71 1800.37 1819.54 1818.54C1801.37 1836.71 1778.62 1858.4 1769 1866.74C1759.37 1875.08 1745.65 1886.7 1738.5 1892.56C1731.35 1898.42 1716.05 1910.3 1704.5 1918.97C1692.95 1927.64 1677.65 1938.76 1670.5 1943.7C1663.35 1948.63 1650.52 1957.16 1642 1962.66C1633.47 1968.16 1619.3 1976.94 1610.5 1982.17C1601.7 1987.41 1587.86 1995.36 1579.75 1999.84C1571.64 2004.33 1555.21 2012.9 1543.25 2018.88C1531.29 2024.86 1514.3 2033.02 1505.5 2037C1496.7 2040.98 1482.07 2047.3 1473 2051.05C1463.92 2054.79 1449.07 2060.64 1440 2064.03C1430.92 2067.43 1414.16 2073.31 1402.75 2077.1C1391.34 2080.9 1372.44 2086.72 1360.75 2090.04C1349.06 2093.36 1331.4 2098.07 1321.5 2100.49C1311.6 2102.91 1293.6 2106.91 1281.5 2109.37C1269.4 2111.83 1252.52 2114.99 1244 2116.4C1235.47 2117.8 1223.55 2119.65 1217.5 2120.5C1211.45 2121.35 1199.07 2122.9 1190 2123.96C1180.92 2125.01 1164.27 2126.57 1153 2127.43C1141.72 2128.29 1126.87 2129.45 1120 2130C1113.12 2130.56 1089.05 2131.01 1066.5 2131.01C1043.95 2131.01 1019.87 2130.56 1013 2130C1006.12 2129.45 991.27 2128.29 980 2127.43C968.72 2126.57 952.07 2125.01 943 2123.96C933.92 2122.9 921.55 2121.35 915.5 2120.5C909.45 2119.65 897.52 2117.8 889 2116.4C880.47 2114.99 863.6 2111.83 851.5 2109.37C839.4 2106.91 821.4 2102.91 811.5 2100.49C801.6 2098.07 783.94 2093.36 772.25 2090.04C760.56 2086.72 741.66 2080.9 730.25 2077.1C718.84 2073.31 702.07 2067.43 693 2064.03C683.92 2060.64 669.07 2054.79 660 2051.05C650.92 2047.3 636.3 2040.98 627.5 2037C618.7 2033.02 601.71 2024.86 589.75 2018.88C577.79 2012.9 561.36 2004.33 553.25 1999.84C545.14 1995.36 531.3 1987.41 522.5 1982.17C513.7 1976.94 499.52 1968.16 491 1962.66C482.47 1957.16 469.65 1948.63 462.5 1943.7C455.35 1938.76 440.05 1927.64 428.5 1918.97C416.95 1910.3 401.65 1898.42 394.5 1892.56C387.35 1886.7 373.62 1875.08 364 1866.74C354.37 1858.4 331.63 1836.71 313.46 1818.54C295.29 1800.37 273.6 1777.62 265.26 1768C256.92 1758.37 245.3 1744.65 239.44 1737.5C233.58 1730.35 221.7 1715.05 213.03 1703.5C204.36 1691.95 193.24 1676.65 188.3 1669.5C183.37 1662.35 174.83 1649.52 169.34 1641C163.84 1632.47 155.06 1618.3 149.83 1609.5C144.59 1600.7 136.64 1586.86 132.16 1578.75C127.67 1570.64 119.1 1554.21 113.12 1542.25C107.14 1530.29 98.98 1513.3 95 1504.5C91.02 1495.7 84.7 1481.07 80.95 1472C77.21 1462.92 71.36 1448.07 67.97 1439C64.57 1429.92 58.69 1413.16 54.9 1401.75C51.1 1390.34 45.28 1371.44 41.96 1359.75C38.63 1348.06 33.93 1330.4 31.51 1320.5C29.09 1310.6 25.09 1292.6 22.63 1280.5C20.17 1268.4 17.01 1251.52 15.6 1243C14.2 1234.47 12.35 1222.55 11.5 1216.5C10.65 1210.45 9.1 1198.07 8.04 1189C6.99 1179.92 5.42 1163.27 4.56 1152C3.7 1140.72 2.55 1125.65 1.99 1118.5C1.44 1111.35 1 1087.72 1 1066C1 1044.27 1.47 1020.2 2.03 1012.5C2.6 1004.8 3.75 989.5 4.6 978.5C5.44 967.5 6.99 951.07 8.03 942C9.08 932.92 10.87 918.97 12 911C13.13 903.02 15.21 889.97 16.6 882C18 874.02 20.94 858.72 23.13 848C25.32 837.27 29.09 820.4 31.51 810.5C33.94 800.6 38.63 782.94 41.96 771.25C45.28 759.56 51.1 740.66 54.9 729.25C58.69 717.84 64.57 701.07 67.97 692C71.36 682.92 77.21 668.07 80.95 659C84.7 649.92 91.02 635.3 95 626.5C98.98 617.7 107.14 600.71 113.12 588.75C119.1 576.79 127.67 560.36 132.16 552.25C136.64 544.14 144.59 530.3 149.83 521.5C155.06 512.7 163.84 498.52 169.34 490C174.83 481.47 183.37 468.65 188.3 461.5C193.24 454.35 204.36 439.05 213.03 427.5C221.7 415.95 233.58 400.65 239.44 393.5C245.3 386.35 256.92 372.62 265.26 363C273.6 353.37 295.29 330.63 313.46 312.46C331.63 294.29 354.37 272.6 364 264.26C373.62 255.92 387.35 244.3 394.5 238.44C401.65 232.58 416.95 220.7 428.5 212.03C440.05 203.36 455.35 192.24 462.5 187.3C469.65 182.37 482.47 173.83 491 168.34C499.52 162.84 513.7 154.06 522.5 148.83C531.3 143.59 545.14 135.64 553.25 131.16C561.36 126.67 577.79 118.1 589.75 112.12C601.71 106.14 618.7 97.98 627.5 94C636.3 90.02 650.92 83.7 660 79.95C669.07 76.21 683.92 70.36 693 66.97C702.07 63.57 718.84 57.69 730.25 53.9C741.66 50.1 760.56 44.28 772.25 40.96C783.94 37.63 801.6 32.93 811.5 30.51C821.4 28.09 839.4 24.09 851.5 21.63C863.6 19.17 880.47 16.01 889 14.6C897.52 13.2 909.45 11.35 915.5 10.5C921.55 9.65 933.92 8.09 943 7.04C952.07 5.99 968.95 4.4 980.5 3.52C992.05 2.64 1005.77 1.55 1011 1.1C1016.22 0.65 1040.07 0.22 1064 0.13ZM1335 104.06C1341.32 107.5 1352.01 113.61 1358.75 117.65L1371 125C1375.46 115.31 1376.48 112.21 1376.13 111.86C1375.78 111.51 1368.75 109.17 1360.5 106.67C1352.25 104.16 1340.55 100.73 1334.5 99.04C1328.45 97.36 1323.05 95.98 1322.5 95.97C1321.83 95.97 1321.83 96.28 1322.5 96.89C1323.05 97.4 1328.67 100.63 1335 104.06ZM711 127.71C705.22 129.91 692.06 135.15 681.75 139.35L663 147C670.16 161.34 673.98 168.54 676.12 172.25L680 179C692.01 169.42 698.87 163.66 703 160.02C707.12 156.37 715.67 149.09 722 143.83C728.32 138.56 739.14 130.04 746.03 124.88C752.93 119.72 760.23 114.37 762.28 113C764.32 111.62 765.99 110.16 765.99 109.75C766 109.34 765.44 109.02 764.75 109.05C764.06 109.08 754.05 112.39 742.5 116.41C730.95 120.43 716.77 125.52 711 127.71ZM1449.7 176.36L1446.9 178.5C1462.86 191.65 1472.67 200.01 1479 205.56C1485.32 211.11 1495.22 220 1501 225.3L1511.5 234.94C1516.92 230.04 1520.2 226.57 1522.27 224.06C1524.35 221.55 1528.03 215.45 1530.45 210.5C1532.87 205.55 1536.25 197.22 1537.95 192C1540.88 183.01 1540.95 182.43 1539.27 181.2C1538.3 180.49 1525.35 173.9 1510.5 166.55C1495.65 159.2 1482.6 152.95 1481.5 152.64C1480 152.23 1476.09 154.88 1466 163.15C1458.57 169.24 1451.24 175.18 1449.7 176.36ZM533.95 216.25C525.95 221.32 519.33 226.15 519.24 226.98C519.14 227.82 520.38 231.2 521.98 234.5C523.59 237.8 526.28 242.19 527.95 244.25C529.83 246.56 531.86 248 533.25 248.01C534.49 248.01 536.51 247.34 537.75 246.51C538.99 245.68 540.67 243.65 541.5 242C542.32 240.35 543.49 236.64 544.08 233.75L545.16 228.5C554.45 237.8 560.65 245.22 564.93 251C569.21 256.77 574.24 263.9 576.1 266.84L579.5 272.17C598.5 253.05 604.01 247.39 604 247.25C604 247.11 601.64 245.96 598.75 244.69C595.86 243.42 591.25 240.88 588.5 239.05C585.75 237.22 581.33 233.64 578.67 231.11C576.01 228.57 572.75 224.36 571.42 221.75C570.09 219.14 569 216.32 569 215.5C569 214.67 569.67 214 570.5 214C571.32 214 574.59 213.03 577.75 211.84C580.91 210.65 584.96 208.18 586.75 206.34C588.54 204.5 589.98 202.44 589.95 201.75C589.93 201.06 587.12 198.35 583.7 195.72C580.29 193.09 577.05 190.97 576.5 191.01C575.95 191.05 569.42 194.67 562 199.06C554.57 203.45 541.95 211.19 533.95 216.25ZM1644.76 289.5C1639.58 295.55 1629.27 306.35 1621.84 313.5L1608.33 326.5C1617.06 334.52 1618.37 335.23 1619.26 334.25C1619.89 333.56 1620.76 333 1621.2 333C1621.64 333 1621.89 334.17 1621.75 335.6C1621.54 337.77 1624.67 341.44 1640.5 357.58L1659.5 376.96C1662.77 373.5 1665.97 369.12 1668.72 365C1671.46 360.87 1676.59 353.93 1680.1 349.58C1683.62 345.22 1689.87 338.72 1694 335.13L1701.5 328.6L1702.5 336.14C1711.8 330.12 1715.81 326.83 1717.41 324.94C1719.01 323.05 1721.39 319.02 1722.7 316C1724.02 312.97 1724.96 310.22 1724.8 309.89C1724.63 309.55 1720.67 305.99 1716 301.97C1711.32 297.96 1700.97 289.44 1693 283.05C1685.02 276.65 1675.69 269.3 1672.25 266.71C1668.81 264.12 1665.84 262 1665.65 262C1665.46 262 1662.8 265.71 1659.74 270.25C1656.68 274.79 1649.94 283.45 1644.76 289.5ZM367.5 347.15L354.5 359.89C357.6 365.75 360.19 369.15 362.25 371.23C364.31 373.3 367.8 375.9 370 377C372.2 378.1 374.45 379 375 379C375.55 379 375.89 377.85 375.75 376.44C375.61 375.03 375.84 373.68 376.25 373.44C376.66 373.2 382.07 378.06 388.26 384.25C395.93 391.91 402.39 399.65 408.5 408.5C413.44 415.65 420.18 424.37 423.49 427.88C426.79 431.39 431.52 435.99 434 438.1L438.5 441.93C443.81 434.62 449.43 426.95 454.42 420.17L463.5 407.84C453.25 397.5 448.77 392.25 446.93 389.5C445.09 386.75 442.33 380.9 440.8 376.5C439.28 372.1 438.02 367.71 438.01 366.75C438 365.27 438.56 365.42 441.68 367.75C444.88 370.15 446.25 370.5 452.43 370.48C456.32 370.47 460.32 370.02 461.32 369.48C462.9 368.63 461.92 367.45 453.84 360.5C448.73 356.1 439.35 347.32 433.01 341C426.66 334.67 418.21 325.56 414.23 320.75C410.25 315.94 406.61 312 406.14 312C405.66 312 399.7 317.04 392.89 323.21C386.07 329.37 374.65 340.15 367.5 347.15ZM1819 431.49C1812.67 434.04 1805.47 437.23 1803 438.56C1800.52 439.89 1796.92 442.55 1795 444.46C1792.6 446.84 1791.74 448.42 1792.25 449.47C1792.66 450.31 1793.9 451 1795 451C1796.1 451 1797.02 451.56 1797.03 452.25C1797.05 452.94 1792.89 457.57 1787.78 462.54C1782.68 467.51 1776.02 472.98 1773 474.7C1769.97 476.41 1763.45 479.03 1758.5 480.52C1753.55 482 1748.04 484.3 1746.25 485.61L1743 488C1747.84 496.14 1752.97 505.92 1757.51 515C1762.06 524.07 1768.61 538.7 1772.07 547.5C1775.53 556.3 1778.61 563.84 1778.93 564.27C1779.24 564.69 1783.77 562.37 1789 559.12C1796.12 554.68 1798.57 552.62 1798.79 550.85C1798.95 549.56 1798.27 547.7 1797.29 546.71C1796.31 545.73 1793.25 544.21 1790.5 543.34L1785.5 541.76C1789.37 538.9 1794.77 536.3 1800 534.14C1805.22 531.98 1813.89 528.81 1819.25 527.1C1824.61 525.4 1835.64 522.66 1843.75 521.03C1851.86 519.4 1864.12 517.4 1871 516.6C1877.87 515.8 1887.89 514.88 1893.25 514.57C1898.61 514.26 1903 513.77 1903 513.5C1903 513.22 1899.1 507.26 1894.33 500.25C1889.56 493.24 1880.73 480.75 1874.69 472.5C1868.66 464.25 1857.71 449.96 1850.36 440.75C1843.01 431.54 1836.62 423.81 1836.15 423.59C1835.68 423.36 1834.22 424 1832.9 425.01C1831.58 426.02 1825.32 428.94 1819 431.49ZM229.96 513C225.38 519.87 216.99 533.04 211.32 542.25C205.64 551.46 201.11 559.16 201.25 559.36C201.39 559.55 208.02 560.68 216 561.85C223.97 563.02 237.02 565.59 245 567.55C252.97 569.52 263.77 572.73 269 574.69C274.22 576.65 281.65 579.83 285.5 581.77C292.14 585.11 292.37 585.34 290 586.26C288.62 586.79 285.76 587.96 283.63 588.86C281.5 589.76 279.33 591.4 278.79 592.5C278.26 593.6 278.09 595.06 278.41 595.75C278.74 596.44 282.82 599.47 287.5 602.5C292.17 605.52 301.97 611.26 309.27 615.25C316.57 619.24 328.04 624.97 334.77 628C341.49 631.02 347.16 633.27 347.37 633C347.58 632.72 351.84 623.72 356.84 613C361.84 602.27 365.78 593.27 365.6 593C365.42 592.72 361.73 591.19 357.39 589.58C353.05 587.98 346.12 585.35 342 583.74C337.87 582.13 332.29 579.17 329.59 577.16C326.89 575.15 322.93 571.02 320.78 568L316.88 562.5C331.74 559.59 333.98 558.69 335.75 556.62C336.99 555.18 338.53 551.41 339.17 548.25C340.3 542.72 340.24 542.29 337.42 537.08C335.79 534.04 332.96 530.64 331 529.34C329.07 528.07 324.35 526.13 320.5 525.03C316.65 523.93 310.12 521.36 306 519.31C300.2 516.44 296.4 513.5 289.25 506.3C284.16 501.19 280.22 496.55 280.5 496C280.77 495.45 281.9 495 283 495C284.1 495 285.17 494.44 285.39 493.75C285.6 493.06 284.81 491.34 283.64 489.92C282.46 488.5 279.92 486.16 278 484.73C276.07 483.3 271.35 480.8 267.5 479.18C263.65 477.56 259.56 475.95 258.41 475.6C256.63 475.07 255.01 476.84 247.3 487.74C242.34 494.76 234.54 506.12 229.96 513ZM1964.75 645.54C1959.11 645.83 1950.45 646.54 1945.5 647.11C1940.55 647.68 1931.55 649.23 1925.5 650.56C1919.45 651.89 1910 654.49 1904.5 656.35C1899 658.2 1890.45 661.4 1885.5 663.45C1880.55 665.5 1862.1 674.51 1844.5 683.47C1826.9 692.43 1808.35 701.51 1803.29 703.63L1794.07 707.5C1792.32 718.35 1791.41 723.19 1790.91 725.25C1790.13 728.44 1790.26 729.06 1791.75 729.43C1792.71 729.66 1795.07 730.16 1797 730.54C1798.92 730.92 1800.84 731.41 1801.25 731.62C1801.66 731.83 1800.86 733.69 1799.47 735.75C1797.96 737.99 1796.94 740.91 1796.94 743C1796.94 745.05 1797.67 747.22 1798.72 748.22C1799.92 749.38 1802.14 749.95 1805.5 749.96C1808.25 749.97 1814.1 750.9 1818.5 752.03C1822.96 753.17 1828.68 755.5 1831.42 757.29C1834.13 759.05 1838.34 762.97 1840.77 766C1843.2 769.02 1846.47 773.75 1848.03 776.5C1849.59 779.25 1852.24 784.99 1853.93 789.25C1855.62 793.51 1856.75 797.34 1856.45 797.75C1856.15 798.16 1854.91 797.86 1853.7 797.09C1852.49 796.31 1849.47 794.61 1847 793.31C1844.52 792.02 1841.6 790.96 1840.5 790.97C1838.72 790.98 1838.35 792.1 1837.14 801.24C1836.4 806.88 1835.62 811.95 1835.42 812.5C1835.21 813.05 1837.63 815.38 1840.77 817.68C1843.92 819.98 1850.66 825.49 1855.75 829.93C1860.84 834.37 1868.61 842.16 1873.02 847.25C1877.42 852.34 1883.94 860.55 1887.5 865.5C1891.05 870.45 1896.89 880.35 1900.47 887.5C1904.05 894.65 1908.3 904.55 1909.93 909.5C1911.55 914.45 1913.77 923 1914.85 928.5C1915.93 934 1917.09 941.09 1917.41 944.25L1918 950C1912.96 948.45 1909.17 948 1906.32 948C1903.08 948 1900.55 948.56 1899.57 949.5C1898.71 950.32 1898 952.35 1898 954C1898 955.65 1899.83 962.51 1902.06 969.25C1904.29 975.99 1907.85 987.57 1909.95 995C1912.06 1002.42 1915 1013.9 1916.48 1020.5C1917.97 1027.1 1920.03 1037.45 1921.07 1043.5C1922.11 1049.55 1923.48 1060.12 1924.12 1067C1924.77 1074.05 1925.03 1085.82 1924.71 1094C1924.37 1102.49 1923.46 1110.99 1922.51 1114.5C1921.61 1117.8 1918.93 1124.55 1916.55 1129.5C1914.17 1134.45 1909.55 1142.1 1906.28 1146.5C1903.02 1150.9 1897.45 1157.45 1893.92 1161.06C1890.39 1164.67 1884.57 1170.03 1881 1172.98C1877.42 1175.94 1870.67 1180.84 1866 1183.88C1861.32 1186.92 1853.45 1191.32 1848.5 1193.66C1843.55 1196.01 1835.9 1198.85 1831.5 1199.97C1827.04 1201.12 1820.4 1202.01 1816.5 1201.99C1809.54 1201.95 1809.48 1201.93 1805.5 1197.62C1803.3 1195.23 1799.15 1189.06 1796.28 1183.89C1793.41 1178.73 1788.3 1168.2 1784.92 1160.5C1781.54 1152.8 1776.09 1139.52 1772.81 1131C1769.52 1122.47 1763.76 1106.27 1760 1095C1756.24 1083.72 1751.99 1070 1750.57 1064.5C1749.15 1059 1747.99 1053.49 1747.99 1052.25C1748 1050.22 1748.62 1050.51 1754.25 1055.13C1757.69 1057.95 1761.74 1060.88 1763.25 1061.63C1764.76 1062.38 1766.9 1063 1768 1063C1769.1 1063 1770.74 1062.66 1771.64 1062.25C1772.55 1061.84 1774.12 1059.81 1775.14 1057.75C1776.16 1055.69 1777.28 1052.09 1777.61 1049.75C1777.95 1047.41 1777.69 1042.8 1777.03 1039.5C1776.37 1036.2 1774.9 1030.35 1773.77 1026.5C1772.63 1022.65 1768 1009.6 1763.46 997.5C1758.93 985.4 1753.8 971 1752.07 965.5C1750.34 960 1748.6 952.7 1748.21 949.28C1747.55 943.52 1747.34 943.1 1745.25 943.53C1743.15 943.97 1743 943.66 1743 939C1743 936.25 1742.32 932.42 1741.5 930.5C1740.67 928.57 1739.21 926.76 1738.25 926.47C1737.29 926.18 1735.26 926.41 1733.75 926.97C1732.24 927.54 1728.92 929.91 1726.39 932.25C1723.85 934.59 1721.15 937.74 1720.39 939.25C1719.62 940.76 1719 943.46 1719.01 945.25C1719.01 947.04 1718.34 950.86 1717.51 953.75C1716.34 957.82 1714.48 960.61 1709.25 966.14L1702.5 973.28C1698.39 964.92 1695.69 961.21 1693.85 959.63C1692.01 958.05 1688.81 955.91 1686.75 954.88C1684.69 953.84 1682.75 953.11 1682.45 953.25C1682.15 953.39 1682.88 963.4 1684.07 975.5C1685.8 993.1 1686.13 1001.4 1685.7 1017C1685.3 1031.62 1684.64 1038.88 1683.05 1046C1681.89 1051.22 1679.36 1060.22 1677.43 1066C1675.51 1071.77 1671.14 1082.12 1667.73 1089C1664.31 1095.87 1657.17 1108.02 1651.85 1116C1646.52 1123.97 1637.13 1136.8 1630.98 1144.5C1624.83 1152.2 1617.48 1160.9 1614.65 1163.83C1611.82 1166.76 1606.12 1171.98 1602 1175.42C1597.87 1178.86 1591.12 1183.93 1587 1186.68C1582.87 1189.44 1576.12 1193.55 1572 1195.8C1567.87 1198.06 1559.55 1201.98 1553.5 1204.51C1547.45 1207.04 1536.42 1211.06 1529 1213.44C1521.57 1215.82 1508.52 1219.39 1500 1221.36C1491.47 1223.33 1476.17 1226.31 1466 1227.98C1455.82 1229.65 1439.17 1231.92 1429 1233.02C1418.82 1234.11 1408.92 1235.24 1407 1235.52C1404.35 1235.9 1401.68 1237.79 1396 1243.31C1391.87 1247.32 1385.8 1252.67 1382.5 1255.18C1379.2 1257.7 1372.9 1262 1368.5 1264.74C1364.1 1267.48 1355.1 1272.42 1348.5 1275.72C1341.9 1279.02 1333.57 1282.67 1330 1283.84C1326.42 1285 1320.13 1286.66 1316 1287.52C1311.87 1288.38 1303.1 1289.49 1296.5 1290C1289.07 1290.56 1279.64 1290.55 1271.75 1289.96C1264.74 1289.43 1254.61 1288.14 1249.25 1287.09C1243.89 1286.04 1238.37 1284.9 1237 1284.54L1234.5 1283.9C1233.37 1315.4 1232.73 1321.17 1231.11 1326.75C1229.95 1330.74 1227.7 1336.59 1226.11 1339.75C1224.52 1342.91 1221.23 1348.2 1218.8 1351.5C1216.37 1354.8 1211.94 1359.56 1208.94 1362.09C1205.95 1364.61 1201.47 1368.04 1199 1369.71C1196.52 1371.37 1190.9 1374.54 1186.5 1376.73C1182.1 1378.93 1174.67 1382.12 1170 1383.83C1165.32 1385.53 1157.22 1388.07 1152 1389.47C1146.77 1390.86 1137.89 1392.91 1132.25 1394C1126.61 1395.1 1120.87 1396 1119.5 1396C1117.22 1396 1117.62 1395.31 1124.02 1388.25C1127.88 1383.99 1132.37 1378.02 1133.99 1375C1135.61 1371.97 1137.67 1366.12 1138.56 1362C1139.71 1356.69 1140 1352.17 1139.57 1346.5C1139.23 1342.1 1138.05 1334.67 1136.95 1330C1135.84 1325.32 1133.79 1317.67 1132.38 1313C1130.98 1308.32 1129.43 1304.05 1128.95 1303.5C1128.4 1302.86 1123.33 1304.7 1114.79 1308.66C1107.48 1312.06 1097 1316.61 1091.5 1318.8C1086 1320.98 1077 1324.2 1071.5 1325.96C1066 1327.72 1057.22 1330.12 1052 1331.28C1044.34 1332.99 1039.2 1333.4 1025.5 1333.38C1010.44 1333.37 1007.13 1333.05 996.5 1330.57C989.9 1329.03 979.44 1326.02 973.25 1323.88C967.06 1321.75 955.59 1317.25 947.75 1313.89C939.91 1310.54 930.91 1306.49 927.75 1304.89C924.59 1303.3 921.66 1301.99 921.25 1301.97C920.84 1301.96 919.29 1306.12 917.82 1311.22C916.34 1316.32 914.58 1323.2 913.9 1326.5C913.23 1329.8 912.69 1337.67 912.72 1344C912.76 1353.62 913.19 1356.81 915.38 1363.5C916.82 1367.9 919.83 1374.42 922.07 1378C924.31 1381.57 927.69 1386.97 929.59 1390C931.49 1393.02 932.7 1395.62 932.27 1395.78C931.85 1395.93 927.9 1394.43 923.5 1392.44C919.1 1390.45 911.45 1386.44 906.5 1383.53C901.55 1380.62 893.79 1375.48 889.25 1372.12C884.71 1368.75 877.79 1362.96 873.87 1359.25C869.95 1355.54 863.99 1348.83 860.62 1344.35C857.25 1339.87 852.39 1332.22 849.81 1327.35C847.24 1322.48 843.77 1314.45 842.11 1309.5C840.45 1304.55 838.4 1296.45 837.54 1291.5C836.68 1286.55 835.98 1280.81 835.99 1278.75C836 1276.18 835.61 1275.14 834.75 1275.43C834.06 1275.67 830.12 1277.3 826 1279.06C821.87 1280.82 814.45 1283.29 809.5 1284.54C804.55 1285.8 795.55 1287.58 789.5 1288.51C782.74 1289.55 772.33 1290.21 762.5 1290.23C751.71 1290.25 743.24 1289.69 736.5 1288.52C731 1287.57 722.9 1285.67 718.5 1284.3C714.1 1282.93 703.52 1278.23 695 1273.86C686.47 1269.49 675.24 1262.9 670.04 1259.21C664.84 1255.52 656.06 1248.17 650.54 1242.88C645.02 1237.59 637.64 1229.27 634.15 1224.38C630.66 1219.5 626.49 1212.91 624.9 1209.75C622.42 1204.84 621.52 1203.93 618.75 1203.5C616.96 1203.22 608.52 1201.85 600 1200.44C591.47 1199.04 577.75 1196.54 569.5 1194.89C561.25 1193.24 546.4 1189.83 536.5 1187.32C526.6 1184.8 511.97 1180.52 504 1177.81C496.02 1175.09 483.65 1170.06 476.5 1166.63C469.35 1163.21 459.9 1158 455.5 1155.06C451.1 1152.12 443.93 1146.75 439.57 1143.11C435.21 1139.47 428.22 1132.67 424.04 1128C419.85 1123.32 413.56 1115.9 410.05 1111.5C406.54 1107.1 401 1099.45 397.73 1094.5C394.46 1089.55 390.04 1082.01 387.9 1077.75C385.75 1073.49 382.68 1066.06 381.06 1061.25C379.45 1056.44 377.44 1048.45 376.6 1043.5C375.76 1038.55 374.78 1029.32 374.42 1023C374.06 1016.67 374.28 1003.85 374.9 994.5C375.52 985.15 375.91 977.39 375.77 977.25C375.62 977.12 372.01 978.13 367.75 979.5C363.49 980.88 358.2 982.9 356 984C353.8 985.1 350.17 987.69 347.93 989.75C345.69 991.81 342.99 995.3 341.94 997.5C340.89 999.7 340.02 1002.51 340.01 1003.75C340.01 1004.99 339.66 1006 339.25 1006C338.84 1006 335.91 1003.97 332.75 1001.5C329.59 999.02 325.64 995.09 323.98 992.75C322.29 990.37 320.48 986.08 319.87 983C319.26 979.97 318.19 976.37 317.48 975C316.76 973.62 314 970.83 311.34 968.78C308.68 966.74 304.92 964.62 303 964.08C300.76 963.44 298.87 963.43 297.75 964.04C296.79 964.57 295.49 966.69 294.87 968.75C294.25 970.83 294.03 974.62 294.37 977.25C294.72 979.86 294.66 982 294.25 982.01C293.84 982.01 290.46 980.44 286.75 978.51C283.04 976.58 279.83 975.11 279.63 975.25C279.43 975.39 278.32 980.22 277.18 986C276.03 991.77 271.52 1008.42 267.16 1023C262.79 1037.57 258.4 1053.1 257.41 1057.5C256.41 1061.9 255.57 1069.32 255.55 1074C255.51 1081.27 255.86 1083.15 258.01 1087C260.1 1090.74 261.07 1091.54 263.76 1091.75C265.54 1091.89 268.24 1091.38 269.75 1090.63C271.26 1089.88 275.31 1086.95 278.75 1084.13C284.72 1079.23 285 1079.11 285 1081.5C285 1082.87 283.69 1089.06 282.08 1095.25C280.47 1101.44 276.68 1114.37 273.65 1124C270.61 1133.62 265.02 1150.05 261.21 1160.5C257.4 1170.95 251.93 1185.12 249.05 1192C246.16 1198.87 241.18 1209.67 237.99 1216C234.79 1222.32 230.16 1229.75 227.7 1232.5L223.22 1237.5C211.81 1237.3 205.57 1236.48 202 1235.55C198.42 1234.61 191.22 1231.83 186 1229.37C180.77 1226.9 172.22 1222.04 167 1218.57C161.77 1215.1 152.6 1207.59 146.62 1201.88C140.63 1196.17 132.84 1187.67 129.31 1183C125.77 1178.32 120.47 1169.55 117.52 1163.5C114.58 1157.45 111.42 1149.57 110.5 1146C109.5 1142.12 108.61 1133.45 108.28 1124.5C107.96 1115.88 108.25 1103.76 108.94 1096C109.61 1088.57 111.26 1075.97 112.6 1068C113.95 1060.02 117.27 1044.5 120 1033.5C122.72 1022.5 127.21 1006.19 129.97 997.25C132.74 988.31 135 979.65 135 978C135 976.35 134.21 974.27 133.25 973.37C131.88 972.1 130.09 971.85 125 972.22C121.42 972.48 117.65 973.1 116.62 973.6C114.84 974.45 114.77 974.15 115.43 968.5C115.81 965.2 117.03 957.55 118.15 951.5C119.27 945.45 121.53 936.45 123.18 931.5C124.83 926.55 128.35 918 131 912.5C133.64 907 138.02 899.12 140.72 895C143.43 890.87 149.01 883.45 153.14 878.5C157.26 873.55 163.98 866.55 168.07 862.94C172.16 859.33 177.67 854.61 180.31 852.44C184.66 848.89 185.06 848.21 184.45 845.5C184.07 843.85 183.37 841.94 182.88 841.25C182.39 840.56 181.22 840.29 180.25 840.65C179.29 841.01 175.69 843.26 172.25 845.65C168.81 848.04 165.77 850 165.5 850C165.22 850 165.64 847.41 166.43 844.25C167.21 841.09 168.91 835.57 170.21 832C171.5 828.42 174.2 822.57 176.21 819C178.21 815.42 181.8 810.62 184.18 808.32C186.56 806.01 190.75 803 193.5 801.61C196.25 800.22 201.65 798.37 205.5 797.49C209.35 796.61 213.61 795.58 214.97 795.2C216.33 794.81 217.86 793.37 218.36 792C218.86 790.62 218.99 788.26 218.64 786.75C218.29 785.24 216.87 782.65 215.5 781C214.12 779.35 213 777.77 213 777.5C213 777.22 218.06 775.43 224.25 773.52C230.44 771.61 240.22 768.87 246 767.44C253.98 765.46 259.98 764.72 271 764.35C282.98 763.95 286.67 764.18 292.23 765.68C298.12 767.27 299.02 767.31 299.43 766C299.68 765.17 300.19 762.92 300.55 761L301.21 757.5C285.93 752.25 275.42 748.05 268 744.78C260.57 741.51 244.82 733.78 233 727.59C221.17 721.4 206.55 714.06 200.5 711.28C194.45 708.5 185 704.55 179.5 702.51C174 700.47 164.32 697.49 158 695.9C151.67 694.31 144.04 692.89 141.03 692.75L135.57 692.5C126.51 715.75 120.1 733.75 115.49 747.5C110.87 761.25 104.61 781.27 101.58 792C98.55 802.72 94.27 818.92 92.07 828C89.87 837.07 86.68 851.02 84.98 859C83.28 866.97 80.13 883.85 77.99 896.5C75.84 909.15 72.95 928.5 71.57 939.5C70.19 950.5 68.38 967.15 67.56 976.5C66.73 985.85 65.54 1002.95 64.91 1014.5C64.19 1027.64 63.97 1051.96 64.31 1079.5C64.63 1105.69 65.48 1130.99 66.41 1142C67.26 1152.17 68.44 1165 69.02 1170.5C69.6 1176 70.98 1187.47 72.08 1196C73.19 1204.52 75.43 1219.6 77.07 1229.5C78.7 1239.4 81.87 1256.5 84.11 1267.5C86.35 1278.5 90.37 1296.27 93.06 1307C95.75 1317.72 100 1333.7 102.51 1342.5C105.01 1351.3 111.06 1370.42 115.95 1385C120.84 1399.57 128.89 1421.62 133.84 1434C138.8 1446.37 145.63 1462.8 149.03 1470.5C152.43 1478.2 160.3 1494.85 166.52 1507.5C172.74 1520.15 181.29 1536.8 185.52 1544.5C189.75 1552.2 198.43 1567.27 204.81 1578C211.2 1588.72 223.47 1608.07 232.1 1621C240.72 1633.92 253.3 1651.92 260.05 1661C266.8 1670.07 277.38 1683.8 283.55 1691.5C289.73 1699.2 299.6 1711.12 305.49 1718C311.39 1724.87 322.64 1737.47 330.51 1746C338.37 1754.52 353.06 1769.62 363.15 1779.55C373.24 1789.48 386.69 1802.3 393.03 1808.05C399.37 1813.8 410.17 1823.26 417.03 1829.08C423.89 1834.89 435.12 1844.16 442 1849.67C448.87 1855.18 461.92 1865.21 471 1871.95C480.07 1878.7 498.07 1891.28 511 1899.9C523.92 1908.53 543.27 1920.8 554 1927.19C564.72 1933.57 579.8 1942.25 587.5 1946.48C595.2 1950.71 611.85 1959.26 624.5 1965.48C637.15 1971.7 653.8 1979.57 661.5 1982.97C669.2 1986.37 685.62 1993.2 698 1998.16C710.37 2003.11 732.42 2011.16 747 2016.05C761.57 2020.94 780.7 2026.99 789.5 2029.49C798.3 2032 814.27 2036.25 825 2038.94C835.72 2041.62 853.5 2045.65 864.5 2047.89C875.5 2050.13 892.6 2053.3 902.5 2054.93C912.4 2056.57 927.47 2058.81 936 2059.93C944.52 2061.04 958.25 2062.62 966.5 2063.43C974.75 2064.25 988.7 2065.5 997.5 2066.21C1007.87 2067.05 1032.14 2067.5 1066.5 2067.5C1100.86 2067.5 1125.13 2067.05 1135.5 2066.21C1144.3 2065.5 1158.25 2064.25 1166.5 2063.43C1174.75 2062.62 1188.47 2061.04 1197 2059.93C1205.52 2058.81 1220.6 2056.57 1230.5 2054.93C1240.4 2053.3 1257.5 2050.13 1268.5 2047.89C1279.5 2045.65 1297.27 2041.62 1308 2038.94C1318.72 2036.25 1334.7 2032 1343.5 2029.49C1352.3 2026.99 1371.42 2020.94 1386 2016.05C1400.57 2011.16 1422.62 2003.11 1435 1998.16C1447.37 1993.2 1463.8 1986.37 1471.5 1982.97C1479.2 1979.57 1495.85 1971.7 1508.5 1965.48C1521.15 1959.26 1537.8 1950.71 1545.5 1946.48C1553.2 1942.25 1568.27 1933.57 1579 1927.19C1589.72 1920.8 1609.07 1908.53 1622 1899.9C1634.92 1891.28 1652.92 1878.7 1662 1871.95C1671.07 1865.21 1684.12 1855.18 1691 1849.67C1697.87 1844.16 1709.11 1834.89 1715.97 1829.08C1722.83 1823.26 1733.63 1813.8 1739.97 1808.05C1746.31 1802.3 1759.76 1789.48 1769.85 1779.55C1779.94 1769.62 1794.63 1754.52 1802.49 1746C1810.36 1737.47 1821.61 1724.87 1827.51 1718C1833.4 1711.12 1843.27 1699.2 1849.45 1691.5C1855.62 1683.8 1866.2 1670.07 1872.95 1661C1879.7 1651.92 1892.28 1633.92 1900.9 1621C1909.53 1608.07 1921.8 1588.72 1928.19 1578C1934.57 1567.27 1943.25 1552.2 1947.48 1544.5C1951.71 1536.8 1960.26 1520.15 1966.48 1507.5C1972.7 1494.85 1980.57 1478.2 1983.97 1470.5C1987.37 1462.8 1994.2 1446.37 1999.16 1434C2004.11 1421.62 2012.16 1399.57 2017.05 1385C2021.94 1370.42 2027.99 1351.3 2030.49 1342.5C2033 1333.7 2037.25 1317.72 2039.94 1307C2042.62 1296.27 2046.65 1278.5 2048.89 1267.5C2051.13 1256.5 2054.3 1239.4 2055.93 1229.5C2057.57 1219.6 2059.81 1204.52 2060.92 1196C2062.02 1187.47 2063.4 1176 2063.98 1170.5C2064.56 1165 2065.74 1152.17 2066.59 1142C2067.51 1131.07 2068.38 1105.51 2068.71 1079.5C2069.07 1051.08 2068.85 1028.06 2068.09 1014.5C2067.45 1002.95 2066.25 985.85 2065.43 976.5C2064.61 967.15 2062.81 950.5 2061.43 939.5C2060.05 928.5 2057.16 909.15 2055.01 896.5C2052.87 883.85 2049.72 866.97 2048.02 859C2046.32 851.02 2043.13 837.07 2040.93 828C2038.73 818.92 2034.5 802.95 2031.54 792.5C2028.57 782.05 2023.58 765.62 2020.45 756C2017.32 746.37 2011.95 730.85 2008.51 721.5C2005.07 712.15 1999.23 697.07 1995.52 688C1991.82 678.92 1986.09 665.42 1982.78 658C1979.47 650.57 1976.36 644.05 1975.87 643.5C1975.28 642.85 1974.97 642.94 1974.98 643.75C1975 644.64 1972.01 645.16 1964.75 645.54ZM1929.2 1118.5L1931.14 1123C1932.21 1125.47 1933.51 1130.31 1934.04 1133.75C1934.9 1139.33 1934.75 1140.61 1932.63 1145.75C1930.63 1150.6 1930.17 1153.86 1929.68 1166.5C1929.36 1174.75 1928.4 1186.67 1927.55 1193C1926.7 1199.32 1925.3 1208.32 1924.44 1213C1923.58 1217.67 1921.34 1227.57 1919.47 1235C1917.6 1242.42 1914.31 1253.67 1912.17 1260C1910.03 1266.32 1906.59 1275.55 1904.53 1280.5C1902.47 1285.45 1899.21 1292.65 1897.28 1296.5C1895.35 1300.35 1893.59 1303.72 1893.38 1304C1893.17 1304.27 1891.98 1303.5 1890.75 1302.27C1889.51 1301.05 1887.26 1300.03 1885.75 1300.02C1884.24 1300.01 1882.1 1300.9 1881 1302C1879.9 1303.1 1879.21 1304.79 1879.46 1305.75C1879.71 1306.71 1880.59 1311.55 1881.42 1316.5C1882.25 1321.45 1883.44 1330.45 1884.07 1336.5C1884.7 1342.55 1885.2 1357.85 1885.17 1370.5C1885.15 1384.29 1884.5 1399.5 1883.55 1408.5C1882.67 1416.75 1880.84 1430.36 1879.48 1438.75C1878.11 1447.14 1875.63 1460.19 1873.96 1467.75C1872.29 1475.31 1868.88 1488.92 1866.37 1498C1863.87 1507.07 1858.88 1523.27 1855.29 1534C1851.71 1544.72 1845.06 1562.72 1840.53 1574C1836 1585.27 1829.66 1600.35 1826.44 1607.5C1823.22 1614.65 1815.76 1630.17 1809.87 1642C1803.97 1653.82 1795 1670.92 1789.94 1680C1784.87 1689.07 1776.69 1703.25 1771.75 1711.5C1766.81 1719.75 1755.91 1736.85 1747.52 1749.5C1739.13 1762.15 1725.51 1781.5 1717.26 1792.5C1709.01 1803.5 1697.53 1818.12 1691.76 1825C1685.98 1831.87 1677.62 1841.32 1665.09 1854.5L1665.02 1844.5C1664.97 1836.74 1664.51 1833.55 1662.98 1830.25C1661.89 1827.91 1659.54 1825.07 1657.75 1823.94C1655.25 1822.35 1653.35 1821.97 1649.5 1822.3C1646.6 1822.55 1641.58 1824.15 1637.53 1826.11C1631.97 1828.82 1627.53 1832.41 1615.53 1843.92C1607.26 1851.85 1596.22 1862.15 1591 1866.81C1585.77 1871.47 1576.1 1879.62 1569.5 1884.92C1562.9 1890.22 1553 1897.77 1547.5 1901.69C1542 1905.62 1531.42 1912.72 1524 1917.47C1516.57 1922.22 1501.05 1930.79 1489.5 1936.5C1477.95 1942.21 1463.1 1948.88 1456.5 1951.32C1449.9 1953.76 1438.2 1957.57 1430.5 1959.79C1422.8 1962.01 1410.42 1964.99 1403 1966.4C1395.57 1967.82 1383.42 1969.73 1376 1970.64C1366.65 1971.79 1354.51 1972.31 1336.5 1972.33C1318.62 1972.34 1305.66 1971.82 1295 1970.65C1286.47 1969.71 1273.65 1968.02 1266.5 1966.89C1259.35 1965.76 1246.97 1963.49 1239 1961.85C1231.02 1960.21 1216.4 1956.85 1206.5 1954.38C1196.6 1951.91 1179.72 1947.41 1169 1944.39C1158.27 1941.36 1131.5 1933.54 1109.5 1927C1087.5 1920.46 1060.27 1912.57 1049 1909.46C1037.72 1906.36 1020.4 1901.89 1010.5 1899.54C1000.6 1897.2 988.33 1894.43 983.24 1893.39C978.15 1892.35 973.98 1891.27 973.97 1891C973.97 1890.72 986.01 1887.25 1000.73 1883.28C1015.45 1879.32 1061.25 1867.26 1102.5 1856.49C1143.75 1845.72 1188.52 1833.96 1202 1830.35C1215.47 1826.75 1237.52 1820.67 1251 1816.84C1264.47 1813.02 1283.82 1807.16 1294 1803.83C1304.17 1800.5 1318.8 1795.3 1326.5 1792.27C1334.2 1789.24 1345.22 1784.39 1351 1781.5C1356.77 1778.61 1365.77 1773.4 1371 1769.92C1376.38 1766.34 1384.64 1759.46 1390.06 1754.05C1396 1748.11 1402.38 1740.34 1406.94 1733.5C1410.98 1727.45 1418.45 1713.95 1423.54 1703.5C1428.64 1693.05 1439.34 1669.42 1447.32 1651C1455.29 1632.57 1466.08 1608.27 1471.28 1597C1476.47 1585.72 1483.71 1570.54 1487.36 1563.25C1491.01 1555.96 1496.51 1543.36 1499.58 1535.25C1502.65 1527.14 1507.82 1514.2 1511.06 1506.5C1514.3 1498.8 1520.95 1484.4 1525.83 1474.5C1530.72 1464.6 1537.3 1452 1540.46 1446.5C1543.62 1441 1549.94 1430.87 1554.52 1424C1559.09 1417.12 1566.7 1406.66 1571.42 1400.75C1576.14 1394.84 1584.84 1385 1590.75 1378.89C1596.66 1372.78 1605.94 1364.12 1611.36 1359.64C1616.78 1355.16 1624.88 1348.87 1629.36 1345.67C1633.84 1342.46 1642.67 1336.78 1649 1333.05C1655.32 1329.32 1662.64 1325.08 1665.25 1323.63C1669.6 1321.22 1670.41 1320.14 1674.85 1310.75C1677.51 1305.11 1682.39 1296.9 1685.69 1292.5C1688.98 1288.1 1695.47 1280.88 1700.09 1276.45C1704.72 1272.03 1711.87 1265.9 1716 1262.83C1720.12 1259.77 1727.55 1254.79 1732.5 1251.76C1737.45 1248.74 1747.35 1243.33 1754.5 1239.75C1761.65 1236.16 1772.22 1231.1 1778 1228.5C1783.77 1225.91 1789.74 1222.93 1791.25 1221.89C1792.76 1220.85 1794.9 1218.2 1796 1216C1797.1 1213.8 1799.12 1211.32 1800.5 1210.5C1802.72 1209.17 1803.44 1209.17 1807 1210.5C1809.2 1211.32 1813.59 1212 1816.75 1211.99C1819.91 1211.99 1826.77 1211.35 1832 1210.56C1837.22 1209.78 1845.55 1207.66 1850.5 1205.86C1855.45 1204.05 1863.21 1200.31 1867.75 1197.54C1872.29 1194.77 1879.26 1189.75 1883.25 1186.39C1887.24 1183.03 1893.69 1176.51 1897.59 1171.89C1901.5 1167.28 1907.1 1159.9 1910.04 1155.5C1912.98 1151.1 1917.46 1143.45 1920 1138.5C1922.54 1133.55 1925.65 1127.02 1926.91 1124L1929.2 1118.5ZM99.65 1162.11C99.78 1162.33 102.29 1166.55 105.22 1171.5C108.15 1176.45 113.21 1184.1 116.46 1188.5C119.71 1192.9 127.13 1201.25 132.94 1207.05C139.52 1213.63 147.27 1220.11 153.5 1224.24C159 1227.89 166.65 1232.22 170.5 1233.86C174.35 1235.51 181.1 1237.9 185.5 1239.18C192.44 1241.19 195.7 1241.5 210 1241.5C225.04 1241.5 226.81 1241.31 230 1239.38C233.17 1237.46 233.81 1237.39 236.75 1238.63C238.54 1239.38 240.67 1241.35 241.5 1243C242.32 1244.65 244.24 1246.92 245.75 1248.04C247.26 1249.16 254.8 1252.14 262.5 1254.67C270.2 1257.2 282.8 1261.72 290.5 1264.71C298.2 1267.7 309.22 1272.57 315 1275.53C320.77 1278.49 329.55 1283.6 334.5 1286.89C339.45 1290.18 346.5 1295.49 350.17 1298.69C353.83 1301.88 359.56 1307.65 362.9 1311.5C366.24 1315.35 370.66 1321.37 372.73 1324.87C374.8 1328.37 376.95 1331.56 377.5 1331.95C378.05 1332.34 382.77 1334.15 388 1335.97C393.22 1337.79 403.12 1341.76 410 1344.78C416.87 1347.81 427 1352.74 432.5 1355.73C438 1358.73 447.45 1364.47 453.5 1368.5C459.55 1372.53 469.22 1379.62 475 1384.26C480.77 1388.9 490.92 1398.05 497.55 1404.6C504.19 1411.14 513.84 1421.45 519 1427.5C524.16 1433.55 532.42 1443.9 537.34 1450.5C542.26 1457.1 550.37 1468.57 555.35 1476C560.33 1483.42 569.25 1497.6 575.16 1507.5C581.07 1517.4 591.94 1534.05 599.31 1544.5C606.68 1554.95 618.76 1572.5 626.14 1583.5C633.53 1594.5 648.11 1616.68 658.54 1632.78C668.97 1648.88 681.59 1667.56 686.59 1674.28C691.59 1681 699.47 1690.5 704.09 1695.38C708.72 1700.27 716.32 1707.14 721 1710.65C725.67 1714.17 733.77 1719.24 739 1721.93C744.22 1724.61 753.22 1728.45 759 1730.46C764.77 1732.46 774.67 1735.4 781 1736.99C787.32 1738.58 798.8 1741.02 806.5 1742.4C814.2 1743.79 827.02 1745.84 835 1746.97C842.97 1748.09 861.65 1750.36 876.5 1752C891.35 1753.64 938.6 1758.14 981.5 1762.01C1024.4 1765.87 1079.07 1770.82 1103 1773.02C1126.92 1775.21 1148.97 1777.27 1152 1777.58C1155.02 1777.9 1157.05 1778.52 1156.5 1778.95C1155.95 1779.39 1148.07 1782.69 1139 1786.3C1129.92 1789.91 1115.97 1795.76 1108 1799.3C1100.02 1802.84 1086.3 1809.12 1077.5 1813.25C1068.7 1817.39 1041.25 1830.65 1016.5 1842.74C991.75 1854.83 964.52 1867.89 956 1871.77C947.47 1875.65 933.3 1881.82 924.5 1885.49C915.7 1889.15 901.64 1894.59 893.25 1897.57C884.86 1900.56 872.04 1904.8 864.75 1907C857.46 1909.2 844.75 1912.57 836.5 1914.48C828.25 1916.4 815.65 1918.85 808.5 1919.94C801.35 1921.02 789.65 1922.44 782.5 1923.1C774.21 1923.85 761.16 1924.07 746.5 1923.7C733.85 1923.37 718.32 1922.39 712 1921.52C705.67 1920.64 694.87 1918.78 688 1917.37C681.12 1915.96 668.75 1912.88 660.5 1910.52C652.25 1908.16 638.75 1903.68 630.5 1900.55C622.25 1897.43 604.25 1889.29 590.5 1882.47C576.75 1875.64 558.41 1865.66 549.74 1860.28C541.07 1854.9 526.89 1845.58 518.24 1839.57C508.98 1833.14 499.62 1827.5 495.5 1825.86C490.53 1823.88 486.69 1823.06 482.25 1823.03C478.63 1823.01 474.74 1823.63 473 1824.5C471.35 1825.32 469.26 1827.46 468.36 1829.25C467.4 1831.15 466.71 1834.99 466.69 1838.5C466.67 1841.8 467.23 1846.75 467.93 1849.5C468.63 1852.25 469.04 1855.04 468.85 1855.7C468.65 1856.38 464.3 1853.55 458.86 1849.2C453.56 1844.97 442.37 1835.2 433.98 1827.5C425.6 1819.8 411.49 1805.83 402.62 1796.45C393.75 1787.08 381.38 1773.58 375.12 1766.45C368.86 1759.33 359.61 1748.55 354.55 1742.5C349.5 1736.45 340.86 1725.87 335.35 1719C329.84 1712.12 319.26 1698.4 311.83 1688.5C304.4 1678.6 293.58 1663.75 287.79 1655.5C282 1647.25 272.1 1632.62 265.79 1623C259.48 1613.37 250.49 1599.2 245.82 1591.5C241.14 1583.8 232.67 1569.17 226.99 1559C221.3 1548.82 212.49 1531.95 207.4 1521.5C202.31 1511.05 195.15 1495.3 191.51 1486.5C187.86 1477.7 182.67 1463.97 179.99 1456C177.3 1448.02 173.55 1435.2 171.65 1427.5C169.76 1419.8 167.41 1408.32 166.44 1402C165.35 1394.94 164.64 1384.52 164.6 1375C164.56 1363.31 165.03 1357.11 166.52 1349.75C168.28 1341.08 168.33 1339.83 167 1338.43C166.17 1337.57 164.15 1336.86 162.5 1336.86C160.6 1336.87 158.59 1337.81 154.5 1342.02L146.85 1329.26C142.64 1322.24 137.4 1312.9 135.21 1308.5C133.02 1304.1 129.21 1295.77 126.75 1290C124.28 1284.22 119.91 1272.3 117.04 1263.5C114.16 1254.7 110.53 1242.1 108.96 1235.5C107.39 1228.9 105.18 1218.1 104.04 1211.5C102.91 1204.9 102 1198.37 102.02 1197C102.03 1195.62 100.63 1191.8 98.9 1188.5C95.97 1182.93 95.78 1181.97 96.24 1175C96.52 1170.87 97.34 1166.2 98.07 1164.61C98.8 1163.02 99.51 1161.9 99.65 1162.11ZM574 1301.48C602.89 1301.7 618.66 1302.25 629 1303.41C636.97 1304.3 650.47 1306.17 659 1307.56C667.52 1308.95 682.82 1312.14 693 1314.64C703.17 1317.14 717.12 1321.18 724 1323.62C730.87 1326.06 736.95 1328.46 737.5 1328.95C738.1 1329.48 732.25 1330.03 723 1330.3C714.47 1330.56 706.45 1331.15 705.17 1331.63C703.15 1332.39 703.98 1332.93 711.67 1335.87C716.53 1337.72 725.45 1341.71 731.5 1344.74C737.55 1347.76 745.65 1352.27 749.5 1354.76C753.35 1357.25 759.87 1361.85 764 1364.98C768.12 1368.11 775.72 1374.68 780.87 1379.58C786.03 1384.49 793.51 1392.55 797.51 1397.5C801.51 1402.45 807.32 1410.32 810.42 1415C813.53 1419.67 818.7 1428.67 821.92 1435C825.14 1441.32 829.45 1451 831.49 1456.5C833.54 1462 836.49 1471.45 838.06 1477.5C839.62 1483.55 841.6 1492.55 842.44 1497.5C843.29 1502.45 844.44 1513.14 844.99 1521.25C845.67 1531.18 845.67 1540.82 844.99 1550.75C844.43 1558.86 843.3 1570 842.47 1575.5C841.64 1581 839.81 1590.67 838.4 1597C837 1603.32 832.99 1617.05 829.51 1627.5C826.02 1637.95 820.99 1651.41 818.34 1657.42C815.68 1663.42 813.05 1668.48 812.5 1668.65C811.95 1668.83 810.49 1664.82 809.26 1659.74C807.86 1653.95 804.81 1646.01 801.11 1638.5C797.86 1631.9 792.34 1622.45 788.85 1617.5C785.36 1612.56 777.55 1603.51 771.5 1597.41C765.45 1591.3 756 1582.96 750.5 1578.88C745 1574.8 736.67 1569.15 732 1566.34C727.32 1563.52 718.55 1558.75 712.5 1555.72C706.45 1552.7 697 1548.35 691.5 1546.06C686 1543.78 674.75 1539.72 666.5 1537.05C658.25 1534.38 644.97 1530.62 637 1528.68C629.02 1526.75 620.02 1524.69 611.5 1523.03L594.84 1495.26C585.67 1479.99 573.13 1459.85 566.95 1450.5C560.78 1441.15 551.78 1428.32 546.95 1422C542.13 1415.67 534.47 1406.45 529.94 1401.5C525.4 1396.55 518.27 1389.41 514.1 1385.63C509.92 1381.86 503.35 1376.4 499.5 1373.5C495.65 1370.61 488.67 1365.86 484 1362.96C479.32 1360.06 469.87 1354.88 463 1351.46C456.12 1348.03 443.07 1342.3 434 1338.72C424.92 1335.15 412.21 1330.48 405.74 1328.36C399.27 1326.24 393.99 1324.16 393.99 1323.75C394 1323.34 395.69 1322.55 397.75 1322C399.81 1321.45 409.37 1319.22 419 1317.04C428.62 1314.86 444.82 1311.7 455 1310.03C465.17 1308.35 481.6 1306.08 491.5 1304.97C501.4 1303.86 514.9 1302.55 521.5 1302.06C528.1 1301.57 551.72 1301.31 574 1301.48ZM1596.5 1313.61C1619.6 1313.85 1641.31 1314.26 1644.75 1314.52C1648.19 1314.79 1651 1315.45 1651 1316C1651 1316.55 1647.96 1318.52 1644.25 1320.38C1640.54 1322.24 1631.42 1327.24 1624 1331.49C1616.57 1335.74 1606 1342.16 1600.5 1345.75C1595 1349.34 1586.01 1355.7 1580.51 1359.89C1575.02 1364.07 1565.32 1372.67 1558.96 1379C1552.6 1385.32 1543.89 1395.22 1539.6 1401C1535.31 1406.77 1528.92 1416.34 1525.4 1422.25C1521.88 1428.16 1515.91 1439.19 1512.13 1446.75C1508.35 1454.31 1502.9 1465.9 1500.03 1472.5C1497.16 1479.1 1491.31 1493.27 1487.04 1504C1482.77 1514.72 1477.16 1529.12 1469.88 1548.5L1462.19 1551.4C1457.96 1553 1447.52 1557.4 1439 1561.19C1430.47 1564.98 1417.65 1571.31 1410.5 1575.25C1403.35 1579.19 1392.32 1585.85 1386 1590.03C1379.67 1594.22 1370 1601.26 1364.5 1605.69C1359 1610.11 1349.32 1619.1 1343 1625.67C1336.67 1632.23 1328.57 1641.74 1325 1646.81C1321.42 1651.87 1316.77 1659.05 1314.65 1662.76C1312.54 1666.47 1309.07 1673.55 1306.95 1678.5C1304.83 1683.45 1301.96 1691.77 1300.56 1697C1299.17 1702.22 1297.56 1711 1296.98 1716.5C1296.39 1722 1295.83 1726.63 1295.71 1726.78C1295.59 1726.94 1292.32 1722.22 1288.44 1716.28C1284.55 1710.35 1279.06 1701.45 1276.24 1696.5C1273.42 1691.55 1268.21 1681.42 1264.67 1674C1261.12 1666.57 1256.18 1654.87 1253.69 1648C1251.2 1641.12 1247.79 1630.32 1246.11 1624C1244.44 1617.67 1242.15 1607.32 1241.03 1601C1239.91 1594.67 1238.57 1582.97 1238.05 1575C1237.45 1565.96 1237.44 1555.42 1238.02 1547C1238.53 1539.57 1239.66 1529.45 1240.52 1524.5C1241.38 1519.55 1242.95 1512.12 1244 1508C1245.05 1503.87 1247.55 1495.77 1249.56 1490C1251.58 1484.22 1254.89 1475.9 1256.92 1471.5C1258.95 1467.1 1263.27 1459 1266.51 1453.5C1269.75 1448 1275.78 1439 1279.91 1433.5C1284.04 1428 1292.63 1418.32 1298.99 1412C1305.35 1405.67 1314.24 1397.8 1318.75 1394.5C1323.25 1391.2 1331.11 1385.96 1336.22 1382.86C1341.32 1379.76 1345.69 1376.61 1345.93 1375.86C1346.28 1374.75 1345 1374.64 1338.93 1375.29C1334.84 1375.73 1327.67 1376.79 1323 1377.65C1318.32 1378.51 1313.82 1379.03 1313 1378.79C1312.14 1378.55 1315.32 1376.22 1320.5 1373.32C1325.45 1370.54 1333.1 1366.46 1337.5 1364.25C1341.9 1362.03 1350.22 1358.2 1356 1355.73C1361.77 1353.26 1372.24 1349.16 1379.25 1346.62C1386.26 1344.08 1399.09 1339.93 1407.75 1337.39C1416.41 1334.86 1430.25 1331.24 1438.5 1329.34C1446.75 1327.45 1462.5 1324.37 1473.5 1322.5C1484.5 1320.62 1501.82 1318.16 1512 1317.02C1522.17 1315.89 1535.9 1314.55 1542.5 1314.06C1549.1 1313.57 1573.4 1313.37 1596.5 1313.61Z" />
</svg>
