<svg version="1.2" baseProfile="tiny-ps" xmlns="http://www.w3.org/2000/svg" viewBox="0 0 1904 1903" width="1904" height="1903">
	<title>Path 0</title>
	<style>
		tspan { white-space:pre }
		.shp0 { fill: #44c2bc }
	</style>
	<path id="Path 0" fill-rule="evenodd" class="shp0" d="M950.25 0.14C972.66 0.06 996.29 0.44 1002.75 0.98C1009.21 1.53 1023.27 2.68 1034 3.55C1044.72 4.41 1062.05 6.2 1072.5 7.51C1082.95 8.82 1099.82 11.3 1110 13.01C1120.17 14.72 1136.15 17.69 1145.5 19.61C1154.85 21.53 1170.6 25.09 1180.5 27.52C1190.4 29.94 1205.7 33.99 1214.5 36.5C1223.3 39.02 1241.75 44.83 1255.5 49.42C1269.25 54.02 1289.05 61.14 1299.5 65.26C1309.95 69.37 1327.5 76.72 1338.5 81.57C1349.5 86.43 1368.85 95.65 1381.5 102.06C1394.15 108.47 1412.38 118.22 1422 123.72C1431.62 129.22 1444.22 136.64 1450 140.21C1455.77 143.78 1465.22 149.76 1471 153.48C1476.77 157.21 1487.35 164.34 1494.5 169.32C1501.65 174.31 1513.8 183.11 1521.5 188.87C1529.2 194.63 1539.55 202.56 1544.5 206.49C1549.45 210.41 1559.8 218.96 1567.5 225.47C1575.2 231.99 1586.22 241.63 1592 246.89C1597.77 252.15 1610.31 264.11 1619.85 273.48C1629.39 282.84 1643.63 297.47 1651.49 306C1659.35 314.52 1671.32 328.02 1678.08 336C1684.83 343.97 1693.58 354.55 1697.51 359.5C1701.44 364.45 1709.37 374.8 1715.13 382.5C1720.89 390.2 1729.69 402.35 1734.68 409.5C1739.66 416.65 1746.79 427.22 1750.52 433C1754.24 438.77 1760.22 448.22 1763.79 454C1767.36 459.77 1774.78 472.37 1780.28 482C1785.78 491.62 1795.53 509.85 1801.94 522.5C1808.35 535.15 1817.57 554.5 1822.43 565.5C1827.28 576.5 1834.63 594.05 1838.74 604.5C1842.86 614.95 1849.98 634.75 1854.58 648.5C1859.17 662.25 1864.98 680.7 1867.5 689.5C1870.01 698.3 1874.06 713.6 1876.48 723.5C1878.91 733.4 1882.47 749.15 1884.39 758.5C1886.31 767.85 1889.28 783.82 1890.99 794C1892.7 804.17 1895.18 821.05 1896.49 831.5C1897.8 841.95 1899.59 859.27 1900.46 870C1901.33 880.72 1902.49 895.01 1903.02 901.75C1903.56 908.49 1904 930.54 1904 950.75C1904.01 970.96 1903.55 993.57 1902.99 1001C1902.43 1008.42 1901.28 1023.05 1900.43 1033.5C1899.57 1043.95 1897.8 1061.05 1896.49 1071.5C1895.18 1081.95 1892.7 1098.82 1890.99 1109C1889.28 1119.17 1886.31 1135.15 1884.39 1144.5C1882.47 1153.85 1878.91 1169.6 1876.48 1179.5C1874.06 1189.4 1870.01 1204.7 1867.5 1213.5C1864.98 1222.3 1859.17 1240.75 1854.58 1254.5C1849.98 1268.25 1842.86 1288.05 1838.74 1298.5C1834.63 1308.95 1827.28 1326.5 1822.43 1337.5C1817.57 1348.5 1808.35 1367.85 1801.94 1380.5C1795.53 1393.15 1785.78 1411.38 1780.28 1421C1774.78 1430.62 1767.36 1443.22 1763.79 1449C1760.22 1454.77 1754.24 1464.22 1750.52 1470C1746.79 1475.77 1739.66 1486.35 1734.68 1493.5C1729.69 1500.65 1720.89 1512.8 1715.13 1520.5C1709.37 1528.2 1701.44 1538.55 1697.51 1543.5C1693.58 1548.45 1684.83 1559.02 1678.08 1567C1671.32 1574.97 1659.35 1588.47 1651.49 1597C1643.63 1605.52 1629.39 1620.16 1619.85 1629.52C1610.31 1638.89 1597.77 1650.85 1592 1656.11C1586.22 1661.37 1575.2 1671.01 1567.5 1677.52C1559.8 1684.04 1549.45 1692.59 1544.5 1696.51C1539.55 1700.44 1529.2 1708.37 1521.5 1714.13C1513.8 1719.89 1501.65 1728.69 1494.5 1733.68C1487.35 1738.66 1476.77 1745.79 1471 1749.52C1465.22 1753.24 1455.77 1759.22 1450 1762.79C1444.22 1766.36 1431.62 1773.78 1422 1779.28C1412.38 1784.78 1394.15 1794.53 1381.5 1800.94C1368.85 1807.35 1349.5 1816.57 1338.5 1821.43C1327.5 1826.28 1309.95 1833.63 1299.5 1837.74C1289.05 1841.86 1269.25 1848.98 1255.5 1853.58C1241.75 1858.17 1223.3 1863.98 1214.5 1866.5C1205.7 1869.01 1190.4 1873.06 1180.5 1875.48C1170.6 1877.91 1154.85 1881.47 1145.5 1883.39C1136.15 1885.31 1120.17 1888.28 1110 1889.99C1099.82 1891.7 1082.95 1894.18 1072.5 1895.49C1062.05 1896.8 1044.72 1898.59 1034 1899.45C1023.27 1900.32 1009.21 1901.47 1002.75 1902.02C996.29 1902.56 973.67 1903 952.5 1903C931.32 1903 908.71 1902.56 902.25 1902.02C895.79 1901.47 881.72 1900.32 871 1899.45C860.27 1898.59 842.95 1896.8 832.5 1895.49C822.05 1894.18 805.17 1891.7 795 1889.99C784.82 1888.28 768.85 1885.3 759.5 1883.37C750.15 1881.44 736.2 1878.36 728.5 1876.51C720.8 1874.66 707.97 1871.35 700 1869.15C692.02 1866.94 678.86 1863.08 670.75 1860.57C658.27 1856.7 655.31 1856.12 651.52 1856.75C649.06 1857.16 647.03 1857.27 647 1857C646.98 1856.72 647.54 1855.94 648.23 1855.27C648.93 1854.59 649.27 1853.88 649 1853.69C648.72 1853.5 642.87 1851.42 636 1849.06C629.12 1846.71 615.17 1841.51 605 1837.51C594.82 1833.51 579.07 1826.99 570 1823.02C560.92 1819.05 543.6 1810.92 531.5 1804.96C519.4 1798.99 502.07 1789.98 493 1784.93C483.92 1779.87 469.75 1771.66 461.5 1766.68C453.25 1761.7 441.32 1754.27 435 1750.18C428.67 1746.08 417.65 1738.65 410.5 1733.67C403.35 1728.69 391.2 1719.89 383.5 1714.13C375.8 1708.37 365.45 1700.44 360.5 1696.51C355.55 1692.59 345.2 1684.04 337.5 1677.51C329.8 1670.99 316.52 1659.24 308 1651.41C299.47 1643.58 284.6 1629.15 274.95 1619.34C265.3 1609.53 253.11 1596.77 247.86 1591C242.62 1585.22 232.99 1574.2 226.47 1566.5C219.96 1558.8 211.41 1548.45 207.49 1543.5C203.56 1538.55 195.63 1528.2 189.87 1520.5C184.11 1512.8 175.31 1500.65 170.33 1493.5C165.35 1486.35 157.92 1475.32 153.82 1469C149.73 1462.67 142.3 1450.75 137.32 1442.5C132.34 1434.25 124.13 1420.07 119.07 1411C114.02 1401.92 105.01 1384.6 99.04 1372.5C93.08 1360.4 84.95 1343.07 80.98 1334C77.01 1324.92 70.39 1308.95 66.27 1298.5C62.15 1288.05 55.02 1268.25 50.42 1254.5C45.83 1240.75 40.02 1222.3 37.5 1213.5C34.99 1204.7 30.94 1189.4 28.52 1179.5C26.09 1169.6 22.53 1153.85 20.61 1144.5C18.69 1135.15 15.72 1119.17 14.01 1109C12.3 1098.82 9.82 1081.95 8.51 1071.5C7.2 1061.05 5.41 1043.72 4.54 1033C3.67 1022.27 2.51 1007.99 1.98 1001.25C1.44 994.51 1 972.46 1 952.25C0.99 932.04 1.45 909.42 2.01 902C2.57 894.57 3.72 879.95 4.57 869.5C5.43 859.05 7.2 841.95 8.51 831.5C9.82 821.05 12.3 804.17 14.01 794C15.72 783.82 18.69 767.85 20.61 758.5C22.53 749.15 26.09 733.4 28.52 723.5C30.94 713.6 34.99 698.3 37.5 689.5C40.02 680.7 45.83 662.25 50.42 648.5C55.02 634.75 62.15 614.95 66.27 604.5C70.39 594.05 77.01 578.07 80.98 569C84.95 559.92 93.08 542.6 99.04 530.5C105.01 518.4 114.02 501.07 119.07 492C124.13 482.92 132.34 468.75 137.32 460.5C142.3 452.25 149.73 440.32 153.82 434C157.92 427.67 165.35 416.65 170.33 409.5C175.31 402.35 184.11 390.2 189.87 382.5C195.63 374.8 203.56 364.45 207.49 359.5C211.41 354.55 219.96 344.2 226.49 336.5C233.01 328.8 244.76 315.52 252.59 307C260.42 298.47 274.85 283.6 284.66 273.95C294.47 264.3 307.22 252.11 313 246.86C318.77 241.62 329.8 231.99 337.5 225.47C345.2 218.96 355.55 210.41 360.5 206.49C365.45 202.56 375.8 194.63 383.5 188.87C391.2 183.11 403.35 174.31 410.5 169.33C417.65 164.35 428.67 156.92 435 152.82C441.32 148.73 453.25 141.3 461.5 136.32C469.75 131.34 483.92 123.13 493 118.07C502.07 113.02 519.4 104.01 531.5 98.04C543.6 92.08 560.92 83.95 570 79.98C579.07 76.01 595.05 69.39 605.5 65.27C615.95 61.15 635.75 54.02 649.5 49.42C663.25 44.83 681.7 39.02 690.5 36.5C699.3 33.99 714.6 29.94 724.5 27.52C734.4 25.09 750.15 21.53 759.5 19.61C768.85 17.69 784.82 14.72 795 13.01C805.17 11.3 822.05 8.82 832.5 7.5C842.95 6.19 860.27 4.41 871 3.54C881.72 2.67 894.77 1.58 900 1.12C905.22 0.65 927.84 0.21 950.25 0.14ZM822 67.97C810.72 69.62 793.17 72.58 783 74.55C772.82 76.53 757.07 79.87 748 81.97C738.92 84.08 728.8 86.59 725.5 87.54C720.83 88.9 719.94 89.44 721.5 89.99C722.6 90.38 726.87 91.01 731 91.38C735.12 91.75 743.9 92.96 750.5 94.08C757.1 95.19 768.69 97.65 776.25 99.55C783.81 101.45 795.06 104.62 801.25 106.6C807.44 108.59 818.8 112.68 826.5 115.7C834.2 118.72 849.05 125.38 859.5 130.5C869.95 135.62 884.8 143.51 892.5 148.04C900.2 152.57 913.25 160.79 921.5 166.3C929.75 171.8 942.57 180.85 950 186.39C957.42 191.93 968.9 200.94 975.5 206.41C982.1 211.88 993.33 221.56 1000.46 227.93C1007.59 234.29 1020.19 246.08 1028.46 254.13C1036.73 262.18 1050.25 276.04 1058.5 284.95C1066.75 293.85 1073.61 300.66 1073.75 300.07C1073.89 299.48 1070.37 290.79 1065.94 280.75C1061.5 270.71 1053.7 254.4 1048.6 244.5C1043.49 234.6 1035.57 220.2 1030.99 212.5C1026.41 204.8 1019.52 193.77 1015.67 188C1011.83 182.22 1004.85 172.32 1000.18 166C995.51 159.67 988.29 150.45 984.15 145.5C980.01 140.55 972.55 132.05 967.56 126.61C962.58 121.18 953.53 112.18 947.45 106.61C941.38 101.05 932.15 93.1 926.95 88.95C921.75 84.81 914.35 79.14 910.5 76.37C906.65 73.6 899.79 69.01 895.25 66.17C888.48 61.93 886.24 61.02 882.75 61.1C880.41 61.16 870.4 62.06 860.5 63.09C850.6 64.13 833.27 66.33 822 67.97ZM1071 71.28C1078.42 74.27 1089.67 79.31 1096 82.49C1102.32 85.67 1112 90.97 1117.5 94.28C1123 97.58 1131.32 103.01 1136 106.33C1140.67 109.65 1148.1 115.3 1152.5 118.87C1156.9 122.45 1164.72 129.23 1169.88 133.94C1175.03 138.65 1183.81 147.61 1189.38 153.87C1194.94 160.12 1202.87 169.57 1207 174.88C1211.12 180.19 1217.7 189.25 1221.61 195.01C1225.52 200.78 1232.24 211.35 1236.54 218.5C1240.84 225.65 1248.72 240.27 1254.06 251C1259.4 261.72 1266.7 277.47 1270.28 286C1273.85 294.52 1278.74 306.67 1281.14 313L1285.5 324.5C1285.99 314.42 1285.64 305.42 1285.03 298C1284.43 290.57 1283.25 279.77 1282.4 274C1281.56 268.22 1279.73 258.32 1278.34 252C1276.95 245.67 1273.58 233.75 1270.86 225.5C1267.89 216.48 1262.59 203.72 1257.56 193.5C1252.97 184.15 1245.63 171.1 1241.25 164.5C1236.87 157.9 1229.53 147.77 1224.94 142C1220.35 136.22 1212.76 127.22 1208.08 122C1203.39 116.77 1194.38 106.87 1188.06 100C1181.74 93.12 1176.1 87.19 1175.53 86.8C1174.97 86.42 1166.85 84.31 1157.5 82.12C1148.15 79.93 1132.17 76.53 1122 74.55C1111.82 72.58 1094.39 69.62 1083.25 67.98C1072.11 66.34 1061.54 64.99 1059.75 64.97C1057.96 64.96 1056.72 65.15 1057 65.4C1057.27 65.65 1063.57 68.3 1071 71.28ZM582 138.73C572.92 142.86 559.65 149.17 552.5 152.76C545.35 156.34 532.52 163.1 524 167.77C515.47 172.45 501.75 180.32 493.5 185.26C485.25 190.21 470.17 199.76 460 206.48C449.82 213.21 434.3 224.01 425.5 230.48C416.7 236.95 403.2 247.28 395.5 253.43C387.8 259.59 374.75 270.49 366.5 277.65C358.25 284.82 344.52 297.35 336 305.49C327.47 313.64 314.02 327.1 306.09 335.4C298.16 343.71 285.82 357.25 278.65 365.5C271.49 373.75 260.59 386.8 254.43 394.5C248.28 402.2 237.95 415.7 231.48 424.5C225.01 433.3 214.21 448.82 207.48 459C200.76 469.17 191.21 484.25 186.26 492.5C181.32 500.75 173.45 514.47 168.77 523C164.1 531.52 157.34 544.35 153.76 551.5C150.17 558.65 143.55 572.6 139.03 582.5C134.51 592.4 127.06 609.95 122.46 621.5C117.87 633.05 110.91 651.95 107 663.5C103.09 675.05 97.48 692.82 94.53 703C91.58 713.17 87.29 729.15 85 738.5C82.71 747.85 78.87 765.4 76.47 777.5C74.07 789.6 70.76 808.72 69.11 820C67.46 831.27 65.19 849.72 64.07 861C62.95 872.27 61.53 889.15 60.9 898.5C60.28 907.85 59.77 931.7 59.77 951.5C59.77 971.3 60.28 995.15 60.9 1004.5C61.53 1013.85 62.95 1030.72 64.07 1042C65.19 1053.27 67.46 1071.72 69.11 1083C70.76 1094.27 74.07 1113.4 76.47 1125.5C78.87 1137.6 82.71 1155.15 85 1164.5C87.29 1173.85 91.58 1189.82 94.53 1200C97.48 1210.17 103.09 1227.95 107 1239.5C110.91 1251.05 117.87 1269.95 122.46 1281.5C127.06 1293.05 134.51 1310.6 139.03 1320.5C143.55 1330.4 150.17 1344.35 153.76 1351.5C157.34 1358.65 164.1 1371.47 168.77 1380C173.45 1388.52 181.32 1402.25 186.26 1410.5C191.21 1418.75 200.76 1433.82 207.48 1444C214.21 1454.17 225.01 1469.7 231.48 1478.5C237.95 1487.3 248.28 1500.8 254.43 1508.5C260.59 1516.2 271.49 1529.25 278.65 1537.5C285.82 1545.75 298.35 1559.47 306.49 1568C314.64 1576.52 328.1 1589.98 336.4 1597.91C344.71 1605.84 358.25 1618.18 366.5 1625.35C374.75 1632.51 387.8 1643.41 395.5 1649.57C403.2 1655.72 416.7 1666.05 425.5 1672.52C434.3 1678.99 449.82 1689.79 460 1696.52C470.17 1703.24 485.25 1712.79 493.5 1717.74C501.75 1722.68 515.47 1730.55 524 1735.23C532.52 1739.9 545.35 1746.66 552.5 1750.24C559.65 1753.83 573.37 1760.35 583 1764.75C592.62 1769.15 609.72 1776.45 621 1780.97C632.27 1785.5 654.1 1793.41 669.5 1798.55C684.9 1803.68 706.72 1810.4 718 1813.47C729.27 1816.54 741.42 1819.58 745 1820.22C750.09 1821.14 753.45 1821.12 760.5 1820.11C765.45 1819.4 772.89 1817.63 777.03 1816.16C781.17 1814.7 788.37 1811.03 793.03 1808.02C797.69 1805 811.4 1795.82 823.5 1787.62C835.6 1779.42 865.72 1758.72 890.44 1741.61C915.15 1724.5 969.77 1686.42 1011.82 1657L1088.26 1603.5C1090.01 1596.23 1091.81 1592.81 1093.5 1591.01C1095.15 1589.25 1098.07 1587.02 1100 1586.04C1103.39 1584.32 1103.56 1583.96 1105.38 1574.38C1106.42 1568.95 1108.71 1556.62 1110.48 1547C1112.25 1537.37 1113.5 1529.27 1113.26 1529C1113.02 1528.72 1093.17 1527.96 1069.16 1527.3C1045.15 1526.64 1020.55 1526.08 1014.5 1526.07L1003.5 1526.05C1012.46 1534.15 1015.05 1536.72 1015.04 1537C1015.03 1537.27 1011.76 1537.87 1007.76 1538.33C1003.77 1538.78 998.47 1540.04 996 1541.12C993.52 1542.21 989.77 1544.76 987.66 1546.8C985.55 1548.83 979.7 1556.53 974.66 1563.91C969.62 1571.28 962.76 1580.5 959.42 1584.41C956.08 1588.31 948.75 1595.77 943.14 1601C937.53 1606.22 932.62 1610.17 932.22 1609.76C931.82 1609.35 935.19 1601.48 939.71 1592.26C944.22 1583.04 949.46 1571.45 951.35 1566.5C953.23 1561.55 956.17 1551.65 957.87 1544.5C959.57 1537.35 961.65 1528.12 962.49 1524C963.33 1519.87 964.83 1515.15 965.82 1513.5C966.81 1511.85 969.39 1509.64 971.56 1508.59C974.84 1507.01 979.16 1506.54 997.5 1505.78C1009.6 1505.28 1041.66 1505.13 1068.75 1505.44C1095.84 1505.75 1117.99 1505.89 1117.99 1505.75C1117.98 1505.61 1121.59 1485.25 1126.02 1460.5C1130.44 1435.75 1136.74 1399.75 1140.03 1380.5C1143.31 1361.25 1145.99 1344.49 1146 1343.25C1146 1341.57 1144.81 1340.4 1141.25 1338.61C1138.64 1337.3 1132.9 1333.56 1128.5 1330.29C1124.1 1327.02 1117.85 1321.46 1114.6 1317.92C1111.36 1314.39 1107.33 1309.47 1105.66 1307C1103.98 1304.52 1101.58 1300.14 1100.31 1297.25C1098.68 1293.55 1097.34 1291.88 1095.75 1291.58C1094.51 1291.35 1086.52 1290.68 1078 1290.07C1069.47 1289.47 1056.2 1288.06 1048.5 1286.94C1040.8 1285.82 1028.2 1283.53 1020.5 1281.85C1012.8 1280.17 999.75 1276.59 991.5 1273.91C983.25 1271.22 971.55 1266.88 965.49 1264.26C959.44 1261.64 949.54 1256.68 943.49 1253.23C937.45 1249.78 927.55 1243.3 921.5 1238.82C915.45 1234.35 905.53 1225.69 899.45 1219.59C893.37 1213.49 884.87 1203.77 880.56 1198C876.26 1192.22 869.67 1182.32 865.93 1176C862.19 1169.67 857.01 1160 854.43 1154.5C851.85 1149 847.38 1138.42 844.49 1131C841.6 1123.57 836.97 1110.52 834.19 1102C831.41 1093.47 825.75 1075.02 821.61 1061C817.47 1046.97 811.63 1028.3 808.64 1019.5C805.64 1010.7 801.08 998.55 798.51 992.5C795.94 986.45 791.31 976.77 788.22 971C785.14 965.22 779.14 955.32 774.9 949C770.66 942.67 763.6 933.22 759.22 928C754.83 922.77 746.8 914.2 741.37 908.95C735.94 903.7 726.77 895.63 721 891.02C715.22 886.41 703.97 878.35 696 873.1C684.26 865.38 676.93 861.54 657.5 852.93C644.3 847.08 622.02 837.69 608 832.06C593.97 826.43 573.27 818.74 562 814.97C550.72 811.2 537 806.98 531.5 805.59C526 804.21 516.21 802.16 509.75 801.04C503.29 799.92 493.84 799 488.75 798.99C483.55 798.99 476.87 799.68 473.5 800.56C470.2 801.42 465.3 803.33 462.61 804.81C459.91 806.29 456.09 809.34 454.11 811.6C452.12 813.85 449.31 817.9 447.85 820.6C446.39 823.29 443.85 829.77 442.19 835C440.53 840.22 437.29 850.57 434.99 858C432.69 865.42 428.86 875.55 426.47 880.5C424.08 885.45 419.86 892.65 417.09 896.5C413.14 901.99 411.84 904.79 411.04 909.5C410.48 912.8 409.51 923.6 408.89 933.5C408.16 944.99 407.97 964.53 408.37 987.5C408.71 1007.3 409.67 1036.32 410.5 1052C411.32 1067.67 412.69 1089.95 413.53 1101.5C414.38 1113.05 415.96 1132.62 417.06 1145C418.15 1157.37 419.73 1174.02 420.56 1182C421.39 1189.97 423.42 1207.75 425.07 1221.5C426.71 1235.25 427.84 1246.72 427.57 1247C427.31 1247.27 426.37 1245.7 425.48 1243.5C424.6 1241.3 419.91 1228.7 415.06 1215.5C410.21 1202.3 402.62 1180.7 398.19 1167.5C393.77 1154.3 387.21 1134.05 383.62 1122.5C380.04 1110.95 373.69 1089.57 369.52 1075C365.36 1060.42 358.34 1034.1 353.93 1016.5C349.52 998.9 343.47 972.35 340.48 957.5C337.49 942.65 333.95 923.07 332.61 914C330.51 899.8 329.58 896.17 325.97 888C323.66 882.77 320.69 874.22 319.37 869C318.05 863.77 316.53 854.77 315.99 849C315.35 842.15 315.35 834.85 315.99 828C316.52 822.22 318.04 813.22 319.35 808C320.65 802.77 323.28 794.67 325.17 790C327.07 785.32 330.46 778.35 332.7 774.5C334.95 770.65 338.97 764.6 341.64 761.06C344.31 757.52 350.1 751.06 354.5 746.71C358.9 742.37 366.55 736.1 371.5 732.79C376.45 729.47 383.42 725.29 387 723.5C390.57 721.7 397.55 718.81 402.5 717.07C407.45 715.33 415.77 713 421 711.89C427.03 710.62 436.35 709.67 446.5 709.3C456.3 708.95 466.38 709.18 472.5 709.9C478 710.55 485.87 711.76 490 712.59C494.12 713.42 503.8 715.85 511.5 717.99C519.2 720.12 532.47 723.74 541 726.03C549.52 728.31 563.25 732.44 571.5 735.21C579.75 737.97 592.57 742.6 600 745.49C607.42 748.37 621.37 754.23 631 758.49C640.62 762.76 655.59 769.79 664.25 774.12C672.91 778.46 687.09 785.88 695.75 790.63C704.41 795.38 720.5 804.67 731.5 811.27C742.5 817.87 758.47 827.8 767 833.34C775.52 838.87 789.7 848.33 798.5 854.37C807.3 860.41 823.72 872.11 835 880.36C846.27 888.62 857.52 896.77 860 898.47C862.47 900.17 867.87 902.62 872 903.92C878.88 906.09 880 906.18 885.5 905.05C888.8 904.37 895.77 902.45 901 900.78C906.22 899.11 914.32 896.06 919 894C923.67 891.94 931.32 888.01 936 885.26C940.67 882.5 948.1 877.4 952.5 873.91C956.9 870.42 963.36 864.62 966.87 861.03C970.37 857.44 976.12 850.67 979.65 846C983.17 841.32 989.11 831.42 992.83 824C996.93 815.83 1000.86 806.16 1002.78 799.5C1004.53 793.45 1006.68 784.45 1007.55 779.5C1008.42 774.55 1009.39 764.2 1009.71 756.5C1010.04 748.32 1009.79 737.72 1009.1 731C1008.44 724.67 1007.02 715.22 1005.94 710C1004.86 704.77 1002.8 696.45 1001.35 691.5C999.9 686.55 996.73 677.55 994.3 671.5C991.88 665.45 987.29 655.55 984.11 649.5C980.93 643.45 976.17 635.12 973.53 631C970.89 626.87 965.68 619.45 961.97 614.5C958.25 609.55 952.19 602.12 948.5 598C944.82 593.87 941.13 588.92 940.3 587C939.48 585.07 938.74 580.8 938.66 577.5C938.58 574.2 939.3 565.42 940.26 558C941.29 549.96 942 537.83 942 528C942 518.92 941.32 505.65 940.48 498.5C939.64 491.35 937.84 480.1 936.47 473.5C935.1 466.9 932.48 456.55 930.63 450.5C928.79 444.45 925.6 435 923.55 429.5C921.49 424 916.67 412.97 912.84 405C909.01 397.02 903.58 386.45 900.78 381.5C897.98 376.55 891.53 366.2 886.46 358.5C881.39 350.8 873.24 339.26 868.37 332.85C863.49 326.45 854.57 315.42 848.55 308.35C842.52 301.28 828.57 286.48 817.55 275.46C806.52 264.44 791.65 250.32 784.5 244.09C777.35 237.85 764.97 227.48 757 221.04C749.02 214.6 736.42 204.82 729 199.3C721.57 193.79 708.52 184.45 700 178.55C691.47 172.65 675.95 162.4 665.5 155.77C655.05 149.14 639.3 139.51 630.5 134.37C621.7 129.23 614.05 125.05 613.5 125.09C612.95 125.12 609.35 126.51 605.5 128.18C601.65 129.85 591.07 134.6 582 138.73ZM1390.13 186.5C1393.19 190.35 1398.51 197.77 1401.95 203C1405.4 208.22 1410.7 217.45 1413.73 223.5C1416.77 229.55 1421.02 239 1423.17 244.5C1425.32 250 1428.59 259.67 1430.44 266C1432.29 272.32 1434.99 283.35 1436.44 290.5C1437.89 297.65 1439.93 310.25 1440.98 318.5C1442.03 326.75 1443.43 342.05 1444.08 352.5C1444.87 365.16 1445.07 385.52 1444.66 413.5C1444.32 436.6 1443.38 466.75 1442.55 480.5C1441.73 494.25 1441.06 507.3 1441.06 509.5C1441.06 513.31 1441.14 513.4 1442.62 511.5C1443.47 510.4 1446.38 505.11 1449.08 499.75C1451.79 494.39 1455.82 484.71 1458.05 478.25C1460.28 471.79 1463.42 461.55 1465.03 455.5C1466.64 449.45 1468.88 440 1470.01 434.5C1471.14 429 1472.93 418.87 1473.99 412C1475.06 405.12 1476.6 392.75 1477.42 384.5C1478.23 376.25 1479.2 360.95 1479.56 350.5C1479.94 339.51 1479.75 324.23 1479.11 314.25C1478.5 304.76 1477.31 291.71 1476.46 285.25C1475.62 278.79 1473.78 268.32 1472.38 262C1470.97 255.67 1468.06 245.1 1465.9 238.5C1463.75 231.9 1460.52 223.57 1458.74 220C1455.97 214.45 1454.47 212.8 1448.5 208.7C1444.65 206.05 1434.07 199.24 1425 193.56C1415.92 187.88 1400.4 178.67 1390.5 173.11C1380.6 167.54 1371.15 162.51 1369.5 161.93C1367.05 161.07 1368.16 162.59 1375.53 170.19C1380.49 175.31 1387.06 182.65 1390.13 186.5ZM1578.06 323.5C1582.21 331.75 1587.52 343.9 1589.86 350.5C1592.2 357.1 1595.44 367.45 1597.05 373.5C1598.66 379.55 1601.08 391.02 1602.43 399C1603.78 406.97 1605.36 419.8 1605.94 427.5C1606.52 435.2 1606.98 448.47 1606.97 457C1606.95 465.52 1606.29 481.5 1605.49 492.5C1604.7 503.5 1604.03 514.97 1604.01 518C1603.98 521.56 1604.31 523.15 1604.93 522.5C1605.47 521.95 1608.34 515.42 1611.32 508C1614.31 500.57 1619.01 487.52 1621.77 479C1624.54 470.47 1628.82 455.4 1631.3 445.5C1633.77 435.6 1636.95 420.52 1638.35 412C1639.76 403.47 1641.18 393.57 1641.5 390L1642.09 383.5C1619.81 357.92 1606.63 343.5 1598.42 334.94C1590.21 326.38 1580.39 316.48 1576.59 312.94C1572.79 309.4 1569.87 306.95 1570.1 307.5C1570.33 308.05 1573.91 315.25 1578.06 323.5ZM1698.88 473.5C1699.96 479.55 1701.4 490.35 1702.07 497.5C1702.83 505.61 1703.08 518.02 1702.73 530.5C1702.31 545.4 1701.52 554.2 1699.63 565C1698.24 572.97 1695.55 585.12 1693.65 592C1691.76 598.87 1688.09 609.9 1685.51 616.5C1682.92 623.1 1677.57 634.8 1673.62 642.5C1669.66 650.2 1663.02 661.67 1658.85 668C1654.68 674.32 1647.83 683.89 1643.63 689.25C1639.43 694.61 1636.22 699.22 1636.5 699.5C1636.77 699.77 1639.14 698.94 1641.75 697.65C1644.36 696.36 1653.47 692.43 1662 688.92C1670.52 685.41 1682.45 680.02 1688.5 676.95C1694.55 673.88 1703.55 668.85 1708.5 665.77C1713.45 662.7 1721.77 657 1727 653.11C1732.22 649.23 1741.22 641.65 1747 636.27C1752.77 630.9 1761.32 622.38 1766 617.33L1774.5 608.17C1774.99 621.6 1774.64 630.45 1774.04 636.5C1773.44 642.55 1772.25 651.77 1771.39 657C1770.54 662.22 1768.55 671.67 1766.97 678C1765.39 684.32 1762.46 694.22 1760.44 700C1758.43 705.77 1754.8 715 1752.37 720.5C1749.93 726 1744.93 735.67 1741.25 742C1737.57 748.32 1730.5 758.89 1725.53 765.47C1720.56 772.06 1711.55 782.59 1705.5 788.87C1699.45 795.15 1690 804.05 1684.5 808.66C1679 813.26 1669.77 820.36 1664 824.43C1658.22 828.5 1648.55 834.83 1642.5 838.5C1636.45 842.17 1622.5 849.58 1611.5 854.98C1600.5 860.37 1586.1 866.93 1579.5 869.56C1572.9 872.18 1562.1 876.24 1555.5 878.57C1548.9 880.9 1543.37 883.19 1543.2 883.65C1543.04 884.12 1544.61 885.4 1546.7 886.5C1549.8 888.13 1552.34 888.49 1560.5 888.43C1567.99 888.38 1573.26 887.66 1581.5 885.57C1587.55 884.03 1599.02 880.51 1607 877.76C1614.97 875 1630.95 868.81 1642.5 863.98C1654.05 859.16 1671.15 851.75 1680.5 847.5C1689.85 843.25 1708.86 834.43 1722.75 827.89C1736.64 821.35 1748.22 816.22 1748.5 816.5C1748.77 816.77 1745.31 822.06 1740.8 828.25C1736.29 834.44 1728.48 845.8 1723.45 853.5C1718.43 861.2 1706.97 879.65 1698 894.5C1689.03 909.35 1679 925.55 1675.69 930.5C1672.39 935.45 1666.66 943.32 1662.96 948C1659.26 952.67 1652.46 960.12 1647.86 964.54C1643.26 968.96 1636.12 974.96 1632 977.88C1627.87 980.79 1621.35 985.01 1617.5 987.26C1613.65 989.51 1606.11 993.3 1600.75 995.68C1595.39 998.06 1585.6 1001.8 1579 1004C1572.4 1006.2 1560.81 1009.55 1553.25 1011.44C1545.69 1013.33 1532.52 1016.23 1524 1017.88C1515.47 1019.53 1500.4 1022.03 1490.5 1023.44C1480.6 1024.85 1464.62 1026.88 1455 1027.96C1445.37 1029.03 1426.92 1030.87 1414 1032.03C1396.69 1033.59 1387.47 1034.92 1379 1037.09C1372.67 1038.7 1363.9 1041.77 1359.5 1043.91C1355.1 1046.04 1349.08 1049.97 1346.12 1052.64C1343.16 1055.31 1339.9 1059.19 1338.87 1061.25C1337.84 1063.31 1337 1066.57 1337 1068.5C1337 1070.42 1337.67 1073.35 1338.5 1075C1339.4 1076.81 1341.69 1078.79 1344.25 1079.98C1346.66 1081.1 1350.66 1081.97 1353.5 1081.98C1356.25 1081.99 1364.57 1080.68 1372 1079.06C1379.42 1077.44 1390.67 1075.35 1397 1074.41C1405.97 1073.09 1416.76 1072.66 1446 1072.5C1479.5 1072.31 1484.83 1072.05 1496 1070.1C1502.87 1068.89 1514.12 1066.53 1521 1064.85C1527.87 1063.17 1540.7 1059.58 1549.5 1056.87C1558.3 1054.16 1567.86 1051.06 1570.75 1049.97C1573.64 1048.89 1576 1048.45 1576 1049C1576 1049.55 1574.25 1053.04 1572.1 1056.75C1569.96 1060.46 1566.05 1066.42 1563.41 1070C1560.78 1073.57 1555.44 1079.67 1551.56 1083.55C1547.68 1087.43 1541.12 1093.09 1537 1096.13C1532.87 1099.17 1526.12 1103.62 1522 1106.02C1517.87 1108.42 1514.27 1110.52 1514 1110.69C1513.72 1110.86 1513.72 1111.21 1514 1111.46C1514.27 1111.72 1519.45 1112.67 1525.5 1113.57C1532.39 1114.6 1542.85 1115.22 1553.5 1115.22C1563.25 1115.22 1576.04 1114.52 1583.5 1113.59C1590.65 1112.69 1603.25 1110.81 1611.5 1109.42C1619.75 1108.02 1626.89 1107.02 1627.36 1107.19C1627.84 1107.36 1625.14 1110.43 1621.36 1114.01C1617.59 1117.6 1609.77 1123.69 1604 1127.56C1598.22 1131.43 1588.55 1137 1582.5 1139.94C1576.45 1142.88 1564.97 1147.44 1557 1150.08C1549.02 1152.72 1537.1 1156 1530.5 1157.37C1523.9 1158.73 1514.79 1160.34 1510.25 1160.93C1505.71 1161.52 1502 1162.45 1502 1163C1502 1163.61 1506.41 1164 1513.25 1164C1519.44 1163.99 1530.8 1163.54 1538.5 1162.98C1546.2 1162.42 1558.8 1161.27 1566.5 1160.42C1574.2 1159.57 1585 1158.24 1590.5 1157.45C1596 1156.67 1601.96 1155.79 1603.75 1155.51C1605.95 1155.16 1607 1155.4 1607.01 1156.25C1607.01 1156.94 1604.2 1160.24 1600.76 1163.58C1597.32 1166.93 1592.02 1171.71 1589 1174.21C1585.97 1176.7 1580.12 1181.01 1576 1183.77C1571.87 1186.53 1563.77 1191.15 1558 1194.04C1552.22 1196.93 1543 1200.98 1537.5 1203.03C1532 1205.09 1522.44 1208.06 1516.25 1209.64C1510.06 1211.21 1505 1212.84 1505 1213.25C1505 1213.66 1505.79 1214.21 1506.75 1214.47C1507.71 1214.72 1514.57 1216.05 1522 1217.41C1529.42 1218.77 1543.6 1220.8 1553.5 1221.9C1563.4 1223.01 1579.26 1224.39 1588.75 1224.96C1598.24 1225.53 1607.69 1226.01 1609.75 1226.03C1613.35 1226.06 1613.42 1226.13 1611.5 1227.65C1610.4 1228.53 1605.9 1230.96 1601.5 1233.06C1597.1 1235.16 1588.77 1238.46 1583 1240.39C1577.22 1242.32 1568.45 1244.8 1563.5 1245.9C1558.55 1247 1548.87 1248.68 1542 1249.64C1532.85 1250.9 1522.81 1251.36 1504.5 1251.35C1487.58 1251.34 1474.65 1250.78 1464.5 1249.63C1456.25 1248.69 1442.75 1246.79 1434.5 1245.39C1426.25 1243.99 1418.03 1242.55 1416.23 1242.18C1414.43 1241.8 1412.97 1241.84 1412.98 1242.25C1412.99 1242.66 1413.71 1244.69 1414.58 1246.75C1415.44 1248.81 1418.53 1256.8 1421.43 1264.5C1424.34 1272.2 1428.64 1282.32 1430.99 1287C1433.35 1291.67 1437.53 1298.88 1440.28 1303C1443.04 1307.12 1446.91 1312.5 1448.9 1314.93L1452.5 1319.37C1445.52 1318.24 1438.32 1316.19 1432 1314.08C1425.67 1311.98 1417.57 1308.8 1414 1307.01C1410.42 1305.23 1404.35 1301.7 1400.5 1299.18C1396.03 1296.26 1386.08 1287.12 1373 1273.96C1361.72 1262.6 1351.49 1252.79 1350.25 1252.16L1348 1251C1348.18 1274.44 1347.66 1282.52 1346.64 1288C1345.77 1292.67 1344.37 1298.41 1343.53 1300.75L1342 1305C1351.6 1317.79 1360.72 1329.37 1368.45 1338.99C1376.18 1348.61 1395.1 1371.59 1410.5 1390.05C1425.9 1408.52 1452.42 1440.02 1469.44 1460.06C1496.45 1491.87 1501.03 1496.81 1505.44 1498.95C1508.22 1500.3 1512.64 1503.56 1515.25 1506.2C1517.86 1508.84 1520.89 1512.91 1521.98 1515.25C1523.14 1517.75 1523.97 1521.66 1523.98 1524.75C1523.99 1528.04 1523.25 1531.49 1522 1534C1520.9 1536.2 1518.09 1539.35 1515.75 1541.01C1513.41 1542.66 1509.25 1544.52 1506.5 1545.14C1503.75 1545.77 1498.57 1546.05 1495 1545.77C1491.27 1545.49 1485.09 1543.97 1480.5 1542.22L1472.5 1539.17C1411.27 1537.53 1338.6 1535.44 1271.5 1533.47C1204.4 1531.49 1149.41 1530.02 1149.29 1530.19C1149.18 1530.36 1146.03 1545.22 1142.29 1563.2C1135.53 1595.74 1135.51 1595.92 1137.25 1599.45C1138.24 1601.46 1139 1605.28 1139 1608.25C1139.01 1611.45 1138.28 1614.87 1137.15 1617C1136.13 1618.92 1133.38 1621.85 1131.05 1623.5C1127.35 1626.12 1125.72 1626.56 1118.16 1627.01L1109.5 1627.52C827.81 1814.38 802.37 1831.62 804.25 1832.2C805.49 1832.59 814.6 1834.05 824.5 1835.45C834.4 1836.84 851.27 1838.87 862 1839.94C872.72 1841.02 889.6 1842.43 899.5 1843.08C909.4 1843.73 933.47 1844.25 953 1844.24C972.52 1844.23 996.15 1843.72 1005.5 1843.09C1014.85 1842.47 1031.72 1841.04 1043 1839.93C1054.27 1838.81 1072.72 1836.54 1084 1834.89C1095.27 1833.24 1114.4 1829.93 1126.5 1827.53C1138.6 1825.13 1156.15 1821.29 1165.5 1819C1174.85 1816.71 1190.82 1812.42 1201 1809.47C1211.17 1806.52 1228.95 1800.91 1240.5 1797C1252.05 1793.09 1270.95 1786.13 1282.5 1781.54C1294.05 1776.94 1311.6 1769.49 1321.5 1764.97C1331.4 1760.45 1345.35 1753.83 1352.5 1750.24C1359.65 1746.66 1372.47 1739.9 1381 1735.23C1389.52 1730.55 1403.25 1722.69 1411.5 1717.74C1419.75 1712.8 1434.82 1703.24 1445 1696.5C1455.17 1689.76 1470.7 1678.95 1479.5 1672.48C1488.3 1666.01 1501.8 1655.69 1509.5 1649.55C1517.2 1643.41 1530.25 1632.53 1538.5 1625.36C1546.75 1618.2 1560.47 1605.65 1569 1597.46C1577.52 1589.28 1590.99 1575.82 1598.92 1567.54C1606.85 1559.27 1619.2 1545.75 1626.36 1537.5C1633.53 1529.25 1644.41 1516.2 1650.55 1508.5C1656.69 1500.8 1667.01 1487.3 1673.48 1478.5C1679.95 1469.7 1690.76 1454.17 1697.5 1444C1704.24 1433.82 1713.8 1418.75 1718.74 1410.5C1723.69 1402.25 1731.55 1388.52 1736.23 1380C1740.9 1371.47 1747.66 1358.65 1751.24 1351.5C1754.83 1344.35 1761.45 1330.4 1765.97 1320.5C1770.49 1310.6 1777.94 1293.05 1782.54 1281.5C1787.13 1269.95 1794.09 1251.05 1798 1239.5C1801.91 1227.95 1807.52 1210.17 1810.47 1200C1813.42 1189.82 1817.71 1173.85 1820 1164.5C1822.29 1155.15 1826.13 1137.6 1828.53 1125.5C1830.93 1113.4 1834.24 1094.27 1835.89 1083C1837.54 1071.72 1839.81 1053.27 1840.93 1042C1842.04 1030.72 1843.47 1013.85 1844.1 1004.5C1844.72 995.15 1845.23 971.3 1845.23 951.5C1845.23 931.7 1844.72 907.85 1844.1 898.5C1843.47 889.15 1842.04 872.27 1840.93 861C1839.81 849.72 1837.54 831.27 1835.89 820C1834.24 808.72 1830.93 789.6 1828.53 777.5C1826.13 765.4 1822.29 747.85 1820 738.5C1817.71 729.15 1813.42 713.17 1810.47 703C1807.52 692.82 1801.91 675.05 1798 663.5C1794.09 651.95 1787.13 633.05 1782.54 621.5C1777.95 609.95 1770.29 591.95 1765.53 581.5C1760.77 571.05 1752.46 553.95 1747.07 543.5C1741.69 533.05 1733.02 517.07 1727.81 508C1722.61 498.92 1713.66 484.12 1707.93 475.11C1702.19 466.09 1697.13 458.49 1696.67 458.21C1696.22 457.93 1696.08 458.78 1696.37 460.1C1696.66 461.42 1697.79 467.45 1698.88 473.5ZM1229.5 1305.5C1228.18 1309.9 1225.36 1316.2 1223.23 1319.5C1221.1 1322.8 1216.19 1328.42 1212.32 1332C1208.45 1335.57 1201.39 1340.64 1196.64 1343.25C1188.85 1347.53 1187.91 1348.37 1187.06 1351.75C1186.54 1353.81 1183.42 1367.65 1180.11 1382.5C1176.81 1397.35 1169.8 1430.2 1164.55 1455.5C1159.29 1480.8 1154.76 1502.51 1154.49 1503.75L1154 1506C1359.76 1506.76 1428.84 1507.21 1440.25 1507.49L1461 1508C1463.71 1502.57 1463.76 1501.68 1462.75 1500.32C1462.06 1499.39 1425.59 1460.58 1381.69 1414.07C1302.23 1329.88 1301.85 1329.49 1295.69 1327.22C1292.29 1325.96 1287.02 1323.79 1284 1322.39C1280.97 1320.99 1274.9 1317.48 1270.5 1314.6C1266.1 1311.71 1259.69 1306.57 1256.25 1303.17C1252.81 1299.78 1248.02 1293.96 1245.61 1290.25C1243.19 1286.54 1240.38 1281.8 1239.36 1279.73C1238.34 1277.65 1237.21 1275.97 1236.86 1275.98C1236.51 1275.99 1235.25 1280.84 1234.06 1286.75C1232.87 1292.66 1230.82 1301.1 1229.5 1305.5Z" />
</svg>
