<svg version="1.2" baseProfile="tiny-ps" xmlns="http://www.w3.org/2000/svg" viewBox="0 0 1904 1903" width="1904" height="1903">
	<title>Path 0</title>
	<style>
		tspan { white-space:pre }
		.shp0 { fill: #dece23 }
	</style>
	<path id="Path 0" fill-rule="evenodd" class="shp0" d="M950.25 0.14C972.66 0.06 996.29 0.44 1002.75 0.98C1009.21 1.53 1023.27 2.68 1034 3.55C1044.72 4.41 1062.05 6.2 1072.5 7.51C1082.95 8.82 1099.82 11.3 1110 13.01C1120.17 14.72 1136.15 17.69 1145.5 19.61C1154.85 21.53 1170.6 25.09 1180.5 27.52C1190.4 29.94 1205.7 33.99 1214.5 36.5C1223.3 39.02 1241.75 44.83 1255.5 49.42C1269.25 54.02 1289.05 61.14 1299.5 65.26C1309.95 69.37 1327.5 76.72 1338.5 81.57C1349.5 86.43 1368.85 95.65 1381.5 102.06C1394.15 108.47 1412.38 118.22 1422 123.72C1431.62 129.22 1444.22 136.64 1450 140.21C1455.77 143.78 1465.22 149.76 1471 153.48C1476.77 157.21 1487.35 164.34 1494.5 169.32C1501.65 174.31 1513.8 183.11 1521.5 188.87C1529.2 194.63 1539.55 202.56 1544.5 206.49C1549.45 210.41 1559.8 218.96 1567.5 225.47C1575.2 231.99 1586.22 241.63 1592 246.89C1597.77 252.15 1610.31 264.11 1619.85 273.48C1629.39 282.84 1643.63 297.47 1651.49 306C1659.35 314.52 1671.32 328.02 1678.08 336C1684.83 343.97 1693.58 354.55 1697.51 359.5C1701.44 364.45 1709.37 374.8 1715.15 382.5C1720.92 390.2 1730.62 403.7 1736.7 412.5C1742.79 421.3 1752.71 436.38 1758.75 446C1764.78 455.62 1774.35 471.6 1780 481.5C1785.66 491.4 1795.53 509.85 1801.94 522.5C1808.35 535.15 1817.57 554.5 1822.43 565.5C1827.28 576.5 1834.63 594.05 1838.74 604.5C1842.86 614.95 1849.98 634.75 1854.58 648.5C1859.17 662.25 1864.98 680.7 1867.5 689.5C1870.01 698.3 1874.06 713.6 1876.48 723.5C1878.91 733.4 1882.47 749.15 1884.39 758.5C1886.31 767.85 1889.28 783.82 1890.99 794C1892.7 804.17 1895.18 821.05 1896.49 831.5C1897.8 841.95 1899.59 859.27 1900.46 870C1901.33 880.72 1902.49 895.01 1903.02 901.75C1903.56 908.49 1904 930.54 1904 950.75C1904.01 970.96 1903.55 993.57 1902.99 1001C1902.43 1008.42 1901.28 1023.05 1900.43 1033.5C1899.57 1043.95 1897.8 1061.05 1896.49 1071.5C1895.18 1081.95 1892.7 1098.82 1890.99 1109C1889.28 1119.17 1886.31 1135.15 1884.39 1144.5C1882.47 1153.85 1878.91 1169.6 1876.48 1179.5C1874.06 1189.4 1870.01 1204.7 1867.5 1213.5C1864.98 1222.3 1859.17 1240.75 1854.58 1254.5C1849.98 1268.25 1842.86 1288.05 1838.74 1298.5C1834.63 1308.95 1827.28 1326.5 1822.43 1337.5C1817.57 1348.5 1808.35 1367.85 1801.94 1380.5C1795.53 1393.15 1785.66 1411.6 1780 1421.5C1774.35 1431.4 1764.78 1447.37 1758.75 1457C1752.71 1466.62 1742.79 1481.7 1736.7 1490.5C1730.62 1499.3 1720.92 1512.8 1715.15 1520.5C1709.37 1528.2 1701.44 1538.55 1697.51 1543.5C1693.58 1548.45 1684.83 1559.02 1678.08 1567C1671.32 1574.97 1659.35 1588.47 1651.49 1597C1643.63 1605.52 1629.39 1620.16 1619.85 1629.52C1610.31 1638.89 1597.77 1650.85 1592 1656.11C1586.22 1661.37 1575.2 1671.01 1567.5 1677.52C1559.8 1684.04 1549.45 1692.59 1544.5 1696.51C1539.55 1700.44 1529.2 1708.37 1521.5 1714.15C1513.8 1719.92 1500.3 1729.62 1491.5 1735.7C1482.7 1741.79 1467.62 1751.71 1458 1757.75C1448.37 1763.78 1432.4 1773.35 1422.5 1779C1412.6 1784.66 1394.15 1794.53 1381.5 1800.94C1368.85 1807.35 1349.5 1816.57 1338.5 1821.43C1327.5 1826.28 1309.95 1833.63 1299.5 1837.74C1289.05 1841.86 1269.25 1848.98 1255.5 1853.58C1241.75 1858.17 1223.3 1863.98 1214.5 1866.5C1205.7 1869.01 1190.4 1873.06 1180.5 1875.48C1170.6 1877.91 1154.85 1881.47 1145.5 1883.39C1136.15 1885.31 1120.17 1888.28 1110 1889.99C1099.82 1891.7 1082.95 1894.18 1072.5 1895.49C1062.05 1896.8 1044.72 1898.59 1034 1899.45C1023.27 1900.32 1009.21 1901.47 1002.75 1902.02C996.29 1902.56 973.67 1903 952.5 1903C931.32 1903 908.71 1902.56 902.25 1902.02C895.79 1901.47 881.72 1900.32 871 1899.45C860.27 1898.59 842.95 1896.8 832.5 1895.49C822.05 1894.18 805.17 1891.7 795 1889.99C784.82 1888.28 768.85 1885.31 759.5 1883.39C750.15 1881.47 734.4 1877.91 724.5 1875.48C714.6 1873.06 699.3 1869.01 690.5 1866.5C681.7 1863.98 663.25 1858.17 649.5 1853.58C635.75 1848.98 615.95 1841.85 605.5 1837.73C595.05 1833.61 579.07 1826.99 570 1823.02C560.92 1819.05 543.6 1810.92 531.5 1804.96C519.4 1798.99 502.07 1789.98 493 1784.93C483.92 1779.87 469.75 1771.66 461.5 1766.68C453.25 1761.7 441.32 1754.27 435 1750.18C428.67 1746.08 417.65 1738.65 410.5 1733.67C403.35 1728.69 391.2 1719.89 383.5 1714.13C375.8 1708.37 365.45 1700.44 360.5 1696.51C355.55 1692.59 345.2 1684.04 337.5 1677.51C329.8 1670.99 316.52 1659.24 308 1651.41C299.47 1643.58 284.6 1629.15 274.95 1619.34C265.3 1609.53 253.11 1596.77 247.86 1591C242.62 1585.22 232.99 1574.2 226.47 1566.5C219.96 1558.8 211.41 1548.45 207.49 1543.5C203.56 1538.55 195.63 1528.2 189.87 1520.5C184.11 1512.8 175.31 1500.65 170.33 1493.5C165.35 1486.35 157.92 1475.32 153.82 1469C149.73 1462.67 142.3 1450.75 137.32 1442.5C132.34 1434.25 124.13 1420.07 119.07 1411C114.02 1401.92 105.01 1384.6 99.04 1372.5C93.08 1360.4 84.95 1343.07 80.98 1334C77.01 1324.92 70.39 1308.95 66.27 1298.5C62.15 1288.05 55.02 1268.25 50.42 1254.5C45.83 1240.75 40.02 1222.3 37.5 1213.5C34.99 1204.7 30.94 1189.4 28.52 1179.5C26.09 1169.6 22.53 1153.85 20.61 1144.5C18.69 1135.15 15.72 1119.17 14.01 1109C12.3 1098.82 9.82 1081.95 8.51 1071.5C7.2 1061.05 5.41 1043.72 4.54 1033C3.67 1022.27 2.51 1007.99 1.98 1001.25C1.44 994.51 1 972.46 1 952.25C0.99 932.04 1.45 909.42 2.01 902C2.57 894.57 3.72 879.95 4.57 869.5C5.43 859.05 7.2 841.95 8.51 831.5C9.82 821.05 12.3 804.17 14.01 794C15.72 783.82 18.69 767.85 20.61 758.5C22.53 749.15 26.09 733.4 28.52 723.5C30.94 713.6 34.99 698.3 37.5 689.5C40.02 680.7 45.83 662.25 50.42 648.5C55.02 634.75 62.15 614.95 66.27 604.5C70.39 594.05 77.01 578.07 80.98 569C84.95 559.92 93.08 542.6 99.04 530.5C105.01 518.4 114.02 501.07 119.07 492C124.13 482.92 132.34 468.75 137.32 460.5C142.3 452.25 149.73 440.32 153.82 434C157.92 427.67 165.35 416.65 170.33 409.5C175.31 402.35 184.11 390.2 189.87 382.5C195.63 374.8 203.56 364.45 207.49 359.5C211.41 354.55 219.96 344.2 226.49 336.5C233.01 328.8 244.76 315.52 252.59 307C260.42 298.47 274.85 283.6 284.66 273.95C294.47 264.3 307.22 252.11 313 246.86C318.77 241.62 329.8 231.99 337.5 225.47C345.2 218.96 355.55 210.41 360.5 206.49C365.45 202.56 375.8 194.63 383.5 188.87C391.2 183.11 403.35 174.31 410.5 169.33C417.65 164.35 428.67 156.92 435 152.82C441.32 148.73 453.25 141.3 461.5 136.32C469.75 131.34 483.92 123.13 493 118.07C502.07 113.02 519.4 104.01 531.5 98.04C543.6 92.08 560.92 83.95 570 79.98C579.07 76.01 595.05 69.39 605.5 65.27C615.95 61.15 635.75 54.02 649.5 49.42C663.25 44.83 681.7 39.02 690.5 36.5C699.3 33.99 714.6 29.94 724.5 27.52C734.4 25.09 750.15 21.53 759.5 19.61C768.85 17.69 784.82 14.72 795 13.01C805.17 11.3 822.05 8.82 832.5 7.5C842.95 6.19 860.27 4.41 871 3.54C881.72 2.67 894.77 1.58 900 1.12C905.22 0.65 927.84 0.21 950.25 0.14ZM900.5 60.01C890.05 60.6 872.5 61.99 861.5 63.1C850.5 64.21 832.27 66.46 821 68.11C809.72 69.76 790.6 73.07 778.5 75.47C766.4 77.87 748.85 81.71 739.5 84C730.15 86.29 714.17 90.58 704 93.53C693.82 96.48 676.05 102.09 664.5 106C652.95 109.91 634.05 116.87 622.5 121.46C610.95 126.06 593.4 133.51 583.5 138.03C573.6 142.55 559.65 149.17 552.5 152.76C545.35 156.34 532.52 163.1 524 167.77C515.47 172.45 501.75 180.32 493.5 185.26C485.25 190.21 470.17 199.76 460 206.48C449.82 213.21 434.3 224.01 425.5 230.48C416.7 236.95 403.2 247.28 395.5 253.43C387.8 259.59 374.75 270.49 366.5 277.65C358.25 284.82 344.52 297.35 336 305.49C327.47 313.64 314.02 327.1 306.09 335.4C298.16 343.71 285.82 357.25 278.65 365.5C271.49 373.75 260.59 386.8 254.43 394.5C248.28 402.2 237.95 415.7 231.48 424.5C225.01 433.3 214.21 448.82 207.48 459C200.76 469.17 191.21 484.25 186.26 492.5C181.32 500.75 173.45 514.47 168.77 523C164.1 531.52 157.34 544.35 153.76 551.5C150.17 558.65 143.55 572.6 139.03 582.5C134.51 592.4 127.06 609.95 122.46 621.5C117.87 633.05 110.91 651.95 107 663.5C103.09 675.05 97.48 692.82 94.53 703C91.58 713.17 87.29 729.15 85 738.5C82.71 747.85 78.87 765.4 76.47 777.5C74.07 789.6 70.76 808.72 69.11 820C67.46 831.27 65.19 849.72 64.07 861C62.95 872.27 61.53 889.15 60.9 898.5C60.28 907.85 59.77 931.7 59.77 951.5C59.77 971.3 60.28 995.15 60.9 1004.5C61.53 1013.85 62.95 1030.72 64.07 1042C65.19 1053.27 67.46 1071.72 69.11 1083C70.76 1094.27 74.07 1113.4 76.47 1125.5C78.87 1137.6 82.71 1155.15 85 1164.5C87.29 1173.85 91.58 1189.82 94.53 1200C97.48 1210.17 103.09 1227.95 107 1239.5C110.91 1251.05 117.87 1269.95 122.46 1281.5C127.06 1293.05 134.51 1310.6 139.03 1320.5C143.55 1330.4 150.17 1344.35 153.76 1351.5C157.34 1358.65 164.1 1371.47 168.77 1380C173.45 1388.52 181.32 1402.25 186.26 1410.5C191.21 1418.75 200.76 1433.82 207.48 1444C214.21 1454.17 225.01 1469.7 231.48 1478.5C237.95 1487.3 248.28 1500.8 254.43 1508.5C260.59 1516.2 271.49 1529.25 278.65 1537.5C285.82 1545.75 298.35 1559.47 306.49 1568C314.64 1576.52 328.1 1589.98 336.4 1597.91C344.71 1605.84 358.25 1618.18 366.5 1625.35C374.75 1632.51 387.8 1643.41 395.5 1649.57C403.2 1655.72 416.7 1666.05 425.5 1672.52C434.3 1678.99 449.82 1689.79 460 1696.52C470.17 1703.24 485.25 1712.79 493.5 1717.74C501.75 1722.68 515.47 1730.55 524 1735.23C532.52 1739.9 545.35 1746.66 552.5 1750.24C559.65 1753.83 573.6 1760.45 583.5 1764.97C593.4 1769.49 610.95 1776.94 622.5 1781.54C634.05 1786.13 652.95 1793.09 664.5 1797C676.05 1800.91 693.82 1806.52 704 1809.47C714.17 1812.42 730.15 1816.71 739.5 1819C748.85 1821.29 766.4 1825.13 778.5 1827.53C790.6 1829.93 809.72 1833.24 821 1834.89C832.27 1836.54 850.72 1838.81 862 1839.93C873.27 1841.04 890.15 1842.47 899.5 1843.1C908.85 1843.72 932.7 1844.23 952.5 1844.23C972.3 1844.23 996.15 1843.72 1005.5 1843.1C1014.85 1842.47 1031.72 1841.04 1043 1839.93C1054.27 1838.81 1072.72 1836.54 1084 1834.89C1095.27 1833.24 1114.4 1829.93 1126.5 1827.53C1138.6 1825.13 1156.15 1821.29 1165.5 1819C1174.85 1816.71 1190.82 1812.42 1201 1809.47C1211.17 1806.52 1228.95 1800.91 1240.5 1797C1252.05 1793.09 1270.95 1786.13 1282.5 1781.54C1294.05 1776.94 1311.6 1769.49 1321.5 1764.97C1331.4 1760.45 1345.35 1753.83 1352.5 1750.24C1359.65 1746.66 1372.47 1739.9 1381 1735.23C1389.52 1730.55 1403.25 1722.69 1411.5 1717.74C1419.75 1712.8 1434.82 1703.24 1445 1696.5C1455.17 1689.76 1470.7 1678.95 1479.5 1672.48C1488.3 1666.01 1501.8 1655.69 1509.5 1649.55C1517.2 1643.41 1530.25 1632.53 1538.5 1625.36C1546.75 1618.2 1560.27 1605.85 1568.54 1597.92C1576.82 1589.99 1590.28 1576.52 1598.46 1568C1606.65 1559.47 1619.2 1545.75 1626.36 1537.5C1633.53 1529.25 1644.41 1516.2 1650.55 1508.5C1656.69 1500.8 1667.01 1487.3 1673.48 1478.5C1679.95 1469.7 1690.76 1454.17 1697.5 1444C1704.24 1433.82 1713.8 1418.75 1718.74 1410.5C1723.69 1402.25 1731.55 1388.52 1736.23 1380C1740.9 1371.47 1747.66 1358.65 1751.24 1351.5C1754.83 1344.35 1761.45 1330.4 1765.97 1320.5C1770.49 1310.6 1777.94 1293.05 1782.54 1281.5C1787.13 1269.95 1794.09 1251.05 1798 1239.5C1801.91 1227.95 1807.52 1210.17 1810.47 1200C1813.42 1189.82 1817.71 1173.85 1820 1164.5C1822.29 1155.15 1826.13 1137.6 1828.53 1125.5C1830.93 1113.4 1834.24 1094.27 1835.89 1083C1837.54 1071.72 1839.81 1053.27 1840.93 1042C1842.04 1030.72 1843.47 1013.85 1844.1 1004.5C1844.72 995.15 1845.23 971.3 1845.23 951.5C1845.23 931.7 1844.72 907.85 1844.1 898.5C1843.47 889.15 1842.04 872.27 1840.93 861C1839.81 849.72 1837.54 831.27 1835.89 820C1834.24 808.72 1830.93 789.6 1828.53 777.5C1826.13 765.4 1822.29 747.85 1820 738.5C1817.71 729.15 1813.42 713.17 1810.47 703C1807.52 692.82 1801.91 675.05 1798 663.5C1794.09 651.95 1787.13 633.05 1782.54 621.5C1777.94 609.95 1770.49 592.4 1765.97 582.5C1761.45 572.6 1754.83 558.65 1751.24 551.5C1747.66 544.35 1740.9 531.52 1736.23 523C1731.55 514.47 1723.69 500.75 1718.74 492.5C1713.8 484.25 1704.24 469.17 1697.5 459C1690.76 448.82 1679.95 433.3 1673.48 424.5C1667.01 415.7 1656.69 402.2 1650.55 394.5C1644.41 386.8 1633.53 373.75 1626.36 365.5C1619.2 357.25 1606.65 343.52 1598.46 335C1590.28 326.47 1576.82 313.01 1568.54 305.08C1560.27 297.15 1546.75 284.8 1538.5 277.64C1530.25 270.47 1517.2 259.59 1509.5 253.45C1501.8 247.31 1488.3 236.99 1479.5 230.52C1470.7 224.05 1455.17 213.24 1445 206.5C1434.82 199.76 1419.75 190.2 1411.5 185.26C1403.25 180.31 1389.52 172.45 1381 167.77C1372.47 163.1 1359.65 156.34 1352.5 152.76C1345.35 149.17 1331.4 142.55 1321.5 138.03C1311.6 133.51 1294.05 126.06 1282.5 121.46C1270.95 116.87 1252.05 109.91 1240.5 106C1228.95 102.09 1211.17 96.48 1201 93.53C1190.82 90.58 1174.85 86.29 1165.5 84C1156.15 81.71 1138.6 77.87 1126.5 75.47C1114.4 73.07 1095.27 69.76 1084 68.11C1072.72 66.46 1054.27 64.19 1043 63.07C1031.72 61.95 1015.07 60.6 1006 60.07C996.92 59.53 978.47 58.92 965 58.7C951.52 58.48 935.77 58.45 930 58.62C924.22 58.79 910.95 59.41 900.5 60.01ZM686.5 154.47C707.91 154.69 722.97 155.34 732 156.43C739.42 157.32 752.02 159.22 760 160.65C767.97 162.07 781.25 164.96 789.5 167.06C797.75 169.16 810.57 172.96 818 175.51C825.42 178.06 836.9 182.41 843.5 185.18C850.1 187.96 859.89 192.42 865.25 195.11C870.61 197.8 880.96 203.55 888.25 207.9C895.54 212.24 906 219.04 911.5 223.02C917 227 925.1 233.28 929.5 236.99C933.9 240.69 940.87 247.1 952.5 258.75L960 251.21C964.12 247.06 971.1 240.65 975.5 236.96C979.9 233.27 988 227 993.5 223.02C999 219.04 1009.46 212.24 1016.75 207.9C1024.04 203.55 1034.39 197.8 1039.75 195.11C1045.11 192.42 1054.9 187.96 1061.5 185.18C1068.1 182.41 1079.57 178.06 1087 175.51C1094.42 172.96 1107.25 169.16 1115.5 167.06C1123.75 164.96 1137.02 162.07 1145 160.65C1152.97 159.22 1165.57 157.32 1173 156.43C1181.49 155.41 1198 154.63 1217.5 154.34C1234.55 154.09 1250.48 154.25 1257.31 155.5L1241.91 167.43C1233.43 174 1221.32 183.52 1215 188.59C1208.67 193.66 1199.57 201.79 1194.76 206.66C1189.95 211.52 1183.88 218.44 1181.26 222.04C1178.64 225.64 1175.07 231.26 1173.32 234.54C1171.57 237.82 1168.78 244.55 1167.13 249.5C1165.47 254.45 1163.64 262.32 1163.05 267C1162.47 271.67 1162 276.29 1162 277.25C1162 278.21 1162.45 279 1163 279C1163.55 279 1168.39 276.21 1173.75 272.8C1179.11 269.38 1189.8 263.38 1197.5 259.46C1205.2 255.54 1215.32 250.86 1220 249.05C1224.67 247.25 1232.77 244.45 1238 242.84C1243.22 241.22 1252.67 239.01 1259 237.92C1266.79 236.58 1275.18 235.94 1285 235.93C1292.97 235.91 1302.87 236.39 1307 236.98C1311.12 237.57 1318.32 238.95 1323 240.05C1327.67 241.14 1335.77 243.45 1341 245.17C1346.22 246.89 1355.22 250.3 1361 252.76C1366.77 255.22 1377.35 260.16 1384.5 263.74C1391.65 267.32 1411.79 278.07 1429.25 287.63C1446.71 297.18 1470.56 309.78 1482.25 315.62C1493.94 321.47 1511.15 329.52 1520.5 333.52C1529.85 337.52 1544.7 343.35 1553.5 346.49C1562.3 349.62 1575.69 354.05 1583.26 356.34C1590.83 358.63 1597.04 360.72 1597.05 361C1597.07 361.27 1595.82 362.07 1594.29 362.76C1592.76 363.45 1588.12 364.66 1584 365.44C1579.87 366.22 1569.3 367.32 1560.5 367.88C1551.7 368.45 1524.92 369.18 1501 369.52C1477.07 369.86 1452.44 370.56 1446.25 371.07C1440.06 371.58 1432.92 372.56 1430.37 373.25C1427.83 373.94 1425.58 374.84 1425.37 375.25C1425.17 375.66 1433.44 380.33 1443.75 385.62C1454.06 390.91 1470.6 399.76 1480.5 405.27C1490.4 410.79 1505.7 419.57 1514.5 424.8C1523.3 430.02 1539.5 440.23 1550.5 447.5C1561.5 454.76 1576.35 465.11 1583.5 470.5C1590.65 475.89 1600.54 483.71 1605.48 487.9C1610.41 492.08 1618.74 499.6 1623.98 504.62C1629.21 509.63 1636.87 517.65 1641 522.44C1645.12 527.23 1651.3 535.06 1654.72 539.83C1658.14 544.6 1663.17 552.55 1665.91 557.5C1668.65 562.45 1672.24 569.87 1673.88 574C1675.52 578.12 1678.04 585.55 1679.47 590.5C1680.91 595.45 1682.71 603.1 1683.48 607.5C1684.25 611.9 1685.35 620.45 1685.92 626.5C1686.49 632.55 1687.41 648.75 1687.98 662.5C1688.55 676.25 1689.7 693.12 1690.55 700C1691.4 706.87 1693.02 716.77 1694.14 722C1695.27 727.22 1697.97 736.9 1700.14 743.5C1702.32 750.1 1707.41 762.25 1711.47 770.5C1715.52 778.75 1722.88 791.57 1727.82 799C1732.76 806.42 1740.61 817.22 1745.26 823C1749.91 828.77 1759.63 839.91 1780 862L1771.75 864.55C1767.21 865.96 1757.87 868.29 1751 869.73C1740.12 872.02 1736.04 872.36 1719.5 872.41C1705.01 872.45 1698.48 872.04 1692 870.69C1687.32 869.71 1679.9 867.75 1675.5 866.32C1671.1 864.89 1664.35 862.15 1660.5 860.23C1656.65 858.32 1651.02 855.12 1648 853.13C1644.97 851.13 1638.96 846.13 1634.62 842C1630.29 837.88 1624.83 831.8 1622.49 828.5C1620.15 825.2 1616.66 819.35 1614.74 815.5C1612.82 811.65 1610.11 804.9 1608.72 800.5C1607.33 796.1 1605.71 790.92 1605.12 789C1604.18 785.96 1604.09 786.49 1604.43 793C1604.65 797.12 1605.8 805.22 1606.99 811C1608.17 816.77 1611.51 828.7 1614.41 837.5C1617.31 846.3 1622.55 860.25 1626.05 868.5C1629.55 876.75 1636.3 891.37 1641.04 901C1645.79 910.62 1653.41 925.47 1657.98 934C1662.56 942.52 1675.61 966.15 1687 986.5C1698.38 1006.85 1711.89 1031.15 1717.02 1040.5C1722.14 1049.85 1731.17 1067.17 1737.09 1079C1743 1090.82 1750.62 1107.02 1754.02 1115C1757.42 1122.97 1762.38 1136.02 1765.04 1144C1767.7 1151.97 1771.11 1164.35 1772.61 1171.5C1774.84 1182.14 1775.34 1187.13 1775.36 1199C1775.39 1210.97 1775.01 1214.85 1773.2 1221.25C1771.99 1225.51 1769.46 1232.04 1767.58 1235.75C1765.7 1239.46 1762.22 1244.78 1759.83 1247.56C1757.45 1250.35 1753.11 1254.62 1750.19 1257.06C1747.27 1259.5 1742.32 1262.96 1739.19 1264.74C1736.06 1266.52 1733.16 1267.98 1732.75 1267.99C1732.34 1267.99 1732 1265.3 1732 1262C1732 1258.55 1731.14 1253.56 1729.98 1250.25C1728.87 1247.09 1726.31 1242.02 1724.29 1239C1722.27 1235.97 1718.56 1231.52 1716.06 1229.1C1713.55 1226.68 1708.35 1222.47 1704.5 1219.76C1700.65 1217.04 1693.45 1212.77 1688.5 1210.28C1683.55 1207.78 1675 1203.99 1669.5 1201.85C1664 1199.72 1654.1 1196.41 1647.5 1194.5C1640.9 1192.59 1630.32 1189.93 1624 1188.59C1617.67 1187.25 1607.77 1185.44 1602 1184.56C1596.22 1183.69 1585.65 1182.57 1578.5 1182.07C1570.65 1181.53 1562.33 1181.54 1557.5 1182.1C1553.1 1182.61 1549.42 1183.13 1549.32 1183.26C1549.22 1183.39 1547.14 1188.67 1544.69 1195C1542.25 1201.32 1537.97 1213.47 1535.18 1222C1532.39 1230.52 1528.55 1243.8 1526.66 1251.5C1524.76 1259.2 1522.16 1271.35 1520.87 1278.5C1518.83 1289.83 1518.53 1294.65 1518.54 1316C1518.55 1337.4 1518.83 1341.76 1520.73 1350.5C1521.93 1356 1524.33 1364.55 1526.07 1369.5C1527.81 1374.45 1531.15 1382.32 1533.5 1387C1535.84 1391.67 1540.48 1399.55 1543.8 1404.5C1547.12 1409.45 1553.08 1417.32 1557.05 1422C1561.01 1426.67 1574.44 1441.1 1586.88 1454.05C1599.32 1467 1610.91 1479.38 1615.79 1485.5L1600.64 1486.26C1592.31 1486.68 1579.42 1487.7 1572 1488.53C1564.57 1489.36 1554 1490.73 1548.5 1491.59C1543 1492.44 1526.35 1495.33 1511.5 1498.02C1496.65 1500.7 1479.44 1503.59 1473.25 1504.45C1467.06 1505.3 1456.49 1505.99 1449.75 1505.98C1443.01 1505.97 1434.57 1505.34 1431 1504.58C1427.42 1503.82 1422.02 1502.1 1419 1500.74C1415.97 1499.39 1410.8 1496.23 1407.5 1493.71C1404.2 1491.2 1399.47 1486.53 1397 1483.34C1394.52 1480.14 1390.47 1473.47 1387.98 1468.52C1385.49 1463.56 1382.12 1455.12 1380.48 1449.76C1378.84 1444.4 1377.16 1440.02 1376.75 1440.01C1376.34 1440 1375.71 1441.69 1375.37 1443.75C1375.02 1445.81 1372.99 1453.69 1370.87 1461.25C1368.74 1468.81 1364.69 1481.19 1361.87 1488.75C1359.05 1496.31 1354.96 1506.55 1352.78 1511.5C1350.6 1516.45 1345.76 1526.57 1342.03 1534C1338.3 1541.42 1332.68 1552 1329.54 1557.5C1326.39 1563 1318.72 1575.15 1312.49 1584.5C1306.26 1593.85 1295.41 1608.7 1288.38 1617.5C1280.74 1627.05 1267.9 1641.2 1256.54 1652.58C1246.07 1663.08 1231.87 1676.15 1225 1681.63C1218.12 1687.1 1207.32 1694.99 1201 1699.15C1194.67 1703.32 1186.12 1708.58 1182 1710.84C1177.87 1713.11 1174.16 1714.97 1173.75 1714.98C1173.34 1714.99 1173.29 1708.14 1173.64 1699.75C1174.17 1687.32 1173.97 1682.93 1172.55 1676C1171.6 1671.32 1170 1665.92 1169 1664C1168 1662.07 1165.9 1659.28 1164.34 1657.78C1162.78 1656.29 1160.15 1654.79 1158.5 1654.45C1156.16 1653.97 1153.73 1654.77 1147.5 1658.06C1143.1 1660.37 1132.75 1666.32 1124.5 1671.28C1116.25 1676.23 1102.07 1685.27 1093 1691.38C1083.92 1697.48 1067.72 1709.06 1057 1717.11C1046.27 1725.16 1031.65 1736.61 1024.5 1742.56C1017.35 1748.51 1003.16 1761.73 992.96 1771.94C982.76 1782.15 971.4 1794.55 967.72 1799.5C964.04 1804.45 959.56 1811.1 957.76 1814.28C955.97 1817.45 954.01 1820.83 953.41 1821.78C952.48 1823.26 951.92 1822.75 949.3 1818C947.63 1814.97 943.85 1809.28 940.89 1805.33C937.92 1801.39 931.22 1793.33 926 1787.41C920.77 1781.49 910.42 1771.01 903 1764.12C895.57 1757.24 882.97 1746.18 875 1739.55C867.02 1732.92 854.2 1722.74 846.5 1716.92C838.8 1711.1 826.31 1701.98 818.75 1696.67C811.19 1691.35 801.06 1684.45 796.25 1681.34C791.44 1678.23 782.32 1672.55 776 1668.72C769.67 1664.89 761.12 1659.98 757 1657.8C751.2 1654.73 748.82 1653.98 746.5 1654.45C744.85 1654.79 742.22 1656.29 740.66 1657.78C739.1 1659.28 737 1662.07 736 1664C735 1665.92 733.4 1671.32 732.45 1676C731.03 1682.93 730.83 1687.32 731.36 1699.75C731.71 1708.14 731.66 1714.99 731.25 1714.98C730.84 1714.97 727.12 1713.11 723 1710.84C718.87 1708.58 710.32 1703.32 704 1699.15C697.67 1694.99 686.87 1687.1 680 1681.63C673.12 1676.15 658.93 1663.08 648.46 1652.58C636.99 1641.09 624.34 1627.14 616.65 1617.5C609.62 1608.7 599.47 1594.97 594.09 1587C588.71 1579.02 581.31 1567.44 577.65 1561.25C573.99 1555.06 567.67 1543.36 563.59 1535.25C559.52 1527.14 554.4 1516.45 552.22 1511.5C550.04 1506.55 545.95 1496.31 543.13 1488.75C540.31 1481.19 536.26 1468.81 534.13 1461.25C532.01 1453.69 529.98 1445.81 529.63 1443.75C529.29 1441.69 528.66 1440 528.25 1440.01C527.84 1440.02 526.16 1444.4 524.52 1449.76C522.88 1455.12 519.51 1463.56 517.02 1468.52C514.53 1473.47 510.47 1480.14 508 1483.34C505.52 1486.53 500.8 1491.2 497.5 1493.71C494.2 1496.23 489.02 1499.39 486 1500.74C482.97 1502.1 477.57 1503.82 474 1504.58C470.42 1505.34 461.99 1505.97 455.25 1505.98C448.51 1505.99 437.94 1505.3 431.75 1504.45C425.56 1503.59 408.35 1500.7 393.5 1498.02C378.65 1495.33 362 1492.44 356.5 1491.59C351 1490.73 340.42 1489.36 333 1488.53C325.57 1487.7 312.69 1486.68 289.21 1485.5L292.36 1481.55C294.09 1479.38 305.46 1467.23 317.62 1454.55C329.79 1441.87 343.23 1427.45 347.47 1422.5C351.72 1417.55 357.91 1409.45 361.22 1404.5C364.53 1399.55 369.16 1391.67 371.5 1387C373.85 1382.32 377.19 1374.45 378.93 1369.5C380.67 1364.55 383.07 1356 384.27 1350.5C386.17 1341.76 386.45 1337.4 386.46 1316C386.47 1294.65 386.17 1289.83 384.13 1278.5C382.84 1271.35 380.24 1259.2 378.34 1251.5C376.45 1243.8 372.61 1230.52 369.82 1222C367.03 1213.47 362.75 1201.32 360.31 1195C357.86 1188.67 355.78 1183.39 355.68 1183.26C355.58 1183.13 351.9 1182.61 347.5 1182.1C342.67 1181.54 334.35 1181.53 326.5 1182.07C319.35 1182.57 308.77 1183.69 303 1184.56C297.22 1185.44 287.32 1187.25 281 1188.59C274.67 1189.93 264.1 1192.59 257.5 1194.5C250.9 1196.41 241 1199.72 235.5 1201.85C230 1203.99 221.45 1207.78 216.5 1210.28C211.55 1212.77 204.35 1217.04 200.5 1219.76C196.65 1222.47 191.45 1226.68 188.94 1229.1C186.44 1231.52 182.73 1235.97 180.71 1239C178.69 1242.02 176.13 1247.09 175.02 1250.25C173.86 1253.56 173 1258.55 173 1262C173 1265.3 172.66 1267.99 172.25 1267.98C171.84 1267.96 168.8 1266.41 165.5 1264.53C162.2 1262.65 157.25 1259.25 154.5 1256.96C151.75 1254.68 147.56 1250.49 145.18 1247.66C142.81 1244.82 139.32 1239.46 137.43 1235.75C135.54 1232.04 133.02 1225.51 131.81 1221.25C130.04 1214.98 129.62 1210.83 129.61 1199.5C129.59 1188.85 130.13 1182.75 131.88 1174C133.14 1167.67 135.74 1157.32 137.66 1151C139.58 1144.67 143.56 1133.42 146.49 1126C149.43 1118.57 155.25 1105.19 159.42 1096.25C163.59 1087.31 171.57 1071.34 177.15 1060.75C182.74 1050.16 192.71 1031.82 199.31 1020C205.91 1008.17 218.73 985.22 227.81 969C236.89 952.77 250.7 926.9 258.5 911.5C266.3 896.1 275.52 876.75 279 868.5C282.47 860.25 287.69 846.3 290.59 837.5C293.49 828.7 296.83 816.77 298.01 811C299.2 805.22 300.35 797.12 300.57 793C300.91 786.49 300.82 785.96 299.88 789C299.29 790.92 297.67 796.1 296.28 800.5C294.89 804.9 292.18 811.65 290.26 815.5C288.34 819.35 284.85 825.2 282.51 828.5C280.17 831.8 274.71 837.88 270.38 842C266.04 846.13 260.02 851.13 257 853.13C253.97 855.12 248.35 858.32 244.5 860.23C240.65 862.15 233.9 864.89 229.5 866.32C225.1 867.75 217.67 869.71 213 870.69C206.52 872.04 199.99 872.45 185.5 872.41C168.96 872.36 164.88 872.02 154 869.73C147.12 868.29 137.79 865.96 125 862L138.14 847.75C145.37 839.91 155.09 828.77 159.74 823C164.39 817.22 172.24 806.42 177.18 799C182.12 791.57 189.48 778.75 193.53 770.5C197.59 762.25 202.68 750.1 204.86 743.5C207.03 736.9 209.73 727.22 210.86 722C211.98 716.77 213.6 706.87 214.45 700C215.3 693.12 216.45 676.25 217.02 662.5C217.59 648.75 218.51 632.55 219.08 626.5C219.65 620.45 220.75 611.9 221.52 607.5C222.29 603.1 224.09 595.45 225.53 590.5C226.96 585.55 229.48 578.12 231.12 574C232.76 569.87 236.35 562.45 239.09 557.5C241.83 552.55 246.86 544.6 250.28 539.83C253.7 535.06 259.87 527.23 264 522.44C268.12 517.65 275.79 509.63 281.02 504.62C286.26 499.6 294.59 492.08 299.52 487.9C304.46 483.71 314.35 475.89 321.5 470.5C328.65 465.11 343.5 454.76 354.5 447.5C365.5 440.23 381.92 429.88 391 424.49C400.07 419.09 415.6 410.19 425.5 404.7C435.4 399.21 451.71 390.51 461.75 385.36C471.79 380.21 479.83 375.66 479.63 375.25C479.42 374.84 477.17 373.94 474.63 373.25C472.08 372.56 464.94 371.58 458.75 371.07C452.56 370.56 427.92 369.86 404 369.52C380.07 369.18 353.3 368.45 344.5 367.88C335.7 367.32 325.12 366.22 321 365.44C316.87 364.66 312.24 363.45 310.71 362.76C309.18 362.07 307.93 361.27 307.95 361C307.96 360.72 314.17 358.63 321.74 356.34C329.31 354.05 342.7 349.62 351.5 346.49C360.3 343.35 375.15 337.52 384.5 333.52C393.85 329.52 411.06 321.47 422.75 315.62C434.44 309.78 458.29 297.18 475.75 287.63C493.21 278.07 513.35 267.32 520.5 263.74C527.65 260.16 538.22 255.22 544 252.76C549.77 250.3 558.77 246.89 564 245.17C569.22 243.45 577.32 241.14 582 240.05C586.67 238.95 593.87 237.57 598 236.98C602.12 236.39 612.02 235.91 620 235.93C629.82 235.94 638.21 236.58 646 237.92C652.32 239.01 661.77 241.22 667 242.84C672.22 244.45 680.32 247.25 685 249.05C689.67 250.86 699.8 255.54 707.5 259.46C715.2 263.38 725.89 269.38 731.25 272.8C736.61 276.21 741.45 279 742 279C742.55 279 743 278.21 743 277.25C743 276.29 742.53 271.67 741.95 267C741.36 262.32 739.53 254.45 737.87 249.5C736.22 244.55 733.43 237.82 731.68 234.54C729.93 231.26 726.36 225.64 723.74 222.04C721.12 218.44 715.05 211.52 710.24 206.66C705.43 201.79 696.32 193.66 690 188.59C683.67 183.52 671.56 174 647.66 155.5L651.08 154.82C652.96 154.45 668.9 154.29 686.5 154.47ZM823.32 594.5C823 598.52 823.23 603.09 823.88 605.25C824.89 608.63 824.83 608.95 823.25 608.54C822.29 608.28 818.57 607.61 815 607.04C811.42 606.47 799.5 605.47 788.5 604.82C773.2 603.92 763.8 603.92 748.5 604.82C737.5 605.46 724.22 606.65 719 607.45C713.77 608.26 707.02 609.66 704 610.56C699.94 611.77 697.32 613.43 694.02 616.85L689.54 621.5C706.56 622.36 712.4 623.08 713.5 623.67C714.6 624.26 716.77 626.26 718.31 628.12L721.13 631.5C705.14 639.81 696 645.3 690.5 649.06L680.5 655.89C675.07 652.68 666.97 648.23 659 643.94C651.02 639.64 638.2 633.34 630.5 629.93C622.8 626.52 611.55 621.97 605.5 619.82C599.45 617.67 590.9 614.36 586.5 612.48C582.1 610.59 573.55 607.93 567.5 606.56C561.45 605.19 550.42 603.54 543 602.9C534.93 602.19 522.66 601.97 512.5 602.33C503.15 602.67 488.41 603.85 479.75 604.97C471.09 606.09 458.49 608.17 451.75 609.6C445.01 611.03 435.67 613.56 431 615.21C426.32 616.86 421.26 618.95 419.73 619.85C418.21 620.76 415.4 623.41 413.48 625.75L410 630C431.6 629.59 432.94 629.78 438 632.22C441.89 634.1 444.15 635.99 445.72 638.69C446.94 640.78 447.95 643.74 447.97 645.25C447.99 647.59 447.59 648 445.25 648.02C443.74 648.03 439.8 648.75 436.5 649.62C433.2 650.49 427.57 652.67 424 654.47C420.42 656.26 414.69 660.04 411.25 662.86C407.81 665.69 402.73 671.26 399.95 675.25C397.17 679.24 393.51 685.42 391.83 689C390.14 692.57 387.68 699.77 386.35 705C384.48 712.37 384 716.57 384.22 723.71L384.5 732.92C392.25 728.07 397.09 725.62 400.25 724.33C403.41 723.05 408.36 721.94 411.25 721.86C414.14 721.78 417.29 722.12 418.26 722.61C419.22 723.1 421.48 726.87 423.27 731C425.06 735.12 428.61 741.42 431.15 745C433.7 748.57 437.97 753.76 440.64 756.52C443.31 759.29 448.42 763.98 452 766.95C455.57 769.92 462.32 774.87 467 777.96C471.67 781.04 481.35 786.55 488.5 790.2C495.65 793.84 506.45 798.85 512.5 801.31C518.55 803.78 529.12 807.63 536 809.87C542.87 812.12 552.77 815.08 558 816.47C563.22 817.86 567.84 819 568.25 819C568.66 819 574.66 812.14 581.58 803.75C588.51 795.36 599.7 781.3 606.45 772.5C615.67 760.5 621.14 754.44 628.37 748.25L638 740C554.3 709.77 529.66 700.98 529.25 700.96C528.84 700.94 533.11 705.66 538.75 711.46C544.39 717.26 551.59 725.49 554.76 729.75C557.93 734.01 562.18 740.2 564.19 743.5C566.2 746.8 569.2 752.87 570.84 757C572.49 761.12 574.11 766.52 574.45 769L575.06 773.5C564.94 781.64 561.55 784 561 784C560.45 784 554.49 781.24 547.75 777.87C541.01 774.5 529.87 768.37 523 764.24C516.12 760.12 505.77 753.32 500 749.13C494.22 744.94 486.18 738.36 482.12 734.51C478.06 730.65 473.09 725.02 471.08 722C469.07 718.97 466.88 715.26 466.21 713.75C465.54 712.24 465.01 709.09 465.01 706.75C465.02 704.41 466 700.47 467.19 698C468.38 695.52 472.99 689.87 477.43 685.42C482.14 680.71 490.28 674.18 497 669.73C503.32 665.55 514.8 658.83 522.5 654.81L536.5 647.5C559.18 647.51 566.22 648.09 572 649.32C576.67 650.31 585 652.43 590.5 654.02C596 655.61 605.45 658.77 611.5 661.04C617.55 663.31 629.47 668.29 638 672.1C646.52 675.91 660.47 682.81 669 687.42C677.52 692.03 684.97 695.96 685.55 696.15C686.13 696.34 689.5 693.14 693.05 689.04C696.6 684.93 703.1 678.72 707.5 675.23C711.9 671.74 719.32 666.57 724 663.74C728.67 660.91 737 656.49 742.5 653.92C748 651.34 757.45 647.62 763.5 645.64C769.55 643.65 778.32 641.16 783 640.08C787.67 639.01 796.67 637.45 803 636.62C809.32 635.78 819.67 634.8 826 634.45C832.32 634.1 844.47 634.31 853 634.92C861.52 635.54 875.47 637.19 884 638.6C892.52 640 907.15 643.11 916.5 645.5C925.85 647.89 940.02 652.09 948 654.82L962.5 659.79C977.22 654.43 988.47 650.87 997 648.42C1005.52 645.97 1019.02 642.65 1027 641.04C1034.97 639.43 1047.35 637.34 1054.5 636.4C1063.24 635.24 1074.39 634.68 1088.5 634.68C1100.05 634.68 1113.32 635.22 1118 635.87C1122.67 636.53 1131.22 638 1137 639.13C1142.77 640.27 1153.57 643.2 1161 645.64C1168.42 648.08 1179.45 652.49 1185.5 655.44C1191.55 658.39 1199.87 663.02 1204 665.73C1208.12 668.44 1214.87 673.37 1219 676.69C1223.12 680.01 1229.09 685.94 1232.25 689.86L1238 697C1250.79 689.95 1260.69 684.78 1268.25 680.95C1275.81 677.13 1288.41 671.26 1296.25 667.9C1304.09 664.55 1317.02 659.63 1325 656.98C1332.97 654.33 1344.22 651.12 1350 649.84C1358.09 648.06 1363.6 647.52 1374 647.51L1387.5 647.5C1401.45 654.2 1410.67 659.21 1417 662.96C1423.32 666.7 1432.55 672.89 1437.5 676.71C1442.45 680.53 1448.48 685.87 1450.89 688.58C1453.3 691.28 1456.41 695.97 1457.78 699C1459.75 703.33 1460.15 705.41 1459.64 708.75C1459.29 711.09 1458.16 714.69 1457.13 716.75C1456.1 718.81 1453.04 723.2 1450.33 726.5C1447.62 729.8 1441.6 735.69 1436.95 739.6C1432.3 743.5 1424.9 749.19 1420.5 752.23C1416.1 755.28 1408.22 760.37 1403 763.54C1397.77 766.71 1386.75 772.8 1378.5 777.08L1363.5 784.85C1351.1 774.58 1347.41 771.58 1347.3 771.55C1347.19 771.52 1347.75 768.35 1348.55 764.5C1349.34 760.65 1351.71 753.9 1353.81 749.5C1355.91 745.1 1359.59 738.57 1361.98 735C1364.37 731.42 1368.15 726.25 1370.38 723.5C1372.6 720.75 1378.94 713.88 1384.46 708.23C1389.98 702.58 1394.27 697.96 1394 697.96C1393.72 697.96 1369.2 706.78 1339.5 717.56C1309.8 728.35 1285.39 737.36 1285.25 737.59C1285.11 737.81 1289.2 741.49 1294.34 745.75C1300.85 751.15 1306.2 756.83 1312.01 764.5C1316.59 770.55 1324.85 781.12 1330.36 788C1335.88 794.87 1343.76 804.55 1347.88 809.5C1352.01 814.45 1355.53 818.72 1355.72 819C1355.91 819.27 1359.98 818.43 1364.78 817.11C1369.58 815.8 1379.57 812.78 1387 810.41C1394.42 808.03 1405.9 803.88 1412.5 801.17C1419.1 798.46 1428.77 794.11 1434 791.49C1439.22 788.87 1446.87 784.68 1451 782.19C1455.12 779.7 1461.87 775.18 1466 772.16C1470.12 769.14 1476.81 763.48 1480.86 759.58C1484.91 755.69 1490.16 749.8 1492.52 746.5C1494.89 743.2 1498.45 737.12 1500.42 733C1502.4 728.87 1504.01 724.94 1504.01 724.25C1504 723.56 1505.91 722.61 1508.25 722.13C1510.59 721.65 1514.52 721.61 1517 722.04C1519.47 722.47 1523.97 723.96 1527 725.34C1530.02 726.72 1534.41 729 1536.75 730.42L1541 733C1541.03 717.08 1540.32 711.71 1538.48 704.5C1537.08 699 1534.11 690.9 1531.87 686.5C1529.64 682.1 1525.9 676.02 1523.56 673C1521.23 669.97 1517.11 665.59 1514.41 663.25C1511.71 660.91 1506.13 657.23 1502 655.07C1497.87 652.92 1491.57 650.47 1488 649.63C1484.42 648.79 1479.81 647.85 1477.75 647.55C1474.56 647.08 1474 646.62 1474 644.5C1474 643.12 1474.67 640.65 1475.5 639C1476.32 637.35 1478.24 635.16 1479.75 634.14C1481.26 633.12 1484.3 631.68 1486.5 630.95C1488.97 630.13 1494.41 629.7 1500.75 629.81C1506.39 629.92 1511.02 629.66 1511.04 629.25C1511.06 628.84 1508.81 626.36 1506.04 623.75C1503.27 621.14 1498.86 618.06 1496.25 616.91C1493.64 615.76 1486.55 613.52 1480.5 611.93C1474.45 610.33 1462.3 607.9 1453.5 606.51C1444.7 605.12 1428.72 603.45 1418 602.79C1402.83 601.87 1394.83 601.87 1382 602.81C1372.92 603.47 1361.45 604.88 1356.5 605.95C1351.55 607.01 1345.02 608.74 1342 609.8C1338.97 610.85 1333.8 613.1 1330.5 614.8C1327.2 616.51 1321.12 619.11 1317 620.58C1312.87 622.05 1303.87 625.7 1297 628.69C1290.12 631.68 1277.75 637.63 1269.5 641.92C1261.25 646.21 1252.14 651.13 1249.25 652.86L1244 656C1238.19 651.55 1233.35 648.23 1229.5 645.75C1225.65 643.27 1218.34 639.16 1213.25 636.62C1208.16 634.08 1204 631.66 1203.99 631.25C1203.99 630.84 1204.78 629.4 1205.74 628.06C1206.71 626.71 1209.3 624.81 1211.5 623.83C1214.39 622.54 1218.07 622.04 1224.75 622.02C1229.84 622.01 1234.01 621.66 1234.02 621.25C1234.02 620.84 1232.34 618.83 1230.27 616.8C1228.19 614.76 1224.92 612.44 1223 611.63C1221.07 610.83 1215.67 609.46 1211 608.6C1206.32 607.74 1197.32 606.55 1191 605.95C1184.67 605.36 1168.02 604.89 1154 604.91C1136.99 604.92 1124.17 605.46 1115.5 606.52C1108.35 607.39 1102.16 608.31 1101.75 608.55C1101.34 608.8 1101.28 605.06 1101.62 600.25C1102.11 593.29 1101.86 590.2 1100.37 585.12C1099.34 581.61 1098.16 578.57 1097.75 578.37C1097.34 578.17 1094.64 579.75 1091.75 581.89C1088.86 584.03 1084.02 587.15 1081 588.83C1077.97 590.51 1071.9 593.27 1067.5 594.96C1063.1 596.65 1050.05 600.75 1038.5 604.06C1026.95 607.38 1013 611.9 1007.5 614.12C1002 616.33 993.93 620.24 989.57 622.82C985.21 625.39 977.45 631.44 972.32 636.25L963 645C955.64 637.03 949.9 632.03 945.5 628.73C941.1 625.44 933.67 620.83 929 618.5C924.32 616.16 917.35 613.12 913.5 611.74C909.65 610.35 897.95 606.87 887.5 604C877.05 601.13 865.35 597.65 861.5 596.27C857.65 594.88 851.35 592.18 847.5 590.26C843.65 588.34 837.69 584.79 834.25 582.38C830.81 579.97 827.81 578 827.58 578C827.34 578 826.41 580.14 825.51 582.75C824.61 585.36 823.62 590.65 823.32 594.5ZM658.61 757.81C655.92 759.29 651.5 762.97 648.79 766C645.88 769.24 643.03 773.76 641.84 777C640.27 781.3 639.9 784.36 640.16 791.03C640.44 798.15 641.02 800.62 643.66 806.03C645.86 810.53 648.9 814.46 653.66 818.94C658.46 823.46 662.89 826.48 668.5 829.06C672.9 831.08 679.42 833.45 683 834.32C686.57 835.2 692.09 836.27 695.26 836.71C699.37 837.27 701.02 837.93 701.01 839C701.01 839.82 702.28 843.2 703.83 846.5C705.39 849.8 709.33 855.37 712.58 858.87C715.84 862.38 721.54 867.44 725.25 870.12C729.62 873.28 732.15 874.56 732.42 873.75C732.65 873.06 733.08 869.35 733.37 865.5C733.72 860.94 734.76 856.76 736.37 853.5C737.73 850.75 740.9 846.59 743.42 844.25C745.94 841.91 749.69 839.15 751.75 838.12C753.81 837.08 757.97 835.7 761 835.06C765.06 834.19 768.07 834.17 772.5 834.96C775.8 835.56 780.52 837.03 783 838.24C785.47 839.44 789.41 842.36 791.75 844.72C794.09 847.07 797.11 851.36 798.46 854.25C799.81 857.14 801.22 861.97 801.58 865C801.94 868.04 801.73 872.95 801.1 876C800.48 879.02 798.4 884.09 796.49 887.25C794.57 890.41 793 893.22 793 893.5C793 893.77 797.61 894 803.25 893.99C808.89 893.99 816.42 893.51 820 892.93C823.57 892.35 829.31 890.77 832.75 889.44C837.85 887.45 839.41 887.21 841.25 888.14C842.49 888.77 847.77 893.42 853 898.46C858.22 903.51 864.97 909.56 868 911.92C871.65 914.76 873.6 915.74 873.79 914.85C873.95 914.11 872.68 909.45 870.96 904.5C869.24 899.55 866.26 892.57 864.33 889C862.4 885.42 858.27 879.16 855.16 875.09C852.05 871.01 845.9 864.33 841.5 860.24C837.1 856.14 828.55 849.5 822.5 845.46C816.45 841.43 804.97 834.98 797 831.14C789.02 827.29 778.22 822.57 773 820.65C767.77 818.72 757.42 815.32 750 813.09C742.57 810.86 731.32 807.87 725 806.44C718.67 805.02 705.85 802.54 696.5 800.94C687.11 799.33 678.38 797.29 677 796.39C675.62 795.49 673.72 793.79 672.77 792.62C671.82 791.46 671.02 789.6 671 788.5C670.97 787.4 671.97 785.51 673.22 784.31C674.48 783.1 677.3 781.35 679.5 780.41C682.17 779.28 686.32 778.7 692 778.67C696.74 778.65 704.04 779.42 708.5 780.43C712.9 781.42 720.21 783.53 724.75 785.12C729.29 786.7 733.34 787.77 733.75 787.5C734.16 787.22 732.85 783.73 730.83 779.75C728.71 775.54 724.93 770.26 721.83 767.17C718.66 763.99 713.66 760.44 709.5 758.4C705.65 756.52 699.35 754.31 695.5 753.5C691.65 752.7 685.35 752.06 681.5 752.08C677.65 752.11 672.02 752.8 669 753.62C665.97 754.44 661.3 756.33 658.61 757.81ZM1176 760.02C1171.87 762.19 1165.57 766.39 1162 769.36C1158.42 772.34 1154.49 776.17 1153.25 777.89C1151.04 780.95 1151.03 781.07 1152.75 785.06C1154.01 787.98 1154.92 788.93 1156 788.46C1156.82 788.09 1160.42 786.68 1164 785.32C1167.57 783.95 1174.32 781.91 1179 780.78C1184.16 779.53 1191.04 778.69 1196.5 778.66C1204.11 778.61 1206.27 778.98 1210.5 781.05C1213.24 782.4 1216.17 784.72 1217 786.2C1218.38 788.69 1218.34 789.12 1216.41 791.7C1215.26 793.24 1213.01 795.42 1211.41 796.55C1209.65 797.78 1205.92 798.89 1202 799.34C1198.42 799.75 1186.72 801.85 1176 804.01C1165.27 806.17 1150.42 809.72 1143 811.89C1135.57 814.07 1124.55 817.62 1118.5 819.78C1112.45 821.95 1102.77 825.89 1097 828.55C1091.22 831.2 1083.35 835.15 1079.5 837.33C1075.65 839.5 1068.47 844.03 1063.55 847.39C1058.63 850.75 1050.81 857.1 1046.18 861.5C1041.56 865.9 1035.62 872.42 1032.99 876C1030.36 879.57 1026.6 885.42 1024.64 889C1022.67 892.57 1019.7 899.55 1018.02 904.5C1016.35 909.45 1014.98 914.06 1014.99 914.75C1015 915.47 1016.99 914.62 1019.67 912.75C1022.24 910.96 1029.77 904.38 1036.42 898.13C1045.77 889.32 1048.95 886.88 1050.5 887.32C1051.6 887.64 1055.87 889.11 1060 890.6C1066.33 892.89 1069.73 893.4 1081.75 893.9C1089.59 894.23 1096.02 894.27 1096.04 894C1096.05 893.72 1094.48 890.8 1092.54 887.5C1090.6 884.2 1088.5 879.25 1087.87 876.5C1087.24 873.75 1086.99 868.8 1087.32 865.5C1087.67 861.91 1089.09 857.09 1090.84 853.5C1092.49 850.15 1095.71 845.79 1098.14 843.63C1100.54 841.5 1104.3 838.93 1106.5 837.91C1108.7 836.9 1113.2 835.58 1116.5 834.98C1120.93 834.17 1123.94 834.19 1128 835.04C1131.02 835.68 1135.69 837.39 1138.38 838.85C1141.06 840.31 1144.86 843.3 1146.82 845.5C1148.78 847.7 1151.5 851.97 1152.86 855C1154.29 858.18 1155.58 863.35 1155.92 867.26C1156.24 870.98 1156.95 874 1157.5 873.97C1158.05 873.95 1161.2 871.97 1164.5 869.58C1167.8 867.2 1172.78 862.82 1175.56 859.87C1178.35 856.92 1181.8 852.47 1183.23 850C1184.66 847.52 1186.35 843.7 1186.98 841.5L1188.14 837.5C1200.82 835.42 1207.87 833.74 1212 832.43C1216.12 831.12 1222.37 828.35 1225.87 826.28C1229.37 824.2 1234.74 819.8 1237.79 816.5C1240.85 813.2 1244.51 808.02 1245.92 805C1248.16 800.23 1248.5 798.17 1248.49 789.5C1248.48 780.85 1248.14 778.83 1245.99 774.54C1244.62 771.82 1241.65 767.54 1239.39 765.04C1237.13 762.54 1233.08 759.29 1230.39 757.81C1227.7 756.33 1222.8 754.42 1219.5 753.56C1216.2 752.69 1210.12 752.02 1206 752.05C1201.87 752.08 1195.12 753.01 1191 754.1C1186.87 755.2 1180.12 757.86 1176 760.02ZM573.5 872.06C568.55 873.8 561.35 876.82 557.5 878.76C553.65 880.69 547.35 884.34 543.5 886.86C539.65 889.38 532.88 895.06 528.46 899.47C522.26 905.66 519.36 909.56 515.79 916.5C513.24 921.45 510.02 928.87 508.64 933C507.25 937.12 505.23 944.32 504.15 949C503.07 953.67 501.13 961.1 499.86 965.5C497.86 972.37 497.54 975.69 497.56 989C497.59 1002.29 498.06 1006.92 500.86 1021.5C502.73 1031.21 504.37 1043.43 504.68 1050C505.07 1058.12 504.77 1064.14 503.67 1070.5C502.82 1075.45 502.34 1079.72 502.62 1080C502.9 1080.27 506.25 1079.94 510.06 1079.25C513.88 1078.56 518.91 1077.12 521.25 1076.03C523.59 1074.95 527.3 1072.51 529.5 1070.6L533.5 1067.13C545.18 1079.04 557.56 1091.27 568.55 1102C579.74 1112.92 590.95 1122.94 594.02 1124.77C598.81 1127.63 600.25 1128.01 605.45 1127.77L611.4 1127.5C604.11 1119.36 601.1 1115.2 600 1113C598.9 1110.8 598 1108.44 598.01 1107.75C598.01 1106.82 601.27 1106.48 610.76 1106.43C622.39 1106.36 624.33 1106.07 633 1103.12C638.22 1101.34 645.42 1098.29 649 1096.34C652.57 1094.38 657.3 1091.5 659.5 1089.92C661.7 1088.35 663.72 1087.23 664 1087.42C664.27 1087.62 664.86 1090.87 665.31 1094.64C665.75 1098.41 667.22 1107.57 668.58 1115C669.93 1122.42 672.79 1135.7 674.93 1144.5C677.08 1153.3 680.72 1166.35 683.03 1173.5C685.35 1180.65 689.03 1191 691.21 1196.5C693.39 1202 697.87 1211.9 701.18 1218.5C704.48 1225.1 709.99 1234.77 713.42 1240C716.85 1245.22 722.43 1252.99 725.83 1257.25C729.22 1261.51 732.11 1265 732.25 1265C732.39 1265 732.54 1254.99 732.59 1242.75C732.65 1227.53 733.22 1216.71 734.39 1208.5C735.33 1201.9 737.24 1191.32 738.65 1185C740.05 1178.67 742.75 1168.32 744.64 1162C746.53 1155.67 751.43 1140.82 755.53 1129C759.63 1117.17 764.16 1103 765.6 1097.5C767.29 1091.08 768.27 1084.55 768.36 1079.25C768.44 1074.71 768.72 1070.99 769 1070.98C769.27 1070.98 771.97 1071.81 775 1072.84C778.02 1073.88 783.42 1076.18 787 1077.98C790.57 1079.77 800.7 1085.54 809.5 1090.81C818.3 1096.08 829.1 1102.08 833.5 1104.15C837.9 1106.22 845.1 1108.84 849.5 1109.97C853.9 1111.1 860.87 1112.29 865 1112.62C869.17 1112.96 876.05 1112.7 880.5 1112.04C884.9 1111.38 892.44 1109.53 897.25 1107.92C902.06 1106.31 909.71 1103.14 914.25 1100.87C918.79 1098.6 925.87 1094.49 930 1091.73C934.12 1088.97 940.2 1084.64 943.5 1082.11C946.8 1079.59 951.07 1076.1 953 1074.36L956.5 1071.2C969.67 1081.97 977.55 1087.79 982.5 1091.09C987.45 1094.39 995.55 1099.06 1000.5 1101.46C1005.45 1103.87 1012.31 1106.78 1015.75 1107.92C1019.19 1109.06 1026.16 1110.72 1031.25 1111.61C1037.85 1112.75 1042.93 1113.01 1049 1112.52C1053.67 1112.14 1061.1 1110.77 1065.5 1109.48C1069.9 1108.19 1075.97 1106.04 1079 1104.7C1082.02 1103.35 1092.6 1097.45 1102.5 1091.57C1112.4 1085.69 1123.65 1079.38 1127.5 1077.54C1131.35 1075.7 1135.51 1073.93 1136.75 1073.6C1138.85 1073.04 1139 1073.31 1138.99 1077.75C1138.98 1080.36 1139.66 1086.1 1140.49 1090.5C1141.32 1094.9 1143.53 1103.22 1145.4 1109C1147.27 1114.77 1151.79 1128.27 1155.45 1139C1159.11 1149.72 1163.42 1163.22 1165.03 1169C1166.63 1174.77 1168.87 1184 1170 1189.5C1171.13 1195 1172.74 1205.13 1173.59 1212C1174.59 1220.17 1175.05 1231.26 1174.91 1244C1174.8 1254.72 1174.99 1263.61 1175.35 1263.75C1175.71 1263.89 1178.54 1260.96 1181.64 1257.25C1184.74 1253.54 1189.4 1247.35 1191.99 1243.5C1194.59 1239.65 1198.99 1232.45 1201.78 1227.5C1204.57 1222.55 1209.4 1212.65 1212.52 1205.5C1215.64 1198.35 1220.44 1185.75 1223.19 1177.5C1225.94 1169.25 1230.17 1154.4 1232.58 1144.5C1235 1134.6 1238.33 1118.51 1239.99 1108.75C1241.64 1098.99 1243.01 1089.76 1243.02 1088.25C1243.02 1086.74 1243.36 1084.9 1243.77 1084.17C1244.31 1083.19 1246.31 1084.2 1251.5 1088.09C1255.35 1090.97 1263 1095.48 1268.5 1098.1C1274 1100.71 1281.2 1103.59 1284.5 1104.48C1287.8 1105.38 1295.45 1106.36 1301.5 1106.66C1310.05 1107.09 1312.78 1107.58 1313.77 1108.86C1314.46 1109.76 1315.03 1112.52 1315.03 1115C1315.03 1118.28 1314.21 1120.78 1312.01 1124.25C1310.36 1126.86 1307.42 1130.8 1305.5 1133C1302.44 1136.49 1302.22 1137.08 1303.75 1137.65C1304.71 1138.01 1307.3 1138.1 1309.5 1137.85C1311.7 1137.6 1315.75 1135.99 1318.5 1134.28C1321.25 1132.56 1327.32 1127.75 1332 1123.6C1336.67 1119.44 1345.15 1110.97 1350.84 1104.77C1356.53 1098.57 1364.86 1089.12 1369.34 1083.77L1377.5 1074.04C1387.97 1084.02 1390.21 1085.34 1395.75 1086.92C1399.46 1087.98 1404.41 1089.11 1406.75 1089.42C1409.09 1089.74 1410.99 1089.89 1410.98 1089.75C1410.97 1089.61 1410.31 1085.9 1409.52 1081.5C1408.72 1077.1 1408.06 1069.45 1408.05 1064.5C1408.04 1059.55 1408.67 1051.45 1409.44 1046.5C1410.21 1041.55 1412 1030.86 1413.42 1022.75C1414.98 1013.85 1416 1004.23 1416 998.5C1416 993.15 1415.13 984.52 1414.02 978.75C1412.93 973.11 1411.32 963.32 1410.44 957C1409.56 950.67 1407.47 941.22 1405.8 936C1404.13 930.77 1400.72 922.45 1398.23 917.5C1395.54 912.16 1391.62 906.32 1388.6 903.14C1385.79 900.2 1379.45 895.08 1374.5 891.78C1369.55 888.48 1361.45 883.85 1356.5 881.5C1351.55 879.15 1341.87 875.13 1335 872.56C1328.12 869.99 1322.05 868.06 1321.5 868.27C1320.95 868.47 1325.45 871.2 1331.5 874.33C1337.55 877.46 1345.65 882.41 1349.5 885.33C1353.35 888.25 1360.68 895.33 1365.79 901.07C1372.65 908.77 1376.25 913.86 1379.54 920.5C1381.99 925.45 1385.2 933.55 1386.68 938.5C1389.18 946.87 1389.38 948.84 1389.42 966.5C1389.46 983.25 1389.18 986.62 1387.09 995C1385.79 1000.22 1383.66 1007.31 1382.36 1010.75C1381.06 1014.19 1378.02 1020.94 1375.59 1025.75C1373.17 1030.56 1368.8 1037.87 1365.88 1042C1362.96 1046.12 1357.86 1052.21 1354.54 1055.53C1351.22 1058.85 1345.57 1063.56 1342 1065.99C1338.42 1068.42 1332.57 1071.64 1329 1073.16C1325.42 1074.67 1319.24 1076.38 1315.25 1076.95C1310.33 1077.66 1305.91 1077.68 1301.5 1077C1297.92 1076.45 1292.64 1075.12 1289.75 1074.04C1286.86 1072.96 1281.57 1070.21 1278 1067.92C1274.42 1065.63 1267.79 1059.99 1263.25 1055.38L1255 1047C1234.46 1039.95 1223.55 1036.59 1217.5 1034.98C1211.45 1033.37 1202.22 1031.4 1197 1030.6C1191.77 1029.8 1183.45 1028.85 1178.5 1028.5C1173.55 1028.14 1164.55 1028.37 1158.5 1029C1152.45 1029.63 1143.45 1031.21 1138.5 1032.5C1133.55 1033.79 1125.45 1036.6 1120.5 1038.75C1115.55 1040.9 1108.35 1044.57 1104.5 1046.92C1100.65 1049.26 1091.2 1055.6 1083.5 1061.01C1075.8 1066.41 1066.8 1072.45 1063.5 1074.43C1060.2 1076.41 1054.57 1079.03 1051 1080.25C1045.87 1082.01 1042.29 1082.46 1034 1082.44C1026.53 1082.41 1020.91 1081.75 1014.5 1080.15C1009.55 1078.91 1001 1076.18 995.5 1074.08C990 1071.99 980.21 1067.85 973.74 1064.89L961.98 1059.5C961.99 1049.81 962.91 1040.59 964.02 1032.75C965.12 1024.91 966.67 1015.8 967.46 1012.5C968.26 1009.11 969.67 1005.96 970.69 1005.26C971.69 1004.58 975.65 1003.51 979.5 1002.89C984.63 1002.05 988.5 1002.04 994 1002.84C998.12 1003.44 1003.86 1005.07 1006.75 1006.47C1009.64 1007.86 1012.79 1010.22 1013.75 1011.71C1014.71 1013.19 1015.48 1016.01 1015.45 1017.96C1015.42 1019.91 1014.64 1023.07 1013.72 1025C1012.8 1026.92 1009.45 1031.62 1006.27 1035.44L1000.5 1042.38C1010.57 1041.16 1019.12 1039 1026 1036.8C1032.87 1034.6 1043.67 1030.77 1050 1028.29C1056.32 1025.8 1067.12 1020.99 1074 1017.59C1080.87 1014.19 1089.42 1009.42 1093 1006.98C1096.57 1004.54 1101.22 1000.73 1103.32 998.52C1105.42 996.31 1107.48 993.15 1107.9 991.5C1108.33 989.85 1108.29 987.15 1107.82 985.5C1107.35 983.85 1105.51 981.03 1103.73 979.22C1101.95 977.42 1097.57 974.41 1094 972.52C1090.42 970.64 1083.9 968.13 1079.5 966.94C1073.6 965.36 1067.42 964.66 1056 964.28C1045.31 963.93 1036.31 964.26 1027 965.34C1019.57 966.2 1006.52 968.27 998 969.95C989.47 971.62 976.65 974.54 969.5 976.43L956.5 979.86C939.45 976.19 929.32 974.41 923 973.53C916.67 972.66 904.75 971.49 896.5 970.93C886.36 970.25 877.29 970.26 868.5 970.95C861.35 971.51 851 973.1 845.5 974.48C840 975.85 832.12 978.66 828 980.71C823.87 982.76 818.83 986.02 816.78 987.97C813.58 991.01 813.06 992.12 813.04 996C813.03 1000.15 813.43 1000.88 818.35 1005.5C821.28 1008.25 827.69 1012.59 832.59 1015.15C837.49 1017.71 846.67 1021.83 853 1024.31C859.32 1026.79 870.35 1030.62 877.5 1032.82C884.65 1035.01 893.99 1037.53 898.25 1038.4C902.51 1039.28 907.24 1040.02 908.75 1040.05C911.31 1040.09 911.4 1039.96 910 1038.18C909.17 1037.13 906.38 1033.62 903.79 1030.39C901.19 1027.15 898.54 1022.7 897.9 1020.5C896.95 1017.29 897 1015.82 898.11 1013.07C898.87 1011.18 901.07 1008.62 903 1007.36C904.92 1006.1 909.65 1004.34 913.5 1003.44C918.27 1002.32 923.05 1001.95 928.5 1002.28C932.9 1002.54 938.43 1003.38 940.8 1004.13C944.4 1005.28 945.25 1006.06 946.06 1009C946.59 1010.92 947.95 1017.9 949.06 1024.5C950.18 1031.1 951.41 1041.54 951.8 1047.71L952.5 1058.92C936.22 1066.59 926.89 1070.66 921.25 1072.91C915.61 1075.16 906.61 1078.14 901.25 1079.52C895.89 1080.91 887.9 1082.31 883.5 1082.62C877.95 1083.02 873.2 1082.7 868 1081.58C863.59 1080.62 857.21 1078.19 852.5 1075.67C848.1 1073.32 839.77 1067.99 834 1063.83C828.22 1059.68 819.45 1053.65 814.5 1050.44C809.55 1047.22 801.45 1042.69 796.5 1040.36C791.55 1038.03 783.45 1034.96 778.5 1033.53C773.55 1032.11 766.57 1030.44 763 1029.82C759.42 1029.2 749.75 1028.71 741.5 1028.72C731.87 1028.73 722.92 1029.36 716.5 1030.47C711 1031.43 702.22 1033.31 697 1034.65C691.77 1035.99 681.2 1039.19 673.5 1041.76L659.5 1046.42C644.77 1060.59 638.02 1066.3 635 1068.25C631.97 1070.2 627.14 1072.74 624.25 1073.9C621.36 1075.05 615.96 1076.47 612.25 1077.05C607.44 1077.8 603.49 1077.78 598.5 1076.99C594.65 1076.38 588.8 1074.78 585.5 1073.43C582.2 1072.09 577.07 1069.53 574.11 1067.74C571.15 1065.96 565.3 1061.3 561.11 1057.38C556.92 1053.46 550.95 1046.71 547.84 1042.38C544.72 1038.05 540.14 1030.45 537.65 1025.5C535.16 1020.55 531.77 1012.45 530.12 1007.5C528.48 1002.55 526.33 994.67 525.35 990C524.08 983.98 523.57 977.13 523.58 966.5C523.6 954.31 524.03 949.81 525.86 942.5C527.1 937.55 529.54 930.12 531.28 926C533.02 921.87 536.51 915.35 539.04 911.5C541.57 907.65 546.31 901.63 549.57 898.12C552.83 894.6 559.32 888.87 564 885.37C568.67 881.87 577.45 876.59 583.5 873.64C589.55 870.69 596.07 867.57 598 866.7C601.14 865.29 601.24 865.13 599 865.12C597.62 865.12 593.35 865.97 589.5 867C585.65 868.04 578.45 870.31 573.5 872.06ZM1096.47 1196.19C1096.45 1212.85 1095.98 1221.41 1094.62 1230C1093.61 1236.32 1091.46 1246.9 1089.84 1253.5C1088.22 1260.1 1084.03 1274.95 1080.53 1286.5C1077.04 1298.05 1073.4 1311.32 1072.46 1316C1071.3 1321.74 1070.96 1326.45 1071.39 1330.5L1072.04 1336.5C1046.82 1340.71 1031.17 1343.04 1021 1344.39C1010.82 1345.74 993.72 1347.85 983 1349.08L963.5 1351.31C932.5 1347.85 915.17 1345.74 905 1344.39C894.82 1343.04 877.95 1340.56 867.5 1338.87L848.5 1335.8C848.42 1323.17 847.66 1316.35 846.75 1312.5C845.85 1308.65 842.8 1298.07 839.99 1289C837.17 1279.92 833.14 1265.75 831.02 1257.5C828.9 1249.25 826.35 1237.55 825.36 1231.5C823.98 1223.18 823.53 1214.96 823.52 1197.75C823.51 1185.24 823.16 1175 822.75 1175C822.34 1175 819.78 1178.04 817.07 1181.75C814.37 1185.46 809.94 1192.32 807.24 1197C804.54 1201.67 800.4 1209.77 798.04 1215C795.68 1220.22 791.6 1231.02 788.97 1239C786.34 1246.97 782.6 1260.47 780.65 1269C778.71 1277.52 776.18 1290.57 775.03 1298C773.89 1305.42 772.63 1313.29 772.23 1315.47C771.55 1319.16 771.22 1319.49 767.5 1320.1C765.3 1320.46 761.47 1321.62 759 1322.68C756.52 1323.74 752.59 1326.49 750.25 1328.8C747.91 1331.11 744.93 1335.14 743.61 1337.75C742.3 1340.36 740.49 1344.97 739.59 1348C738.69 1351.02 737.5 1358.67 736.95 1365C736.39 1371.32 735.52 1379.87 735.01 1384C734.5 1388.12 734.07 1395.1 734.04 1399.5C734.02 1403.9 734.69 1413.35 735.53 1420.5C736.37 1427.65 738.58 1439.8 740.45 1447.5C742.31 1455.2 745.27 1466 747.02 1471.5C748.78 1477 755.08 1494.77 761.02 1511C766.97 1527.22 773.41 1545.67 775.34 1552C777.26 1558.32 779.77 1568 780.9 1573.5C782.03 1579 783.26 1588.22 783.63 1594C784.03 1600.4 783.83 1607.63 783.13 1612.5C782.49 1616.9 781.09 1623.42 780.02 1627C778.95 1630.57 778.31 1633.72 778.6 1634C778.89 1634.27 781.24 1633.37 783.81 1632C787.72 1629.92 789.03 1628.41 791.69 1623C793.45 1619.42 796.72 1610.42 798.95 1603C801.19 1595.57 805.74 1578.7 809.07 1565.5C812.39 1552.3 815.56 1539.7 816.1 1537.5L817.07 1533.5C820.23 1536.6 827.08 1546.04 834.33 1556.47C841.57 1566.9 849.52 1577.58 852 1580.2C856.13 1584.56 856.89 1584.96 861.25 1584.98L866 1585C861.85 1576.24 861.02 1572.76 861.01 1569.25C861 1564.93 861.49 1563.46 863.75 1560.93L866.5 1557.85C885.1 1563.3 894.1 1565.78 898.5 1566.88C902.9 1567.97 909.87 1569.55 914 1570.39C918.12 1571.22 926.9 1572.62 933.5 1573.48C940.63 1574.42 952.8 1575.05 963.5 1575.05C974 1575.04 986.71 1574.37 994 1573.44C1000.87 1572.56 1011.9 1570.73 1018.5 1569.38C1025.1 1568.02 1037.36 1565.13 1045.75 1562.95L1061 1559C1066.04 1561.92 1068.29 1564.39 1069.25 1566.38C1070.21 1568.37 1071 1570.45 1071 1571C1071 1571.55 1070.1 1574.47 1069 1577.5L1067 1583C1073.59 1582.95 1076.4 1582.27 1077.5 1581.45C1078.6 1580.63 1086.02 1570.21 1094 1558.28C1101.97 1546.35 1108.95 1536.46 1109.5 1536.3C1110.05 1536.14 1112.24 1540.61 1114.38 1546.25C1116.51 1551.89 1121.36 1564.37 1125.16 1574C1128.97 1583.62 1134.53 1596.56 1137.54 1602.75C1142.43 1612.82 1143.5 1614.31 1147.75 1616.98C1150.36 1618.62 1153.06 1619.97 1153.75 1619.98C1154.44 1619.99 1155 1619.89 1154.99 1619.75C1154.99 1619.61 1153.84 1616.12 1152.43 1612C1150.99 1607.75 1149.64 1601.03 1149.32 1596.5C1149.01 1592.1 1149.28 1585.12 1149.92 1581C1150.56 1576.87 1152.81 1568.32 1154.93 1562C1157.04 1555.67 1163.77 1539.14 1169.88 1525.25C1176 1511.36 1183.23 1493.36 1185.96 1485.25C1188.68 1477.14 1191.82 1466 1192.92 1460.5C1194.02 1455 1195.42 1445.32 1196.03 1439C1196.63 1432.67 1196.85 1423.45 1196.52 1418.5C1196.18 1413.55 1195.45 1406.12 1194.89 1402C1194.32 1397.87 1192.77 1390.11 1191.43 1384.75C1189.77 1378.1 1189 1372.21 1189.01 1366.25C1189.02 1360.96 1188.28 1354.54 1187.14 1350C1186.1 1345.87 1184.33 1340.7 1183.21 1338.5C1182.09 1336.3 1179.63 1332.7 1177.73 1330.5C1175.84 1328.3 1172.09 1325.3 1169.39 1323.84C1166.7 1322.37 1161.91 1320.68 1158.75 1320.09C1155.59 1319.49 1151.87 1319.22 1150.5 1319.5C1148.31 1319.94 1147.94 1319.6 1147.53 1316.75C1147.27 1314.96 1146.34 1308.55 1145.45 1302.5C1144.56 1296.45 1142.49 1284.97 1140.83 1277C1139.18 1269.02 1136.34 1257.32 1134.52 1251C1132.69 1244.67 1129.54 1235 1127.51 1229.5C1125.48 1224 1121.58 1214.77 1118.85 1209C1116.12 1203.22 1111.01 1194.22 1107.49 1189C1103.98 1183.77 1100.07 1178.24 1098.8 1176.69L1096.5 1173.89L1096.47 1196.19ZM770.75 1345.03C771.44 1345.01 778.19 1346.56 785.75 1348.46C793.31 1350.36 805.57 1353.03 813 1354.4C820.42 1355.77 833.25 1357.79 841.5 1358.88C849.75 1359.98 863.02 1361.46 871 1362.19C881.55 1363.14 907.04 1363.49 964.5 1363.47C1032.72 1363.44 1045.89 1363.2 1061 1361.67C1070.62 1360.69 1084.57 1359.02 1092 1357.95C1099.42 1356.87 1111.35 1354.85 1118.5 1353.45C1125.65 1352.05 1136.67 1349.54 1143 1347.89C1149.32 1346.23 1155.51 1345.13 1156.75 1345.44C1157.99 1345.75 1159.87 1347.24 1160.93 1348.75C1161.99 1350.26 1163.62 1354.42 1164.56 1358C1165.92 1363.23 1166.14 1367.14 1165.68 1378C1165.37 1385.42 1164.37 1394.87 1163.47 1399C1162.57 1403.12 1160.25 1411.45 1158.32 1417.5C1156.39 1423.55 1152.99 1431.87 1150.76 1436C1148.53 1440.12 1142.45 1450.25 1137.26 1458.5C1132.06 1466.75 1124.98 1477.55 1121.52 1482.5C1117.57 1488.16 1112.4 1493.91 1107.6 1498C1103.4 1501.57 1096.04 1506.99 1091.23 1510.04C1086.43 1513.08 1078.45 1517.06 1073.5 1518.87C1068.55 1520.69 1061.57 1522.84 1058 1523.65C1053.3 1524.72 1039.19 1525.43 1007 1526.22C974.44 1527.03 950.7 1527.02 918.5 1526.2C886.61 1525.39 872.71 1524.67 868 1523.59C864.42 1522.77 859.02 1521.25 856 1520.2C852.97 1519.16 847.12 1516.62 843 1514.56C838.87 1512.5 832.57 1508.75 829 1506.22C825.42 1503.7 818.75 1498 814.17 1493.57C808.61 1488.18 803.08 1481.34 797.54 1473C792.98 1466.12 786.11 1455.32 782.27 1449C778.43 1442.67 773.69 1433.45 771.73 1428.5C769.78 1423.55 766.81 1414.32 765.14 1408C763.47 1401.67 761.63 1393.01 761.05 1388.75C760.47 1384.49 760 1377.4 760 1373C760 1368.6 760.51 1362.64 761.12 1359.75C761.74 1356.86 763.16 1352.84 764.27 1350.8C765.38 1348.77 767.01 1346.65 767.89 1346.08C768.78 1345.52 770.06 1345.05 770.75 1345.03Z" />
</svg>
