<svg xmlns="http://www.w3.org/2000/svg" viewBox="0 0 512.64 512.64"><defs><style>.cls-1{fill:#de9923;}</style></defs><g id="Layer_2" data-name="Layer 2"><path class="cls-1" d="M296.1,137.72c132.73,0,240.32,107.59,240.32,240.32S428.83,618.36,296.1,618.36,55.78,510.76,55.78,378,163.37,137.72,296.1,137.72m0-16a255.6,255.6,0,1,0,99.78,20.15,254.74,254.74,0,0,0-99.78-20.15Z" transform="translate(-39.78 -121.72)"/></g><g id="Layer_4" data-name="Layer 4"><path class="cls-1" d="M146.84,235.54c10.56-37.34-15.55-24.26-28.77-8.48-2,2.39-15.59,21.38-20.28,28.91A230.6,230.6,0,0,0,63.28,363.81q-.45,7.28-.46,14.68a232.27,232.27,0,0,0,7.28,57.85c25.7,100.1,116.54,174.08,224.66,174.08,128.09,0,231.93-103.84,231.93-231.93A250.8,250.8,0,0,0,524,341.71c-.59-3.93-8.71,50.36-9.48,46.51,13-106.2-24.92-144.78-59.3-176.58,30,47.57,24.11,52.13,26.72,82.76C465,179.07,367.29,152.35,291.06,149.09c67.11,13.69,91.22,38.45,105.55,65.16C351,165.38,242,151.14,218,159.57c0,0,213.36,43.83,212.13,182.1C431.33,371.3,407.88,375,390.59,354s-17-43.76-1.36-53.32c-39.53-.86-61.25,43.88-36.93,63,2.61-3.47,8.18-4.55,10-3,20,18.68-5.18,41.72-47,23-46.91-21-134.34-87.29-138.9-196.76-7.91,15-18.9,107.52,20.2,145.31-41.05-15-43.33-95.08-44.65-91.59C129,332,144.45,382.36,207,414.94c-31.71-12.82-63.2-27.37-75.58-68.42,6.51,127.71,94.48,141.4,157.68,157.68-22.8,1.31-32.58-1.3-65.2-11,42.09,23.51,87.28,31.46,109.24,34.24,5,.63,14.5.9,16.12.95,40.79,1.26,98.36,18.09,59.33,37.88-135,74.08-290.7-3.11-330-128.73a94.1,94.1,0,0,1-4.66-31.29C73.81,371,85.83,329.18,108.1,297.7c.59-.83,2.35-3.53,2.77-4.08,6.29-8.13,32.11-17.41,10.12,12.83,31.28-30.3-5.21-45.29-21.17-20.85,6.62-30.52,44-54.84,31.82-18.35,15.63-25.63-6.09-37.69-17.81-20.42C130.44,214.25,152.49,206.87,146.84,235.54Z" transform="translate(-39.78 -121.72)"/></g></svg>
