<svg xmlns="http://www.w3.org/2000/svg" viewBox="0 0 327.9 327.9"><defs><style>.cls-1{fill:#ab1916;}</style></defs><g id="Layer_3" data-name="Layer 3"><path class="cls-1" d="M286.32,123.54c-90.4,0-163.95,73.55-163.95,164s73.55,164,164,164,164-73.55,164-163.95S376.72,123.54,286.32,123.54Zm0,13c83.24,0,151,67.72,151,151a150.24,150.24,0,0,1-32.47,93.43,70.27,70.27,0,0,1-25.59-22.62s-.12-.17-.08-.24.81-.5,2.66-.32l3.4.32L382,356.78c-13.83-5.63-17-29.56-17-29.8l-.08-.68-.62.28a159.14,159.14,0,0,1-27.87,9.11.48.48,0,0,1-.47-.23c-.14-.2-.5-1,.68-2.86l.64-1-1.15.22c-2.41.48-4.92,1.08-7.57,1.71a129.75,129.75,0,0,1-14,2.79,17.06,17.06,0,0,0,0-6.83c10.55-1.76,21.16-3.85,27.79-7.16l1-.5-1.06-.41c-2.19-.85-2.4-1.61-2.42-1.82,0-.36.35-.59.47-.65,7.86-4.32,13.58-9,15.94-13.09,2.7,5.76,11.94,10.35,21,8l.66-.18-.37-.57a1.92,1.92,0,0,1-.41-1.52.92.92,0,0,1,.62-.53c10-3.54,19.7-12.45,27.2-25.08l1.61-2.71-2.37,2.08c-13,11.45-23.91,16.8-32.34,15.89-7.35-.78-11.23-6-13.8-9.51l-.91-1.22-.4.53c-11.4,15.27-30.46,26.44-47.51,27.86-1.09-1.53-2.28-3.11-3.54-4.77l-.39-.53a115.43,115.43,0,0,0,25.47-20.08,2.19,2.19,0,0,1,.95.61,6.85,6.85,0,0,1,1.92,5.25l-.06,1.37.92-1c12.93-14.06,14.42-16.93,16.53-56.49l.23-4.33-1.21,4.16C343.22,266.83,339,278,334.34,284.37a4.72,4.72,0,0,0-2.5-2.53l-.31-.18-.27.23a126.53,126.53,0,0,1-19.08,13.6.42.42,0,0,1-.39,0,1.54,1.54,0,0,1-.59-1.16l-.2-1.2-.7,1a40.27,40.27,0,0,1-9.06,9.18,19.88,19.88,0,0,0,3.41-13.14c-.89-9-7.36-22.76-22.65-31.79-4.58-10-7.11-20.29-9.15-28.61-.41-1.65-.8-3.24-1.19-4.75l-.2-.78-.61.52c-1.77,1.52-2.44,1.52-2.64,1.44-.36-.13-.5-.94-.6-1.6l-.09-.49c-3.6-18.58-2.69-32.62,13-45.16l1.26-1-1.61.12c-1.65.12-2-.3-2.05-.43a1.12,1.12,0,0,1,.32-1A41.9,41.9,0,0,1,314.3,163c12.53,1.54,23,8.87,29.45,20.64-6.24,4.54-9.39,13.16-10.26,19.81-.77,5.82.06,10.8,2.2,13.31l.5.59.33-.7c2.1-4.44,7.42-11,11-11.29a2.26,2.26,0,0,1,2.15,1.09c.9,2.15-.21,6.49-3,11.61-6.78,12.59-21.93,27.61-39.15,30.85l-3.45.65,3.49.34c12.86,1.24,27.6-2.5,40.46-10.27,12.37-7.48,21.36-17.82,24.05-27.65,3.33-12.23-2.95-22.77-17.68-29.71-7.42-24.32-25.7-38.2-50.27-38.2h-.89c-.06,0-.11,0-.19-.11-.34-.46-.38-1.93.21-3.77l.22-.7-.73.05c-14,.91-29.09,8.14-41.34,19.83-12.64,12.06-20.92,27.29-23.33,42.87,0,.15-.07.17-.11.18-.52.22-2.45-.45-6.15-3.06l-.74-.52,0,.9c-.72,13.93,4,21.41,12,33.8a289,289,0,0,1,20.64,37.14c1.35,5.95.15,9-1.13,12.29a20.85,20.85,0,0,0-1.37,13.44,39.91,39.91,0,0,1-5.35-10.95l-.36-1.16-.56,1.08c-.28.55-.62.88-.92.92a.41.41,0,0,1-.36-.14,127,127,0,0,1-13.92-18.85l-.18-.3-.35.07a4.73,4.73,0,0,0-3.16,1.62c-2.42-7.53-3-19.42-2.19-44.14l.14-4.33-1.12,4.19c-10.28,38.26-9.76,41.45-1.84,58.83l.56,1.24.37-1.31a6.85,6.85,0,0,1,3.46-4.4,2.25,2.25,0,0,1,1.09-.29,111.81,111.81,0,0,0,22.06,31.27l-.11.07-1.84,1.26c-16.56-5.76-32.6-23.08-39.05-42.23l-.21-.63-1.25.88c-3.52,2.5-8.85,6.29-16.08,4.76-8.28-1.76-17-10.23-25.8-25.16l-1.6-2.72.69,3.08c3.2,14.34,9.62,25.81,18.06,32.29a.94.94,0,0,1,.42.7c0,.39-.29.84-.86,1.31l-.53.44.58.37c7.9,5.07,18.1,3.57,22.46-1.06,1,4.6,4.95,10.85,11.09,17.39a.82.82,0,0,1,.24.77c-.08.2-.52.85-2.87,1l-1.13.06.81.79c5.65,5.57,16.22,11.31,25.81,16.28a18.38,18.38,0,0,0-2.86,6.46c-5-2-10-5.07-15-8.08-2.32-1.43-4.52-2.77-6.65-4l-1-.58.3,1.14c.44,1.69.16,2.62-.24,2.93a.49.49,0,0,1-.52.07,159.47,159.47,0,0,1-23.66-17.31l-.5-.46-.29.61c-.1.22-10.55,22-25.44,23l-3.41.24,3.33.75c1.82.41,2.38.92,2.43,1.13s-.11.18-.15.21a70.8,70.8,0,0,1-29.35,13.2,150.3,150.3,0,0,1-9-51.27C135.37,204.26,203.09,136.54,286.32,136.54Zm0,301.9c-64.38,0-119.46-40.52-141.12-97.39,26.08.7,48.19-14.09,53.07-26.06,4.57,8.17,18.45,14.33,31.57,19.31,0,0,.07,0,.09.17.06.41-.31,1.39-1.52,2.28l-.77.56.9.31A59,59,0,0,0,245,340.67a14,14,0,0,0,1.64,2.95c-6.61,5.05-14.15,6-21.31,6.52-.9.07-2.48-.21-2.91-2.79l-.07-.45-.46,0c-11.49.78-22.3,4.37-23.61,25.22-12.35,19.09-2.27,32.18,4.85,38.3,15.18,13,41.43,16.7,52,7.27l.93-.83-1.25,0c-15.28-.5-24.82-3.37-30-9-3.49-3.81-5-9-4.73-15.85,4.5-1,8.13-.53,10.79,1.36,3.06,2.16,5,6.28,5.61,12.23l.15,1.3.76-1.07c6.65-9.39,7.7-19.4,2.88-27.46s-14.76-12.72-25.46-11.91c6.87-5.71,10.19-4.52,13.41-3.38,4.69,1.66,9.13,3.24,22.14-14.69.22.58.47,1.17.75,1.75-1.6,1.61-4.6,5.4-3.9,10.46.83,6.06,6.57,12,17.06,17.63l2.41,1.3-1.8-2.07c-4.34-5-6.3-9-5.83-12a4.71,4.71,0,0,1,2.16-3.27,30.44,30.44,0,0,0,13.12,5.9,25.75,25.75,0,0,0,13.12-1.56,4.69,4.69,0,0,1,.88,3.68c-.52,3-3.63,6.15-9.25,9.5l-2.36,1.41,2.71-.49c12-2.14,19.32-6.12,21.85-11.8,2.24-5.05,0-9.86-1.05-11.61.36-.47.71-.94,1-1.42,6.92,21.82,11.68,21.68,16.71,21.57,3.4-.1,6.94-.18,11.69,7.38-9.92-4.1-20.72-2.83-27.9,3.41s-9.2,16-5.79,27l.38,1.25.55-1.2c2.48-5.44,5.55-8.77,9.14-9.88,3.11-1,6.7-.26,10.67,2.06-1.83,6.62-4.92,11.07-9.42,13.6-6.7,3.78-16.66,3.55-31.33-.73l-1.2-.35.63,1.08c4.75,8.18,18,13,31.73,13a52.65,52.65,0,0,0,20-3.74c8.66-3.59,22.32-12.91,16.5-34.89,5.24-20.22-3.92-27-14.6-31.3l-.42-.17-.21.4c-1.21,2.32-2.79,2.09-3.63,1.74-7.1-2.91-14.41-6.39-19.07-14.08.62-.4,1.19-.8,1.72-1.22a59.18,59.18,0,0,0,16,2.06l.95,0-.55-.77a3.09,3.09,0,0,1-.75-2.65c.06-.12.12-.12.15-.13,14-.65,29.12-2.2,36-8.54.95,13.25,18.25,35,44.43,41.84A150.72,150.72,0,0,1,286.32,438.44Z" transform="translate(-122.37 -123.54)"/></g></svg>
