<!-- Generated by IcoMoon.io -->
<svg version="1.1" xmlns="http://www.w3.org/2000/svg" width="1024" height="1024" viewBox="0 0 1024 1024">
<title></title>
<g id="icomoon-ignore">
</g>
<path fill="#90119e" d="M-0.996 518.807c0 279.595 227.481 507.068 507.068 507.068s507.068-227.481 507.068-507.068-227.481-507.068-507.068-507.068-507.068 227.481-507.068 507.068zM972.863 518.807c0 29.417-2.743 58.235-7.989 86.151-17.764-21.759-31.999-24.404-43.857-32.393-7.801-30.918-4.119-55.983 15.414-56.484-9.258-37.155-49.952-16.415-52.427-30.418-13.958-29.917 25.485-50.202 49.326-43.437-5.531-23.903-62.935-52.114-83.908-49.246-13.565-27.049-1.644-71.898 28.38-89.77-28.38-25.342-83.488 4.325-92.54-7.095s-8.239-47.932 12.314-58.771c-53.866-28.711-102.816 26.799-112.261 37.656-12.314-5.531-29.998-94.845 2.475-103.522-77.724-1.457-86.383 91.226-86.383 91.226s-80.494-32.205-29.605-76.268c-13.565-4.575-60.147 21.598-56.734 63.954-11.107-0.706-22.822-28.586-11.107-39.818-36.7-11.59-43.169 44.17-41.945 55.027-37.012-4.7-31.454-41.632-17.89-43.437-55.84-11.59-45.332 65.536-34.537 73.13-28.068 13.752-32.83-24.592-25.092-34.037-30.105 31.124-10.446 59.79-6.264 66.554-34.099-11.795-125.37-49.389-205.758-135.191 84.802-86.696 202.97-140.579 333.541-140.579 257.397 0 466.792 209.421 466.792 466.792zM359.455 553.057c1.081-9.195 40.301-23.385 42.356-15.647-13.565 10.276-13.377 17.604-23.215 23.886-9.651 4.245-20.079-0.188-19.141-8.239zM938.702 645.571c0 0 3.163-16.415 23.135-25.816-2.788 12.626-6.076 25.092-9.883 37.28-5.058-9.258-13.252-11.465-13.252-11.465zM39.273 518.807c0-123.851 48.495-236.568 127.47-320.226 3.726 130.902 153.063 258.184 153.206 258.309 4.387 9.365 7.22 23.51-6.72 31.124-11.983 0-37.406 20.66-19.596 57.109 0.205 0.456 1.206 2.457 4.119 3.306 11.357 3.539 24.073 10.276 24.672 15.477 0.813 6.97-6.907 11.232-15.271 9.49-0.768-0.143-1.126-0.063-1.412 0.268-0.331 0.331-0.643 0.706-0.956 1.081-4.119 5.138-4.763 13.234 1.394 23.34-1.707 8.319-18.453 25.592-29.149 24.198-46.726 4.057-18.685 45.126-22.367 55.983-1.912 7.050 4.45 16.37 14.003 17.764-14.646 47.932 28.148 108.062-2.037 190.406-8.427 24.592-2.27 29.229 6.076 3.306 23.072-55.84 9.963-109.080 10.151-150.918 3.932 6.845 9.115 13.877 15.602 19.659 4.995 14.646 8.614 38.782 0.143 73.918 9.901 2.162 27.38-41.9 27.38-41.9s7.363 10.839 3.369 24.198c42.919-16.353 37.093-35.198 41.257-56.779 2.913-1.394 5.826-2.931 8.739-4.575 19.954 37.012 44.295 79.619 41.713 144.511-0.626 31.874 8.033 34.037 8.033 0.706 4.87-62.122-18.077-109.643-34.43-151.124 11.107 6.014 22.241 16.871 23.135 36.449 10.089 0.706 9.901-38.424-0.956-59.772-0.456-0.894-0.956-1.725-1.474-2.583 7.238 7.613 14.271 17.479 20.847 30.686-6.907-65.241-15.977-73.918-29.211-86.008 0.393-5.138 1.019-10.92 2.082-17.639 4.057-14.816 11.608-15.79 21.759-14.145 12.358 1.126 19.158 8.614 19.641 29.605 10.071 0 16.683-14.458 19.641-22.617 0.080 0 0.205 0.018 0.313 0.018 3.226 13.752 9.713 35.323 18.81 35.323-3.306-12.939 10.133-26.298 25.047-37.012 6.8 10.839 10.526 24.985 6.925 43.151 77.456-90.127 0.143-130.902 50.952-190.781-15.164 21.553-13.565 52.364-2.868 83.345 63.311 160.926-218.097 268.505-105.792 408.084-237.525-21.598-424.186-221.797-424.186-464.818z"></path>
</svg>
