<svg width="2180" height="2180" viewBox="0 0 2180 2180" fill="none" xmlns="http://www.w3.org/2000/svg">
<g clip-path="url(#clip0_482_54)">
<path fill-rule="evenodd" clip-rule="evenodd" d="M1088 24.13C1111.92 24.05 1137.12 24.44 1144 25C1150.87 25.55 1165.72 26.71 1177 27.57C1188.27 28.43 1204.92 29.99 1214 31.04C1223.07 32.1 1235.45 33.65 1241.5 34.5C1247.55 35.35 1259.47 37.2 1268 38.6C1276.52 40.01 1293.4 43.17 1305.5 45.63C1317.6 48.09 1335.6 52.09 1345.5 54.51C1355.4 56.93 1373.06 61.63 1384.75 64.96C1396.44 68.28 1415.34 74.1 1426.75 77.9C1438.16 81.69 1454.92 87.57 1464 90.97C1473.07 94.36 1487.92 100.21 1497 103.95C1506.07 107.7 1520.7 114.02 1529.5 118C1538.3 121.98 1555.29 130.14 1567.25 136.12C1579.21 142.1 1595.64 150.67 1603.75 155.16C1611.86 159.64 1625.7 167.59 1634.5 172.83C1643.3 178.06 1657.47 186.84 1666 192.34C1674.52 197.83 1687.35 206.37 1694.5 211.3C1701.65 216.24 1716.95 227.36 1728.5 236.03C1740.05 244.7 1755.35 256.58 1762.5 262.44C1769.65 268.3 1783.37 279.92 1793 288.26C1802.62 296.6 1825.37 318.29 1843.54 336.46C1861.71 354.63 1883.4 377.37 1891.74 387C1900.08 396.62 1911.7 410.35 1917.56 417.5C1923.42 424.65 1935.3 439.95 1943.97 451.5C1952.64 463.05 1963.76 478.35 1968.7 485.5C1973.63 492.65 1982.16 505.47 1987.66 514C1993.16 522.52 2001.94 536.7 2007.17 545.5C2012.41 554.3 2020.36 568.14 2024.84 576.25C2029.33 584.36 2037.9 600.79 2043.88 612.75C2049.86 624.71 2058.02 641.7 2062 650.5C2065.98 659.3 2072.3 673.92 2076.05 683C2079.79 692.07 2085.64 706.92 2089.03 716C2092.43 725.07 2098.31 741.84 2102.1 753.25C2105.9 764.66 2111.72 783.56 2115.04 795.25C2118.36 806.94 2123.07 824.6 2125.49 834.5C2127.91 844.4 2131.91 862.4 2134.37 874.5C2136.83 886.6 2139.99 903.47 2141.4 912C2142.8 920.52 2144.65 932.45 2145.5 938.5C2146.35 944.55 2147.9 956.92 2148.96 966C2150.01 975.07 2151.58 991.72 2152.44 1003C2153.3 1014.27 2154.45 1029.35 2155 1036.5C2155.56 1043.65 2156 1067.27 2156 1089C2156 1110.72 2155.53 1134.8 2154.97 1142.5C2154.4 1150.2 2153.25 1165.5 2152.4 1176.5C2151.56 1187.5 2150.01 1203.92 2148.96 1213C2147.9 1222.07 2146.34 1234.45 2145.49 1240.5C2144.64 1246.55 2142.62 1259.37 2141 1269C2139.38 1278.62 2136.22 1295.5 2133.97 1306.5C2131.73 1317.5 2127.91 1334.6 2125.49 1344.5C2123.06 1354.4 2118.36 1372.06 2115.04 1383.75C2111.72 1395.44 2105.9 1414.34 2102.1 1425.75C2098.31 1437.16 2092.43 1453.92 2089.03 1463C2085.64 1472.07 2079.79 1486.92 2076.05 1496C2072.3 1505.07 2065.98 1519.7 2062 1528.5C2058.02 1537.3 2049.86 1554.29 2043.88 1566.25C2037.9 1578.21 2029.33 1594.64 2024.84 1602.75C2020.36 1610.86 2012.41 1624.7 2007.17 1633.5C2001.94 1642.3 1993.16 1656.47 1987.66 1665C1982.16 1673.52 1973.63 1686.35 1968.7 1693.5C1963.76 1700.65 1952.64 1715.95 1943.97 1727.5C1935.3 1739.05 1923.42 1754.35 1917.56 1761.5C1911.7 1768.65 1900.08 1782.37 1891.74 1792C1883.4 1801.62 1861.71 1824.37 1843.54 1842.54C1825.37 1860.71 1802.62 1882.4 1793 1890.74C1783.37 1899.08 1769.65 1910.7 1762.5 1916.56C1755.35 1922.42 1740.05 1934.3 1728.5 1942.97C1716.95 1951.64 1701.65 1962.76 1694.5 1967.7C1687.35 1972.63 1674.52 1981.16 1666 1986.66C1657.47 1992.16 1643.3 2000.94 1634.5 2006.17C1625.7 2011.41 1611.86 2019.36 1603.75 2023.84C1595.64 2028.33 1579.21 2036.9 1567.25 2042.88C1555.29 2048.86 1538.3 2057.02 1529.5 2061C1520.7 2064.98 1506.07 2071.3 1497 2075.05C1487.92 2078.79 1473.07 2084.64 1464 2088.03C1454.92 2091.43 1438.16 2097.31 1426.75 2101.1C1415.34 2104.9 1396.44 2110.72 1384.75 2114.04C1373.06 2117.36 1355.4 2122.07 1345.5 2124.49C1335.6 2126.91 1317.6 2130.91 1305.5 2133.37C1293.4 2135.83 1276.52 2138.99 1268 2140.4C1259.47 2141.8 1247.55 2143.65 1241.5 2144.5C1235.45 2145.35 1223.07 2146.9 1214 2147.96C1204.92 2149.01 1188.27 2150.57 1177 2151.43C1165.72 2152.29 1150.87 2153.45 1144 2154C1137.12 2154.56 1113.05 2155.01 1090.5 2155.01C1067.95 2155.01 1043.87 2154.56 1037 2154C1030.12 2153.45 1015.27 2152.29 1004 2151.43C992.72 2150.57 976.07 2149.01 967 2147.96C957.92 2146.9 945.55 2145.35 939.5 2144.5C933.45 2143.65 921.52 2141.8 913 2140.4C904.47 2138.99 887.6 2135.83 875.5 2133.37C863.4 2130.91 845.4 2126.91 835.5 2124.49C825.6 2122.07 807.94 2117.36 796.25 2114.04C784.56 2110.72 765.66 2104.9 754.25 2101.1C742.84 2097.31 726.07 2091.43 717 2088.03C707.92 2084.64 693.07 2078.79 684 2075.05C674.92 2071.3 660.3 2064.98 651.5 2061C642.7 2057.02 625.71 2048.86 613.75 2042.88C601.79 2036.9 585.36 2028.33 577.25 2023.84C569.14 2019.36 555.3 2011.41 546.5 2006.17C537.7 2000.94 523.52 1992.16 515 1986.66C506.47 1981.16 493.65 1972.63 486.5 1967.7C479.35 1962.76 464.05 1951.64 452.5 1942.97C440.95 1934.3 425.65 1922.42 418.5 1916.56C411.35 1910.7 397.62 1899.08 388 1890.74C378.37 1882.4 355.63 1860.71 337.46 1842.54C319.29 1824.37 297.6 1801.62 289.26 1792C280.92 1782.37 269.3 1768.65 263.44 1761.5C257.58 1754.35 245.7 1739.05 237.03 1727.5C228.36 1715.95 217.24 1700.65 212.3 1693.5C207.37 1686.35 198.83 1673.52 193.34 1665C187.84 1656.47 179.06 1642.3 173.83 1633.5C168.59 1624.7 160.64 1610.86 156.16 1602.75C151.67 1594.64 143.1 1578.21 137.12 1566.25C131.14 1554.29 122.98 1537.3 119 1528.5C115.02 1519.7 108.7 1505.07 104.95 1496C101.21 1486.92 95.36 1472.07 91.97 1463C88.57 1453.92 82.69 1437.16 78.9 1425.75C75.1 1414.34 69.28 1395.44 65.96 1383.75C62.63 1372.06 57.93 1354.4 55.51 1344.5C53.09 1334.6 49.09 1316.6 46.63 1304.5C44.17 1292.4 41.01 1275.52 39.6 1267C38.2 1258.47 36.35 1246.55 35.5 1240.5C34.65 1234.45 33.1 1222.07 32.04 1213C30.99 1203.92 29.42 1187.27 28.56 1176C27.7 1164.72 26.55 1149.65 25.99 1142.5C25.44 1135.35 25 1111.72 25 1090C25 1068.27 25.47 1044.2 26.03 1036.5C26.6 1028.8 27.75 1013.5 28.6 1002.5C29.44 991.5 30.99 975.07 32.03 966C33.08 956.92 34.87 942.97 36 935C37.13 927.02 39.21 913.97 40.6 906C42 898.02 44.94 882.72 47.13 872C49.32 861.27 53.09 844.4 55.51 834.5C57.94 824.6 62.63 806.94 65.96 795.25C69.28 783.56 75.1 764.66 78.9 753.25C82.69 741.84 88.57 725.07 91.97 716C95.36 706.92 101.21 692.07 104.95 683C108.7 673.92 115.02 659.3 119 650.5C122.98 641.7 131.14 624.71 137.12 612.75C143.1 600.79 151.67 584.36 156.16 576.25C160.64 568.14 168.59 554.3 173.83 545.5C179.06 536.7 187.84 522.52 193.34 514C198.83 505.47 207.37 492.65 212.3 485.5C217.24 478.35 228.36 463.05 237.03 451.5C245.7 439.95 257.58 424.65 263.44 417.5C269.3 410.35 280.92 396.62 289.26 387C297.6 377.37 319.29 354.63 337.46 336.46C355.63 318.29 378.37 296.6 388 288.26C397.62 279.92 411.35 268.3 418.5 262.44C425.65 256.58 440.95 244.7 452.5 236.03C464.05 227.36 479.35 216.24 486.5 211.3C493.65 206.37 506.47 197.83 515 192.34C523.52 186.84 537.7 178.06 546.5 172.83C555.3 167.59 569.14 159.64 577.25 155.16C585.36 150.67 601.79 142.1 613.75 136.12C625.71 130.14 642.7 121.98 651.5 118C660.3 114.02 674.92 107.7 684 103.95C693.07 100.21 707.92 94.36 717 90.97C726.07 87.57 742.84 81.69 754.25 77.9C765.66 74.1 784.56 68.28 796.25 64.96C807.94 61.63 825.6 56.93 835.5 54.51C845.4 52.09 863.4 48.09 875.5 45.63C887.6 43.17 904.47 40.01 913 38.6C921.52 37.2 933.45 35.35 939.5 34.5C945.55 33.65 957.92 32.09 967 31.04C976.07 29.99 992.95 28.4 1004.5 27.52C1016.05 26.64 1029.77 25.55 1035 25.1C1040.22 24.65 1064.07 24.22 1088 24.13ZM1359 128.06C1365.32 131.5 1376.01 137.61 1382.75 141.65L1395 149C1399.46 139.31 1400.48 136.21 1400.13 135.86C1399.78 135.51 1392.75 133.17 1384.5 130.67C1376.25 128.16 1364.55 124.73 1358.5 123.04C1352.45 121.36 1347.05 119.98 1346.5 119.97C1345.83 119.97 1345.83 120.28 1346.5 120.89C1347.05 121.4 1352.67 124.63 1359 128.06ZM735 151.71C729.22 153.91 716.06 159.15 705.75 163.35L687 171C694.16 185.34 697.98 192.54 700.12 196.25L704 203C716.01 193.42 722.87 187.66 727 184.02C731.12 180.37 739.67 173.09 746 167.83C752.32 162.56 763.14 154.04 770.03 148.88C776.93 143.72 784.23 138.37 786.28 137C788.32 135.62 789.99 134.16 789.99 133.75C790 133.34 789.44 133.02 788.75 133.05C788.06 133.08 778.05 136.39 766.5 140.41C754.95 144.43 740.77 149.52 735 151.71ZM1473.7 200.36L1470.9 202.5C1486.86 215.65 1496.67 224.01 1503 229.56C1509.32 235.11 1519.22 244 1525 249.3L1535.5 258.94C1540.92 254.04 1544.2 250.57 1546.27 248.06C1548.35 245.55 1552.03 239.45 1554.45 234.5C1556.87 229.55 1560.25 221.22 1561.95 216C1564.88 207.01 1564.95 206.43 1563.27 205.2C1562.3 204.49 1549.35 197.9 1534.5 190.55C1519.65 183.2 1506.6 176.95 1505.5 176.64C1504 176.23 1500.09 178.88 1490 187.15C1482.57 193.24 1475.24 199.18 1473.7 200.36ZM557.95 240.25C549.95 245.32 543.33 250.15 543.24 250.98C543.14 251.82 544.38 255.2 545.98 258.5C547.59 261.8 550.28 266.19 551.95 268.25C553.83 270.56 555.86 272 557.25 272.01C558.49 272.01 560.51 271.34 561.75 270.51C562.99 269.68 564.67 267.65 565.5 266C566.32 264.35 567.49 260.64 568.08 257.75L569.16 252.5C578.45 261.8 584.65 269.22 588.93 275C593.21 280.77 598.24 287.9 600.1 290.84L603.5 296.17C622.5 277.05 628.01 271.39 628 271.25C628 271.11 625.64 269.96 622.75 268.69C619.86 267.42 615.25 264.88 612.5 263.05C609.75 261.22 605.33 257.64 602.67 255.11C600.01 252.57 596.75 248.36 595.42 245.75C594.09 243.14 593 240.32 593 239.5C593 238.67 593.67 238 594.5 238C595.32 238 598.59 237.03 601.75 235.84C604.91 234.65 608.96 232.18 610.75 230.34C612.54 228.5 613.98 226.44 613.95 225.75C613.93 225.06 611.12 222.35 607.7 219.72C604.29 217.09 601.05 214.97 600.5 215.01C599.95 215.05 593.42 218.67 586 223.06C578.57 227.45 565.95 235.19 557.95 240.25ZM1668.76 313.5C1663.58 319.55 1653.27 330.35 1645.84 337.5L1632.33 350.5C1641.06 358.52 1642.37 359.23 1643.26 358.25C1643.89 357.56 1644.76 357 1645.2 357C1645.64 357 1645.89 358.17 1645.75 359.6C1645.54 361.77 1648.67 365.44 1664.5 381.58L1683.5 400.96C1686.77 397.5 1689.97 393.12 1692.72 389C1695.46 384.87 1700.59 377.93 1704.1 373.58C1707.62 369.22 1713.87 362.72 1718 359.13L1725.5 352.6L1726.5 360.14C1735.8 354.12 1739.81 350.83 1741.41 348.94C1743.01 347.05 1745.39 343.02 1746.7 340C1748.02 336.97 1748.96 334.22 1748.8 333.89C1748.63 333.55 1744.67 329.99 1740 325.97C1735.32 321.96 1724.97 313.44 1717 307.05C1709.02 300.65 1699.69 293.3 1696.25 290.71C1692.81 288.12 1689.84 286 1689.65 286C1689.46 286 1686.8 289.71 1683.74 294.25C1680.68 298.79 1673.94 307.45 1668.76 313.5ZM391.5 371.15L378.5 383.89C381.6 389.75 384.19 393.15 386.25 395.23C388.31 397.3 391.8 399.9 394 401C396.2 402.1 398.45 403 399 403C399.55 403 399.89 401.85 399.75 400.44C399.61 399.03 399.84 397.68 400.25 397.44C400.66 397.2 406.07 402.06 412.26 408.25C419.93 415.91 426.39 423.65 432.5 432.5C437.44 439.65 444.18 448.37 447.49 451.88C450.79 455.39 455.52 459.99 458 462.1L462.5 465.93C467.81 458.62 473.43 450.95 478.42 444.17L487.5 431.84C477.25 421.5 472.77 416.25 470.93 413.5C469.09 410.75 466.33 404.9 464.8 400.5C463.28 396.1 462.02 391.71 462.01 390.75C462 389.27 462.56 389.42 465.68 391.75C468.88 394.15 470.25 394.5 476.43 394.48C480.32 394.47 484.32 394.02 485.32 393.48C486.9 392.63 485.92 391.45 477.84 384.5C472.73 380.1 463.35 371.32 457.01 365C450.66 358.67 442.21 349.56 438.23 344.75C434.25 339.94 430.61 336 430.14 336C429.66 336 423.7 341.04 416.89 347.21C410.07 353.37 398.65 364.15 391.5 371.15ZM1843 455.49C1836.67 458.04 1829.47 461.23 1827 462.56C1824.52 463.89 1820.92 466.55 1819 468.46C1816.6 470.84 1815.74 472.42 1816.25 473.47C1816.66 474.31 1817.9 475 1819 475C1820.1 475 1821.02 475.56 1821.03 476.25C1821.05 476.94 1816.89 481.57 1811.78 486.54C1806.68 491.51 1800.02 496.98 1797 498.7C1793.97 500.41 1787.45 503.03 1782.5 504.52C1777.55 506 1772.04 508.3 1770.25 509.61L1767 512C1771.84 520.14 1776.97 529.92 1781.51 539C1786.06 548.07 1792.61 562.7 1796.07 571.5C1799.53 580.3 1802.61 587.84 1802.93 588.27C1803.24 588.69 1807.77 586.37 1813 583.12C1820.12 578.68 1822.57 576.62 1822.79 574.85C1822.95 573.56 1822.27 571.7 1821.29 570.71C1820.31 569.73 1817.25 568.21 1814.5 567.34L1809.5 565.76C1813.37 562.9 1818.77 560.3 1824 558.14C1829.22 555.98 1837.89 552.81 1843.25 551.1C1848.61 549.4 1859.64 546.66 1867.75 545.03C1875.86 543.4 1888.12 541.4 1895 540.6C1901.87 539.8 1911.89 538.88 1917.25 538.57C1922.61 538.26 1927 537.77 1927 537.5C1927 537.22 1923.1 531.26 1918.33 524.25C1913.56 517.24 1904.73 504.75 1898.69 496.5C1892.66 488.25 1881.71 473.96 1874.36 464.75C1867.01 455.54 1860.62 447.81 1860.15 447.59C1859.68 447.36 1858.22 448 1856.9 449.01C1855.58 450.02 1849.32 452.94 1843 455.49ZM253.96 537C249.38 543.87 240.99 557.04 235.32 566.25C229.64 575.46 225.11 583.16 225.25 583.36C225.39 583.55 232.02 584.68 240 585.85C247.97 587.02 261.02 589.59 269 591.55C276.97 593.52 287.77 596.73 293 598.69C298.22 600.65 305.65 603.83 309.5 605.77C316.14 609.11 316.37 609.34 314 610.26C312.62 610.79 309.76 611.96 307.63 612.86C305.5 613.76 303.33 615.4 302.79 616.5C302.26 617.6 302.09 619.06 302.41 619.75C302.74 620.44 306.82 623.47 311.5 626.5C316.17 629.52 325.97 635.26 333.27 639.25C340.57 643.24 352.04 648.97 358.77 652C365.49 655.02 371.16 657.27 371.37 657C371.58 656.72 375.84 647.72 380.84 637C385.84 626.27 389.78 617.27 389.6 617C389.42 616.72 385.73 615.19 381.39 613.58C377.05 611.98 370.12 609.35 366 607.74C361.87 606.13 356.29 603.17 353.59 601.16C350.89 599.15 346.93 595.02 344.78 592L340.88 586.5C355.74 583.59 357.98 582.69 359.75 580.62C360.99 579.18 362.53 575.41 363.17 572.25C364.3 566.72 364.24 566.29 361.42 561.08C359.79 558.04 356.96 554.64 355 553.34C353.07 552.07 348.35 550.13 344.5 549.03C340.65 547.93 334.12 545.36 330 543.31C324.2 540.44 320.4 537.5 313.25 530.3C308.16 525.19 304.22 520.55 304.5 520C304.77 519.45 305.9 519 307 519C308.1 519 309.17 518.44 309.39 517.75C309.6 517.06 308.81 515.34 307.64 513.92C306.46 512.5 303.92 510.16 302 508.73C300.07 507.3 295.35 504.8 291.5 503.18C287.65 501.56 283.56 499.95 282.41 499.6C280.63 499.07 279.01 500.84 271.3 511.74C266.34 518.76 258.54 530.12 253.96 537ZM1988.75 669.54C1983.11 669.83 1974.45 670.54 1969.5 671.11C1964.55 671.68 1955.55 673.23 1949.5 674.56C1943.45 675.89 1934 678.49 1928.5 680.35C1923 682.2 1914.45 685.4 1909.5 687.45C1904.55 689.5 1886.1 698.51 1868.5 707.47C1850.9 716.43 1832.35 725.51 1827.29 727.63L1818.07 731.5C1816.32 742.35 1815.41 747.19 1814.91 749.25C1814.13 752.44 1814.26 753.06 1815.75 753.43C1816.71 753.66 1819.07 754.16 1821 754.54C1822.92 754.92 1824.84 755.41 1825.25 755.62C1825.66 755.83 1824.86 757.69 1823.47 759.75C1821.96 761.99 1820.94 764.91 1820.94 767C1820.94 769.05 1821.67 771.22 1822.72 772.22C1823.92 773.38 1826.14 773.95 1829.5 773.96C1832.25 773.97 1838.1 774.9 1842.5 776.03C1846.96 777.17 1852.68 779.5 1855.42 781.29C1858.13 783.05 1862.34 786.97 1864.77 790C1867.2 793.02 1870.47 797.75 1872.03 800.5C1873.59 803.25 1876.24 808.99 1877.93 813.25C1879.62 817.51 1880.75 821.34 1880.45 821.75C1880.15 822.16 1878.91 821.86 1877.7 821.09C1876.49 820.31 1873.47 818.61 1871 817.31C1868.52 816.02 1865.6 814.96 1864.5 814.97C1862.72 814.98 1862.35 816.1 1861.14 825.24C1860.4 830.88 1859.62 835.95 1859.42 836.5C1859.21 837.05 1861.63 839.38 1864.77 841.68C1867.92 843.98 1874.66 849.49 1879.75 853.93C1884.84 858.37 1892.61 866.16 1897.02 871.25C1901.42 876.34 1907.94 884.55 1911.5 889.5C1915.05 894.45 1920.89 904.35 1924.47 911.5C1928.05 918.65 1932.3 928.55 1933.93 933.5C1935.55 938.45 1937.77 947 1938.85 952.5C1939.93 958 1941.09 965.09 1941.41 968.25L1942 974C1936.96 972.45 1933.17 972 1930.32 972C1927.08 972 1924.55 972.56 1923.57 973.5C1922.71 974.32 1922 976.35 1922 978C1922 979.65 1923.83 986.51 1926.06 993.25C1928.29 999.99 1931.85 1011.57 1933.95 1019C1936.06 1026.42 1939 1037.9 1940.48 1044.5C1941.97 1051.1 1944.03 1061.45 1945.07 1067.5C1946.11 1073.55 1947.48 1084.12 1948.12 1091C1948.77 1098.05 1949.03 1109.82 1948.71 1118C1948.37 1126.49 1947.46 1134.99 1946.51 1138.5C1945.61 1141.8 1942.93 1148.55 1940.55 1153.5C1938.17 1158.45 1933.55 1166.1 1930.28 1170.5C1927.02 1174.9 1921.45 1181.45 1917.92 1185.06C1914.39 1188.67 1908.57 1194.03 1905 1196.98C1901.42 1199.94 1894.67 1204.84 1890 1207.88C1885.32 1210.92 1877.45 1215.32 1872.5 1217.66C1867.55 1220.01 1859.9 1222.85 1855.5 1223.97C1851.04 1225.12 1844.4 1226.01 1840.5 1225.99C1833.54 1225.95 1833.48 1225.93 1829.5 1221.62C1827.3 1219.23 1823.15 1213.06 1820.28 1207.89C1817.41 1202.73 1812.3 1192.2 1808.92 1184.5C1805.54 1176.8 1800.09 1163.52 1796.81 1155C1793.52 1146.47 1787.76 1130.27 1784 1119C1780.24 1107.72 1775.99 1094 1774.57 1088.5C1773.15 1083 1771.99 1077.49 1771.99 1076.25C1772 1074.22 1772.62 1074.51 1778.25 1079.13C1781.69 1081.95 1785.74 1084.88 1787.25 1085.63C1788.76 1086.38 1790.9 1087 1792 1087C1793.1 1087 1794.74 1086.66 1795.64 1086.25C1796.55 1085.84 1798.12 1083.81 1799.14 1081.75C1800.16 1079.69 1801.28 1076.09 1801.61 1073.75C1801.95 1071.41 1801.69 1066.8 1801.03 1063.5C1800.37 1060.2 1798.9 1054.35 1797.77 1050.5C1796.63 1046.65 1792 1033.6 1787.46 1021.5C1782.93 1009.4 1777.8 995 1776.07 989.5C1774.34 984 1772.6 976.7 1772.21 973.28C1771.55 967.52 1771.34 967.1 1769.25 967.53C1767.15 967.97 1767 967.66 1767 963C1767 960.25 1766.32 956.42 1765.5 954.5C1764.67 952.57 1763.21 950.76 1762.25 950.47C1761.29 950.18 1759.26 950.41 1757.75 950.97C1756.24 951.54 1752.92 953.91 1750.39 956.25C1747.85 958.59 1745.15 961.74 1744.39 963.25C1743.62 964.76 1743 967.46 1743.01 969.25C1743.01 971.04 1742.34 974.86 1741.51 977.75C1740.34 981.82 1738.48 984.61 1733.25 990.14L1726.5 997.28C1722.39 988.92 1719.69 985.21 1717.85 983.63C1716.01 982.05 1712.81 979.91 1710.75 978.88C1708.69 977.84 1706.75 977.11 1706.45 977.25C1706.15 977.39 1706.88 987.4 1708.07 999.5C1709.8 1017.1 1710.13 1025.4 1709.7 1041C1709.3 1055.62 1708.64 1062.88 1707.05 1070C1705.89 1075.22 1703.36 1084.22 1701.43 1090C1699.51 1095.77 1695.14 1106.12 1691.73 1113C1688.31 1119.87 1681.17 1132.02 1675.85 1140C1670.52 1147.97 1661.13 1160.8 1654.98 1168.5C1648.83 1176.2 1641.48 1184.9 1638.65 1187.83C1635.82 1190.76 1630.12 1195.98 1626 1199.42C1621.87 1202.86 1615.12 1207.93 1611 1210.68C1606.87 1213.44 1600.12 1217.55 1596 1219.8C1591.87 1222.06 1583.55 1225.98 1577.5 1228.51C1571.45 1231.04 1560.42 1235.06 1553 1237.44C1545.57 1239.82 1532.52 1243.39 1524 1245.36C1515.47 1247.33 1500.17 1250.31 1490 1251.98C1479.82 1253.65 1463.17 1255.92 1453 1257.02C1442.82 1258.11 1432.92 1259.24 1431 1259.52C1428.35 1259.9 1425.68 1261.79 1420 1267.31C1415.87 1271.32 1409.8 1276.67 1406.5 1279.18C1403.2 1281.7 1396.9 1286 1392.5 1288.74C1388.1 1291.48 1379.1 1296.42 1372.5 1299.72C1365.9 1303.02 1357.57 1306.67 1354 1307.84C1350.42 1309 1344.13 1310.66 1340 1311.52C1335.87 1312.38 1327.1 1313.49 1320.5 1314C1313.07 1314.56 1303.64 1314.55 1295.75 1313.96C1288.74 1313.43 1278.61 1312.14 1273.25 1311.09C1267.89 1310.04 1262.37 1308.9 1261 1308.54L1258.5 1307.9C1257.37 1339.4 1256.73 1345.17 1255.11 1350.75C1253.95 1354.74 1251.7 1360.59 1250.11 1363.75C1248.52 1366.91 1245.23 1372.2 1242.8 1375.5C1240.37 1378.8 1235.94 1383.56 1232.94 1386.09C1229.95 1388.61 1225.47 1392.04 1223 1393.71C1220.52 1395.37 1214.9 1398.54 1210.5 1400.73C1206.1 1402.93 1198.67 1406.12 1194 1407.83C1189.32 1409.53 1181.22 1412.07 1176 1413.47C1170.77 1414.86 1161.89 1416.91 1156.25 1418C1150.61 1419.1 1144.87 1420 1143.5 1420C1141.22 1420 1141.62 1419.31 1148.02 1412.25C1151.88 1407.99 1156.37 1402.02 1157.99 1399C1159.61 1395.97 1161.67 1390.12 1162.56 1386C1163.71 1380.69 1164 1376.17 1163.57 1370.5C1163.23 1366.1 1162.05 1358.67 1160.95 1354C1159.84 1349.32 1157.79 1341.67 1156.38 1337C1154.98 1332.32 1153.43 1328.05 1152.95 1327.5C1152.4 1326.86 1147.33 1328.7 1138.79 1332.66C1131.48 1336.06 1121 1340.61 1115.5 1342.8C1110 1344.98 1101 1348.2 1095.5 1349.96C1090 1351.72 1081.22 1354.12 1076 1355.28C1068.34 1356.99 1063.2 1357.4 1049.5 1357.38C1034.44 1357.37 1031.13 1357.05 1020.5 1354.57C1013.9 1353.03 1003.44 1350.02 997.25 1347.88C991.06 1345.75 979.59 1341.25 971.75 1337.89C963.91 1334.54 954.91 1330.49 951.75 1328.89C948.59 1327.3 945.66 1325.99 945.25 1325.97C944.84 1325.96 943.29 1330.12 941.82 1335.22C940.34 1340.32 938.58 1347.2 937.9 1350.5C937.23 1353.8 936.69 1361.67 936.72 1368C936.76 1377.62 937.19 1380.81 939.38 1387.5C940.82 1391.9 943.83 1398.42 946.07 1402C948.31 1405.57 951.69 1410.97 953.59 1414C955.49 1417.02 956.7 1419.62 956.27 1419.78C955.85 1419.93 951.9 1418.43 947.5 1416.44C943.1 1414.45 935.45 1410.44 930.5 1407.53C925.55 1404.62 917.79 1399.48 913.25 1396.12C908.71 1392.75 901.79 1386.96 897.87 1383.25C893.95 1379.54 887.99 1372.83 884.62 1368.35C881.25 1363.87 876.39 1356.22 873.81 1351.35C871.24 1346.48 867.77 1338.45 866.11 1333.5C864.45 1328.55 862.4 1320.45 861.54 1315.5C860.68 1310.55 859.98 1304.81 859.99 1302.75C860 1300.18 859.61 1299.14 858.75 1299.43C858.06 1299.67 854.12 1301.3 850 1303.06C845.87 1304.82 838.45 1307.29 833.5 1308.54C828.55 1309.8 819.55 1311.58 813.5 1312.51C806.74 1313.55 796.33 1314.21 786.5 1314.23C775.71 1314.25 767.24 1313.69 760.5 1312.52C755 1311.57 746.9 1309.67 742.5 1308.3C738.1 1306.93 727.52 1302.23 719 1297.86C710.47 1293.49 699.24 1286.9 694.04 1283.21C688.84 1279.52 680.06 1272.17 674.54 1266.88C669.02 1261.59 661.64 1253.27 658.15 1248.38C654.66 1243.5 650.49 1236.91 648.9 1233.75C646.42 1228.84 645.52 1227.93 642.75 1227.5C640.96 1227.22 632.52 1225.85 624 1224.44C615.47 1223.04 601.75 1220.54 593.5 1218.89C585.25 1217.24 570.4 1213.83 560.5 1211.32C550.6 1208.8 535.97 1204.52 528 1201.81C520.02 1199.09 507.65 1194.06 500.5 1190.63C493.35 1187.21 483.9 1182 479.5 1179.06C475.1 1176.12 467.93 1170.75 463.57 1167.11C459.21 1163.47 452.22 1156.67 448.04 1152C443.85 1147.32 437.56 1139.9 434.05 1135.5C430.54 1131.1 425 1123.45 421.73 1118.5C418.46 1113.55 414.04 1106.01 411.9 1101.75C409.75 1097.49 406.68 1090.06 405.06 1085.25C403.45 1080.44 401.44 1072.45 400.6 1067.5C399.76 1062.55 398.78 1053.32 398.42 1047C398.06 1040.67 398.28 1027.85 398.9 1018.5C399.52 1009.15 399.91 1001.39 399.77 1001.25C399.62 1001.12 396.01 1002.13 391.75 1003.5C387.49 1004.88 382.2 1006.9 380 1008C377.8 1009.1 374.17 1011.69 371.93 1013.75C369.69 1015.81 366.99 1019.3 365.94 1021.5C364.89 1023.7 364.02 1026.51 364.01 1027.75C364.01 1028.99 363.66 1030 363.25 1030C362.84 1030 359.91 1027.97 356.75 1025.5C353.59 1023.02 349.64 1019.09 347.98 1016.75C346.29 1014.37 344.48 1010.08 343.87 1007C343.26 1003.97 342.19 1000.37 341.48 999C340.76 997.62 338 994.83 335.34 992.78C332.68 990.74 328.92 988.62 327 988.08C324.76 987.44 322.87 987.43 321.75 988.04C320.79 988.57 319.49 990.69 318.87 992.75C318.25 994.83 318.03 998.62 318.37 1001.25C318.72 1003.86 318.66 1006 318.25 1006.01C317.84 1006.01 314.46 1004.44 310.75 1002.51C307.04 1000.58 303.83 999.11 303.63 999.25C303.43 999.39 302.32 1004.22 301.18 1010C300.03 1015.77 295.52 1032.42 291.16 1047C286.79 1061.57 282.4 1077.1 281.41 1081.5C280.41 1085.9 279.57 1093.32 279.55 1098C279.51 1105.27 279.86 1107.15 282.01 1111C284.1 1114.74 285.07 1115.54 287.76 1115.75C289.54 1115.89 292.24 1115.38 293.75 1114.63C295.26 1113.88 299.31 1110.95 302.75 1108.13C308.72 1103.23 309 1103.11 309 1105.5C309 1106.87 307.69 1113.06 306.08 1119.25C304.47 1125.44 300.68 1138.37 297.65 1148C294.61 1157.62 289.02 1174.05 285.21 1184.5C281.4 1194.95 275.93 1209.12 273.05 1216C270.16 1222.87 265.18 1233.67 261.99 1240C258.79 1246.32 254.16 1253.75 251.7 1256.5L247.22 1261.5C235.81 1261.3 229.57 1260.48 226 1259.55C222.42 1258.61 215.22 1255.83 210 1253.37C204.77 1250.9 196.22 1246.04 191 1242.57C185.77 1239.1 176.6 1231.59 170.62 1225.88C164.63 1220.17 156.84 1211.67 153.31 1207C149.77 1202.32 144.47 1193.55 141.52 1187.5C138.58 1181.45 135.42 1173.57 134.5 1170C133.5 1166.12 132.61 1157.45 132.28 1148.5C131.96 1139.88 132.25 1127.76 132.94 1120C133.61 1112.57 135.26 1099.97 136.6 1092C137.95 1084.02 141.27 1068.5 144 1057.5C146.72 1046.5 151.21 1030.19 153.97 1021.25C156.74 1012.31 159 1003.65 159 1002C159 1000.35 158.21 998.27 157.25 997.37C155.88 996.1 154.09 995.85 149 996.22C145.42 996.48 141.65 997.1 140.62 997.6C138.84 998.45 138.77 998.15 139.43 992.5C139.81 989.2 141.03 981.55 142.15 975.5C143.27 969.45 145.53 960.45 147.18 955.5C148.83 950.55 152.35 942 155 936.5C157.64 931 162.02 923.12 164.72 919C167.43 914.87 173.01 907.45 177.14 902.5C181.26 897.55 187.98 890.55 192.07 886.94C196.16 883.33 201.67 878.61 204.31 876.44C208.66 872.89 209.06 872.21 208.45 869.5C208.07 867.85 207.37 865.94 206.88 865.25C206.39 864.56 205.22 864.29 204.25 864.65C203.29 865.01 199.69 867.26 196.25 869.65C192.81 872.04 189.77 874 189.5 874C189.22 874 189.64 871.41 190.43 868.25C191.21 865.09 192.91 859.57 194.21 856C195.5 852.42 198.2 846.57 200.21 843C202.21 839.42 205.8 834.62 208.18 832.32C210.56 830.01 214.75 827 217.5 825.61C220.25 824.22 225.65 822.37 229.5 821.49C233.35 820.61 237.61 819.58 238.97 819.2C240.33 818.81 241.86 817.37 242.36 816C242.86 814.62 242.99 812.26 242.64 810.75C242.29 809.24 240.87 806.65 239.5 805C238.12 803.35 237 801.77 237 801.5C237 801.22 242.06 799.43 248.25 797.52C254.44 795.61 264.22 792.87 270 791.44C277.98 789.46 283.98 788.72 295 788.35C306.98 787.95 310.67 788.18 316.23 789.68C322.12 791.27 323.02 791.31 323.43 790C323.68 789.17 324.19 786.92 324.55 785L325.21 781.5C309.93 776.25 299.42 772.05 292 768.78C284.57 765.51 268.82 757.78 257 751.59C245.17 745.4 230.55 738.06 224.5 735.28C218.45 732.5 209 728.55 203.5 726.51C198 724.47 188.32 721.49 182 719.9C175.67 718.31 168.04 716.89 165.03 716.75L159.57 716.5C150.51 739.75 144.1 757.75 139.49 771.5C134.87 785.25 128.61 805.27 125.58 816C122.55 826.72 118.27 842.92 116.07 852C113.87 861.07 110.68 875.02 108.98 883C107.28 890.97 104.13 907.85 101.99 920.5C99.84 933.15 96.95 952.5 95.57 963.5C94.19 974.5 92.38 991.15 91.56 1000.5C90.73 1009.85 89.54 1026.95 88.91 1038.5C88.19 1051.64 87.97 1075.96 88.31 1103.5C88.63 1129.69 89.48 1154.99 90.41 1166C91.26 1176.17 92.44 1189 93.02 1194.5C93.6 1200 94.98 1211.47 96.08 1220C97.19 1228.52 99.43 1243.6 101.07 1253.5C102.7 1263.4 105.87 1280.5 108.11 1291.5C110.35 1302.5 114.37 1320.27 117.06 1331C119.75 1341.72 124 1357.7 126.51 1366.5C129.01 1375.3 135.06 1394.42 139.95 1409C144.84 1423.57 152.89 1445.62 157.84 1458C162.8 1470.37 169.63 1486.8 173.03 1494.5C176.43 1502.2 184.3 1518.85 190.52 1531.5C196.74 1544.15 205.29 1560.8 209.52 1568.5C213.75 1576.2 222.43 1591.27 228.81 1602C235.2 1612.72 247.47 1632.07 256.1 1645C264.72 1657.92 277.3 1675.92 284.05 1685C290.8 1694.07 301.38 1707.8 307.55 1715.5C313.73 1723.2 323.6 1735.12 329.49 1742C335.39 1748.87 346.64 1761.47 354.51 1770C362.37 1778.52 377.06 1793.62 387.15 1803.55C397.24 1813.48 410.69 1826.3 417.03 1832.05C423.37 1837.8 434.17 1847.26 441.03 1853.08C447.89 1858.89 459.12 1868.16 466 1873.67C472.87 1879.18 485.92 1889.21 495 1895.95C504.07 1902.7 522.07 1915.28 535 1923.9C547.92 1932.53 567.27 1944.8 578 1951.19C588.72 1957.57 603.8 1966.25 611.5 1970.48C619.2 1974.71 635.85 1983.26 648.5 1989.48C661.15 1995.7 677.8 2003.57 685.5 2006.97C693.2 2010.37 709.62 2017.2 722 2022.16C734.37 2027.11 756.42 2035.16 771 2040.05C785.57 2044.94 804.7 2050.99 813.5 2053.49C822.3 2056 838.27 2060.25 849 2062.94C859.72 2065.62 877.5 2069.65 888.5 2071.89C899.5 2074.13 916.6 2077.3 926.5 2078.93C936.4 2080.57 951.47 2082.81 960 2083.93C968.52 2085.04 982.25 2086.62 990.5 2087.43C998.75 2088.25 1012.7 2089.5 1021.5 2090.21C1031.87 2091.05 1056.14 2091.5 1090.5 2091.5C1124.86 2091.5 1149.13 2091.05 1159.5 2090.21C1168.3 2089.5 1182.25 2088.25 1190.5 2087.43C1198.75 2086.62 1212.47 2085.04 1221 2083.93C1229.52 2082.81 1244.6 2080.57 1254.5 2078.93C1264.4 2077.3 1281.5 2074.13 1292.5 2071.89C1303.5 2069.65 1321.27 2065.62 1332 2062.94C1342.72 2060.25 1358.7 2056 1367.5 2053.49C1376.3 2050.99 1395.42 2044.94 1410 2040.05C1424.57 2035.16 1446.62 2027.11 1459 2022.16C1471.37 2017.2 1487.8 2010.37 1495.5 2006.97C1503.2 2003.57 1519.85 1995.7 1532.5 1989.48C1545.15 1983.26 1561.8 1974.71 1569.5 1970.48C1577.2 1966.25 1592.27 1957.57 1603 1951.19C1613.72 1944.8 1633.07 1932.53 1646 1923.9C1658.92 1915.28 1676.92 1902.7 1686 1895.95C1695.07 1889.21 1708.12 1879.18 1715 1873.67C1721.87 1868.16 1733.11 1858.89 1739.97 1853.08C1746.83 1847.26 1757.63 1837.8 1763.97 1832.05C1770.31 1826.3 1783.76 1813.48 1793.85 1803.55C1803.94 1793.62 1818.63 1778.52 1826.49 1770C1834.36 1761.47 1845.61 1748.87 1851.51 1742C1857.4 1735.12 1867.27 1723.2 1873.45 1715.5C1879.62 1707.8 1890.2 1694.07 1896.95 1685C1903.7 1675.92 1916.28 1657.92 1924.9 1645C1933.53 1632.07 1945.8 1612.72 1952.19 1602C1958.57 1591.27 1967.25 1576.2 1971.48 1568.5C1975.71 1560.8 1984.26 1544.15 1990.48 1531.5C1996.7 1518.85 2004.57 1502.2 2007.97 1494.5C2011.37 1486.8 2018.2 1470.37 2023.16 1458C2028.11 1445.62 2036.16 1423.57 2041.05 1409C2045.94 1394.42 2051.99 1375.3 2054.49 1366.5C2057 1357.7 2061.25 1341.72 2063.94 1331C2066.62 1320.27 2070.65 1302.5 2072.89 1291.5C2075.13 1280.5 2078.3 1263.4 2079.93 1253.5C2081.57 1243.6 2083.81 1228.52 2084.92 1220C2086.02 1211.47 2087.4 1200 2087.98 1194.5C2088.56 1189 2089.74 1176.17 2090.59 1166C2091.51 1155.07 2092.38 1129.51 2092.71 1103.5C2093.07 1075.08 2092.85 1052.06 2092.09 1038.5C2091.45 1026.95 2090.25 1009.85 2089.43 1000.5C2088.61 991.15 2086.81 974.5 2085.43 963.5C2084.05 952.5 2081.16 933.15 2079.01 920.5C2076.87 907.85 2073.72 890.97 2072.02 883C2070.32 875.02 2067.13 861.07 2064.93 852C2062.73 842.92 2058.5 826.95 2055.54 816.5C2052.57 806.05 2047.58 789.62 2044.45 780C2041.32 770.37 2035.95 754.85 2032.51 745.5C2029.07 736.15 2023.23 721.07 2019.52 712C2015.82 702.92 2010.09 689.42 2006.78 682C2003.47 674.57 2000.36 668.05 1999.87 667.5C1999.28 666.85 1998.97 666.94 1998.98 667.75C1999 668.64 1996.01 669.16 1988.75 669.54ZM1953.2 1142.5L1955.14 1147C1956.21 1149.47 1957.51 1154.31 1958.04 1157.75C1958.9 1163.33 1958.75 1164.61 1956.63 1169.75C1954.63 1174.6 1954.17 1177.86 1953.68 1190.5C1953.36 1198.75 1952.4 1210.67 1951.55 1217C1950.7 1223.32 1949.3 1232.32 1948.44 1237C1947.58 1241.67 1945.34 1251.57 1943.47 1259C1941.6 1266.42 1938.31 1277.67 1936.17 1284C1934.03 1290.32 1930.59 1299.55 1928.53 1304.5C1926.47 1309.45 1923.21 1316.65 1921.28 1320.5C1919.35 1324.35 1917.59 1327.72 1917.38 1328C1917.17 1328.27 1915.98 1327.5 1914.75 1326.27C1913.51 1325.05 1911.26 1324.03 1909.75 1324.02C1908.24 1324.01 1906.1 1324.9 1905 1326C1903.9 1327.1 1903.21 1328.79 1903.46 1329.75C1903.71 1330.71 1904.59 1335.55 1905.42 1340.5C1906.25 1345.45 1907.44 1354.45 1908.07 1360.5C1908.7 1366.55 1909.2 1381.85 1909.17 1394.5C1909.15 1408.29 1908.5 1423.5 1907.55 1432.5C1906.67 1440.75 1904.84 1454.36 1903.48 1462.75C1902.11 1471.14 1899.63 1484.19 1897.96 1491.75C1896.29 1499.31 1892.88 1512.92 1890.37 1522C1887.87 1531.07 1882.88 1547.27 1879.29 1558C1875.71 1568.72 1869.06 1586.72 1864.53 1598C1860 1609.27 1853.66 1624.35 1850.44 1631.5C1847.22 1638.65 1839.76 1654.17 1833.87 1666C1827.97 1677.82 1819 1694.92 1813.94 1704C1808.87 1713.07 1800.69 1727.25 1795.75 1735.5C1790.81 1743.75 1779.91 1760.85 1771.52 1773.5C1763.13 1786.15 1749.51 1805.5 1741.26 1816.5C1733.01 1827.5 1721.53 1842.12 1715.76 1849C1709.98 1855.87 1701.62 1865.32 1689.09 1878.5L1689.02 1868.5C1688.97 1860.74 1688.51 1857.55 1686.98 1854.25C1685.89 1851.91 1683.54 1849.07 1681.75 1847.94C1679.25 1846.35 1677.35 1845.97 1673.5 1846.3C1670.6 1846.55 1665.58 1848.15 1661.53 1850.11C1655.97 1852.82 1651.53 1856.41 1639.53 1867.92C1631.26 1875.85 1620.22 1886.15 1615 1890.81C1609.77 1895.47 1600.1 1903.62 1593.5 1908.92C1586.9 1914.22 1577 1921.77 1571.5 1925.69C1566 1929.62 1555.42 1936.72 1548 1941.47C1540.57 1946.22 1525.05 1954.79 1513.5 1960.5C1501.95 1966.21 1487.1 1972.88 1480.5 1975.32C1473.9 1977.76 1462.2 1981.57 1454.5 1983.79C1446.8 1986.01 1434.42 1988.99 1427 1990.4C1419.57 1991.82 1407.42 1993.73 1400 1994.64C1390.65 1995.79 1378.51 1996.31 1360.5 1996.33C1342.62 1996.34 1329.66 1995.82 1319 1994.65C1310.47 1993.71 1297.65 1992.02 1290.5 1990.89C1283.35 1989.76 1270.97 1987.49 1263 1985.85C1255.02 1984.21 1240.4 1980.85 1230.5 1978.38C1220.6 1975.91 1203.72 1971.41 1193 1968.39C1182.27 1965.36 1155.5 1957.54 1133.5 1951C1111.5 1944.46 1084.27 1936.57 1073 1933.46C1061.72 1930.36 1044.4 1925.89 1034.5 1923.54C1024.6 1921.2 1012.33 1918.43 1007.24 1917.39C1002.15 1916.35 997.98 1915.27 997.97 1915C997.97 1914.72 1010.01 1911.25 1024.73 1907.28C1039.45 1903.32 1085.25 1891.26 1126.5 1880.49C1167.75 1869.72 1212.52 1857.96 1226 1854.35C1239.47 1850.75 1261.52 1844.67 1275 1840.84C1288.47 1837.02 1307.82 1831.16 1318 1827.83C1328.17 1824.5 1342.8 1819.3 1350.5 1816.27C1358.2 1813.24 1369.22 1808.39 1375 1805.5C1380.77 1802.61 1389.77 1797.4 1395 1793.92C1400.38 1790.34 1408.64 1783.46 1414.06 1778.05C1420 1772.11 1426.38 1764.34 1430.94 1757.5C1434.98 1751.45 1442.45 1737.95 1447.54 1727.5C1452.64 1717.05 1463.34 1693.42 1471.32 1675C1479.29 1656.57 1490.08 1632.27 1495.28 1621C1500.47 1609.72 1507.71 1594.54 1511.36 1587.25C1515.01 1579.96 1520.51 1567.36 1523.58 1559.25C1526.65 1551.14 1531.82 1538.2 1535.06 1530.5C1538.3 1522.8 1544.95 1508.4 1549.83 1498.5C1554.72 1488.6 1561.3 1476 1564.46 1470.5C1567.62 1465 1573.94 1454.87 1578.52 1448C1583.09 1441.12 1590.7 1430.66 1595.42 1424.75C1600.14 1418.84 1608.84 1409 1614.75 1402.89C1620.66 1396.78 1629.94 1388.12 1635.36 1383.64C1640.78 1379.16 1648.88 1372.87 1653.36 1369.67C1657.84 1366.46 1666.67 1360.78 1673 1357.05C1679.32 1353.32 1686.64 1349.08 1689.25 1347.63C1693.6 1345.22 1694.41 1344.14 1698.85 1334.75C1701.51 1329.11 1706.39 1320.9 1709.69 1316.5C1712.98 1312.1 1719.47 1304.88 1724.09 1300.45C1728.72 1296.03 1735.87 1289.9 1740 1286.83C1744.12 1283.77 1751.55 1278.79 1756.5 1275.76C1761.45 1272.74 1771.35 1267.33 1778.5 1263.75C1785.65 1260.16 1796.22 1255.1 1802 1252.5C1807.77 1249.91 1813.74 1246.93 1815.25 1245.89C1816.76 1244.85 1818.9 1242.2 1820 1240C1821.1 1237.8 1823.12 1235.32 1824.5 1234.5C1826.72 1233.17 1827.44 1233.17 1831 1234.5C1833.2 1235.32 1837.59 1236 1840.75 1235.99C1843.91 1235.99 1850.77 1235.35 1856 1234.56C1861.22 1233.78 1869.55 1231.66 1874.5 1229.86C1879.45 1228.05 1887.21 1224.31 1891.75 1221.54C1896.29 1218.77 1903.26 1213.75 1907.25 1210.39C1911.24 1207.03 1917.69 1200.51 1921.59 1195.89C1925.5 1191.28 1931.1 1183.9 1934.04 1179.5C1936.98 1175.1 1941.46 1167.45 1944 1162.5C1946.54 1157.55 1949.65 1151.02 1950.91 1148L1953.2 1142.5ZM123.65 1186.11C123.78 1186.33 126.29 1190.55 129.22 1195.5C132.15 1200.45 137.21 1208.1 140.46 1212.5C143.71 1216.9 151.13 1225.25 156.94 1231.05C163.52 1237.63 171.27 1244.11 177.5 1248.24C183 1251.89 190.65 1256.22 194.5 1257.86C198.35 1259.51 205.1 1261.9 209.5 1263.18C216.44 1265.19 219.7 1265.5 234 1265.5C249.04 1265.5 250.81 1265.31 254 1263.38C257.17 1261.46 257.81 1261.39 260.75 1262.63C262.54 1263.38 264.67 1265.35 265.5 1267C266.32 1268.65 268.24 1270.92 269.75 1272.04C271.26 1273.16 278.8 1276.14 286.5 1278.67C294.2 1281.2 306.8 1285.72 314.5 1288.71C322.2 1291.7 333.22 1296.57 339 1299.53C344.77 1302.49 353.55 1307.6 358.5 1310.89C363.45 1314.18 370.5 1319.49 374.17 1322.69C377.83 1325.88 383.56 1331.65 386.9 1335.5C390.24 1339.35 394.66 1345.37 396.73 1348.87C398.8 1352.37 400.95 1355.56 401.5 1355.95C402.05 1356.34 406.77 1358.15 412 1359.97C417.22 1361.79 427.12 1365.76 434 1368.78C440.87 1371.81 451 1376.74 456.5 1379.73C462 1382.73 471.45 1388.47 477.5 1392.5C483.55 1396.53 493.22 1403.62 499 1408.26C504.77 1412.9 514.92 1422.05 521.55 1428.6C528.19 1435.14 537.84 1445.45 543 1451.5C548.16 1457.55 556.42 1467.9 561.34 1474.5C566.26 1481.1 574.37 1492.57 579.35 1500C584.33 1507.42 593.25 1521.6 599.16 1531.5C605.07 1541.4 615.94 1558.05 623.31 1568.5C630.68 1578.95 642.76 1596.5 650.14 1607.5C657.53 1618.5 672.11 1640.68 682.54 1656.78C692.97 1672.88 705.59 1691.56 710.59 1698.28C715.59 1705 723.47 1714.5 728.09 1719.38C732.72 1724.27 740.32 1731.14 745 1734.65C749.67 1738.17 757.77 1743.24 763 1745.93C768.22 1748.61 777.22 1752.45 783 1754.46C788.77 1756.46 798.67 1759.4 805 1760.99C811.32 1762.58 822.8 1765.02 830.5 1766.4C838.2 1767.79 851.02 1769.84 859 1770.97C866.97 1772.09 885.65 1774.36 900.5 1776C915.35 1777.64 962.6 1782.14 1005.5 1786.01C1048.4 1789.87 1103.07 1794.82 1127 1797.02C1150.92 1799.21 1172.97 1801.27 1176 1801.58C1179.02 1801.9 1181.05 1802.52 1180.5 1802.95C1179.95 1803.39 1172.07 1806.69 1163 1810.3C1153.92 1813.91 1139.97 1819.76 1132 1823.3C1124.02 1826.84 1110.3 1833.12 1101.5 1837.25C1092.7 1841.39 1065.25 1854.65 1040.5 1866.74C1015.75 1878.83 988.52 1891.89 980 1895.77C971.47 1899.65 957.3 1905.82 948.5 1909.49C939.7 1913.15 925.64 1918.59 917.25 1921.57C908.86 1924.56 896.04 1928.8 888.75 1931C881.46 1933.2 868.75 1936.57 860.5 1938.48C852.25 1940.4 839.65 1942.85 832.5 1943.94C825.35 1945.02 813.65 1946.44 806.5 1947.1C798.21 1947.85 785.16 1948.07 770.5 1947.7C757.85 1947.37 742.32 1946.39 736 1945.52C729.67 1944.64 718.87 1942.78 712 1941.37C705.12 1939.96 692.75 1936.88 684.5 1934.52C676.25 1932.16 662.75 1927.68 654.5 1924.55C646.25 1921.43 628.25 1913.29 614.5 1906.47C600.75 1899.64 582.41 1889.66 573.74 1884.28C565.07 1878.9 550.89 1869.58 542.24 1863.57C532.98 1857.14 523.62 1851.5 519.5 1849.86C514.53 1847.88 510.69 1847.06 506.25 1847.03C502.63 1847.01 498.74 1847.63 497 1848.5C495.35 1849.32 493.26 1851.46 492.36 1853.25C491.4 1855.15 490.71 1858.99 490.69 1862.5C490.67 1865.8 491.23 1870.75 491.93 1873.5C492.63 1876.25 493.04 1879.04 492.85 1879.7C492.65 1880.38 488.3 1877.55 482.86 1873.2C477.56 1868.97 466.37 1859.2 457.98 1851.5C449.6 1843.8 435.49 1829.83 426.62 1820.45C417.75 1811.08 405.38 1797.58 399.12 1790.45C392.86 1783.33 383.61 1772.55 378.55 1766.5C373.5 1760.45 364.86 1749.87 359.35 1743C353.84 1736.12 343.26 1722.4 335.83 1712.5C328.4 1702.6 317.58 1687.75 311.79 1679.5C306 1671.25 296.1 1656.62 289.79 1647C283.48 1637.37 274.49 1623.2 269.82 1615.5C265.14 1607.8 256.67 1593.17 250.99 1583C245.3 1572.82 236.49 1555.95 231.4 1545.5C226.31 1535.05 219.15 1519.3 215.51 1510.5C211.86 1501.7 206.67 1487.97 203.99 1480C201.3 1472.02 197.55 1459.2 195.65 1451.5C193.76 1443.8 191.41 1432.32 190.44 1426C189.35 1418.94 188.64 1408.52 188.6 1399C188.56 1387.31 189.03 1381.11 190.52 1373.75C192.28 1365.08 192.33 1363.83 191 1362.43C190.17 1361.57 188.15 1360.86 186.5 1360.86C184.6 1360.87 182.59 1361.81 178.5 1366.02L170.85 1353.26C166.64 1346.24 161.4 1336.9 159.21 1332.5C157.02 1328.1 153.21 1319.77 150.75 1314C148.28 1308.22 143.91 1296.3 141.04 1287.5C138.16 1278.7 134.53 1266.1 132.96 1259.5C131.39 1252.9 129.18 1242.1 128.04 1235.5C126.91 1228.9 126 1222.37 126.02 1221C126.03 1219.62 124.63 1215.8 122.9 1212.5C119.97 1206.93 119.78 1205.97 120.24 1199C120.52 1194.87 121.34 1190.2 122.07 1188.61C122.8 1187.02 123.51 1185.9 123.65 1186.11ZM598 1325.48C626.89 1325.7 642.66 1326.25 653 1327.41C660.97 1328.3 674.47 1330.17 683 1331.56C691.52 1332.95 706.82 1336.14 717 1338.64C727.17 1341.14 741.12 1345.18 748 1347.62C754.87 1350.06 760.95 1352.46 761.5 1352.95C762.1 1353.48 756.25 1354.03 747 1354.3C738.47 1354.56 730.45 1355.15 729.17 1355.63C727.15 1356.39 727.98 1356.93 735.67 1359.87C740.53 1361.72 749.45 1365.71 755.5 1368.74C761.55 1371.76 769.65 1376.27 773.5 1378.76C777.35 1381.25 783.87 1385.85 788 1388.98C792.12 1392.11 799.72 1398.68 804.87 1403.58C810.03 1408.49 817.51 1416.55 821.51 1421.5C825.51 1426.45 831.32 1434.32 834.42 1439C837.53 1443.67 842.7 1452.67 845.92 1459C849.14 1465.32 853.45 1475 855.49 1480.5C857.54 1486 860.49 1495.45 862.06 1501.5C863.62 1507.55 865.6 1516.55 866.44 1521.5C867.29 1526.45 868.44 1537.14 868.99 1545.25C869.67 1555.18 869.67 1564.82 868.99 1574.75C868.43 1582.86 867.3 1594 866.47 1599.5C865.64 1605 863.81 1614.67 862.4 1621C861 1627.32 856.99 1641.05 853.51 1651.5C850.02 1661.95 844.99 1675.41 842.34 1681.42C839.68 1687.42 837.05 1692.48 836.5 1692.65C835.95 1692.83 834.49 1688.82 833.26 1683.74C831.86 1677.95 828.81 1670.01 825.11 1662.5C821.86 1655.9 816.34 1646.45 812.85 1641.5C809.36 1636.56 801.55 1627.51 795.5 1621.41C789.45 1615.3 780 1606.96 774.5 1602.88C769 1598.8 760.67 1593.15 756 1590.34C751.32 1587.52 742.55 1582.75 736.5 1579.72C730.45 1576.7 721 1572.35 715.5 1570.06C710 1567.78 698.75 1563.72 690.5 1561.05C682.25 1558.38 668.97 1554.62 661 1552.68C653.02 1550.75 644.02 1548.69 635.5 1547.03L618.84 1519.26C609.67 1503.99 597.13 1483.85 590.95 1474.5C584.78 1465.15 575.78 1452.32 570.95 1446C566.13 1439.67 558.47 1430.45 553.94 1425.5C549.4 1420.55 542.27 1413.41 538.1 1409.63C533.92 1405.86 527.35 1400.4 523.5 1397.5C519.65 1394.61 512.67 1389.86 508 1386.96C503.32 1384.06 493.87 1378.88 487 1375.46C480.12 1372.03 467.07 1366.3 458 1362.72C448.92 1359.15 436.21 1354.48 429.74 1352.36C423.27 1350.24 417.99 1348.16 417.99 1347.75C418 1347.34 419.69 1346.55 421.75 1346C423.81 1345.45 433.37 1343.22 443 1341.04C452.62 1338.86 468.82 1335.7 479 1334.03C489.17 1332.35 505.6 1330.08 515.5 1328.97C525.4 1327.86 538.9 1326.55 545.5 1326.06C552.1 1325.57 575.72 1325.31 598 1325.48ZM1620.5 1337.61C1643.6 1337.85 1665.31 1338.26 1668.75 1338.52C1672.19 1338.79 1675 1339.45 1675 1340C1675 1340.55 1671.96 1342.52 1668.25 1344.38C1664.54 1346.24 1655.42 1351.24 1648 1355.49C1640.57 1359.74 1630 1366.16 1624.5 1369.75C1619 1373.34 1610.01 1379.7 1604.51 1383.89C1599.02 1388.07 1589.32 1396.67 1582.96 1403C1576.6 1409.32 1567.89 1419.22 1563.6 1425C1559.31 1430.77 1552.92 1440.34 1549.4 1446.25C1545.88 1452.16 1539.91 1463.19 1536.13 1470.75C1532.35 1478.31 1526.9 1489.9 1524.03 1496.5C1521.16 1503.1 1515.31 1517.27 1511.04 1528C1506.77 1538.72 1501.16 1553.12 1493.88 1572.5L1486.19 1575.4C1481.96 1577 1471.52 1581.4 1463 1585.19C1454.47 1588.98 1441.65 1595.31 1434.5 1599.25C1427.35 1603.19 1416.32 1609.85 1410 1614.03C1403.67 1618.22 1394 1625.26 1388.5 1629.69C1383 1634.11 1373.32 1643.1 1367 1649.67C1360.67 1656.23 1352.57 1665.74 1349 1670.81C1345.42 1675.87 1340.77 1683.05 1338.65 1686.76C1336.54 1690.47 1333.07 1697.55 1330.95 1702.5C1328.83 1707.45 1325.96 1715.77 1324.56 1721C1323.17 1726.22 1321.56 1735 1320.98 1740.5C1320.39 1746 1319.83 1750.63 1319.71 1750.78C1319.59 1750.94 1316.32 1746.22 1312.44 1740.28C1308.55 1734.35 1303.06 1725.45 1300.24 1720.5C1297.42 1715.55 1292.21 1705.42 1288.67 1698C1285.12 1690.57 1280.18 1678.87 1277.69 1672C1275.2 1665.12 1271.79 1654.32 1270.11 1648C1268.44 1641.67 1266.15 1631.32 1265.03 1625C1263.91 1618.67 1262.57 1606.97 1262.05 1599C1261.45 1589.96 1261.44 1579.42 1262.02 1571C1262.53 1563.57 1263.66 1553.45 1264.52 1548.5C1265.38 1543.55 1266.95 1536.12 1268 1532C1269.05 1527.87 1271.55 1519.77 1273.56 1514C1275.58 1508.22 1278.89 1499.9 1280.92 1495.5C1282.95 1491.1 1287.27 1483 1290.51 1477.5C1293.75 1472 1299.78 1463 1303.91 1457.5C1308.04 1452 1316.63 1442.32 1322.99 1436C1329.35 1429.67 1338.24 1421.8 1342.75 1418.5C1347.25 1415.2 1355.11 1409.96 1360.22 1406.86C1365.32 1403.76 1369.69 1400.61 1369.93 1399.86C1370.28 1398.75 1369 1398.64 1362.93 1399.29C1358.84 1399.73 1351.67 1400.79 1347 1401.65C1342.32 1402.51 1337.82 1403.03 1337 1402.79C1336.14 1402.55 1339.32 1400.22 1344.5 1397.32C1349.45 1394.54 1357.1 1390.46 1361.5 1388.25C1365.9 1386.03 1374.22 1382.2 1380 1379.73C1385.77 1377.26 1396.24 1373.16 1403.25 1370.62C1410.26 1368.08 1423.09 1363.93 1431.75 1361.39C1440.41 1358.86 1454.25 1355.24 1462.5 1353.34C1470.75 1351.45 1486.5 1348.37 1497.5 1346.5C1508.5 1344.62 1525.82 1342.16 1536 1341.02C1546.17 1339.89 1559.9 1338.55 1566.5 1338.06C1573.1 1337.57 1597.4 1337.37 1620.5 1337.61Z" fill="#294056"/>
</g>
<path fill-rule="evenodd" clip-rule="evenodd" d="M1090 2180C1691.99 2180 2180 1691.99 2180 1090C2180 488.01 1691.99 0 1090 0C488.01 0 0 488.01 0 1090C0 1691.99 488.01 2180 1090 2180ZM1089 2092C1642.39 2092 2091 1643.39 2091 1090C2091 536.611 1642.39 88 1089 88C535.611 88 87 536.611 87 1090C87 1643.39 535.611 2092 1089 2092Z" fill="#294056"/>
<defs>
<clipPath id="clip0_482_54">
<rect width="2132" height="2131" fill="white" transform="translate(24 24)"/>
</clipPath>
</defs>
</svg>
