<svg width="2180" height="2180" viewBox="0 0 2180 2180" fill="none" xmlns="http://www.w3.org/2000/svg">
<g clip-path="url(#clip0_482_56)">
<path fill-rule="evenodd" clip-rule="evenodd" d="M1088.04 22.1587C1113.2 22.0688 1139.73 22.4955 1146.99 23.1019C1154.24 23.7195 1170.03 25.0108 1182.08 25.9878C1194.12 26.9535 1213.58 28.9634 1225.31 30.4344C1237.04 31.9054 1255.99 34.6902 1267.42 36.6104C1278.84 38.5306 1296.78 41.8656 1307.28 44.0215C1317.78 46.1775 1335.47 50.175 1346.58 52.9037C1357.7 55.6211 1374.88 60.1688 1384.76 62.9873C1394.64 65.817 1415.36 72.341 1430.8 77.4952C1446.24 82.6605 1468.47 90.6555 1480.21 95.2819C1491.94 99.897 1511.65 108.15 1524 113.596C1536.35 119.054 1558.08 129.407 1572.29 136.605C1586.49 143.802 1606.96 154.751 1617.76 160.927C1628.57 167.103 1642.71 175.434 1649.2 179.443C1655.68 183.452 1666.29 190.167 1672.78 194.344C1679.26 198.532 1691.14 206.539 1699.17 212.131C1707.2 217.734 1720.84 227.616 1729.49 234.083C1738.14 240.551 1749.76 249.456 1755.32 253.869C1760.88 258.271 1772.5 267.872 1781.14 275.182C1789.79 282.503 1802.17 293.328 1808.66 299.234C1815.13 305.141 1829.22 318.57 1839.93 329.092C1850.64 339.602 1866.63 356.03 1875.46 365.609C1884.28 375.176 1897.72 390.335 1905.31 399.296C1912.89 408.245 1922.72 420.125 1927.13 425.684C1931.55 431.242 1940.45 442.864 1946.92 451.51C1953.39 460.157 1963.27 473.8 1968.87 481.829C1974.46 489.858 1982.47 501.727 1986.66 508.217C1990.83 514.696 1997.55 525.307 2001.56 531.798C2005.57 538.277 2013.9 552.425 2020.08 563.239C2026.25 574.041 2037.2 594.512 2044.4 608.716C2051.59 622.921 2061.95 644.649 2067.41 657.001C2072.85 669.353 2081.1 689.06 2085.72 700.794C2090.35 712.529 2098.34 734.762 2103.51 750.202C2108.66 765.642 2115.18 786.359 2118.01 796.241C2120.83 806.122 2125.38 823.303 2128.1 834.419C2130.83 845.536 2134.82 863.222 2136.98 873.721C2139.14 884.22 2142.47 902.153 2144.39 913.584C2146.31 925.004 2149.1 943.958 2150.57 955.692C2152.04 967.427 2154.05 986.875 2155.03 998.924C2156 1010.96 2157.3 1027.01 2157.9 1034.58C2158.51 1042.14 2159 1066.9 2159 1089.6C2159.01 1112.29 2158.49 1137.68 2157.87 1146.02C2157.24 1154.36 2155.95 1170.78 2154.99 1182.52C2154.03 1194.25 2152.04 1213.45 2150.57 1225.19C2149.1 1236.92 2146.31 1255.87 2144.39 1267.3C2142.47 1278.72 2139.14 1296.66 2136.98 1307.16C2134.82 1317.66 2130.83 1335.34 2128.1 1346.46C2125.38 1357.58 2120.83 1374.76 2118.01 1384.64C2115.18 1394.52 2108.66 1415.24 2103.51 1430.68C2098.34 1446.12 2090.35 1468.35 2085.72 1480.09C2081.1 1491.82 2072.85 1511.53 2067.41 1523.88C2061.95 1536.23 2051.59 1557.96 2044.4 1572.16C2037.2 1586.37 2026.25 1606.84 2020.08 1617.64C2013.9 1628.44 2005.57 1642.59 2001.56 1649.08C1997.55 1655.56 1990.83 1666.17 1986.66 1672.66C1982.47 1679.14 1974.46 1691.02 1968.87 1699.05C1963.27 1707.08 1953.39 1720.72 1946.92 1729.37C1940.45 1738.02 1931.55 1749.64 1927.13 1755.2C1922.72 1760.76 1912.89 1772.62 1905.31 1781.58C1897.72 1790.53 1884.28 1805.69 1875.46 1815.27C1866.63 1824.84 1850.64 1841.28 1839.93 1851.79C1829.22 1862.31 1815.13 1875.74 1808.66 1881.65C1802.17 1887.55 1789.79 1898.38 1781.14 1905.69C1772.5 1913.01 1760.88 1922.61 1755.32 1927.01C1749.76 1931.42 1738.14 1940.33 1729.49 1946.8C1720.84 1953.26 1707.2 1963.15 1699.17 1968.75C1691.14 1974.34 1679.26 1982.35 1672.78 1986.54C1666.29 1990.71 1655.68 1997.43 1649.2 2001.44C1642.71 2005.45 1628.57 2013.78 1617.76 2019.95C1606.96 2026.13 1586.49 2037.08 1572.29 2044.28C1558.08 2051.47 1536.35 2061.83 1524 2067.28C1511.65 2072.73 1491.94 2080.98 1480.21 2085.6C1468.47 2090.22 1446.24 2098.22 1430.8 2103.39C1415.36 2108.54 1394.64 2115.06 1384.76 2117.89C1374.88 2120.71 1357.7 2125.26 1346.58 2127.98C1335.47 2130.71 1317.78 2134.7 1307.28 2136.86C1296.78 2139.01 1278.84 2142.35 1267.42 2144.27C1255.99 2146.19 1237.04 2148.98 1225.31 2150.45C1213.58 2151.92 1194.12 2153.93 1182.08 2154.89C1170.03 2155.87 1154.24 2157.16 1146.99 2157.78C1139.73 2158.39 1114.33 2158.88 1090.56 2158.88C1066.78 2158.88 1041.39 2158.39 1034.14 2157.78C1026.88 2157.16 1011.08 2155.87 999.045 2154.89C986.997 2153.93 967.548 2151.92 955.814 2150.45C944.079 2148.98 925.125 2146.19 913.705 2144.27C902.274 2142.35 884.341 2139 873.842 2136.84C863.343 2134.67 847.679 2131.21 839.032 2129.13C830.386 2127.06 815.979 2123.34 807.03 2120.87C798.069 2118.39 783.292 2114.05 774.185 2111.23C760.171 2106.89 756.847 2106.24 752.591 2106.94C749.829 2107.41 747.55 2107.53 747.516 2107.23C747.493 2106.91 748.122 2106.04 748.897 2105.28C749.683 2104.52 750.065 2103.72 749.762 2103.51C749.447 2103.3 742.878 2100.96 735.164 2098.31C727.439 2095.67 711.774 2089.83 700.354 2085.34C688.923 2080.85 671.237 2073.53 661.053 2069.07C650.857 2064.61 631.408 2055.48 617.821 2048.79C604.234 2042.09 584.774 2031.97 574.589 2026.3C564.393 2020.62 548.482 2011.4 539.218 2005.81C529.954 2000.21 516.558 1991.87 509.461 1987.28C502.353 1982.67 489.979 1974.33 481.95 1968.74C473.922 1963.15 460.278 1953.26 451.632 1946.8C442.986 1940.33 431.364 1931.42 425.805 1927.01C420.247 1922.61 408.625 1913.01 399.979 1905.68C391.332 1898.36 376.42 1885.16 366.853 1876.37C357.275 1867.58 340.577 1851.37 329.741 1840.36C318.905 1829.34 305.217 1815.01 299.322 1808.53C293.438 1802.04 282.624 1789.67 275.303 1781.02C267.993 1772.38 258.392 1760.76 253.99 1755.2C249.577 1749.64 240.673 1738.02 234.205 1729.37C227.737 1720.72 217.856 1707.08 212.264 1699.05C206.671 1691.02 198.328 1678.64 193.724 1671.54C189.132 1664.43 180.789 1651.05 175.197 1641.78C169.605 1632.52 160.386 1616.6 154.704 1606.41C149.033 1596.22 138.916 1576.77 132.212 1563.18C125.52 1549.59 116.39 1530.13 111.932 1519.95C107.475 1509.75 100.041 1491.82 95.4146 1480.09C90.7883 1468.35 82.782 1446.12 77.6167 1430.68C72.4626 1415.24 65.9385 1394.52 63.1088 1384.64C60.2903 1374.76 55.7426 1357.58 53.0252 1346.46C50.2965 1335.34 46.299 1317.66 44.143 1307.16C41.9871 1296.66 38.6521 1278.72 36.7319 1267.3C34.8117 1255.87 32.027 1236.92 30.556 1225.19C29.085 1213.45 27.075 1193.99 26.098 1181.96C25.1211 1169.91 23.8186 1153.87 23.2234 1146.3C22.6171 1138.74 22.123 1113.98 22.123 1091.28C22.1118 1068.59 22.6283 1043.19 23.2571 1034.86C23.8859 1026.51 25.1773 1010.1 26.1317 998.363C27.0974 986.628 29.085 967.427 30.556 955.692C32.027 943.958 34.8117 925.004 36.7319 913.584C38.6521 902.153 41.9871 884.22 44.143 873.721C46.299 863.222 50.2965 845.536 53.0252 834.419C55.7426 823.303 60.2903 806.122 63.1088 796.241C65.9385 786.359 72.4626 765.642 77.6167 750.202C82.782 734.762 90.7883 712.529 95.4146 700.794C100.041 689.06 107.475 671.116 111.932 660.931C116.39 650.735 125.52 631.287 132.212 617.7C138.916 604.113 149.033 584.653 154.704 574.468C160.386 564.272 169.605 548.361 175.197 539.097C180.789 529.833 189.132 516.437 193.724 509.34C198.328 502.232 206.671 489.858 212.264 481.829C217.856 473.8 227.737 460.157 234.205 451.51C240.673 442.864 249.577 431.242 253.99 425.684C258.392 420.125 267.993 408.503 275.326 399.857C282.647 391.211 295.841 376.299 304.633 366.732C313.426 357.153 329.629 340.456 340.645 329.62C351.66 318.784 365.977 305.096 372.468 299.2C378.947 293.316 391.332 282.503 399.979 275.182C408.625 267.872 420.247 258.271 425.805 253.869C431.364 249.456 442.986 240.551 451.632 234.083C460.278 227.616 473.922 217.734 481.95 212.142C489.979 206.55 502.353 198.207 509.461 193.603C516.558 189.01 529.954 180.667 539.218 175.075C548.482 169.483 564.393 160.264 574.589 154.582C584.774 148.912 604.234 138.794 617.821 132.091C631.408 125.398 650.857 116.269 661.053 111.811C671.237 107.353 689.181 99.9195 700.916 95.2931C712.65 90.6668 734.883 82.6605 750.323 77.4952C765.763 72.341 786.481 65.817 796.362 62.9873C806.244 60.1688 823.424 55.6211 834.541 52.9037C845.657 50.175 863.343 46.1775 873.842 44.0215C884.341 41.8656 902.274 38.5306 913.705 36.6104C925.125 34.6902 944.079 31.9054 955.814 30.4232C967.548 28.9522 986.997 26.9535 999.045 25.9765C1011.08 24.9996 1025.74 23.7757 1031.61 23.2591C1037.47 22.7314 1062.87 22.2373 1088.04 22.1587ZM944.023 98.325C931.357 100.178 911.65 103.502 900.23 105.714C888.799 107.937 871.113 111.687 860.929 114.046C850.733 116.415 839.369 119.233 835.664 120.3C830.42 121.827 829.42 122.434 831.172 123.051C832.407 123.489 837.202 124.197 841.839 124.612C846.466 125.027 856.325 126.386 863.736 127.644C871.147 128.89 884.162 131.653 892.651 133.786C901.14 135.92 913.772 139.479 920.723 141.703C927.674 143.937 940.43 148.53 949.076 151.921C957.723 155.312 974.398 162.791 986.132 168.54C997.866 174.289 1014.54 183.149 1023.19 188.235C1031.83 193.322 1046.49 202.552 1055.75 208.74C1065.02 214.916 1079.41 225.078 1087.75 231.299C1096.09 237.52 1108.98 247.637 1116.39 253.779C1123.8 259.921 1136.41 270.791 1144.42 277.944C1152.42 285.086 1166.57 298.325 1175.86 307.364C1185.14 316.403 1200.33 331.967 1209.59 341.972C1218.85 351.965 1226.56 359.612 1226.71 358.95C1226.87 358.287 1222.92 348.529 1217.94 337.255C1212.96 325.982 1204.2 307.667 1198.47 296.55C1192.73 285.434 1183.84 269.264 1178.7 260.618C1173.56 251.971 1165.82 239.586 1161.5 233.107C1157.18 226.616 1149.35 215.499 1144.1 208.403C1138.86 201.295 1130.75 190.942 1126.1 185.383C1121.45 179.825 1113.08 170.28 1107.47 164.172C1101.88 158.074 1091.72 147.968 1084.89 141.714C1078.08 135.47 1067.71 126.543 1061.87 121.883C1056.03 117.235 1047.72 110.868 1043.4 107.757C1039.08 104.647 1031.37 99.4928 1026.28 96.3037C1018.67 91.5426 1016.16 90.5208 1012.24 90.6106C1009.61 90.678 998.372 91.6886 987.255 92.8452C976.138 94.013 956.678 96.4834 944.023 98.325ZM1223.63 102.042C1231.96 105.399 1244.59 111.059 1251.7 114.629C1258.79 118.2 1269.66 124.152 1275.84 127.868C1282.02 131.574 1291.36 137.671 1296.61 141.399C1301.86 145.127 1310.2 151.472 1315.14 155.481C1320.08 159.501 1328.86 167.114 1334.66 172.403C1340.44 177.691 1350.3 187.753 1356.55 194.782C1362.8 201.8 1371.7 212.412 1376.34 218.374C1380.97 224.337 1388.35 234.51 1392.74 240.978C1397.14 247.457 1404.68 259.326 1409.51 267.355C1414.34 275.384 1423.19 291.801 1429.18 303.849C1435.18 315.887 1443.38 333.572 1447.4 343.151C1451.41 352.718 1456.9 366.361 1459.59 373.469L1464.49 386.382C1465.04 375.064 1464.64 364.957 1463.96 356.625C1463.29 348.282 1461.96 336.155 1461.01 329.676C1460.06 323.186 1458.01 312.069 1456.45 304.972C1454.89 297.864 1451.1 284.479 1448.05 275.215C1444.71 265.087 1438.76 250.759 1433.11 239.283C1427.96 228.783 1419.72 214.13 1414.8 206.718C1409.88 199.307 1401.64 187.932 1396.48 181.453C1391.33 174.963 1382.81 164.857 1377.55 158.995C1372.29 153.122 1362.17 142.006 1355.07 134.291C1347.98 126.566 1341.64 119.907 1341 119.469C1340.37 119.042 1331.26 116.673 1320.76 114.214C1310.26 111.755 1292.31 107.937 1280.89 105.714C1269.46 103.502 1249.89 100.178 1237.38 98.3362C1224.87 96.4946 1213 94.9787 1210.99 94.9563C1208.98 94.945 1207.59 95.1584 1207.9 95.4391C1208.21 95.7198 1215.28 98.6955 1223.63 102.042ZM674.528 177.781C664.332 182.419 649.431 189.504 641.402 193.536C633.373 197.556 618.966 205.146 609.399 210.39C599.821 215.645 584.415 224.483 575.151 230.03C565.887 235.588 548.954 246.312 537.534 253.858C526.103 261.415 508.675 273.542 498.794 280.807C488.912 288.072 473.753 299.672 465.107 306.578C456.46 313.495 441.807 325.735 432.543 333.774C423.279 341.826 407.861 355.896 398.294 365.036C388.716 374.188 373.613 389.302 364.708 398.622C355.804 407.953 341.947 423.157 333.896 432.421C325.856 441.685 313.616 456.339 306.699 464.985C299.794 473.632 288.194 488.791 280.929 498.672C273.664 508.554 261.536 525.981 253.979 537.412C246.433 548.832 235.71 565.766 230.151 575.029C224.604 584.293 215.767 599.7 210.512 609.278C205.268 618.845 197.677 633.252 193.657 641.281C189.626 649.309 182.192 664.974 177.117 676.09C172.041 687.207 163.676 706.914 158.51 719.883C153.356 732.853 145.541 754.076 141.15 767.045C136.76 780.015 130.46 799.969 127.148 811.4C123.835 822.82 119.018 840.764 116.447 851.263C113.875 861.762 109.563 881.469 106.868 895.056C104.173 908.643 100.456 930.113 98.6037 942.779C96.7509 955.434 94.2019 976.152 92.9442 988.818C91.6866 1001.47 90.0921 1020.43 89.3847 1030.93C88.6885 1041.43 88.1158 1068.21 88.1158 1090.44C88.1158 1112.67 88.6885 1139.45 89.3847 1149.95C90.0921 1160.45 91.6866 1179.4 92.9442 1192.06C94.2019 1204.72 96.7509 1225.44 98.6037 1238.1C100.456 1250.76 104.173 1272.24 106.868 1285.82C109.563 1299.41 113.875 1319.12 116.447 1329.62C119.018 1340.12 123.835 1358.05 127.148 1369.48C130.46 1380.9 136.76 1400.87 141.15 1413.84C145.541 1426.8 153.356 1448.03 158.51 1461C163.676 1473.97 172.041 1493.67 177.117 1504.79C182.192 1515.91 189.626 1531.57 193.657 1539.6C197.677 1547.63 205.268 1562.02 210.512 1571.6C215.767 1581.17 224.604 1596.59 230.151 1605.85C235.71 1615.11 246.433 1632.04 253.979 1643.47C261.536 1654.89 273.664 1672.33 280.929 1682.21C288.194 1692.09 299.794 1707.25 306.699 1715.9C313.616 1724.54 325.856 1739.2 333.896 1748.46C341.947 1757.72 356.017 1773.13 365.157 1782.71C374.309 1792.27 389.423 1807.39 398.743 1816.29C408.075 1825.2 423.279 1839.05 432.543 1847.11C441.807 1855.15 456.46 1867.39 465.107 1874.3C473.753 1881.21 488.912 1892.81 498.794 1900.07C508.675 1907.34 526.103 1919.47 537.534 1927.02C548.954 1934.57 565.887 1945.29 575.151 1950.85C584.415 1956.4 599.821 1965.23 609.399 1970.49C618.966 1975.73 633.373 1983.32 641.402 1987.34C649.431 1991.38 664.837 1998.7 675.65 2003.64C686.453 2008.58 705.654 2016.78 718.321 2021.85C730.976 2026.94 755.489 2035.82 772.781 2041.59C790.074 2047.35 814.576 2054.9 827.242 2058.35C839.897 2061.79 853.54 2065.21 857.56 2065.93C863.276 2066.96 867.049 2066.94 874.965 2065.8C880.523 2065 888.878 2063.02 893.527 2061.37C898.175 2059.73 906.26 2055.61 911.493 2052.23C916.726 2048.83 932.121 2038.53 945.708 2029.32C959.295 2020.11 993.117 1996.87 1020.87 1977.65C1048.62 1958.44 1109.95 1915.68 1157.17 1882.65L1243.01 1822.57C1244.97 1814.41 1246.99 1810.57 1248.89 1808.55C1250.74 1806.57 1254.02 1804.07 1256.19 1802.96C1260 1801.03 1260.19 1800.63 1262.23 1789.87C1263.4 1783.77 1265.97 1769.93 1267.96 1759.13C1269.94 1748.31 1271.35 1739.22 1271.08 1738.91C1270.81 1738.6 1248.52 1737.75 1221.56 1737.01C1194.6 1736.26 1166.97 1735.64 1160.18 1735.62L1147.83 1735.6C1157.89 1744.7 1160.8 1747.58 1160.79 1747.9C1160.78 1748.2 1157.1 1748.87 1152.61 1749.39C1148.13 1749.9 1142.18 1751.31 1139.41 1752.52C1136.62 1753.75 1132.41 1756.61 1130.04 1758.9C1127.67 1761.18 1121.1 1769.83 1115.45 1778.12C1109.79 1786.39 1102.08 1796.74 1098.33 1801.13C1094.58 1805.51 1086.35 1813.89 1080.05 1819.76C1073.75 1825.62 1068.24 1830.06 1067.79 1829.6C1067.34 1829.14 1071.12 1820.3 1076.2 1809.95C1081.26 1799.6 1087.15 1786.58 1089.27 1781.02C1091.38 1775.46 1094.68 1764.35 1096.59 1756.32C1098.5 1748.29 1100.84 1737.93 1101.78 1733.3C1102.72 1728.66 1104.41 1723.36 1105.52 1721.51C1106.63 1719.66 1109.53 1717.18 1111.96 1716C1115.65 1714.22 1120.5 1713.69 1141.09 1712.84C1154.68 1712.28 1190.68 1712.11 1221.1 1712.46C1251.52 1712.81 1276.39 1712.96 1276.39 1712.81C1276.38 1712.65 1280.43 1689.79 1285.41 1662C1290.37 1634.2 1297.44 1593.78 1301.14 1572.16C1304.82 1550.55 1307.83 1531.73 1307.84 1530.34C1307.84 1528.45 1306.51 1527.14 1302.51 1525.13C1299.58 1523.65 1293.13 1519.46 1288.19 1515.78C1283.25 1512.11 1276.23 1505.87 1272.58 1501.89C1268.95 1497.93 1264.42 1492.4 1262.54 1489.63C1260.66 1486.85 1257.96 1481.93 1256.54 1478.68C1254.71 1474.53 1253.2 1472.65 1251.42 1472.32C1250.02 1472.06 1241.05 1471.31 1231.49 1470.62C1221.91 1469.95 1207.01 1468.36 1198.36 1467.11C1189.71 1465.85 1175.57 1463.28 1166.92 1461.39C1158.27 1459.5 1143.62 1455.48 1134.35 1452.47C1125.09 1449.45 1111.95 1444.58 1105.15 1441.64C1098.35 1438.7 1087.24 1433.13 1080.44 1429.25C1073.66 1425.38 1062.55 1418.1 1055.75 1413.07C1048.96 1408.05 1037.82 1398.33 1030.99 1391.48C1024.16 1384.63 1014.62 1373.71 1009.78 1367.23C1004.95 1360.74 997.552 1349.63 993.352 1342.53C989.153 1335.42 983.336 1324.56 980.439 1318.39C977.542 1312.21 972.523 1300.33 969.277 1292C966.032 1283.66 960.833 1269 957.711 1259.44C954.59 1249.86 948.234 1229.14 943.585 1213.4C938.937 1197.64 932.379 1176.68 929.021 1166.8C925.653 1156.92 920.532 1143.27 917.646 1136.48C914.761 1129.69 909.562 1118.82 906.092 1112.34C902.633 1105.85 895.896 1094.73 891.135 1087.63C886.374 1080.53 878.446 1069.91 873.528 1064.05C868.598 1058.18 859.581 1048.56 853.484 1042.66C847.387 1036.77 837.09 1027.7 830.61 1022.53C824.12 1017.35 811.488 1008.3 802.538 1002.4C789.355 993.736 781.124 989.424 759.306 979.756C744.484 973.187 719.466 962.643 703.723 956.321C687.969 949.999 664.725 941.364 652.07 937.131C639.403 932.897 623.997 928.159 617.821 926.598C611.645 925.048 600.652 922.746 593.398 921.489C586.144 920.231 575.533 919.198 569.817 919.187C563.978 919.187 556.477 919.962 552.693 920.95C548.987 921.916 543.485 924.06 540.464 925.722C537.433 927.384 533.143 930.809 530.92 933.347C528.685 935.873 525.53 940.421 523.891 943.453C522.251 946.473 519.399 953.75 517.535 959.622C515.671 965.484 512.033 977.106 509.45 985.449C506.867 993.781 502.567 1005.16 499.883 1010.71C497.199 1016.27 492.461 1024.36 489.35 1028.68C484.915 1034.85 483.455 1037.99 482.557 1043.28C481.928 1046.98 480.839 1059.11 480.142 1070.23C479.323 1083.13 479.109 1105.07 479.558 1130.86C479.94 1153.1 481.018 1185.68 481.95 1203.29C482.871 1220.89 484.409 1245.91 485.353 1258.88C486.307 1271.84 488.081 1293.82 489.316 1307.72C490.54 1321.61 492.315 1340.31 493.247 1349.27C494.179 1358.22 496.458 1378.18 498.311 1393.62C500.152 1409.06 501.421 1421.94 501.118 1422.26C500.826 1422.56 499.771 1420.8 498.771 1418.33C497.783 1415.86 492.517 1401.71 487.071 1386.89C481.625 1372.06 473.102 1347.81 468.127 1332.99C463.164 1318.16 455.798 1295.43 451.767 1282.46C447.747 1269.49 440.616 1245.48 435.934 1229.12C431.263 1212.75 423.38 1183.19 418.428 1163.43C413.476 1143.67 406.682 1113.85 403.325 1097.18C399.967 1080.5 395.992 1058.52 394.488 1048.33C392.13 1032.39 391.085 1028.31 387.032 1019.14C384.438 1013.26 381.103 1003.66 379.62 997.801C378.138 991.928 376.431 981.822 375.825 975.343C375.106 967.651 375.106 959.454 375.825 951.762C376.42 945.272 378.127 935.166 379.598 929.304C381.058 923.431 384.011 914.336 386.133 909.092C388.267 903.837 392.073 896.01 394.589 891.687C397.115 887.364 401.629 880.57 404.627 876.595C407.626 872.62 414.127 865.366 419.068 860.482C424.009 855.608 432.599 848.568 438.157 844.851C443.716 841.123 451.542 836.429 455.562 834.419C459.571 832.398 467.409 829.153 472.967 827.199C478.525 825.245 487.868 822.629 493.741 821.382C500.512 819.956 510.977 818.89 522.375 818.474C533.379 818.081 544.698 818.339 551.57 819.148C557.746 819.878 566.583 821.236 571.221 822.168C575.847 823.1 586.717 825.829 595.363 828.232C604.009 830.624 618.91 834.689 628.489 837.26C638.056 839.82 653.473 844.458 662.737 847.568C672.001 850.668 686.397 855.867 694.74 859.112C703.072 862.346 718.736 868.926 729.55 873.709C740.352 878.504 757.162 886.398 766.886 891.26C776.61 896.134 792.533 904.466 802.257 909.799C811.982 915.133 830.049 925.565 842.401 932.976C854.753 940.387 872.686 951.538 882.264 957.759C891.831 963.968 907.754 974.591 917.635 981.373C927.517 988.155 945.955 1001.29 958.621 1010.56C971.276 1019.83 983.909 1028.98 986.693 1030.89C989.467 1032.8 995.531 1035.55 1000.17 1037.01C1007.89 1039.45 1009.15 1039.55 1015.33 1038.28C1019.03 1037.52 1026.86 1035.36 1032.73 1033.49C1038.59 1031.61 1047.69 1028.19 1052.94 1025.87C1058.19 1023.56 1066.78 1019.15 1072.03 1016.06C1077.28 1012.96 1085.62 1007.23 1090.56 1003.31C1095.5 999.396 1102.76 992.883 1106.7 988.852C1110.63 984.82 1117.08 977.218 1121.05 971.974C1125 966.719 1131.67 955.603 1135.85 947.271C1140.45 938.097 1144.87 927.238 1147.02 919.76C1148.99 912.966 1151.4 902.86 1152.38 897.302C1153.35 891.743 1154.44 880.121 1154.8 871.475C1155.17 862.29 1154.89 850.387 1154.12 842.841C1153.38 835.733 1151.78 825.122 1150.57 819.26C1149.36 813.387 1147.04 804.045 1145.42 798.486C1143.79 792.928 1140.23 782.822 1137.5 776.028C1134.78 769.235 1129.63 758.118 1126.06 751.325C1122.49 744.531 1117.14 735.177 1114.18 730.551C1111.21 725.913 1105.36 717.582 1101.2 712.023C1097.02 706.465 1090.21 698.122 1086.07 693.495C1081.94 688.858 1077.79 683.299 1076.86 681.143C1075.94 678.976 1075.11 674.181 1075.02 670.476C1074.93 666.77 1075.74 656.911 1076.82 648.579C1077.97 639.551 1078.77 625.93 1078.77 614.892C1078.77 604.696 1078.01 589.796 1077.06 581.767C1076.12 573.738 1074.1 561.105 1072.56 553.694C1071.02 546.283 1068.08 534.661 1066 527.868C1063.94 521.074 1060.36 510.463 1058.05 504.287C1055.74 498.111 1050.33 485.725 1046.03 476.776C1041.73 467.815 1035.63 455.946 1032.49 450.388C1029.34 444.829 1022.1 433.207 1016.41 424.561C1010.71 415.915 1001.56 402.956 996.092 395.759C990.612 388.572 980.596 376.186 973.836 368.247C967.065 360.309 951.401 343.69 939.026 331.315C926.641 318.941 909.943 303.086 901.915 296.09C893.886 289.083 879.984 277.439 871.035 270.207C862.074 262.976 847.926 251.994 839.594 245.795C831.251 239.608 816.597 229.12 807.03 222.495C797.451 215.87 780.024 204.36 768.29 196.916C756.555 189.471 738.87 178.657 728.988 172.885C719.107 167.114 710.516 162.42 709.899 162.465C709.281 162.499 705.239 164.059 700.916 165.935C696.592 167.81 684.712 173.144 674.528 177.781ZM1581.98 231.422C1585.41 235.745 1591.39 244.077 1595.25 249.95C1599.12 255.812 1605.07 266.176 1608.48 272.969C1611.89 279.763 1616.66 290.374 1619.08 296.55C1621.49 302.726 1625.16 313.585 1627.24 320.693C1629.32 327.789 1632.35 340.175 1633.98 348.204C1635.61 356.232 1637.9 370.381 1639.08 379.645C1640.25 388.909 1641.83 406.089 1642.56 417.824C1643.44 432.039 1643.67 454.902 1643.21 486.32C1642.83 512.259 1641.77 546.115 1640.84 561.555C1639.92 576.995 1639.17 591.648 1639.17 594.119C1639.17 598.397 1639.26 598.498 1640.92 596.365C1641.87 595.129 1645.14 589.189 1648.17 583.17C1651.21 577.152 1655.74 566.282 1658.24 559.028C1660.75 551.774 1664.27 540.276 1666.08 533.482C1667.89 526.689 1670.4 516.077 1671.67 509.901C1672.94 503.725 1674.95 492.35 1676.14 484.636C1677.34 476.91 1679.07 463.02 1679.99 453.756C1680.9 444.492 1681.99 427.312 1682.4 415.578C1682.82 403.237 1682.61 386.079 1681.89 374.873C1681.21 364.216 1679.87 349.562 1678.92 342.309C1677.97 335.055 1675.91 323.298 1674.33 316.201C1672.75 309.093 1669.48 297.224 1667.06 289.813C1664.64 282.402 1661.02 273.048 1659.02 269.039C1655.91 262.807 1654.22 260.954 1647.52 256.351C1643.2 253.375 1631.32 245.728 1621.13 239.35C1610.94 232.972 1593.51 222.63 1582.39 216.387C1571.27 210.132 1560.66 204.484 1558.81 203.833C1556.06 202.867 1557.31 204.574 1565.58 213.108C1571.15 218.857 1578.53 227.099 1581.98 231.422ZM1793 385.259C1797.66 394.523 1803.63 408.167 1806.25 415.578C1808.88 422.989 1812.52 434.611 1814.33 441.404C1816.13 448.198 1818.85 461.078 1820.37 470.038C1821.88 478.988 1823.66 493.395 1824.31 502.041C1824.96 510.687 1825.48 525.588 1825.47 535.167C1825.44 544.734 1824.7 562.678 1823.8 575.029C1822.92 587.381 1822.16 600.261 1822.14 603.663C1822.11 607.661 1822.48 609.446 1823.17 608.716C1823.78 608.099 1827 600.766 1830.35 592.434C1833.71 584.091 1838.99 569.437 1842.08 559.87C1845.19 550.292 1850 533.37 1852.79 522.253C1855.56 511.136 1859.13 494.203 1860.7 484.636C1862.29 475.058 1863.88 463.941 1864.24 459.932L1864.9 452.633C1839.88 423.91 1825.08 407.717 1815.86 398.105C1806.65 388.493 1795.62 377.377 1791.35 373.402C1787.08 369.427 1783.81 366.675 1784.06 367.293C1784.32 367.911 1788.34 375.996 1793 385.259ZM1928.67 553.694C1929.88 560.488 1931.5 572.615 1932.25 580.644C1933.11 589.751 1933.39 603.686 1932.99 617.7C1932.52 634.431 1931.64 644.312 1929.51 656.44C1927.95 665.389 1924.93 679.032 1922.8 686.758C1920.68 694.472 1916.56 706.858 1913.66 714.269C1910.75 721.68 1904.74 734.818 1900.31 743.464C1895.86 752.111 1888.4 764.99 1883.72 772.098C1879.04 779.195 1871.35 789.941 1866.63 795.96C1861.91 801.979 1858.31 807.155 1858.62 807.47C1858.93 807.773 1861.59 806.841 1864.52 805.392C1867.45 803.944 1877.68 799.531 1887.26 795.589C1896.83 791.648 1910.22 785.596 1917.02 782.148C1923.81 778.701 1933.92 773.053 1939.47 769.594C1945.03 766.147 1954.37 759.746 1960.25 755.378C1966.11 751.021 1976.21 742.51 1982.71 736.469C1989.18 730.439 1998.79 720.872 2004.04 715.201L2013.58 704.915C2014.14 719.996 2013.74 729.933 2013.07 736.727C2012.39 743.521 2011.06 753.874 2010.09 759.746C2009.14 765.608 2006.9 776.219 2005.13 783.327C2003.36 790.424 2000.07 801.541 1997.8 808.031C1995.54 814.51 1991.46 824.875 1988.74 831.051C1986 837.227 1980.38 848.085 1976.25 855.193C1972.12 862.29 1964.18 874.159 1958.6 881.547C1953.02 888.947 1942.9 900.771 1936.1 907.823C1929.31 914.875 1918.7 924.869 1912.52 930.045C1906.35 935.211 1895.98 943.183 1889.5 947.753C1883.01 952.324 1872.16 959.432 1865.36 963.553C1858.57 967.674 1842.9 975.994 1830.55 982.058C1818.2 988.11 1802.03 995.477 1794.62 998.43C1787.21 1001.37 1775.08 1005.93 1767.67 1008.55C1760.26 1011.16 1754.05 1013.74 1753.86 1014.25C1753.68 1014.78 1755.44 1016.22 1757.79 1017.45C1761.27 1019.28 1764.12 1019.69 1773.28 1019.62C1781.69 1019.56 1787.61 1018.75 1796.87 1016.41C1803.66 1014.68 1816.54 1010.73 1825.5 1007.64C1834.45 1004.54 1852.39 997.588 1865.36 992.164C1878.33 986.752 1897.53 978.431 1908.03 973.659C1918.53 968.886 1939.88 958.982 1955.47 951.639C1971.07 944.295 1984.08 938.534 1984.39 938.849C1984.69 939.152 1980.81 945.092 1975.74 952.043C1970.68 958.994 1961.91 971.75 1956.26 980.396C1950.62 989.042 1937.76 1009.76 1927.68 1026.43C1917.61 1043.11 1906.35 1061.3 1902.63 1066.86C1898.93 1072.42 1892.49 1081.26 1888.34 1086.51C1884.18 1091.75 1876.55 1100.12 1871.38 1105.08C1866.22 1110.05 1858.2 1116.78 1853.57 1120.06C1848.93 1123.33 1841.61 1128.07 1837.29 1130.6C1832.97 1133.12 1824.5 1137.38 1818.48 1140.05C1812.46 1142.72 1801.47 1146.92 1794.06 1149.39C1786.65 1151.86 1773.63 1155.62 1765.14 1157.75C1756.65 1159.87 1741.87 1163.13 1732.3 1164.98C1722.72 1166.83 1705.8 1169.64 1694.68 1171.22C1683.56 1172.8 1665.62 1175.08 1654.82 1176.3C1644.01 1177.5 1623.29 1179.56 1608.78 1180.87C1589.34 1182.62 1578.99 1184.11 1569.48 1186.55C1562.37 1188.36 1552.52 1191.8 1547.58 1194.21C1542.64 1196.6 1535.88 1201.01 1532.56 1204.01C1529.23 1207.01 1525.57 1211.37 1524.42 1213.68C1523.26 1215.99 1522.32 1219.65 1522.32 1221.82C1522.32 1223.98 1523.07 1227.27 1524 1229.12C1525.01 1231.15 1527.58 1233.37 1530.46 1234.71C1533.16 1235.97 1537.66 1236.94 1540.84 1236.96C1543.93 1236.97 1553.27 1235.5 1561.62 1233.68C1569.95 1231.86 1582.58 1229.51 1589.69 1228.46C1599.76 1226.97 1611.88 1226.49 1644.71 1226.31C1682.33 1226.1 1688.31 1225.81 1700.86 1223.62C1708.57 1222.26 1721.2 1219.61 1728.93 1217.72C1736.64 1215.83 1751.05 1211.8 1760.93 1208.76C1770.81 1205.72 1781.55 1202.24 1784.79 1201.01C1788.04 1199.8 1790.69 1199.31 1790.69 1199.92C1790.69 1200.54 1788.72 1204.46 1786.31 1208.63C1783.91 1212.79 1779.52 1219.48 1776.55 1223.5C1773.6 1227.51 1767.6 1234.36 1763.25 1238.72C1758.89 1243.08 1751.52 1249.43 1746.9 1252.85C1742.26 1256.26 1734.68 1261.26 1730.05 1263.95C1725.42 1266.65 1721.37 1269 1721.07 1269.19C1720.76 1269.39 1720.76 1269.78 1721.07 1270.06C1721.37 1270.35 1727.19 1271.42 1733.98 1272.43C1741.72 1273.59 1753.47 1274.28 1765.42 1274.28C1776.37 1274.28 1790.73 1273.5 1799.11 1272.45C1807.14 1271.44 1821.29 1269.33 1830.55 1267.77C1839.82 1266.2 1847.83 1265.07 1848.36 1265.26C1848.9 1265.46 1845.87 1268.9 1841.62 1272.92C1837.39 1276.95 1828.61 1283.79 1822.13 1288.14C1815.64 1292.48 1804.78 1298.74 1797.99 1302.04C1791.19 1305.34 1778.3 1310.46 1769.35 1313.43C1760.39 1316.39 1747.01 1320.07 1739.6 1321.61C1732.19 1323.14 1721.96 1324.95 1716.86 1325.61C1711.76 1326.27 1707.59 1327.32 1707.59 1327.93C1707.59 1328.62 1712.55 1329.06 1720.23 1329.06C1727.18 1329.05 1739.93 1328.54 1748.58 1327.91C1757.23 1327.28 1771.38 1325.99 1780.02 1325.04C1788.67 1324.08 1800.8 1322.59 1806.97 1321.7C1813.15 1320.83 1819.84 1319.84 1821.85 1319.52C1824.32 1319.13 1825.5 1319.4 1825.51 1320.35C1825.51 1321.13 1822.36 1324.83 1818.49 1328.58C1814.63 1332.35 1808.68 1337.71 1805.29 1340.52C1801.88 1343.32 1795.32 1348.16 1790.69 1351.26C1786.05 1354.36 1776.96 1359.54 1770.48 1362.79C1763.99 1366.03 1753.63 1370.58 1747.46 1372.88C1741.28 1375.2 1730.55 1378.53 1723.6 1380.31C1716.65 1382.07 1710.96 1383.9 1710.96 1384.36C1710.96 1384.82 1711.85 1385.44 1712.93 1385.73C1714.01 1386.01 1721.71 1387.5 1730.05 1389.03C1738.38 1390.56 1754.31 1392.84 1765.42 1394.07C1776.54 1395.32 1794.35 1396.87 1805.01 1397.51C1815.66 1398.15 1826.27 1398.69 1828.59 1398.71C1832.63 1398.74 1832.71 1398.82 1830.55 1400.53C1829.32 1401.52 1824.26 1404.25 1819.32 1406.6C1814.38 1408.96 1805.03 1412.67 1798.55 1414.83C1792.06 1417 1782.21 1419.79 1776.65 1421.02C1771.09 1422.26 1760.23 1424.14 1752.51 1425.22C1742.24 1426.64 1730.96 1427.15 1710.4 1427.14C1691.4 1427.13 1676.88 1426.5 1665.49 1425.21C1656.22 1424.15 1641.06 1422.02 1631.8 1420.45C1622.54 1418.88 1613.3 1417.26 1611.28 1416.84C1609.26 1416.42 1607.62 1416.46 1607.63 1416.92C1607.65 1417.38 1608.45 1419.66 1609.43 1421.98C1610.4 1424.29 1613.87 1433.26 1617.12 1441.91C1620.39 1450.55 1625.22 1461.92 1627.86 1467.17C1630.51 1472.42 1635.2 1480.51 1638.29 1485.14C1641.39 1489.77 1645.73 1495.81 1647.97 1498.54L1652.01 1503.52C1644.17 1502.25 1636.09 1499.95 1628.99 1497.58C1621.88 1495.22 1612.79 1491.65 1608.78 1489.64C1604.76 1487.64 1597.94 1483.68 1593.62 1480.85C1588.6 1477.57 1577.43 1467.31 1562.74 1452.53C1550.07 1439.77 1538.59 1428.76 1537.19 1428.05L1534.67 1426.75C1534.87 1453.07 1534.29 1462.14 1533.14 1468.3C1532.16 1473.54 1530.59 1479.99 1529.65 1482.61L1527.93 1487.39C1538.71 1501.75 1548.95 1514.75 1557.63 1525.55C1566.31 1536.35 1587.56 1562.16 1604.85 1582.89C1622.14 1603.63 1651.92 1639 1671.03 1661.5C1701.36 1697.22 1706.51 1702.77 1711.46 1705.17C1714.58 1706.69 1719.54 1710.35 1722.47 1713.31C1725.4 1716.28 1728.81 1720.85 1730.03 1723.47C1731.33 1726.28 1732.26 1730.67 1732.28 1734.14C1732.29 1737.84 1731.46 1741.71 1730.05 1744.53C1728.82 1747 1725.66 1750.54 1723.03 1752.4C1720.41 1754.25 1715.74 1756.34 1712.65 1757.04C1709.56 1757.75 1703.74 1758.06 1699.73 1757.75C1695.55 1757.43 1688.61 1755.72 1683.45 1753.76L1674.47 1750.33C1605.71 1748.49 1524.11 1746.15 1448.77 1743.93C1373.42 1741.71 1311.67 1740.06 1311.54 1740.25C1311.41 1740.44 1307.88 1757.13 1303.68 1777.32C1296.09 1813.86 1296.06 1814.06 1298.02 1818.02C1299.13 1820.28 1299.98 1824.57 1299.98 1827.9C1299.99 1831.5 1299.17 1835.34 1297.91 1837.73C1296.76 1839.89 1293.67 1843.18 1291.06 1845.03C1286.9 1847.97 1285.07 1848.46 1276.58 1848.97L1266.86 1849.54C950.547 2059.37 921.981 2078.73 924.092 2079.38C925.484 2079.82 935.714 2081.46 946.831 2083.03C957.947 2084.59 976.891 2086.87 988.939 2088.07C1000.98 2089.28 1019.93 2090.86 1031.05 2091.59C1042.16 2092.32 1069.19 2092.91 1091.12 2092.9C1113.04 2092.89 1139.58 2092.31 1150.08 2091.61C1160.57 2090.91 1179.52 2089.3 1192.18 2088.06C1204.84 2086.8 1225.56 2084.25 1238.22 2082.4C1250.88 2080.55 1272.36 2076.83 1285.95 2074.13C1299.53 2071.44 1319.24 2067.13 1329.74 2064.56C1340.24 2061.98 1358.17 2057.17 1369.6 2053.85C1381.02 2050.54 1400.99 2044.24 1413.96 2039.85C1426.93 2035.46 1448.15 2027.65 1461.12 2022.49C1474.09 2017.33 1493.79 2008.96 1504.91 2003.89C1516.03 1998.81 1531.69 1991.38 1539.72 1987.34C1547.75 1983.32 1562.15 1975.73 1571.72 1970.49C1581.29 1965.23 1596.71 1956.41 1605.97 1950.85C1615.24 1945.3 1632.16 1934.57 1643.59 1927C1655.01 1919.43 1672.45 1907.29 1682.33 1900.03C1692.21 1892.76 1707.37 1881.17 1716.02 1874.28C1724.66 1867.39 1739.32 1855.17 1748.58 1847.12C1757.84 1839.08 1773.25 1824.98 1782.83 1815.79C1792.4 1806.6 1807.52 1791.49 1816.43 1782.19C1825.33 1772.9 1839.2 1757.72 1847.24 1748.46C1855.29 1739.2 1867.51 1724.54 1874.4 1715.9C1881.3 1707.25 1892.88 1692.09 1900.15 1682.21C1907.41 1672.33 1919.55 1654.89 1927.12 1643.47C1934.69 1632.04 1945.42 1615.11 1950.97 1605.85C1956.53 1596.59 1965.36 1581.17 1970.61 1571.6C1975.86 1562.02 1983.45 1547.63 1987.47 1539.6C1991.5 1531.57 1998.93 1515.91 2004.01 1504.79C2009.08 1493.67 2017.45 1473.97 2022.61 1461C2027.77 1448.03 2035.58 1426.8 2039.97 1413.84C2044.36 1400.87 2050.66 1380.9 2053.98 1369.48C2057.29 1358.05 2062.11 1340.12 2064.68 1329.62C2067.25 1319.12 2071.56 1299.41 2074.26 1285.82C2076.95 1272.24 2080.67 1250.76 2082.52 1238.1C2084.37 1225.44 2086.92 1204.72 2088.18 1192.06C2089.43 1179.4 2091.03 1160.45 2091.74 1149.95C2092.43 1139.45 2093.01 1112.67 2093.01 1090.44C2093.01 1068.21 2092.43 1041.43 2091.74 1030.93C2091.03 1020.43 2089.43 1001.47 2088.18 988.818C2086.92 976.152 2084.37 955.434 2082.52 942.779C2080.67 930.113 2076.95 908.643 2074.26 895.056C2071.56 881.469 2067.25 861.762 2064.68 851.263C2062.11 840.764 2057.29 822.82 2053.98 811.4C2050.66 799.969 2044.36 780.015 2039.97 767.045C2035.58 754.076 2027.77 732.853 2022.61 719.883C2017.46 706.914 2008.86 686.702 2003.51 674.968C1998.17 663.233 1988.84 644.032 1982.78 632.297C1976.74 620.563 1967.01 602.619 1961.16 592.434C1955.32 582.238 1945.27 565.62 1938.83 555.502C1932.39 545.374 1926.71 536.84 1926.19 536.525C1925.68 536.211 1925.53 537.165 1925.85 538.648C1926.18 540.13 1927.45 546.901 1928.67 553.694ZM1401.6 1487.95C1400.12 1492.89 1396.96 1499.96 1394.56 1503.67C1392.17 1507.37 1386.66 1513.68 1382.31 1517.7C1377.97 1521.71 1370.04 1527.41 1364.71 1530.34C1355.96 1535.14 1354.9 1536.09 1353.95 1539.88C1353.36 1542.19 1349.86 1557.73 1346.14 1574.41C1342.44 1591.08 1334.57 1627.97 1328.67 1656.38C1322.77 1684.79 1317.68 1709.17 1317.38 1710.56L1316.83 1713.09C1547.87 1713.94 1625.44 1714.45 1638.26 1714.76L1661.56 1715.33C1664.6 1709.24 1664.66 1708.24 1663.52 1706.71C1662.75 1705.67 1621.79 1662.09 1572.5 1609.86C1483.27 1515.32 1482.85 1514.88 1475.93 1512.34C1472.11 1510.92 1466.19 1508.48 1462.8 1506.91C1459.4 1505.34 1452.58 1501.4 1447.64 1498.16C1442.7 1494.92 1435.51 1489.15 1431.64 1485.33C1427.78 1481.52 1422.4 1474.99 1419.69 1470.82C1416.98 1466.66 1413.82 1461.33 1412.68 1459.01C1411.53 1456.67 1410.26 1454.79 1409.87 1454.8C1409.48 1454.81 1408.06 1460.26 1406.73 1466.89C1405.39 1473.53 1403.09 1483.01 1401.6 1487.95Z" fill="#73A0CA"/>
</g>
<path fill-rule="evenodd" clip-rule="evenodd" d="M1090 2180C1691.99 2180 2180 1691.99 2180 1090C2180 488.01 1691.99 0 1090 0C488.01 0 0 488.01 0 1090C0 1691.99 488.01 2180 1090 2180ZM1089 2092C1642.39 2092 2091 1643.39 2091 1090C2091 536.611 1642.39 88 1089 88C535.611 88 87 536.611 87 1090C87 1643.39 535.611 2092 1089 2092Z" fill="#73A0CA"/>
<defs>
<clipPath id="clip0_482_56">
<rect width="2138" height="2136.88" fill="white" transform="translate(21 22)"/>
</clipPath>
</defs>
</svg>
