<svg width="2180" height="2180" viewBox="0 0 2180 2180" fill="none" xmlns="http://www.w3.org/2000/svg">
<g clip-path="url(#clip0_482_57)">
<path d="M1090.48 18C878.414 17.9656 671.103 80.8182 494.762 198.609C318.421 316.4 180.97 483.839 99.7933 679.75C18.6163 875.661 -2.64122 1091.25 38.7092 1299.24C80.0596 1507.23 182.161 1698.29 332.1 1848.25C482.039 1998.22 673.082 2100.35 881.068 2141.73C1089.05 2183.12 1304.64 2161.9 1500.57 2080.75C1696.49 1999.61 1863.95 1862.18 1981.77 1685.86C2099.59 1509.54 2162.48 1302.24 2162.48 1090.17C2162.15 805.945 2049.11 533.447 1848.15 332.45C1647.19 131.454 1374.71 18.3688 1090.48 18ZM88.6781 1090.17C88.6607 895.917 145.092 705.841 251.108 543.064C357.125 380.287 508.158 251.825 685.837 173.301C863.516 94.7777 1060.18 69.5772 1251.92 100.765C1443.66 131.952 1622.2 218.184 1765.83 348.972C1738.14 374.404 1713.58 375.275 1710.27 371.095C1723.33 365.172 1723.85 358.03 1722.11 341.83C1672.47 404.714 1558.54 300.72 1538.33 412.902C1533.63 410.985 1525.1 378.062 1565.33 334.862C1473.71 319.707 1448.62 447.218 1423.71 436.418C1445.66 422.308 1462.73 373.185 1447.4 354.72C1400.55 427.36 1319.72 415.166 1331.74 523.516C1332.23 527.152 1332.93 530.758 1333.83 534.316C1292.28 540.947 1249.95 540.947 1208.41 534.316C1195.29 526.984 1185.18 515.266 1179.84 501.219C1177.58 493.902 1177.58 459.934 1271.99 443.037C1266.41 423.179 1184.89 387.992 1020.28 408.198C1017.49 403.321 1018.01 379.282 1164.16 355.94C1146.74 331.726 961.224 309.952 805.667 349.843C793.3 337.126 811.764 312.391 883.707 284.868C738.776 256.996 614.575 341.133 614.575 341.133C614.575 341.133 610.046 324.759 641.575 273.371C493.335 326.675 478.18 386.075 459.715 431.366C287.958 548.252 358.856 772.616 393.695 824.874C399.966 834.629 406.237 843.862 412.508 852.571C406.582 853.231 400.743 854.515 395.088 856.404C383.417 856.404 350.32 888.281 340.739 926.082C353.652 911.682 371.623 902.822 390.908 901.346C389.802 905.707 390.426 910.326 392.65 914.237C388.442 920.577 386.837 928.294 388.167 935.786C389.496 943.278 393.659 949.971 399.792 954.476C399.12 962.838 399.827 971.253 401.882 979.386C391.58 992.77 386.894 1009.64 388.817 1026.42C381.102 1030.71 375.398 1037.89 372.95 1046.37C370.503 1054.86 371.51 1063.96 375.753 1071.71C369.826 1075.34 363.13 1077.54 356.201 1078.11C349.273 1078.69 342.306 1077.63 335.862 1075.02C368.262 1109.86 388.12 1118.05 401.534 1112.12C436.373 1103.76 415.992 1089.65 418.953 1054.46C421.252 1059.81 425.146 1064.31 430.102 1067.35C428.469 1071.37 427.672 1075.67 427.759 1080.01C427.846 1084.34 428.816 1088.61 430.61 1092.56C432.403 1096.5 434.982 1100.04 438.19 1102.96C441.397 1105.87 445.165 1108.1 449.263 1109.51C450.308 1114.91 436.895 1131.11 419.998 1137.21C467.728 1141.91 489.677 1135.47 495.948 1122.92C519.638 1092.44 488.109 1097.84 466.857 1060.91C458.844 1047.32 452.747 1034.95 447.695 1024.5C457.206 1032.54 469.211 1037.04 481.664 1037.22C482.982 1041.35 485.114 1045.18 487.933 1048.48C490.753 1051.78 494.203 1054.48 498.081 1056.43C501.96 1058.38 506.188 1059.53 510.518 1059.82C514.848 1060.11 519.193 1059.53 523.296 1058.12C525.237 1064.74 525.554 1071.72 524.22 1078.48C522.885 1085.25 519.939 1091.59 515.632 1096.97C557.439 1071.88 571.723 1053.77 568.936 1040.35C568.936 1002.55 546.813 1025.72 506.748 1010.04C496.122 1006.04 486.889 1001.86 478.528 998.025C471.1 986.399 466.437 973.225 464.896 959.515C463.356 945.805 464.98 931.924 469.644 918.94C604.471 1040.88 765.777 995.412 928.301 949.424C936.837 957.96 945.721 965.276 950.598 971.721C933.179 963.708 924.121 950.469 917.153 983.915C912.449 993.147 924.295 1030.25 951.992 1051.33C948.782 1043.72 947.23 1035.51 947.441 1027.25C947.651 1018.99 949.618 1010.87 953.211 1003.42C956.579 1005.89 960.721 1007.07 964.882 1006.73C969.006 1012.43 974.999 1016.49 981.813 1018.21C988.628 1019.92 995.83 1019.19 1002.16 1016.14C1009.06 1019.69 1016.46 1022.16 1024.11 1023.46C1027.79 1030.14 1032.76 1036.01 1038.75 1040.74C1044.73 1045.47 1051.6 1048.95 1058.95 1050.98C1057.38 1069.62 1082.12 1080.59 1091.35 1077.81C1094.31 1081.81 1088.91 1099.23 1076.54 1109.86C1119.57 1097.32 1136.46 1084.77 1136.99 1072.58C1145.17 1042.97 1124.45 1053.24 1096.05 1037.74C1101.58 1037.87 1107.04 1036.55 1111.9 1033.91C1117.97 1039.32 1125.81 1042.31 1133.94 1042.31C1142.07 1042.31 1149.91 1039.32 1155.97 1033.91C1161.03 1035.13 1168.87 1051.33 1166.43 1066.66C1191.69 1031.82 1196.04 1011.96 1188.2 1002.73C1172.87 973.115 1163.47 999.592 1122.88 1002.73C1107.72 1003.95 1094.48 1004.12 1083.34 1004.12C1093.55 999.872 1102.15 992.492 1107.9 983.044C1115.88 984.307 1124.04 982.491 1130.74 977.963C1137.43 973.436 1142.16 966.535 1143.96 958.656C1148.83 956.74 1165.9 964.928 1173.92 978.167C1171.3 936.534 1162.25 918.94 1149.7 916.153C1117.83 902.043 1127.58 927.824 1097.45 953.082C1089.26 959.702 1081.77 965.45 1074.63 970.502C1055.46 973.637 1022.37 970.502 987.528 933.398C1099.88 903.437 1212.07 883.23 1316.41 927.127C1629.96 1060.21 1579.27 1334.92 1558.02 1413.48C1554.36 1431.88 1546.38 1449.14 1534.75 1463.86C1523.13 1478.57 1508.18 1490.32 1491.13 1498.14C1486.95 1476.19 1494.96 1439.44 1532.06 1378.29C1456.81 1387.87 1412.39 1374.64 1394.45 1413.13C1374.76 1378.29 1406.29 1356.35 1481.55 1334.57C1410.82 1280.05 1307.35 1294.51 1304.04 1341.71C1289.41 1290.85 1336.62 1255.83 1405.07 1237.2C1298.47 1194.87 1159.11 1200.96 1153.36 1254.61C1130.89 1194.17 1167.99 1178.49 1224.43 1138.43C1190.81 1116.65 1048.5 1105.85 973.592 1173.27C943.282 1173.27 909.488 1123.62 931.959 1063.17C907.224 1057.08 817.339 1096.97 781.454 1215.6C764.035 1224.13 729.196 1187.72 741.041 1106.72C637.569 1208.1 650.285 1266.11 645.582 1357.91L637.569 1352.51C643.951 1258.5 655.231 1164.89 671.363 1072.06C639.136 1126.23 611.091 1255.31 596.981 1328.13C591.755 1350.07 560.4 1343.8 562.142 1328.13C568.065 1268.9 578.168 1175.36 589.316 1112.47C553.422 1194.04 530.895 1280.85 522.6 1369.58C513.541 1374.64 505.18 1367.84 494.554 1387C468.076 1462.08 424.876 1426.89 422.611 1462.08C420.347 1497.27 451.179 1494.13 445.082 1516.43C438.986 1538.73 451.179 1540.3 436.024 1544.3C392.301 1527.75 418.605 1574.79 348.926 1598.13C336.384 1592.38 348.926 1554.06 348.926 1554.06C337.746 1551.94 326.196 1553.05 315.619 1557.24C305.042 1561.44 295.872 1568.55 289.177 1577.75C255.732 1643.59 281.339 1654.92 311.649 1673.73C348.578 1693.07 354.501 1685.75 367.914 1673.73C407.456 1698.47 435.327 1651.61 435.327 1651.61C435.327 1651.61 475.741 1660.32 487.586 1632.27C499.431 1604.23 522.425 1638.54 533.574 1632.27C552.735 1647.6 615.446 1548.83 674.15 1577.75C653.85 1584 635.078 1594.42 619.031 1608.34C602.985 1622.25 590.017 1639.36 580.955 1658.57C576.7 1667.42 573.091 1676.56 570.155 1685.92C528.348 1757.87 422.089 1694.11 407.63 1823.19C306.907 1729.52 226.593 1616.07 171.712 1489.94C116.832 1363.82 88.5644 1227.72 88.6781 1090.17ZM426.095 871.907C424.702 875.565 423.308 879.049 421.914 882.01C422.023 877.286 422.431 872.573 423.134 867.901C424.005 869.294 425.05 870.514 426.095 871.907ZM631.994 1456.86C630.078 1465.22 627.814 1474.28 625.375 1482.64C593.846 1511.38 493.857 1527.41 503.438 1502.84C568.587 1485.42 598.375 1411.04 630.601 1454.59C631.17 1455.28 631.639 1456.04 631.994 1456.86ZM475.218 1880.67C452.747 1863.25 430.973 1844.79 410.243 1825.45C435.328 1746.37 502.219 1769.54 554.303 1767.1C550.639 1783.42 543.379 1798.71 533.051 1811.87C506.225 1842.7 490.896 1820.93 476.612 1817.27C460.412 1846.71 463.373 1866.91 475.218 1880.67ZM494.728 1895.65C506.705 1901.41 519.768 1904.56 533.051 1904.89C710.208 1918.3 657.079 1782.95 662.304 1752.47C647.672 1684.18 705.157 1730.52 741.738 1710.14C755.925 1701.55 768.729 1690.86 779.712 1678.43C807.409 1682.09 824.655 1680.17 862.978 1606.14C875.868 1576.53 885.449 1532.28 910.185 1509.46C946.418 1478.28 979.863 1474.62 1010.17 1485.08C998.851 1500.65 994.039 1520.02 996.76 1539.08C999.373 1575.48 1062.43 1647.77 1178.1 1649.34C1098.66 1734.52 1045.36 1727.38 1019.58 1714.67C1013.83 1706.3 1007.56 1697.25 1001.11 1686.1C976.205 1645.51 995.541 1616.42 956.521 1624.26C942.063 1624.26 926.211 1642.9 909.314 1693.94C922.379 1680 944.153 1675.12 948.16 1678.96C944.327 1689.76 956.347 1720.41 978.644 1720.24C981.434 1733.81 988.667 1746.07 999.199 1755.08C984.97 1751.24 970.956 1746.65 957.218 1741.32C914.54 1725.47 913.495 1689.93 887.539 1721.63C875.868 1730.69 874.126 1756.47 889.107 1807.34C891.72 1787.65 906.527 1769.89 911.578 1770.06C913.725 1774.16 916.699 1777.77 920.311 1780.66C923.924 1783.55 928.097 1785.66 932.566 1786.85C937.036 1788.05 941.704 1788.3 946.277 1787.6C950.85 1786.9 955.228 1785.26 959.134 1782.78C963.36 1787.46 968.874 1790.79 974.986 1792.36C939.101 1802.46 920.288 1783.47 919.069 1822.67C915.585 1837.65 929.346 1857.51 971.328 1887.12C967.276 1880.61 964.707 1873.28 963.804 1865.67C962.901 1858.05 963.685 1850.33 966.102 1843.05C970.508 1844.63 975.195 1845.27 979.864 1844.95C984.534 1844.62 989.085 1843.33 993.228 1841.15C997.372 1838.97 1001.02 1835.95 1003.93 1832.29C1006.85 1828.63 1008.98 1824.41 1010.17 1819.88C1018.88 1822.67 1042.4 1811.69 1056.16 1796.54C1064.95 1797.26 1073.79 1796.43 1082.29 1794.1C1085.12 1796.94 1088.49 1799.2 1092.2 1800.74C1095.9 1802.28 1099.88 1803.07 1103.89 1803.07C1107.9 1803.07 1111.88 1802.28 1115.59 1800.74C1119.29 1799.2 1122.66 1796.94 1125.49 1794.1C1127.64 1795.01 1129.95 1795.48 1132.28 1795.48C1134.62 1795.48 1136.93 1795.01 1139.08 1794.1C1141.79 1815.06 1136.51 1836.27 1124.27 1853.5C1160.68 1836.08 1185.94 1793.58 1184.19 1780.86C1187.85 1737.49 1173.39 1750.9 1152.14 1755.6C1175.83 1738.18 1220.78 1716.76 1249.52 1677.21C1292.46 1701.76 1339.81 1717.63 1388.87 1723.9C1433.72 1765.28 1492.82 1787.75 1553.84 1786.61C1466.74 1879.98 1408.21 1872.31 1379.64 1858.2C1373.2 1848.97 1366.4 1838.87 1359.44 1827.02C1332.09 1782.43 1353.16 1750.72 1310.31 1759.09C1294.46 1759.09 1277.22 1779.47 1258.05 1834.86C1272.51 1819.71 1295.68 1814.31 1300.73 1818.49C1296.55 1830.33 1309.79 1863.95 1334.18 1863.95C1337.39 1878.65 1345.27 1891.91 1356.65 1901.75C1341.07 1897.5 1325.72 1892.44 1310.66 1886.6C1263.8 1869.18 1262.58 1830.16 1233.32 1865C1220.6 1874.93 1218.69 1902.8 1235.23 1959.06C1238.02 1937.46 1252.65 1917.95 1259.8 1918.13C1262.14 1922.65 1265.4 1926.63 1269.37 1929.81C1273.34 1933 1277.93 1935.33 1282.85 1936.64C1287.77 1937.95 1292.9 1938.22 1297.93 1937.43C1302.96 1936.64 1307.77 1934.81 1312.05 1932.06C1316.72 1937.21 1322.77 1940.9 1329.47 1942.69C1290.11 1953.84 1269.55 1932.76 1267.98 1975.78C1264.32 1993.2 1279.31 2015.15 1325.64 2046.68C1315.02 2028.22 1315.02 2002.61 1320.07 1998.26C1325 2000.08 1330.25 2000.83 1335.49 2000.48C1340.74 2000.12 1345.84 1998.66 1350.48 1996.2C1355.12 1993.73 1359.19 1990.31 1362.41 1986.16C1365.63 1982.01 1367.94 1977.23 1369.19 1972.13C1378.77 1975.26 1404.03 1963.07 1419.71 1946.52C1429.38 1947.3 1439.11 1946.35 1448.45 1943.73C1454.75 1949.99 1463.26 1953.5 1472.14 1953.5C1481.02 1953.5 1489.53 1949.99 1495.83 1943.73C1498.19 1944.76 1500.74 1945.29 1503.32 1945.29C1505.9 1945.29 1508.45 1944.76 1510.81 1943.73C1513.63 1966.44 1507.99 1989.38 1494.96 2008.19C1333.25 2079.34 1155.6 2106.46 980.024 2086.79C804.45 2067.12 637.203 2001.36 495.251 1896.18L494.728 1895.65ZM1498.27 2005.92C1535.72 1985.54 1561.5 1942.17 1559.76 1928.58C1563.77 1881.02 1547.92 1895.83 1524.92 1900.88C1561.15 1874.58 1643.9 1838.69 1658.36 1751.94C1672.46 1679.48 1618.46 1705.43 1599.48 1699.68C1582.64 1697.08 1566.03 1693.12 1549.83 1687.84C1600.65 1654.35 1642.99 1609.51 1673.51 1556.84C1732.26 1463.52 1756.88 1352.72 1743.19 1243.29C1806.94 1225.87 1880.11 1202.36 1908.15 1067.35C1836.38 1122.75 1800.15 1144.87 1782.03 1135.12C1774.2 1097.49 1901.88 1050.11 1849.8 917.198C1840.39 967.715 1814.96 984.263 1778.2 989.141C1852.06 858.146 1773.5 810.242 1760.78 801.532C1752.25 848.391 1693.02 866.855 1693.02 866.855C1693.02 866.855 1742.67 714.783 1632.4 692.66C1643.37 743.177 1611.84 750.493 1598.43 756.067C1568.47 673.672 1482.07 636.046 1470.92 641.62C1500.01 699.976 1445.66 720.357 1445.66 720.357C1445.66 720.357 1333.83 618.801 1237.67 621.936C1274.78 653.988 1301.6 678.724 1288.89 696.318C1224.26 645.279 1048.67 590.581 1015.57 615.839C1087.34 653.988 1110.34 702.937 1099.19 709.208C965.231 656.95 868.378 652.769 860.365 663.743C903.74 698.582 918.72 717.918 899.036 731.505C811.939 679.247 694.182 695.099 686.343 707.989C748.531 728.37 739.647 770.177 724.841 782.893C704.445 794.984 682.988 805.187 660.737 813.377C633.627 813.594 606.614 810.137 580.432 803.1C578.723 797.503 576.628 792.032 574.161 786.725C565.974 771.57 578.865 721.402 521.903 745.441C514.56 748.264 507.55 751.886 500.999 756.241C487.569 740.105 477.556 721.409 471.567 701.287C465.578 681.165 463.739 660.036 466.16 639.182C466.16 498.606 719.092 395.308 958.437 530.309C1017.09 564.43 1082.38 585.583 1149.9 592.344C1217.42 599.105 1285.6 591.316 1349.85 569.503C1352.98 573.866 1356.47 577.946 1360.31 581.697C1360.31 581.697 1468.66 660.956 1540.25 600.162C1497.05 584.484 1487.99 557.484 1491.13 547.903C1570.39 648.066 1609.23 518.638 1691.45 525.606C1688.14 494.425 1604.35 505.922 1607.49 486.238C1705.21 468.818 1735 470.212 1772.8 356.462C1894.34 469.237 1985.99 610.404 2039.56 767.311C2093.12 924.219 2106.92 1091.96 2079.71 1255.52C2052.5 1419.07 1985.14 1573.31 1883.67 1704.43C1782.19 1835.54 1649.77 1939.44 1498.27 2006.79V2005.92Z" fill="#426C44"/>
</g>
<path fill-rule="evenodd" clip-rule="evenodd" d="M1090 2180C1691.99 2180 2180 1691.99 2180 1090C2180 488.01 1691.99 0 1090 0C488.01 0 0 488.01 0 1090C0 1691.99 488.01 2180 1090 2180ZM1089 2092C1642.39 2092 2091 1643.39 2091 1090C2091 536.611 1642.39 88 1089 88C535.611 88 87 536.611 87 1090C87 1643.39 535.611 2092 1089 2092Z" fill="#426C44"/>
<defs>
<clipPath id="clip0_482_57">
<rect width="2144" height="2144" fill="white" transform="translate(19 18)"/>
</clipPath>
</defs>
</svg>
