<svg width="2180" height="2180" viewBox="0 0 2180 2180" fill="none" xmlns="http://www.w3.org/2000/svg">
<g clip-path="url(#clip0_482_53)">
<path fill-rule="evenodd" clip-rule="evenodd" d="M1088.03 22.1572C1113.2 22.0674 1139.73 22.4941 1146.99 23.1004C1154.24 23.718 1170.03 25.0094 1182.08 25.9863C1194.11 26.952 1213.57 28.962 1225.31 30.433C1237.04 31.904 1255.99 34.6888 1267.42 36.6089C1278.84 38.5291 1296.78 41.8641 1307.28 44.0201C1317.78 46.176 1335.47 50.1735 1346.58 52.9022C1357.7 55.6196 1374.88 60.1673 1384.76 62.9858C1394.64 65.8155 1415.36 72.3396 1430.8 77.4937C1446.24 82.659 1468.47 90.6541 1480.21 95.2804C1491.94 99.8955 1511.65 108.149 1524 113.595C1536.35 119.052 1558.08 129.405 1572.29 136.603C1586.49 143.801 1606.96 154.749 1617.76 160.925C1628.56 167.101 1642.71 175.433 1649.2 179.442C1655.68 183.45 1666.29 190.165 1672.78 194.343C1679.26 198.531 1691.14 206.537 1699.17 212.129C1707.2 217.733 1720.84 227.614 1729.49 234.082C1738.14 240.55 1749.76 249.454 1755.32 253.867C1760.88 258.269 1772.5 267.87 1781.14 275.18C1789.79 282.501 1802.16 293.326 1808.66 299.233C1815.13 305.139 1829.22 318.569 1839.93 329.09C1850.64 339.601 1866.63 356.029 1875.46 365.607C1884.28 375.174 1897.72 390.333 1905.31 399.294C1912.89 408.244 1922.72 420.124 1927.13 425.682C1931.55 431.241 1940.45 442.863 1946.94 451.509C1953.42 460.155 1964.31 475.314 1971.14 485.196C1977.98 495.077 1989.12 512.011 1995.9 522.813C2002.67 533.615 2013.42 551.559 2019.76 562.676C2026.12 573.793 2037.2 594.51 2044.4 608.715C2051.59 622.92 2061.95 644.648 2067.41 657C2072.85 669.351 2081.1 689.058 2085.72 700.793C2090.35 712.527 2098.34 734.76 2103.51 750.2C2108.66 765.64 2115.18 786.357 2118.01 796.239C2120.83 806.121 2125.38 823.301 2128.1 834.418C2130.83 845.534 2134.82 863.22 2136.98 873.719C2139.14 884.218 2142.47 902.151 2144.39 913.582C2146.31 925.002 2149.1 943.956 2150.57 955.691C2152.04 967.425 2154.05 986.874 2155.02 998.922C2156 1010.96 2157.3 1027.01 2157.9 1034.57C2158.51 1042.14 2159 1066.9 2159 1089.6C2159.01 1112.29 2158.49 1137.68 2157.87 1146.02C2157.24 1154.35 2155.95 1170.78 2154.99 1182.52C2154.03 1194.25 2152.04 1213.45 2150.57 1225.19C2149.1 1236.92 2146.31 1255.86 2144.39 1267.3C2142.47 1278.72 2139.14 1296.66 2136.98 1307.16C2134.82 1317.66 2130.83 1335.34 2128.1 1346.46C2125.38 1357.58 2120.83 1374.76 2118.01 1384.64C2115.18 1394.52 2108.66 1415.24 2103.51 1430.68C2098.34 1446.12 2090.35 1468.35 2085.72 1480.08C2081.1 1491.82 2072.85 1511.53 2067.41 1523.88C2061.95 1536.23 2051.59 1557.96 2044.4 1572.16C2037.2 1586.37 2026.12 1607.08 2019.76 1618.2C2013.42 1629.32 2002.67 1647.25 1995.9 1658.06C1989.12 1668.87 1977.98 1685.8 1971.14 1695.68C1964.31 1705.56 1953.42 1720.72 1946.94 1729.37C1940.45 1738.01 1931.55 1749.64 1927.13 1755.19C1922.72 1760.75 1912.89 1772.62 1905.31 1781.58C1897.72 1790.53 1884.28 1805.69 1875.46 1815.27C1866.63 1824.84 1850.64 1841.28 1839.93 1851.79C1829.22 1862.31 1815.13 1875.74 1808.66 1881.64C1802.16 1887.55 1789.79 1898.38 1781.14 1905.69C1772.5 1913.01 1760.88 1922.61 1755.32 1927.01C1749.76 1931.42 1738.14 1940.33 1729.49 1946.82C1720.84 1953.3 1705.69 1964.19 1695.8 1971.02C1685.92 1977.85 1668.99 1988.99 1658.19 1995.78C1647.37 2002.55 1629.44 2013.29 1618.32 2019.64C1607.21 2025.99 1586.49 2037.08 1572.29 2044.27C1558.08 2051.47 1536.35 2061.82 1524 2067.28C1511.65 2072.73 1491.94 2080.98 1480.21 2085.6C1468.47 2090.22 1446.24 2098.22 1430.8 2103.38C1415.36 2108.54 1394.64 2115.06 1384.76 2117.89C1374.88 2120.71 1357.7 2125.26 1346.58 2127.97C1335.47 2130.7 1317.78 2134.7 1307.28 2136.86C1296.78 2139.01 1278.84 2142.35 1267.42 2144.27C1255.99 2146.19 1237.04 2148.97 1225.31 2150.44C1213.57 2151.92 1194.11 2153.93 1182.08 2154.89C1170.03 2155.87 1154.24 2157.16 1146.99 2157.78C1139.73 2158.38 1114.33 2158.88 1090.56 2158.88C1066.78 2158.88 1041.39 2158.38 1034.14 2157.78C1026.88 2157.16 1011.08 2155.87 999.045 2154.89C986.996 2153.93 967.548 2151.92 955.813 2150.44C944.079 2148.97 925.125 2146.19 913.705 2144.27C902.274 2142.35 884.341 2139.01 873.842 2136.86C863.343 2134.7 845.657 2130.7 834.54 2127.97C823.424 2125.26 806.243 2120.71 796.362 2117.89C786.48 2115.06 765.763 2108.54 750.323 2103.38C734.883 2098.22 712.65 2090.21 700.915 2085.59C689.181 2080.96 671.237 2073.53 661.052 2069.07C650.856 2064.61 631.408 2055.48 617.821 2048.79C604.234 2042.08 584.774 2031.97 574.589 2026.3C564.393 2020.61 548.482 2011.4 539.218 2005.8C529.954 2000.21 516.558 1991.87 509.461 1987.28C502.353 1982.67 489.979 1974.33 481.95 1968.74C473.921 1963.14 460.278 1953.26 451.632 1946.8C442.985 1940.33 431.363 1931.42 425.805 1927.01C420.247 1922.61 408.625 1913.01 399.978 1905.67C391.332 1898.35 376.42 1885.16 366.853 1876.37C357.274 1867.57 340.577 1851.37 329.741 1840.36C318.905 1829.34 305.217 1815.01 299.322 1808.53C293.438 1802.04 282.624 1789.67 275.303 1781.02C267.993 1772.38 258.392 1760.75 253.99 1755.19C249.577 1749.64 240.673 1738.01 234.205 1729.37C227.737 1720.72 217.855 1707.08 212.263 1699.05C206.671 1691.02 198.328 1678.64 193.724 1671.54C189.132 1664.43 180.788 1651.05 175.196 1641.78C169.604 1632.52 160.385 1616.6 154.703 1606.41C149.033 1596.21 138.915 1576.77 132.212 1563.18C125.519 1549.59 116.39 1530.13 111.932 1519.95C107.474 1509.75 100.041 1491.82 95.4144 1480.08C90.788 1468.35 82.7817 1446.12 77.6164 1430.68C72.4623 1415.24 65.9383 1394.52 63.1086 1384.64C60.2901 1374.76 55.7423 1357.58 53.0249 1346.46C50.2963 1335.34 46.2988 1317.66 44.1428 1307.16C41.9868 1296.66 38.6518 1278.72 36.7317 1267.3C34.8115 1255.86 32.0267 1236.92 30.5557 1225.19C29.0847 1213.45 27.0747 1193.99 26.0978 1181.95C25.1209 1169.91 23.8183 1153.87 23.2232 1146.3C22.6168 1138.73 22.1227 1113.97 22.1227 1091.28C22.1115 1068.59 22.628 1043.19 23.2569 1034.86C23.8857 1026.51 25.177 1010.1 26.1315 998.361C27.0972 986.627 29.0847 967.425 30.5557 955.691C32.0267 943.956 34.8115 925.002 36.7317 913.582C38.6518 902.151 41.9868 884.218 44.1428 873.719C46.2988 863.22 50.2963 845.534 53.0249 834.418C55.7423 823.301 60.2901 806.121 63.1086 796.239C65.9383 786.357 72.4623 765.64 77.6164 750.2C82.7817 734.76 90.788 712.527 95.4144 700.793C100.041 689.058 107.474 671.114 111.932 660.93C116.39 650.734 125.519 631.285 132.212 617.698C138.915 604.111 149.033 584.651 154.703 574.466C160.385 564.27 169.604 548.359 175.196 539.095C180.788 529.831 189.132 516.435 193.724 509.338C198.328 502.23 206.671 489.856 212.263 481.827C217.855 473.798 227.737 460.155 234.205 451.509C240.673 442.863 249.577 431.241 253.99 425.682C258.392 420.124 267.993 408.502 275.325 399.856C282.647 391.209 295.841 376.297 304.633 366.73C313.425 357.152 329.629 340.454 340.644 329.618C351.66 318.782 365.977 305.094 372.467 299.199C378.946 293.315 391.332 282.501 399.978 275.18C408.625 267.87 420.247 258.269 425.805 253.867C431.363 249.454 442.985 240.55 451.632 234.082C460.278 227.614 473.921 217.733 481.95 212.141C489.979 206.548 502.353 198.205 509.461 193.601C516.558 189.009 529.954 180.666 539.218 175.074C548.482 169.482 564.393 160.263 574.589 154.581C584.774 148.91 604.234 138.793 617.821 132.089C631.408 125.397 650.856 116.267 661.052 111.809C671.237 107.352 689.181 99.918 700.915 95.2916C712.65 90.6653 734.883 82.659 750.323 77.4937C765.763 72.3396 786.48 65.8155 796.362 62.9858C806.243 60.1673 823.424 55.6196 834.54 52.9022C845.657 50.1735 863.343 46.176 873.842 44.0201C884.341 41.8641 902.274 38.5291 913.705 36.6089C925.125 34.6888 944.079 31.904 955.813 30.4218C967.548 28.9508 986.996 26.952 999.045 25.9751C1011.08 24.9981 1025.74 23.7742 1031.61 23.2577C1037.47 22.7299 1062.87 22.2358 1088.03 22.1572ZM1032.17 89.3852C1020.44 90.0477 1000.73 91.6085 988.378 92.8549C976.026 94.1014 955.555 96.6279 942.9 98.4807C930.234 100.333 908.764 104.05 895.177 106.745C881.59 109.44 861.883 113.752 851.384 116.324C840.885 118.895 822.941 123.712 811.521 127.025C800.09 130.337 780.136 136.637 767.166 141.027C754.197 145.418 732.974 153.233 720.005 158.387C707.035 163.553 687.328 171.918 676.212 176.994C665.095 182.069 649.43 189.503 641.402 193.534C633.373 197.554 618.966 205.145 609.399 210.389C599.821 215.644 584.414 224.481 575.151 230.028C565.887 235.587 548.953 246.31 537.533 253.856C526.102 261.413 508.675 273.541 498.793 280.806C488.912 288.071 473.753 299.671 465.106 306.576C456.46 313.493 441.806 325.733 432.542 333.773C423.278 341.824 407.861 355.894 398.294 365.034C388.716 374.186 373.613 389.3 364.708 398.62C355.803 407.952 341.947 423.156 333.896 432.42C325.856 441.684 313.616 456.337 306.699 464.984C299.793 473.63 288.194 488.789 280.929 498.671C273.663 508.552 261.536 525.98 253.979 537.411C246.433 548.831 235.709 565.764 230.151 575.028C224.604 584.292 215.767 599.698 210.512 609.276C205.268 618.843 197.677 633.25 193.657 641.279C189.626 649.308 182.192 664.972 177.117 676.089C172.041 687.206 163.675 706.912 158.51 719.882C153.356 732.851 145.541 754.074 141.15 767.044C136.76 780.013 130.46 799.967 127.147 811.398C123.835 822.818 119.018 840.762 116.446 851.261C113.875 861.76 109.563 881.467 106.868 895.054C104.173 908.641 100.456 930.111 98.6034 942.777C96.7506 955.432 94.2016 976.15 92.944 988.816C91.6863 1001.47 90.0918 1020.43 89.3844 1030.92C88.6882 1041.42 88.1155 1068.21 88.1155 1090.44C88.1155 1112.67 88.6882 1139.45 89.3844 1149.95C90.0918 1160.45 91.6863 1179.39 92.944 1192.06C94.2016 1204.72 96.7506 1225.43 98.6034 1238.1C100.456 1250.75 104.173 1272.24 106.868 1285.82C109.563 1299.41 113.875 1319.12 116.446 1329.62C119.018 1340.12 123.835 1358.05 127.147 1369.48C130.46 1380.9 136.76 1400.86 141.15 1413.83C145.541 1426.8 153.356 1448.03 158.51 1461C163.675 1473.96 172.041 1493.67 177.117 1504.79C182.192 1515.91 189.626 1531.57 193.657 1539.6C197.677 1547.63 205.268 1562.02 210.512 1571.6C215.767 1581.17 224.604 1596.59 230.151 1605.85C235.709 1615.11 246.433 1632.04 253.979 1643.47C261.536 1654.89 273.663 1672.32 280.929 1682.21C288.194 1692.09 299.793 1707.25 306.699 1715.89C313.616 1724.54 325.856 1739.19 333.896 1748.46C341.947 1757.72 356.017 1773.13 365.157 1782.71C374.309 1792.27 389.423 1807.39 398.743 1816.29C408.074 1825.2 423.278 1839.05 432.542 1847.1C441.806 1855.14 456.46 1867.38 465.106 1874.3C473.753 1881.21 488.912 1892.81 498.793 1900.07C508.675 1907.34 526.102 1919.46 537.533 1927.02C548.953 1934.57 565.887 1945.29 575.151 1950.85C584.414 1956.4 599.821 1965.23 609.399 1970.49C618.966 1975.73 633.373 1983.32 641.402 1987.34C649.43 1991.37 665.095 1998.81 676.212 2003.88C687.328 2008.96 707.035 2017.32 720.005 2022.49C732.974 2027.64 754.197 2035.46 767.166 2039.85C780.136 2044.24 800.09 2050.54 811.521 2053.85C822.941 2057.16 840.885 2061.98 851.384 2064.55C861.883 2067.12 881.59 2071.44 895.177 2074.13C908.764 2076.83 930.234 2080.54 942.9 2082.4C955.555 2084.25 976.273 2086.8 988.939 2088.06C1001.59 2089.3 1020.55 2090.91 1031.05 2091.62C1041.55 2092.31 1068.33 2092.88 1090.56 2092.88C1112.79 2092.88 1139.58 2092.31 1150.07 2091.62C1160.57 2090.91 1179.52 2089.3 1192.18 2088.06C1204.84 2086.8 1225.56 2084.25 1238.22 2082.4C1250.88 2080.54 1272.36 2076.83 1285.95 2074.13C1299.53 2071.44 1319.24 2067.12 1329.74 2064.55C1340.24 2061.98 1358.17 2057.16 1369.6 2053.85C1381.02 2050.54 1400.99 2044.24 1413.96 2039.85C1426.93 2035.46 1448.15 2027.64 1461.12 2022.49C1474.09 2017.32 1493.79 2008.96 1504.91 2003.88C1516.03 1998.81 1531.69 1991.37 1539.72 1987.34C1547.75 1983.32 1562.15 1975.73 1571.72 1970.49C1581.29 1965.23 1596.71 1956.41 1605.97 1950.85C1615.24 1945.3 1632.16 1934.57 1643.59 1927C1655.01 1919.43 1672.45 1907.29 1682.33 1900.03C1692.21 1892.76 1707.37 1881.17 1716.02 1874.28C1724.66 1867.38 1739.32 1855.17 1748.58 1847.12C1757.84 1839.08 1773.03 1825.21 1782.31 1816.3C1791.61 1807.4 1806.72 1792.27 1815.91 1782.71C1825.11 1773.13 1839.2 1757.72 1847.24 1748.46C1855.29 1739.19 1867.51 1724.54 1874.4 1715.89C1881.3 1707.25 1892.88 1692.09 1900.15 1682.21C1907.41 1672.32 1919.55 1654.89 1927.12 1643.47C1934.69 1632.04 1945.42 1615.11 1950.97 1605.85C1956.53 1596.59 1965.36 1581.17 1970.61 1571.6C1975.85 1562.02 1983.45 1547.63 1987.47 1539.6C1991.5 1531.57 1998.93 1515.91 2004.01 1504.79C2009.08 1493.67 2017.45 1473.96 2022.61 1461C2027.77 1448.03 2035.58 1426.8 2039.97 1413.83C2044.36 1400.86 2050.66 1380.9 2053.97 1369.48C2057.29 1358.05 2062.1 1340.12 2064.68 1329.62C2067.25 1319.12 2071.56 1299.41 2074.25 1285.82C2076.95 1272.24 2080.67 1250.75 2082.52 1238.1C2084.37 1225.43 2086.92 1204.72 2088.18 1192.06C2089.43 1179.39 2091.03 1160.45 2091.74 1149.95C2092.43 1139.45 2093.01 1112.67 2093.01 1090.44C2093.01 1068.21 2092.43 1041.42 2091.74 1030.92C2091.03 1020.43 2089.43 1001.47 2088.18 988.816C2086.92 976.15 2084.37 955.432 2082.52 942.777C2080.67 930.111 2076.95 908.641 2074.25 895.054C2071.56 881.467 2067.25 861.76 2064.68 851.261C2062.1 840.762 2057.29 822.818 2053.97 811.398C2050.66 799.967 2044.36 780.013 2039.97 767.044C2035.58 754.074 2027.77 732.851 2022.61 719.882C2017.45 706.912 2009.08 687.206 2004.01 676.089C1998.93 664.972 1991.5 649.308 1987.47 641.279C1983.45 633.25 1975.85 618.843 1970.61 609.276C1965.36 599.698 1956.53 584.292 1950.97 575.028C1945.42 565.764 1934.69 548.831 1927.12 537.411C1919.55 525.98 1907.41 508.552 1900.15 498.671C1892.88 488.789 1881.3 473.63 1874.4 464.984C1867.51 456.337 1855.29 441.684 1847.24 432.42C1839.2 423.156 1825.11 407.738 1815.91 398.171C1806.72 388.593 1791.61 373.479 1782.31 364.574C1773.03 355.669 1757.84 341.802 1748.58 333.762C1739.32 325.711 1724.66 313.493 1716.02 306.599C1707.37 299.704 1692.21 288.116 1682.33 280.851C1672.45 273.586 1655.01 261.447 1643.59 253.879C1632.16 246.31 1615.24 235.575 1605.97 230.028C1596.71 224.47 1581.29 215.644 1571.72 210.389C1562.15 205.145 1547.75 197.554 1539.72 193.534C1531.69 189.503 1516.03 182.069 1504.91 176.994C1493.79 171.918 1474.09 163.553 1461.12 158.387C1448.15 153.233 1426.93 145.418 1413.96 141.027C1400.99 136.637 1381.02 130.337 1369.6 127.025C1358.17 123.712 1340.24 118.895 1329.74 116.324C1319.24 113.752 1299.53 109.44 1285.95 106.745C1272.36 104.05 1250.88 100.333 1238.22 98.4807C1225.56 96.6279 1204.84 94.0789 1192.18 92.8213C1179.52 91.5636 1160.82 90.0477 1150.64 89.4526C1140.44 88.8462 1119.72 88.1612 1104.6 87.9142C1089.46 87.6672 1071.78 87.6335 1065.3 87.8244C1058.81 88.0152 1043.9 88.7114 1032.17 89.3852ZM791.87 195.454C815.911 195.701 832.822 196.431 842.962 197.655C851.294 198.654 865.443 200.788 874.403 202.394C883.353 203.988 898.265 207.233 907.529 209.592C916.793 211.95 931.188 216.217 939.531 219.08C947.863 221.943 960.754 226.828 968.165 229.938C975.576 233.06 986.57 238.068 992.588 241.089C998.607 244.109 1010.23 250.566 1018.42 255.451C1026.6 260.324 1038.35 267.96 1044.52 272.429C1050.7 276.898 1059.79 283.95 1064.73 288.116C1069.68 292.271 1077.5 299.468 1090.56 312.55L1098.98 304.083C1103.61 299.423 1111.45 292.226 1116.39 288.082C1121.33 283.939 1130.42 276.898 1136.6 272.429C1142.78 267.96 1154.52 260.324 1162.71 255.451C1170.89 250.566 1182.52 244.109 1188.53 241.089C1194.55 238.068 1205.55 233.06 1212.96 229.938C1220.37 226.828 1233.25 221.943 1241.59 219.08C1249.92 216.217 1264.33 211.95 1273.59 209.592C1282.86 207.233 1297.76 203.988 1306.72 202.394C1315.67 200.788 1329.82 198.654 1338.16 197.655C1347.69 196.51 1366.23 195.634 1388.13 195.308C1407.28 195.028 1425.16 195.207 1432.83 196.611L1415.54 210.007C1406.02 217.384 1392.42 228.074 1385.32 233.768C1378.21 239.461 1368 248.59 1362.59 254.058C1357.19 259.516 1350.38 267.286 1347.44 271.329C1344.49 275.371 1340.48 281.682 1338.52 285.365C1336.55 289.048 1333.42 296.605 1331.57 302.163C1329.71 307.722 1327.65 316.559 1326.99 321.814C1326.34 327.058 1325.81 332.246 1325.81 333.324C1325.81 334.402 1326.31 335.289 1326.93 335.289C1327.55 335.289 1332.98 332.156 1339 328.327C1345.02 324.487 1357.03 317.749 1365.67 313.347C1374.32 308.946 1385.68 303.69 1390.94 301.658C1396.18 299.637 1405.28 296.493 1411.15 294.685C1417.01 292.866 1427.62 290.384 1434.73 289.16C1443.48 287.655 1452.9 286.937 1463.93 286.926C1472.87 286.903 1483.99 287.442 1488.63 288.105C1493.26 288.767 1501.34 290.317 1506.6 291.552C1511.84 292.776 1520.93 295.37 1526.81 297.301C1532.67 299.233 1542.78 303.062 1549.27 305.824C1555.74 308.586 1567.62 314.133 1575.65 318.153C1583.68 322.173 1606.3 334.245 1625.9 344.979C1645.51 355.703 1672.29 369.852 1685.42 376.409C1698.54 382.978 1717.87 392.018 1728.37 396.509C1738.87 401.001 1755.54 407.547 1765.42 411.073C1775.31 414.588 1790.34 419.562 1798.84 422.134C1807.34 424.705 1814.31 427.052 1814.33 427.367C1814.35 427.67 1812.94 428.568 1811.23 429.343C1809.51 430.118 1804.3 431.476 1799.67 432.352C1795.03 433.228 1783.17 434.463 1773.28 435.092C1763.4 435.732 1733.33 436.552 1706.47 436.934C1679.6 437.315 1651.94 438.102 1644.99 438.674C1638.04 439.247 1630.02 440.347 1627.16 441.122C1624.31 441.897 1621.78 442.908 1621.55 443.368C1621.32 443.828 1630.61 449.072 1642.19 455.012C1653.76 460.953 1672.34 470.89 1683.45 477.077C1694.57 483.276 1711.75 493.135 1721.63 499.008C1731.51 504.869 1749.7 516.334 1762.05 524.497C1774.41 532.65 1791.08 544.272 1799.11 550.324C1807.14 556.376 1818.24 565.158 1823.79 569.862C1829.33 574.556 1838.68 583 1844.57 588.637C1850.44 594.263 1859.04 603.269 1863.68 608.647C1868.3 614.026 1875.24 622.818 1879.08 628.175C1882.92 633.531 1888.57 642.458 1891.65 648.016C1894.73 653.575 1898.76 661.907 1900.6 666.544C1902.44 671.171 1905.27 679.514 1906.88 685.072C1908.49 690.63 1910.51 699.221 1911.38 704.161C1912.24 709.102 1913.48 718.703 1914.12 725.496C1914.76 732.29 1915.79 750.481 1916.43 765.921C1917.07 781.361 1918.36 800.304 1919.32 808.029C1920.27 815.744 1922.09 826.86 1923.35 832.733C1924.62 838.595 1927.65 849.464 1930.09 856.876C1932.53 864.287 1938.25 877.93 1942.81 887.194C1947.36 896.458 1955.62 910.853 1961.17 919.196C1966.71 927.528 1975.53 939.656 1980.75 946.146C1985.97 952.625 1996.89 965.134 2019.76 989.939L2010.5 992.802C2005.4 994.386 1994.91 997.002 1987.2 998.619C1974.98 1001.19 1970.4 1001.57 1951.82 1001.63C1935.55 1001.67 1928.22 1001.21 1920.95 999.697C1915.69 998.597 1907.36 996.396 1902.42 994.79C1897.48 993.184 1889.9 990.108 1885.57 987.952C1881.25 985.807 1874.93 982.214 1871.54 979.979C1868.14 977.733 1861.39 972.119 1856.51 967.481C1851.65 962.855 1845.52 956.028 1842.89 952.322C1840.26 948.616 1836.35 942.047 1834.19 937.724C1832.03 933.401 1828.99 925.822 1827.43 920.881C1825.87 915.94 1824.05 910.123 1823.39 907.967C1822.33 904.554 1822.23 905.149 1822.61 912.459C1822.86 917.085 1824.15 926.181 1825.49 932.671C1826.81 939.15 1830.56 952.547 1833.82 962.428C1837.08 972.31 1842.96 987.974 1846.89 997.238C1850.82 1006.5 1858.4 1022.92 1863.72 1033.73C1869.06 1044.53 1877.61 1061.21 1882.74 1070.79C1887.89 1080.35 1902.54 1106.89 1915.33 1129.74C1928.11 1152.59 1943.28 1179.88 1949.04 1190.38C1954.79 1200.88 1964.93 1220.32 1971.58 1233.61C1978.21 1246.88 1986.77 1265.07 1990.59 1274.03C1994.41 1282.98 1999.97 1297.64 2002.96 1306.6C2005.95 1315.55 2009.78 1329.45 2011.46 1337.48C2013.97 1349.42 2014.53 1355.03 2014.55 1368.36C2014.58 1381.8 2014.16 1386.15 2012.12 1393.34C2010.77 1398.12 2007.92 1405.46 2005.81 1409.62C2003.7 1413.79 1999.8 1419.76 1997.11 1422.88C1994.44 1426.02 1989.57 1430.81 1986.29 1433.55C1983.01 1436.29 1977.45 1440.18 1973.93 1442.18C1970.42 1444.17 1967.16 1445.81 1966.7 1445.82C1966.24 1445.82 1965.86 1442.8 1965.86 1439.1C1965.86 1435.22 1964.9 1429.62 1963.59 1425.9C1962.35 1422.36 1959.47 1416.66 1957.2 1413.27C1954.94 1409.87 1950.77 1404.87 1947.96 1402.16C1945.14 1399.44 1939.3 1394.71 1934.98 1391.67C1930.66 1388.61 1922.57 1383.82 1917.02 1381.02C1911.46 1378.22 1901.86 1373.96 1895.68 1371.56C1889.5 1369.16 1878.39 1365.45 1870.98 1363.3C1863.57 1361.16 1851.68 1358.17 1844.59 1356.67C1837.48 1355.16 1826.36 1353.13 1819.88 1352.14C1813.39 1351.16 1801.52 1349.91 1793.5 1349.35C1784.68 1348.74 1775.34 1348.75 1769.92 1349.38C1764.97 1349.95 1760.84 1350.54 1760.73 1350.68C1760.62 1350.83 1758.28 1356.76 1755.53 1363.86C1752.79 1370.96 1747.99 1384.6 1744.85 1394.18C1741.72 1403.75 1737.41 1418.66 1735.29 1427.31C1733.15 1435.95 1730.23 1449.6 1728.78 1457.63C1726.49 1470.35 1726.16 1475.76 1726.17 1499.74C1726.18 1523.77 1726.49 1528.66 1728.63 1538.48C1729.97 1544.65 1732.67 1554.25 1734.62 1559.81C1736.58 1565.37 1740.33 1574.21 1742.97 1579.46C1745.59 1584.71 1750.8 1593.55 1754.53 1599.11C1758.26 1604.67 1764.95 1613.51 1769.41 1618.76C1773.86 1624.01 1788.94 1640.21 1802.91 1654.75C1816.87 1669.29 1829.89 1683.19 1835.37 1690.07L1818.36 1690.92C1809 1691.39 1794.53 1692.54 1786.2 1693.47C1777.85 1694.4 1765.99 1695.94 1759.81 1696.91C1753.63 1697.86 1734.94 1701.1 1718.26 1704.13C1701.59 1707.13 1682.26 1710.38 1675.31 1711.35C1668.36 1712.3 1656.49 1713.07 1648.92 1713.06C1641.35 1713.05 1631.88 1712.34 1627.87 1711.49C1623.85 1710.64 1617.78 1708.71 1614.39 1707.18C1610.99 1705.66 1605.19 1702.12 1601.48 1699.29C1597.77 1696.47 1592.46 1691.22 1589.69 1687.64C1586.91 1684.05 1582.36 1676.56 1579.56 1671C1576.77 1665.43 1572.98 1655.95 1571.14 1649.93C1569.3 1643.92 1567.41 1639 1566.95 1638.99C1566.49 1638.97 1565.78 1640.87 1565.4 1643.19C1565.01 1645.5 1562.73 1654.35 1560.35 1662.84C1557.96 1671.33 1553.41 1685.23 1550.24 1693.72C1547.08 1702.21 1542.48 1713.7 1540.04 1719.26C1537.59 1724.82 1532.15 1736.18 1527.96 1744.53C1523.78 1752.86 1517.47 1764.74 1513.94 1770.92C1510.4 1777.09 1501.79 1790.73 1494.79 1801.23C1487.8 1811.73 1475.61 1828.41 1467.72 1838.29C1459.14 1849.01 1444.72 1864.9 1431.97 1877.68C1420.21 1889.47 1404.27 1904.15 1396.55 1910.3C1388.83 1916.44 1376.7 1925.3 1369.6 1929.97C1362.49 1934.66 1352.89 1940.56 1348.27 1943.1C1343.63 1945.65 1339.46 1947.74 1339 1947.75C1338.54 1947.76 1338.49 1940.07 1338.88 1930.65C1339.47 1916.69 1339.25 1911.76 1337.66 1903.98C1336.59 1898.72 1334.79 1892.66 1333.67 1890.5C1332.55 1888.34 1330.19 1885.2 1328.44 1883.52C1326.68 1881.85 1323.73 1880.16 1321.88 1879.78C1319.25 1879.24 1316.52 1880.14 1309.53 1883.83C1304.59 1886.43 1292.96 1893.11 1283.7 1898.68C1274.44 1904.24 1258.51 1914.39 1248.33 1921.25C1238.13 1928.1 1219.94 1941.1 1207.9 1950.14C1195.86 1959.18 1179.44 1972.04 1171.41 1978.72C1163.38 1985.4 1147.45 2000.25 1135.99 2011.71C1124.54 2023.17 1111.78 2037.1 1107.65 2042.66C1103.52 2048.22 1098.49 2055.68 1096.47 2059.25C1094.46 2062.81 1092.26 2066.61 1091.58 2067.68C1090.54 2069.34 1089.91 2068.76 1086.97 2063.43C1085.09 2060.03 1080.85 2053.64 1077.52 2049.2C1074.19 2044.78 1066.67 2035.73 1060.8 2029.08C1054.93 2022.43 1043.31 2010.67 1034.98 2002.93C1026.63 1995.2 1012.49 1982.78 1003.54 1975.34C994.576 1967.89 980.18 1956.46 971.534 1949.93C962.888 1943.39 948.863 1933.15 940.374 1927.19C931.884 1921.22 920.509 1913.47 915.108 1909.98C909.707 1906.48 899.466 1900.1 892.37 1895.8C885.262 1891.5 875.661 1885.99 871.035 1883.54C864.522 1880.09 861.849 1879.25 859.244 1879.78C857.391 1880.16 854.438 1881.85 852.686 1883.52C850.935 1885.2 848.577 1888.34 847.454 1890.5C846.331 1892.66 844.534 1898.72 843.467 1903.98C841.873 1911.76 841.648 1916.69 842.243 1930.65C842.636 1940.07 842.58 1947.76 842.12 1947.75C841.659 1947.74 837.482 1945.65 832.856 1943.1C828.218 1940.56 818.618 1934.66 811.521 1929.97C804.413 1925.3 792.286 1916.44 784.571 1910.3C776.846 1904.15 760.912 1889.47 749.155 1877.68C736.275 1864.78 722.071 1849.11 713.436 1838.29C705.542 1828.41 694.144 1812.99 688.103 1804.04C682.062 1795.08 673.752 1782.08 669.643 1775.13C665.533 1768.18 658.436 1755.04 653.855 1745.93C649.284 1736.82 643.535 1724.82 641.087 1719.26C638.639 1713.7 634.047 1702.21 630.88 1693.72C627.714 1685.23 623.166 1671.33 620.774 1662.84C618.393 1654.35 616.114 1645.5 615.721 1643.19C615.339 1640.87 614.632 1638.97 614.171 1638.99C613.711 1639 611.825 1643.92 609.983 1649.93C608.141 1655.95 604.357 1665.43 601.561 1671C598.765 1676.56 594.206 1684.05 591.433 1687.64C588.648 1691.22 583.348 1696.47 579.642 1699.29C575.937 1702.12 570.12 1705.66 566.729 1707.18C563.326 1708.71 557.263 1710.64 553.254 1711.49C549.234 1712.34 539.768 1713.05 532.2 1713.06C524.631 1713.07 512.762 1712.3 505.812 1711.35C498.861 1710.38 479.536 1707.13 462.861 1704.13C446.186 1701.1 427.489 1697.86 421.313 1696.91C415.137 1695.94 403.257 1694.4 394.925 1693.47C386.582 1692.54 372.119 1691.39 345.753 1690.07L349.291 1685.63C351.233 1683.19 364.001 1669.55 377.655 1655.31C391.321 1641.07 406.413 1624.88 411.174 1619.32C415.946 1613.77 422.897 1604.67 426.613 1599.11C430.33 1593.55 435.529 1584.71 438.157 1579.46C440.796 1574.21 444.546 1565.37 446.5 1559.81C448.454 1554.25 451.149 1544.65 452.496 1538.48C454.63 1528.66 454.944 1523.77 454.955 1499.74C454.967 1475.76 454.63 1470.35 452.339 1457.63C450.891 1449.6 447.971 1435.95 445.837 1427.31C443.715 1418.66 439.403 1403.75 436.27 1394.18C433.138 1384.6 428.332 1370.96 425.592 1363.86C422.841 1356.76 420.505 1350.83 420.393 1350.68C420.28 1350.54 416.148 1349.95 411.207 1349.38C405.784 1348.75 396.441 1348.74 387.626 1349.35C379.598 1349.91 367.717 1351.16 361.238 1352.14C354.748 1353.13 343.631 1355.16 336.534 1356.67C329.427 1358.17 317.557 1361.16 310.146 1363.3C302.735 1365.45 291.619 1369.16 285.443 1371.56C279.267 1373.96 269.666 1378.22 264.107 1381.02C258.549 1383.82 250.464 1388.61 246.141 1391.67C241.818 1394.71 235.979 1399.44 233.16 1402.16C230.353 1404.87 226.187 1409.87 223.919 1413.27C221.651 1416.66 218.776 1422.36 217.53 1425.9C216.227 1429.62 215.261 1435.22 215.261 1439.1C215.261 1442.8 214.88 1445.82 214.419 1445.81C213.959 1445.79 210.545 1444.05 206.84 1441.94C203.134 1439.83 197.576 1436.01 194.488 1433.44C191.4 1430.88 186.695 1426.17 184.022 1423C181.361 1419.81 177.442 1413.79 175.32 1409.62C173.198 1405.46 170.368 1398.12 169.009 1393.34C167.022 1386.3 166.55 1381.64 166.539 1368.92C166.516 1356.96 167.123 1350.11 169.088 1340.28C170.503 1333.18 173.422 1321.55 175.578 1314.46C177.734 1307.35 182.203 1294.72 185.493 1286.38C188.795 1278.04 195.33 1263.02 200.012 1252.98C204.695 1242.94 213.656 1225.01 219.921 1213.12C226.198 1201.22 237.394 1180.63 244.805 1167.36C252.216 1154.07 266.612 1128.3 276.807 1110.09C287.003 1091.86 302.511 1062.82 311.269 1045.52C320.028 1028.23 330.381 1006.5 334.289 997.238C338.185 987.974 344.047 972.31 347.303 962.428C350.56 952.547 354.31 939.15 355.635 932.671C356.971 926.181 358.263 917.085 358.51 912.459C358.891 905.149 358.79 904.554 357.735 907.967C357.072 910.123 355.253 915.94 353.692 920.881C352.132 925.822 349.089 933.401 346.933 937.724C344.777 942.047 340.858 948.616 338.23 952.322C335.603 956.028 329.471 962.855 324.609 967.481C319.736 972.119 312.976 977.733 309.585 979.979C306.183 982.214 299.872 985.807 295.549 987.952C291.226 990.108 283.646 993.184 278.705 994.79C273.764 996.396 265.421 998.597 260.177 999.697C252.901 1001.21 245.568 1001.67 229.298 1001.63C210.725 1001.57 206.143 1001.19 193.926 998.619C186.201 997.002 175.724 994.386 161.362 989.939L176.117 973.938C184.236 965.134 195.15 952.625 200.372 946.146C205.593 939.656 214.408 927.528 219.955 919.196C225.502 910.853 233.767 896.458 238.315 887.194C242.873 877.93 248.589 864.287 251.037 856.876C253.474 849.464 256.505 838.595 257.774 832.733C259.032 826.86 260.851 815.744 261.806 808.029C262.76 800.304 264.051 781.361 264.691 765.921C265.331 750.481 266.365 732.29 267.005 725.496C267.645 718.703 268.88 709.102 269.744 704.161C270.609 699.221 272.63 690.63 274.247 685.072C275.853 679.514 278.683 671.171 280.524 666.544C282.366 661.907 286.397 653.575 289.474 648.016C292.551 642.458 298.199 633.531 302.039 628.175C305.879 622.818 312.808 614.026 317.445 608.647C322.072 603.269 330.684 594.263 336.557 588.637C342.441 583 351.795 574.556 357.331 569.862C362.878 565.158 373.983 556.376 382.012 550.324C390.041 544.272 406.716 532.65 419.068 524.497C431.419 516.334 449.857 504.712 460.053 498.659C470.238 492.596 487.677 482.602 498.793 476.437C509.91 470.273 528.225 460.503 539.499 454.72C550.772 448.937 559.801 443.828 559.576 443.368C559.34 442.908 556.814 441.897 553.961 441.122C551.098 440.347 543.081 439.247 536.13 438.674C529.179 438.102 501.511 437.315 474.651 436.934C447.78 436.552 417.72 435.732 407.839 435.092C397.957 434.463 386.077 433.228 381.45 432.352C376.813 431.476 371.614 430.118 369.896 429.343C368.178 428.568 366.774 427.67 366.797 427.367C366.808 427.052 373.781 424.705 382.281 422.134C390.782 419.562 405.817 414.588 415.699 411.073C425.58 407.547 442.255 401.001 452.755 396.509C463.254 392.018 482.579 382.978 495.705 376.409C508.832 369.852 535.613 355.703 555.219 344.979C574.825 334.245 597.44 322.173 605.469 318.153C613.498 314.133 625.367 308.586 631.857 305.824C638.336 303.062 648.442 299.233 654.315 297.301C660.177 295.37 669.272 292.776 674.527 291.552C679.771 290.317 687.856 288.767 692.494 288.105C697.12 287.442 708.237 286.903 717.197 286.926C728.224 286.937 737.645 287.655 746.393 289.16C753.489 290.384 764.101 292.866 769.974 294.685C775.835 296.493 784.931 299.637 790.186 301.658C795.43 303.69 806.805 308.946 815.451 313.347C824.097 317.749 836.101 324.487 842.12 328.327C848.139 332.156 853.573 335.289 854.191 335.289C854.809 335.289 855.314 334.402 855.314 333.324C855.314 332.246 854.786 327.058 854.135 321.814C853.472 316.559 851.417 307.722 849.553 302.163C847.701 296.605 844.568 289.048 842.603 285.365C840.638 281.682 836.629 275.371 833.687 271.329C830.745 267.286 823.929 259.516 818.528 254.058C813.127 248.59 802.897 239.461 795.8 233.768C788.692 228.074 775.094 217.384 748.257 196.611L752.097 195.847C754.208 195.432 772.107 195.252 791.87 195.454ZM945.505 689.564C945.146 694.078 945.404 699.209 946.134 701.635C947.268 705.43 947.201 705.789 945.427 705.329C944.349 705.037 940.171 704.285 936.163 703.645C932.143 703.005 918.758 701.882 906.406 701.152C889.226 700.141 878.67 700.141 861.49 701.152C849.138 701.871 834.226 703.207 828.364 704.105C822.492 705.015 814.912 706.587 811.521 707.597C806.962 708.956 804.02 710.82 800.314 714.66L795.284 719.882C814.396 720.848 820.953 721.656 822.188 722.319C823.424 722.981 825.86 725.227 827.59 727.315L830.756 731.111C812.801 740.442 802.538 746.607 796.362 750.829L785.133 758.498C779.035 754.894 769.94 749.897 760.99 745.08C752.03 740.251 737.634 733.177 728.988 729.348C720.341 725.519 707.709 720.41 700.915 717.995C694.122 715.581 684.521 711.864 679.58 709.753C674.639 707.631 665.039 704.644 658.245 703.106C651.452 701.567 639.066 699.715 630.734 698.996C621.672 698.199 607.894 697.952 596.486 698.356C585.987 698.738 569.435 700.063 559.711 701.32C549.986 702.578 535.838 704.914 528.27 706.519C520.701 708.125 510.213 710.966 504.969 712.819C499.714 714.672 494.032 717.018 492.314 718.029C490.608 719.051 487.452 722.027 485.296 724.654L481.388 729.427C505.643 728.966 507.148 729.179 512.83 731.919C517.198 734.03 519.736 736.153 521.498 739.185C522.868 741.531 524.003 744.855 524.025 746.551C524.047 749.178 523.598 749.639 520.971 749.661C519.275 749.672 514.851 750.481 511.145 751.458C507.44 752.435 501.118 754.883 497.109 756.904C493.089 758.914 486.655 763.158 482.792 766.325C478.929 769.503 473.225 775.757 470.103 780.238C466.982 784.718 462.872 791.658 460.985 795.678C459.088 799.686 456.325 807.771 454.832 813.644C452.732 821.92 452.193 826.636 452.44 834.653L452.755 844.995C461.457 839.549 466.892 836.798 470.44 835.35C473.989 833.912 479.547 832.666 482.792 832.576C486.037 832.486 489.574 832.868 490.664 833.418C491.742 833.968 494.279 838.202 496.289 842.839C498.299 847.466 502.286 854.54 505.138 858.56C508.001 862.569 512.796 868.397 515.794 871.496C518.792 874.606 524.53 879.873 528.55 883.208C532.559 886.543 540.139 892.101 545.394 895.571C550.638 899.029 561.507 905.216 569.536 909.315C577.565 913.402 589.692 919.028 596.486 921.79C603.279 924.564 615.148 928.887 622.874 931.402C630.588 933.929 641.705 937.253 647.578 938.813C653.439 940.374 658.627 941.654 659.087 941.654C659.548 941.654 666.285 933.951 674.056 924.53C681.837 915.109 694.403 899.321 701.982 889.44C712.335 875.965 718.477 869.16 726.596 862.209L737.41 852.945C643.423 819 615.755 809.13 615.294 809.107C614.834 809.085 619.629 814.385 625.962 820.898C632.295 827.411 640.38 836.652 643.939 841.436C647.499 846.219 652.271 853.17 654.528 856.876C656.785 860.581 660.154 867.397 661.996 872.035C663.848 876.661 665.668 882.725 666.049 885.51L666.734 890.563C655.371 899.703 651.564 902.353 650.946 902.353C650.329 902.353 643.636 899.254 636.068 895.47C628.5 891.685 615.99 884.802 608.276 880.164C600.551 875.538 588.929 867.902 582.449 863.198C575.959 858.493 566.931 851.104 562.372 846.781C557.813 842.446 552.232 836.124 549.975 832.733C547.718 829.331 545.259 825.165 544.507 823.469C543.754 821.774 543.159 818.237 543.159 815.609C543.17 812.981 544.271 808.557 545.607 805.784C546.943 802.999 552.12 796.654 557.106 791.658C562.394 786.369 571.535 779.036 579.081 774.039C586.177 769.346 599.068 761.8 607.715 757.286L623.435 749.077C648.903 749.089 656.808 749.74 663.298 751.121C668.542 752.233 677.896 754.613 684.072 756.399C690.248 758.184 700.859 761.732 707.653 764.281C714.446 766.83 727.831 772.422 737.41 776.701C746.977 780.979 762.641 788.727 772.219 793.903C781.786 799.08 790.152 803.493 790.803 803.706C791.455 803.92 795.239 800.326 799.225 795.722C803.211 791.107 810.51 784.134 815.451 780.215C820.392 776.296 828.724 770.491 833.979 767.313C839.223 764.135 848.577 759.172 854.753 756.286C860.928 753.389 871.54 749.212 878.333 746.989C885.127 744.754 894.975 741.958 900.23 740.745C905.474 739.544 915.58 737.792 922.688 736.86C929.785 735.917 941.407 734.816 948.515 734.423C955.611 734.03 969.255 734.266 978.833 734.951C988.4 735.647 1004.06 737.5 1013.64 739.083C1023.21 740.655 1039.64 744.148 1050.14 746.831C1060.64 749.515 1076.55 754.231 1085.51 757.297L1101.79 762.878C1118.32 756.859 1130.95 752.861 1140.53 750.11C1150.1 747.359 1165.26 743.631 1174.22 741.823C1183.17 740.015 1197.07 737.669 1205.1 736.613C1214.91 735.311 1227.43 734.682 1243.28 734.682C1256.24 734.682 1271.15 735.288 1276.4 736.018C1281.65 736.759 1291.25 738.41 1297.74 739.679C1304.22 740.959 1316.34 744.249 1324.69 746.989C1333.02 749.729 1345.4 754.681 1352.2 757.993C1358.99 761.306 1368.33 766.505 1372.97 769.548C1377.6 772.591 1385.18 778.127 1389.81 781.855C1394.44 785.583 1401.14 792.241 1404.69 796.643L1411.15 804.661C1425.51 796.744 1436.63 790.939 1445.12 786.638C1453.61 782.349 1467.75 775.757 1476.56 771.984C1485.36 768.223 1499.88 762.698 1508.84 759.722C1517.79 756.747 1530.42 753.142 1536.91 751.705C1546 749.706 1552.19 749.1 1563.86 749.089L1579.02 749.077C1594.69 756.601 1605.04 762.226 1612.15 766.437C1619.24 770.637 1629.61 777.588 1635.17 781.877C1640.73 786.167 1647.5 792.163 1650.2 795.206C1652.91 798.238 1656.4 803.504 1657.94 806.907C1660.15 811.769 1660.6 814.104 1660.03 817.855C1659.64 820.482 1658.37 824.525 1657.21 826.838C1656.05 829.151 1652.62 834.081 1649.57 837.786C1646.53 841.492 1639.77 848.106 1634.55 852.496C1629.33 856.876 1621.02 863.265 1616.08 866.678C1611.14 870.103 1602.29 875.819 1596.43 879.378C1590.55 882.938 1578.18 889.777 1568.92 894.583L1552.07 903.307C1538.15 891.775 1534.01 888.407 1533.88 888.373C1533.76 888.339 1534.39 884.78 1535.29 880.456C1536.17 876.133 1538.83 868.554 1541.19 863.613C1543.55 858.672 1547.68 851.34 1550.37 847.331C1553.05 843.311 1557.29 837.506 1559.8 834.418C1562.29 831.33 1569.41 823.615 1575.61 817.271C1581.81 810.927 1586.62 805.739 1586.32 805.739C1586.01 805.739 1558.47 815.643 1525.12 827.748C1491.77 839.864 1464.36 849.981 1464.21 850.239C1464.05 850.486 1468.64 854.619 1474.41 859.402C1481.72 865.466 1487.73 871.844 1494.25 880.456C1499.4 887.25 1508.67 899.119 1514.86 906.845C1521.06 914.559 1529.91 925.429 1534.53 930.987C1539.17 936.545 1543.12 941.34 1543.34 941.654C1543.55 941.958 1548.12 941.014 1553.51 939.532C1558.9 938.061 1570.12 934.67 1578.46 932.009C1586.79 929.336 1599.68 924.676 1607.09 921.633C1614.51 918.59 1625.36 913.706 1631.24 910.763C1637.1 907.821 1645.69 903.117 1650.33 900.321C1654.95 897.525 1662.53 892.449 1667.17 889.058C1671.8 885.667 1679.31 879.311 1683.86 874.932C1688.4 870.564 1694.3 863.95 1696.95 860.244C1699.61 856.539 1703.61 849.711 1705.82 845.085C1708.04 840.448 1709.85 836.035 1709.85 835.26C1709.84 834.485 1711.98 833.418 1714.61 832.879C1717.24 832.34 1721.65 832.295 1724.44 832.778C1727.21 833.261 1732.26 834.934 1735.67 836.484C1739.06 838.033 1743.99 840.594 1746.62 842.188L1751.39 845.085C1751.42 827.209 1750.62 821.179 1748.56 813.083C1746.99 806.907 1743.65 797.811 1741.14 792.87C1738.63 787.93 1734.43 781.102 1731.8 777.711C1729.19 774.309 1724.56 769.391 1721.53 766.763C1718.5 764.135 1712.23 760.003 1707.59 757.578C1702.96 755.163 1695.88 752.412 1691.87 751.469C1687.85 750.526 1682.68 749.47 1680.36 749.133C1676.78 748.606 1676.15 748.089 1676.15 745.709C1676.15 744.159 1676.91 741.385 1677.84 739.533C1678.76 737.68 1680.91 735.221 1682.61 734.075C1684.31 732.93 1687.72 731.313 1690.19 730.493C1692.96 729.573 1699.07 729.09 1706.19 729.213C1712.52 729.337 1717.72 729.045 1717.75 728.584C1717.77 728.124 1715.24 725.339 1712.13 722.408C1709.02 719.478 1704.07 716.019 1701.14 714.728C1698.21 713.436 1690.25 710.921 1683.45 709.136C1676.66 707.339 1663.02 704.61 1653.13 703.05C1643.25 701.489 1625.31 699.614 1613.27 698.872C1596.24 697.839 1587.25 697.839 1572.85 698.895C1562.65 699.636 1549.77 701.219 1544.21 702.421C1538.65 703.611 1531.32 705.554 1527.93 706.744C1524.53 707.923 1518.72 710.45 1515.02 712.358C1511.31 714.279 1504.48 717.198 1499.86 718.849C1495.22 720.5 1485.11 724.598 1477.4 727.956C1469.67 731.313 1455.78 737.994 1446.52 742.811C1437.26 747.629 1427.03 753.153 1423.78 755.096L1417.89 758.622C1411.36 753.625 1405.93 749.897 1401.6 747.112C1397.28 744.327 1389.07 739.712 1383.36 736.86C1377.64 734.008 1372.97 731.291 1372.96 730.83C1372.96 730.37 1373.85 728.753 1374.92 727.248C1376.01 725.732 1378.92 723.599 1381.39 722.498C1384.64 721.05 1388.77 720.488 1396.27 720.466C1401.99 720.455 1406.67 720.062 1406.68 719.601C1406.68 719.141 1404.79 716.884 1402.47 714.604C1400.13 712.314 1396.46 709.708 1394.31 708.799C1392.14 707.901 1386.07 706.362 1380.83 705.396C1375.58 704.431 1365.47 703.095 1358.37 702.421C1351.26 701.758 1332.57 701.23 1316.83 701.253C1297.72 701.264 1283.33 701.871 1273.59 703.061C1265.57 704.038 1258.61 705.071 1258.15 705.34C1257.69 705.621 1257.63 701.421 1258.01 696.02C1258.56 688.205 1258.28 684.735 1256.6 679.031C1255.45 675.089 1254.12 671.676 1253.66 671.451C1253.2 671.227 1250.17 673.001 1246.92 675.404C1243.68 677.807 1238.24 681.31 1234.85 683.197C1231.45 685.083 1224.64 688.182 1219.69 690.08C1214.75 691.978 1200.1 696.582 1187.13 700.299C1174.16 704.027 1158.5 709.102 1152.32 711.595C1146.14 714.076 1137.08 718.467 1132.19 721.364C1127.29 724.25 1118.58 731.044 1112.82 736.445L1102.35 746.27C1094.09 737.32 1087.64 731.706 1082.7 728C1077.76 724.306 1069.42 719.13 1064.17 716.513C1058.92 713.886 1051.09 710.472 1046.77 708.922C1042.45 707.362 1029.31 703.454 1017.57 700.231C1005.84 697.008 992.701 693.101 988.378 691.551C984.054 689.99 976.98 686.958 972.657 684.802C968.334 682.647 961.641 678.66 957.779 675.954C953.916 673.248 950.547 671.036 950.289 671.036C950.019 671.036 948.975 673.439 947.964 676.37C946.954 679.3 945.842 685.24 945.505 689.564ZM760.552 872.944C757.532 874.606 752.569 878.738 749.526 882.141C746.258 885.779 743.058 890.854 741.721 894.493C739.959 899.321 739.543 902.757 739.835 910.247C740.149 918.242 740.801 921.016 743.765 927.091C746.235 932.144 749.649 936.557 754.994 941.587C760.384 946.663 765.359 950.054 771.658 952.951C776.599 955.219 783.92 957.88 787.94 958.857C791.949 959.845 798.147 961.047 801.707 961.541C806.322 962.17 808.175 962.911 808.163 964.112C808.163 965.033 809.59 968.829 811.33 972.534C813.082 976.24 817.506 982.494 821.155 986.447C824.816 990.388 831.07 995.947 835.068 998.799C839.066 1001.64 843.613 1004.68 845.174 1005.55C846.735 1006.41 853.573 1009.99 860.367 1013.51C870.787 1018.91 874.471 1020.2 883.948 1021.78C890.124 1022.82 897.58 1024.15 900.511 1024.76C903.441 1025.38 912.29 1025.87 920.161 1025.86C928.033 1025.86 937.757 1025.32 941.777 1024.67C945.786 1024.02 952.231 1022.24 956.094 1020.75C961.821 1018.52 963.573 1018.25 965.639 1019.29C967.031 1020 972.96 1025.22 978.833 1030.88C984.694 1036.55 992.274 1043.34 995.676 1045.99C999.775 1049.18 1001.96 1050.28 1002.18 1049.28C1002.36 1048.45 1000.93 1043.22 999 1037.66C997.069 1032.1 993.723 1024.27 991.555 1020.26C989.388 1016.24 984.75 1009.21 981.258 1004.64C977.766 1000.06 970.86 992.555 965.919 987.963C960.979 983.359 951.378 975.903 944.584 971.366C937.791 966.841 924.9 959.598 915.951 955.286C906.99 950.963 894.862 945.663 889.001 943.507C883.128 941.34 871.506 937.522 863.174 935.018C854.831 932.514 842.198 929.157 835.102 927.551C827.994 925.956 813.598 923.172 803.099 921.375C792.555 919.567 782.752 917.276 781.203 916.266C779.653 915.255 777.52 913.346 776.453 912.032C775.386 910.73 774.488 908.641 774.465 907.406C774.432 906.171 775.554 904.049 776.958 902.701C778.373 901.342 781.539 899.377 784.01 898.322C787.008 897.053 791.668 896.402 798.046 896.368C803.369 896.345 811.566 897.21 816.574 898.344C821.515 899.456 829.723 901.825 834.821 903.611C839.919 905.385 844.467 906.586 844.927 906.283C845.388 905.969 843.917 902.05 841.648 897.581C839.268 892.853 835.023 886.924 831.542 883.455C827.983 879.884 822.368 875.898 817.697 873.607C813.374 871.496 806.299 869.014 801.976 868.105C797.653 867.206 790.579 866.488 786.256 866.51C781.932 866.544 775.611 867.319 772.219 868.239C768.817 869.16 763.573 871.282 760.552 872.944ZM1341.53 875.426C1336.89 877.863 1329.82 882.579 1325.81 885.914C1321.79 889.26 1317.38 893.561 1315.98 895.492C1313.5 898.928 1313.49 899.063 1315.42 903.543C1316.84 906.822 1317.86 907.889 1319.07 907.361C1319.99 906.946 1324.03 905.362 1328.05 903.835C1332.06 902.297 1339.64 900.006 1344.9 898.737C1350.69 897.334 1358.42 896.39 1364.55 896.357C1373.09 896.301 1375.52 896.716 1380.27 899.04C1383.35 900.556 1386.64 903.161 1387.57 904.823C1389.12 907.619 1389.07 908.102 1386.91 910.999C1385.61 912.729 1383.09 915.176 1381.29 916.445C1379.31 917.827 1375.13 919.073 1370.72 919.578C1366.7 920.039 1353.57 922.397 1341.53 924.822C1329.48 927.248 1312.81 931.234 1304.47 933.671C1296.13 936.119 1283.76 940.105 1276.96 942.53C1270.17 944.967 1259.3 949.391 1252.82 952.378C1246.33 955.354 1237.49 959.789 1233.17 962.237C1228.85 964.674 1220.78 969.761 1215.26 973.534C1209.73 977.307 1200.95 984.437 1195.75 989.378C1190.57 994.318 1183.9 1001.64 1180.94 1005.66C1177.99 1009.67 1173.77 1016.24 1171.57 1020.26C1169.36 1024.27 1166.02 1032.1 1164.13 1037.66C1162.26 1043.22 1160.72 1048.4 1160.73 1049.17C1160.74 1049.98 1162.98 1049.03 1165.99 1046.93C1168.87 1044.92 1177.33 1037.53 1184.8 1030.51C1195.29 1020.62 1198.86 1017.88 1200.61 1018.37C1201.84 1018.73 1206.64 1020.44 1211.27 1022.17C1219.56 1025.27 1220.05 1025.31 1242.71 1025.14C1261.51 1025.01 1267.8 1024.54 1276.96 1022.58C1283.14 1021.27 1293.24 1018.02 1299.42 1015.36C1305.6 1012.71 1315.44 1007.33 1321.32 1003.4C1327.18 999.473 1334.71 993.701 1338.05 990.568C1341.39 987.446 1345.95 982.101 1348.19 978.71C1350.42 975.308 1352.89 970.255 1353.68 967.481L1355.1 962.428C1369.39 960.092 1377.32 958.206 1381.95 956.735C1386.58 955.264 1393.6 952.154 1397.53 949.829C1401.46 947.494 1407.49 942.553 1410.91 938.847C1414.35 935.142 1418.46 929.325 1420.04 925.934C1422.56 920.578 1422.94 918.264 1422.93 908.529C1422.92 898.816 1422.54 896.548 1420.12 891.73C1418.58 888.676 1415.25 883.87 1412.71 881.063C1410.17 878.256 1405.62 874.606 1402.6 872.944C1399.58 871.282 1394.08 869.138 1390.38 868.172C1386.67 867.195 1379.84 866.443 1375.22 866.476C1370.58 866.51 1363 867.554 1358.37 868.778C1353.74 870.013 1346.16 873 1341.53 875.426ZM664.983 1001.24C659.424 1003.19 651.339 1006.58 647.016 1008.76C642.693 1010.93 635.619 1015.02 631.296 1017.85C626.972 1020.68 619.37 1027.06 614.407 1032.01C607.445 1038.96 604.189 1043.34 600.18 1051.14C597.317 1056.7 593.701 1065.03 592.151 1069.66C590.59 1074.29 588.322 1082.38 587.109 1087.63C585.897 1092.88 583.718 1101.22 582.292 1106.16C580.046 1113.87 579.687 1117.6 579.71 1132.55C579.743 1147.47 580.271 1152.67 583.415 1169.04C585.515 1179.94 587.357 1193.67 587.705 1201.04C588.143 1210.16 587.806 1216.92 586.57 1224.06C585.616 1229.62 585.077 1234.42 585.391 1234.73C585.706 1235.03 589.468 1234.66 593.746 1233.89C598.035 1233.11 603.683 1231.5 606.311 1230.27C608.939 1229.06 613.105 1226.32 615.575 1224.18L620.067 1220.28C633.182 1233.65 647.083 1247.39 659.424 1259.43C671.989 1271.7 684.577 1282.95 688.024 1285C693.403 1288.21 695.02 1288.64 700.859 1288.37L707.54 1288.07C699.354 1278.93 695.975 1274.26 694.739 1271.79C693.504 1269.32 692.494 1266.67 692.505 1265.89C692.505 1264.85 696.165 1264.47 706.822 1264.41C719.881 1264.33 722.06 1264.01 731.795 1260.69C737.657 1258.69 745.741 1255.27 749.761 1253.08C753.77 1250.88 759.081 1247.64 761.552 1245.87C764.022 1244.11 766.291 1242.85 766.605 1243.06C766.908 1243.29 767.571 1246.94 768.076 1251.17C768.57 1255.4 770.221 1265.69 771.748 1274.03C773.264 1282.36 776.475 1297.28 778.878 1307.16C781.292 1317.04 785.38 1331.69 787.974 1339.72C790.579 1347.75 794.711 1359.37 797.159 1365.55C799.607 1371.72 804.638 1382.84 808.354 1390.25C812.06 1397.66 818.247 1408.52 822.099 1414.39C825.95 1420.26 832.216 1428.98 836.034 1433.77C839.84 1438.55 843.086 1442.47 843.243 1442.47C843.4 1442.47 843.568 1431.23 843.625 1417.48C843.692 1400.39 844.332 1388.24 845.646 1379.02C846.701 1371.61 848.846 1359.73 850.429 1352.64C852.001 1345.53 855.033 1333.91 857.156 1326.81C859.278 1319.7 864.78 1303.03 869.384 1289.75C873.988 1276.47 879.074 1260.56 880.691 1254.38C882.589 1247.17 883.69 1239.84 883.791 1233.89C883.88 1228.79 884.195 1224.61 884.509 1224.6C884.812 1224.6 887.844 1225.53 891.247 1226.69C894.638 1227.86 900.702 1230.44 904.721 1232.46C908.73 1234.47 920.105 1240.95 929.987 1246.87C939.868 1252.79 951.996 1259.52 956.936 1261.85C961.877 1264.17 969.962 1267.12 974.903 1268.38C979.843 1269.65 987.67 1270.99 992.308 1271.36C996.99 1271.74 1004.72 1271.45 1009.71 1270.71C1014.65 1269.97 1023.12 1267.89 1028.52 1266.08C1033.92 1264.27 1042.51 1260.71 1047.61 1258.17C1052.71 1255.62 1060.66 1251 1065.3 1247.9C1069.92 1244.8 1076.75 1239.94 1080.46 1237.1C1084.16 1234.27 1088.96 1230.35 1091.12 1228.4L1095.05 1224.85C1109.84 1236.94 1118.69 1243.48 1124.25 1247.18C1129.81 1250.89 1138.9 1256.13 1144.46 1258.83C1150.02 1261.53 1157.72 1264.8 1161.58 1266.08C1165.45 1267.36 1173.27 1269.23 1178.99 1270.23C1186.4 1271.51 1192.1 1271.8 1198.92 1271.25C1204.16 1270.82 1212.51 1269.28 1217.45 1267.83C1222.39 1266.39 1229.21 1263.97 1232.61 1262.47C1236 1260.95 1247.88 1254.33 1259 1247.72C1270.11 1241.12 1282.75 1234.03 1287.07 1231.97C1291.39 1229.9 1296.06 1227.92 1297.46 1227.54C1299.81 1226.92 1299.98 1227.22 1299.97 1232.2C1299.96 1235.14 1300.72 1241.58 1301.66 1246.52C1302.59 1251.46 1305.07 1260.8 1307.17 1267.3C1309.27 1273.77 1314.34 1288.93 1318.45 1300.98C1322.56 1313.02 1327.4 1328.18 1329.21 1334.67C1331.01 1341.15 1333.52 1351.51 1334.79 1357.69C1336.06 1363.86 1337.87 1375.24 1338.82 1382.95C1339.95 1392.13 1340.46 1404.58 1340.31 1418.89C1340.18 1430.92 1340.4 1440.91 1340.8 1441.06C1341.2 1441.22 1344.38 1437.93 1347.86 1433.77C1351.34 1429.6 1356.58 1422.65 1359.48 1418.33C1362.4 1414 1367.34 1405.92 1370.48 1400.36C1373.61 1394.8 1379.03 1383.68 1382.54 1375.65C1386.04 1367.63 1391.43 1353.48 1394.52 1344.21C1397.61 1334.95 1402.36 1318.27 1405.06 1307.16C1407.78 1296.04 1411.52 1277.97 1413.38 1267.01C1415.24 1256.05 1416.77 1245.69 1416.79 1243.99C1416.79 1242.3 1417.17 1240.23 1417.63 1239.41C1418.23 1238.31 1420.48 1239.45 1426.31 1243.82C1430.63 1247.05 1439.22 1252.11 1445.4 1255.06C1451.57 1257.99 1459.66 1261.22 1463.36 1262.22C1467.07 1263.23 1475.66 1264.33 1482.45 1264.67C1492.05 1265.15 1495.12 1265.7 1496.23 1267.14C1497.01 1268.15 1497.65 1271.25 1497.65 1274.03C1497.65 1277.72 1496.73 1280.52 1494.25 1284.42C1492.4 1287.35 1489.1 1291.77 1486.94 1294.24C1483.51 1298.16 1483.26 1298.83 1484.98 1299.47C1486.06 1299.87 1488.97 1299.97 1491.44 1299.69C1493.91 1299.41 1498.45 1297.6 1501.54 1295.68C1504.63 1293.75 1511.45 1288.35 1516.7 1283.69C1521.95 1279.02 1531.47 1269.51 1537.86 1262.55C1544.25 1255.58 1553.6 1244.97 1558.63 1238.96L1567.79 1228.04C1579.55 1239.25 1582.07 1240.73 1588.29 1242.5C1592.45 1243.69 1598.01 1244.96 1600.64 1245.31C1603.27 1245.67 1605.4 1245.84 1605.39 1245.68C1605.38 1245.52 1604.64 1241.36 1603.75 1236.42C1602.85 1231.47 1602.11 1222.88 1602.1 1217.33C1602.09 1211.77 1602.79 1202.67 1603.66 1197.11C1604.52 1191.56 1606.53 1179.55 1608.13 1170.45C1609.88 1160.45 1611.03 1149.65 1611.03 1143.21C1611.03 1137.21 1610.05 1127.52 1608.8 1121.04C1607.58 1114.7 1605.77 1103.71 1604.78 1096.61C1603.79 1089.51 1601.45 1078.9 1599.57 1073.03C1597.7 1067.16 1593.87 1057.82 1591.07 1052.26C1588.05 1046.26 1583.65 1039.71 1580.26 1036.14C1577.1 1032.83 1569.98 1027.08 1564.42 1023.38C1558.87 1019.67 1549.77 1014.47 1544.21 1011.84C1538.65 1009.2 1527.78 1004.68 1520.07 1001.8C1512.34 998.911 1505.53 996.744 1504.91 996.98C1504.29 997.204 1509.35 1000.27 1516.14 1003.78C1522.93 1007.3 1532.03 1012.86 1536.35 1016.14C1540.68 1019.42 1548.91 1027.37 1554.64 1033.81C1562.35 1042.46 1566.39 1048.17 1570.08 1055.63C1572.84 1061.19 1576.44 1070.28 1578.1 1075.84C1580.91 1085.24 1581.13 1087.45 1581.18 1107.28C1581.22 1126.09 1580.91 1129.87 1578.56 1139.28C1577.1 1145.15 1574.71 1153.11 1573.25 1156.97C1571.79 1160.83 1568.38 1168.41 1565.65 1173.81C1562.93 1179.21 1558.02 1187.42 1554.75 1192.06C1551.47 1196.69 1545.74 1203.53 1542.01 1207.25C1538.28 1210.98 1531.94 1216.27 1527.93 1219C1523.91 1221.73 1517.34 1225.34 1513.33 1227.05C1509.31 1228.75 1502.37 1230.67 1497.89 1231.31C1492.37 1232.1 1487.41 1232.13 1482.45 1231.36C1478.43 1230.74 1472.5 1229.25 1469.26 1228.04C1466.01 1226.83 1460.07 1223.74 1456.06 1221.17C1452.04 1218.6 1444.6 1212.26 1439.5 1207.09L1430.24 1197.68C1407.17 1189.76 1394.92 1185.99 1388.13 1184.18C1381.34 1182.37 1370.97 1180.16 1365.11 1179.26C1359.24 1178.36 1349.89 1177.29 1344.34 1176.9C1338.78 1176.5 1328.67 1176.76 1321.88 1177.46C1315.08 1178.17 1304.98 1179.94 1299.42 1181.39C1293.86 1182.84 1284.77 1186 1279.21 1188.41C1273.65 1190.83 1265.57 1194.95 1261.24 1197.59C1256.92 1200.21 1246.31 1207.33 1237.66 1213.41C1229.01 1219.47 1218.91 1226.25 1215.2 1228.48C1211.5 1230.7 1205.18 1233.64 1201.17 1235.01C1195.41 1236.99 1191.39 1237.49 1182.08 1237.47C1173.69 1237.44 1167.38 1236.7 1160.18 1234.9C1154.62 1233.51 1145.02 1230.44 1138.85 1228.08C1132.67 1225.74 1121.68 1221.09 1114.41 1217.76L1101.21 1211.71C1101.22 1200.83 1102.25 1190.48 1103.5 1181.67C1104.73 1172.87 1106.47 1162.64 1107.36 1158.94C1108.26 1155.13 1109.84 1151.59 1110.99 1150.81C1112.11 1150.04 1116.56 1148.84 1120.88 1148.14C1126.64 1147.2 1130.99 1147.19 1137.16 1148.09C1141.79 1148.76 1148.23 1150.59 1151.48 1152.16C1154.72 1153.73 1158.26 1156.38 1159.34 1158.05C1160.42 1159.71 1161.28 1162.88 1161.25 1165.07C1161.21 1167.26 1160.34 1170.8 1159.31 1172.97C1158.27 1175.13 1154.51 1180.41 1150.94 1184.69L1144.46 1192.49C1155.77 1191.12 1165.37 1188.69 1173.09 1186.22C1180.81 1183.75 1192.94 1179.45 1200.04 1176.67C1207.14 1173.87 1219.27 1168.47 1226.99 1164.65C1234.71 1160.83 1244.31 1155.48 1248.33 1152.74C1252.34 1150 1257.56 1145.72 1259.92 1143.24C1262.27 1140.76 1264.59 1137.21 1265.06 1135.35C1265.54 1133.5 1265.5 1130.47 1264.97 1128.62C1264.44 1126.76 1262.38 1123.6 1260.38 1121.57C1258.38 1119.54 1253.46 1116.16 1249.45 1114.04C1245.43 1111.93 1238.11 1109.11 1233.17 1107.78C1226.54 1106 1219.6 1105.22 1206.78 1104.79C1194.78 1104.4 1184.67 1104.77 1174.22 1105.98C1165.87 1106.95 1151.22 1109.27 1141.65 1111.16C1132.07 1113.03 1117.68 1116.31 1109.65 1118.43L1095.05 1122.28C1075.91 1118.16 1064.53 1116.16 1057.44 1115.18C1050.33 1114.2 1036.94 1112.89 1027.68 1112.26C1016.29 1111.49 1006.11 1111.5 996.238 1112.28C988.209 1112.91 976.587 1114.69 970.411 1116.24C964.235 1117.78 955.387 1120.94 950.76 1123.24C946.123 1125.54 940.463 1129.2 938.161 1131.39C934.568 1134.8 933.984 1136.05 933.962 1140.41C933.951 1145.07 934.4 1145.89 939.924 1151.08C943.214 1154.16 950.412 1159.04 955.914 1161.91C961.417 1164.79 971.725 1169.41 978.833 1172.2C985.93 1174.98 998.315 1179.28 1006.34 1181.75C1014.37 1184.21 1024.86 1187.04 1029.64 1188.02C1034.43 1189.01 1039.74 1189.84 1041.43 1189.87C1044.31 1189.92 1044.41 1189.77 1042.84 1187.77C1041.91 1186.59 1038.77 1182.65 1035.86 1179.02C1032.95 1175.39 1029.97 1170.39 1029.25 1167.92C1028.18 1164.31 1028.24 1162.66 1029.49 1159.58C1030.34 1157.45 1032.81 1154.58 1034.98 1153.16C1037.13 1151.75 1042.45 1149.77 1046.77 1148.76C1052.12 1147.5 1057.49 1147.09 1063.61 1147.46C1068.55 1147.75 1074.76 1148.69 1077.42 1149.54C1081.47 1150.83 1082.42 1151.7 1083.33 1155.01C1083.93 1157.16 1085.45 1165 1086.7 1172.41C1087.96 1179.82 1089.34 1191.54 1089.78 1198.47L1090.56 1211.06C1072.28 1219.67 1061.8 1224.24 1055.47 1226.77C1049.14 1229.3 1039.03 1232.64 1033.01 1234.19C1026.99 1235.75 1018.02 1237.32 1013.08 1237.67C1006.85 1238.12 1001.52 1237.76 995.676 1236.51C990.724 1235.43 983.56 1232.7 978.271 1229.87C973.331 1227.23 963.977 1221.24 957.498 1216.57C951.007 1211.91 941.16 1205.14 935.601 1201.54C930.043 1197.92 920.947 1192.84 915.389 1190.22C909.831 1187.6 900.735 1184.16 895.177 1182.55C889.619 1180.96 881.781 1179.08 877.772 1178.38C873.752 1177.69 862.893 1177.14 853.63 1177.15C842.816 1177.16 832.766 1177.87 825.557 1179.11C819.381 1180.19 809.522 1182.3 803.661 1183.81C797.788 1185.31 785.919 1188.91 777.272 1191.79L761.552 1197.02C745.012 1212.94 737.432 1219.35 734.041 1221.54C730.638 1223.73 725.215 1226.58 721.97 1227.88C718.724 1229.17 712.661 1230.77 708.495 1231.42C703.094 1232.26 698.658 1232.24 693.055 1231.35C688.732 1230.67 682.163 1228.87 678.457 1227.35C674.752 1225.85 668.991 1222.97 665.667 1220.96C662.344 1218.97 655.775 1213.73 651.07 1209.33C646.365 1204.93 639.661 1197.35 636.169 1192.49C632.666 1187.63 627.523 1179.09 624.727 1173.53C621.931 1167.97 618.124 1158.88 616.271 1153.32C614.43 1147.76 612.015 1138.91 610.915 1133.67C609.489 1126.91 608.916 1119.22 608.927 1107.28C608.95 1093.59 609.433 1088.54 611.488 1080.33C612.88 1074.77 615.62 1066.43 617.574 1061.8C619.528 1057.17 623.446 1049.85 626.287 1045.52C629.128 1041.2 634.451 1034.44 638.112 1030.5C641.772 1026.55 649.06 1020.11 654.315 1016.18C659.559 1012.25 669.418 1006.32 676.212 1003.01C683.005 999.697 690.326 996.194 692.494 995.217C696.019 993.633 696.132 993.454 693.616 993.443C692.067 993.443 687.272 994.397 682.949 995.554C678.626 996.721 670.541 999.27 664.983 1001.24ZM1252.22 1365.2C1252.2 1383.91 1251.67 1393.52 1250.15 1403.17C1249.01 1410.26 1246.6 1422.14 1244.78 1429.55C1242.96 1436.97 1238.26 1453.64 1234.33 1466.61C1230.41 1479.58 1226.32 1494.48 1225.26 1499.74C1223.96 1506.18 1223.58 1511.47 1224.06 1516.02L1224.79 1522.75C1196.47 1527.48 1178.9 1530.1 1167.48 1531.61C1156.05 1533.13 1136.85 1535.5 1124.81 1536.88L1102.91 1539.38C1068.1 1535.5 1048.64 1533.13 1037.22 1531.61C1025.79 1530.1 1006.85 1527.31 995.115 1525.42L973.78 1521.97C973.69 1507.79 972.837 1500.13 971.815 1495.81C970.804 1491.48 967.379 1479.6 964.224 1469.42C961.057 1459.22 956.532 1443.31 954.152 1434.05C951.771 1424.78 948.908 1411.64 947.796 1404.85C946.246 1395.51 945.741 1386.28 945.73 1366.95C945.719 1352.91 945.326 1341.41 944.865 1341.41C944.405 1341.41 941.53 1344.82 938.487 1348.99C935.455 1353.15 930.481 1360.86 927.449 1366.11C924.417 1371.35 919.768 1380.45 917.118 1386.32C914.468 1392.18 909.887 1404.31 906.934 1413.27C903.98 1422.22 899.781 1437.38 897.591 1446.96C895.413 1456.53 892.572 1471.18 891.28 1479.52C890 1487.85 888.585 1496.69 888.136 1499.14C887.373 1503.28 887.002 1503.65 882.825 1504.34C880.355 1504.74 876.054 1506.05 873.28 1507.24C870.496 1508.43 866.083 1511.51 863.455 1514.11C860.827 1516.7 857.481 1521.23 855.999 1524.16C854.528 1527.09 852.495 1532.27 851.485 1535.67C850.474 1539.06 849.138 1547.65 848.52 1554.76C847.892 1561.85 846.915 1571.45 846.342 1576.09C845.769 1580.72 845.286 1588.56 845.253 1593.5C845.23 1598.44 845.983 1609.05 846.926 1617.08C847.869 1625.11 850.351 1638.75 852.451 1647.4C854.539 1656.04 857.863 1668.17 859.828 1674.35C861.804 1680.52 868.879 1700.48 875.549 1718.7C882.23 1736.91 889.461 1757.63 891.629 1764.74C893.784 1771.84 896.603 1782.71 897.872 1788.88C899.141 1795.06 900.522 1805.41 900.937 1811.9C901.387 1819.09 901.162 1827.21 900.376 1832.67C899.657 1837.62 898.085 1844.94 896.884 1848.96C895.682 1852.97 894.964 1856.5 895.289 1856.82C895.615 1857.12 898.254 1856.11 901.139 1854.57C905.53 1852.24 907.001 1850.54 909.988 1844.47C911.964 1840.45 915.636 1830.34 918.14 1822.01C920.655 1813.66 925.765 1794.72 929.504 1779.9C933.232 1765.08 936.792 1750.93 937.398 1748.46L938.487 1743.97C942.035 1747.45 949.727 1758.05 957.868 1769.76C965.998 1781.47 974.925 1793.46 977.71 1796.41C982.348 1801.3 983.201 1801.75 988.097 1801.77L993.431 1801.8C988.771 1791.96 987.839 1788.05 987.827 1784.11C987.816 1779.26 988.366 1777.61 990.904 1774.77L993.992 1771.31C1014.88 1777.43 1024.98 1780.21 1029.92 1781.45C1034.87 1782.67 1042.69 1784.45 1047.33 1785.39C1051.96 1786.32 1061.82 1787.89 1069.23 1788.86C1077.23 1789.91 1090.9 1790.62 1102.91 1790.62C1114.7 1790.61 1128.98 1789.86 1137.16 1788.81C1144.88 1787.83 1157.26 1785.77 1164.67 1784.26C1172.08 1782.73 1185.85 1779.48 1195.27 1777.04L1212.4 1772.6C1218.06 1775.88 1220.58 1778.65 1221.66 1780.89C1222.74 1783.12 1223.62 1785.46 1223.62 1786.07C1223.62 1786.69 1222.61 1789.97 1221.38 1793.37L1219.13 1799.55C1226.53 1799.49 1229.69 1798.73 1230.92 1797.81C1232.16 1796.89 1240.49 1785.19 1249.45 1771.79C1258.4 1758.4 1266.24 1747.29 1266.86 1747.11C1267.47 1746.93 1269.93 1751.95 1272.34 1758.28C1274.73 1764.62 1280.17 1778.63 1284.44 1789.44C1288.72 1800.25 1294.96 1814.78 1298.34 1821.73C1303.83 1833.03 1305.04 1834.71 1309.81 1837.71C1312.74 1839.55 1315.77 1841.06 1316.54 1841.07C1317.32 1841.09 1317.95 1840.97 1317.94 1840.82C1317.94 1840.66 1316.65 1836.74 1315.06 1832.11C1313.45 1827.34 1311.93 1819.8 1311.57 1814.71C1311.22 1809.77 1311.53 1801.93 1312.24 1797.3C1312.96 1792.67 1315.49 1783.07 1317.87 1775.97C1320.24 1768.86 1327.8 1750.3 1334.66 1734.7C1341.53 1719.1 1349.65 1698.89 1352.71 1689.79C1355.77 1680.68 1359.29 1668.17 1360.53 1661.99C1361.76 1655.82 1363.34 1644.95 1364.02 1637.85C1364.69 1630.74 1364.94 1620.39 1364.57 1614.83C1364.19 1609.27 1363.37 1600.93 1362.74 1596.3C1362.1 1591.67 1360.36 1582.95 1358.86 1576.93C1356.99 1569.47 1356.13 1562.85 1356.14 1556.16C1356.15 1550.22 1355.32 1543.01 1354.04 1537.91C1352.87 1533.28 1350.88 1527.47 1349.63 1525C1348.37 1522.53 1345.61 1518.49 1343.47 1516.02C1341.35 1513.55 1337.14 1510.18 1334.11 1508.54C1331.09 1506.89 1325.71 1504.99 1322.16 1504.33C1318.61 1503.65 1314.43 1503.35 1312.9 1503.67C1310.44 1504.16 1310.02 1503.78 1309.56 1500.58C1309.27 1498.57 1308.22 1491.37 1307.22 1484.58C1306.23 1477.78 1303.9 1464.89 1302.04 1455.94C1300.18 1446.98 1297 1433.84 1294.95 1426.75C1292.9 1419.64 1289.36 1408.78 1287.08 1402.6C1284.8 1396.43 1280.42 1386.06 1277.36 1379.59C1274.29 1373.09 1268.55 1362.99 1264.6 1357.13C1260.66 1351.25 1256.27 1345.04 1254.84 1343.3L1252.26 1340.16L1252.22 1365.2ZM886.474 1532.33C887.249 1532.31 894.829 1534.05 903.318 1536.18C911.807 1538.32 925.574 1541.32 933.917 1542.85C942.249 1544.39 956.656 1546.66 965.919 1547.89C975.183 1549.12 990.084 1550.78 999.045 1551.6C1010.89 1552.67 1039.51 1553.06 1104.04 1553.04C1180.64 1553.01 1195.43 1552.74 1212.4 1551.02C1223.2 1549.92 1238.86 1548.04 1247.21 1546.84C1255.54 1545.63 1268.93 1543.36 1276.96 1541.79C1284.99 1540.22 1297.37 1537.4 1304.47 1535.54C1311.57 1533.68 1318.52 1532.45 1319.91 1532.79C1321.31 1533.14 1323.42 1534.81 1324.61 1536.51C1325.8 1538.21 1327.63 1542.88 1328.68 1546.9C1330.21 1552.77 1330.46 1557.16 1329.94 1569.35C1329.59 1577.69 1328.47 1588.3 1327.46 1592.94C1326.45 1597.56 1323.84 1606.92 1321.68 1613.71C1319.51 1620.5 1315.69 1629.85 1313.19 1634.48C1310.68 1639.11 1303.86 1650.48 1298.03 1659.75C1292.19 1669.01 1284.24 1681.14 1280.35 1686.7C1275.92 1693.05 1270.11 1699.51 1264.72 1704.1C1260.01 1708.11 1251.74 1714.2 1246.34 1717.62C1240.95 1721.04 1231.99 1725.51 1226.43 1727.54C1220.87 1729.58 1213.04 1732 1209.03 1732.91C1203.75 1734.11 1187.91 1734.9 1151.76 1735.79C1115.2 1736.7 1088.54 1736.69 1052.38 1735.77C1016.57 1734.86 1000.97 1734.05 995.676 1732.84C991.656 1731.92 985.593 1730.21 982.202 1729.03C978.799 1727.86 972.23 1725.01 967.604 1722.7C962.966 1720.39 955.892 1716.17 951.883 1713.33C947.863 1710.5 940.374 1704.1 935.231 1699.13C928.987 1693.08 922.778 1685.4 916.557 1676.03C911.436 1668.3 903.722 1656.18 899.41 1649.08C895.098 1641.97 889.776 1631.62 887.575 1626.06C885.385 1620.5 882.05 1610.14 880.175 1603.04C878.3 1595.93 876.234 1586.21 875.582 1581.43C874.931 1576.64 874.403 1568.68 874.403 1563.74C874.403 1558.8 874.976 1552.11 875.661 1548.86C876.357 1545.62 877.952 1541.1 879.198 1538.81C880.444 1536.53 882.275 1534.15 883.263 1533.51C884.262 1532.88 885.7 1532.36 886.474 1532.33Z" fill="#C3AA71"/>
</g>
<path fill-rule="evenodd" clip-rule="evenodd" d="M1090 2180C1691.99 2180 2180 1691.99 2180 1090C2180 488.01 1691.99 0 1090 0C488.01 0 0 488.01 0 1090C0 1691.99 488.01 2180 1090 2180ZM1089 2092C1642.39 2092 2091 1643.39 2091 1090C2091 536.611 1642.39 88 1089 88C535.611 88 87 536.611 87 1090C87 1643.39 535.611 2092 1089 2092Z" fill="#C3AA71"/>
<defs>
<clipPath id="clip0_482_53">
<rect width="2138" height="2136.88" fill="white" transform="translate(21 22)"/>
</clipPath>
</defs>
</svg>
