<?xml version="1.0" encoding="UTF-8" standalone="no"?>
<!-- Created with Inkscape (http://www.inkscape.org/) -->

<svg
  width="117.40164mm"
  height="117.44694mm"
  viewBox="0 0 117.40164 117.44694"
  version="1.1"
  id="svg20775"
  inkscape:version="1.1.2 (0a00cf5339, 2022-02-04)"
  sodipodi:docname="l5R_Mantis_Mon.svg"
  xmlns:inkscape="http://www.inkscape.org/namespaces/inkscape"
  xmlns:sodipodi="http://sodipodi.sourceforge.net/DTD/sodipodi-0.dtd"
  xmlns="http://www.w3.org/2000/svg"
  xmlns:svg="http://www.w3.org/2000/svg">
  <sodipodi:namedview
    id="namedview20777"
    pagecolor="#ffffff"
    bordercolor="#666666"
    borderopacity="1.0"
    inkscape:pageshadow="2"
    inkscape:pageopacity="0.0"
    inkscape:pagecheckerboard="0"
    inkscape:document-units="mm"
    showgrid="false"
    fit-margin-top="0"
    fit-margin-left="0"
    fit-margin-right="0"
    fit-margin-bottom="0"
    inkscape:zoom="0.72604517"
    inkscape:cx="145.99643"
    inkscape:cy="254.80508"
    inkscape:window-width="1920"
    inkscape:window-height="997"
    inkscape:window-x="0"
    inkscape:window-y="28"
    inkscape:window-maximized="1"
    inkscape:current-layer="layer1" />
  <defs
    id="defs20772" />
  <g
    inkscape:label="Layer 1"
    inkscape:groupmode="layer"
    id="layer1"
    transform="translate(-36.550809,-110.57273)">
    <path
      id="path3850"
      style="fill:#2c8369;fill-opacity:1;stroke-width:0.125;stroke-linecap:round;stroke-linejoin:round"
      d="m 95.251613,110.57303 a 58.700854,58.700854 0 0 0 -14.524696,1.86346 c -0.01511,-0.0116 -0.02895,-0.023 -0.04392,-0.0346 a 58.745685,58.745685 0 0 0 -1.285192,0.34417 c 0.0141,0.0116 0.02728,0.0241 0.04134,0.0357 A 58.700854,58.700854 0 0 0 36.550809,169.2739 58.700854,58.700854 0 0 0 42.4042,194.81913 c -0.0049,0.022 -0.01109,0.0437 -0.01603,0.0656 a 58.745685,58.745685 0 0 0 6.31331,10.17561 l 0.02119,-0.047 a 58.700854,58.700854 0 0 0 30.731973,20.75685 c -5.29e-4,0.0151 -5.29e-4,0.0309 -0.0011,0.046 a 58.745685,58.745685 0 0 0 2.060339,0.50591 58.700854,58.700854 0 0 0 0.945679,0.23202 58.745685,58.745685 0 0 0 12.791985,1.46555 58.745685,58.745685 0 0 0 8.635644,-0.68781 58.700854,58.700854 0 0 0 0.32195,-0.0522 58.745685,58.745685 0 0 0 3.59409,-0.68006 58.700854,58.700854 0 0 0 0.99994,-0.22789 58.745685,58.745685 0 0 0 1.14412,-0.26045 c -0.002,-0.0143 -0.003,-0.0301 -0.005,-0.0444 a 58.700854,58.700854 0 0 0 2.91972,-0.8077 c 0.0318,0.005 0.0572,0.0111 0.0894,0.0161 a 58.745685,58.745685 0 0 0 6.44043,-2.48459 c 0.0169,-0.0214 0.0333,-0.0488 0.0501,-0.0708 a 58.700854,58.700854 0 0 0 21.58576,-16.70958 l 0.0207,0.046 a 58.745685,58.745685 0 0 0 5.03225,-7.42024 58.700854,58.700854 0 0 0 0.0351,-0.0646 58.745685,58.745685 0 0 0 1.56218,-2.85771 c -0.006,-0.0214 -0.012,-0.0427 -0.0176,-0.0641 a 58.700854,58.700854 0 0 0 6.29212,-26.37565 58.700854,58.700854 0 0 0 -45.01275,-57.0611 c 0.0224,-0.0161 0.0442,-0.0331 0.0667,-0.0491 a 58.745685,58.745685 0 0 0 -2.03864,-0.45268 v 0 c -0.0345,0.0206 -0.0644,0.0394 -0.0987,0.06 a 58.700854,58.700854 0 0 0 -11.617374,-1.19838 z m 0,4.63486 a 54.066074,54.066074 0 0 1 6.397537,0.42167 c -1.763363,2.04137 -3.231149,4.90371 -4.27932,7.32877 -0.41583,-0.007 -0.833144,-0.0106 -1.253154,-0.008 -2.837863,0.0204 -5.742138,0.27361 -8.449098,0.73586 -0.76109,-1.88206 -2.036152,-4.7639 -3.609597,-7.26879 a 54.066074,54.066074 0 0 1 11.193632,-1.20976 z m 9.051127,0.78341 a 54.066074,54.066074 0 0 1 45.01482,53.28253 54.066074,54.066074 0 0 1 -3.76928,19.75228 c -2.63197,-6.96981 -6.51174,-13.88702 -11.46907,-21.32324 -2.09794,-1.58173 -4.37809,-4.30972 -6.6058,-4.33875 h -0.001 c -0.41254,-0.005 -0.8235,0.0816 -1.23094,0.28578 -2.84339,10.92523 -6.93918,22.54332 -10.16785,34.22325 -2.5e-4,-0.003 -2.4e-4,-0.006 -5.3e-4,-0.008 -0.0466,0.16857 -0.0876,0.33729 -0.13384,0.50591 -0.34767,1.26781 -0.68297,2.53513 -1.00666,3.80339 -0.16034,0.62815 -0.31988,1.25621 -0.47335,1.88412 -0.0815,0.33372 -0.1655,0.66736 -0.24495,1.00097 -0.24775,1.04 -0.48298,2.07918 -0.70848,3.11764 -0.069,0.31785 -0.13482,0.63527 -0.20154,0.95293 -0.19682,0.93667 -0.38406,1.87301 -0.55966,2.80757 -0.0413,0.22005 -0.0865,0.4405 -0.1266,0.66042 -0.009,0.0479 -0.0166,0.0952 -0.0253,0.14314 -0.12751,0.70435 -0.24777,1.4083 -0.36174,2.11098 -0.027,0.16664 -0.0528,0.33317 -0.0791,0.49972 -0.0983,0.62402 -0.19077,1.24719 -0.2775,1.86965 -0.0137,0.0982 -0.0305,0.19638 -0.0439,0.29456 5.3e-4,0.003 5.3e-4,0.005 0.002,0.007 -0.15109,1.10857 -0.28226,2.21432 -0.39429,3.3171 a 54.066074,54.066074 0 0 1 -2.04019,0.57569 c -0.5844,-5.15975 -1.14529,-10.73143 -1.59732,-16.5897 -2.57428,-13.18006 -5.11723,-21.94438 -3.8225,-32.32515 -0.37881,12.21515 3.74637,27.03285 7.58093,43.82162 0.7978,-6.78329 2.42976,-13.55612 4.38888,-20.2556 -9e-5,-0.003 -5.3e-4,-0.005 -5.3e-4,-0.007 -0.30039,-8.01954 -2.90783,-23.8652 -2.90783,-23.8652 -1e-5,-1.08606 -3.21386,-6.87113 -5.68906,-8.35557 0.56351,-8.03085 1.58337,-16.04121 3.25716,-23.76546 l -18.105352,12.68706 c -1.570394,0.79 -2.961976,0.46773 -4.34082,0.0651 -0.949775,3.54245 -1.848138,6.77338 -2.71508,9.93688 -0.03761,-1.6e-4 -0.0691,-0.006 -0.108519,-0.005 -2.078109,0.0868 -6.585278,2.70063 -7.874971,6.79236 0,0 -2.607453,15.84568 -2.907834,23.8652 -7.7e-5,0.003 -5.29e-4,0.004 -5.29e-4,0.006 1.959171,6.69954 3.591025,13.47277 4.388879,20.25613 3.639704,-15.93559 7.53953,-30.09379 7.604186,-41.93855 1.673905,14.19159 -3.787397,25.46223 -6.586678,49.35411 a 54.066074,54.066074 0 0 1 -0.663525,-0.18706 c -0.137178,-1.98464 -0.362071,-3.98333 -0.634587,-5.9888 0.0034,-0.0151 0.0064,-0.0305 0.0098,-0.0455 -0.04041,-0.29633 -0.08919,-0.5937 -0.132291,-0.89037 -0.0421,-0.28983 -0.0846,-0.57957 -0.129191,-0.86971 -0.16551,-1.07678 -0.343289,-2.15527 -0.541052,-3.23599 -0.03409,-0.18637 -0.0725,-0.3732 -0.107487,-0.55965 -0.176919,-0.9425 -0.36527,-1.88616 -0.56379,-2.83083 -0.06659,-0.31697 -0.132691,-0.63367 -0.201538,-0.95086 -0.225976,-1.04068 -0.461709,-2.08219 -0.710034,-3.12436 -0.07816,-0.32811 -0.160639,-0.65624 -0.240813,-0.98443 -0.154294,-0.63146 -0.31469,-1.2628 -0.47594,-1.89444 -0.324977,-1.27329 -0.661646,-2.54659 -1.010791,-3.81942 -0.04483,-0.16344 -0.08453,-0.32703 -0.129709,-0.49041 -2.49e-4,0.003 -0.0013,0.006 -0.0016,0.008 -3.228684,-11.67995 -7.32441,-23.29796 -10.167853,-34.22324 -0.04609,-0.023 -0.09232,-0.0414 -0.138494,-0.0615 l 0.04341,-0.11007 -0.12609,0.0734 c -0.334772,-0.13329 -0.671224,-0.19198 -1.00924,-0.18756 v -0.003 c -2.227717,0.029 -4.508381,2.75704 -6.606315,4.33877 -5.272172,7.90848 -9.325745,15.23027 -11.954827,22.65236 A 54.066074,54.066074 0 0 1 41.185616,169.27344 54.066074,54.066074 0 0 1 82.889013,116.6498 c 1.121233,1.79216 2.055506,4.09763 2.859257,7.40781 -1.290185,0.2817 -2.520979,0.61039 -3.642672,0.99684 0.215923,2.6466 2.87932,12.09022 -2.58589,18.83968 0.305861,1.29323 3.144576,3.6272 7.607806,7.27242 1.417701,1.15784 3.47971,1.33776 5.487003,0.28784 l 14.605313,-9.63197 c -0.22551,0.0927 -0.44092,0.16703 -0.65888,0.24545 a 7.4512733,10.196705 29.384733 0 0 5.05809,-4.40282 7.4512733,10.196705 29.384733 0 0 -0.32659,-13.00335 7.4512733,10.196705 29.384733 0 0 -11.586894,3.94137 7.4512733,10.196705 29.384733 0 0 0.326074,13.00334 7.4512733,10.196705 29.384733 0 0 3.84421,1.11879 c -3.61447,0.39175 -5.811788,-1.56427 -6.707079,-4.37028 -0.275114,-0.73578 -0.421384,-1.53752 -0.441318,-2.38434 -0.288131,-4.2862 1.777887,-9.40943 5.912817,-11.60756 0.48629,-0.37246 0.95684,-0.63286 1.41593,-0.79788 -1.44573,-0.2607 -3.01586,-0.43667 -4.64984,-0.53176 1.09705,-2.78247 2.84219,-5.06108 4.89634,-7.04247 z m -23.619231,9.05991 a 12.630701,7.5047855 64.460823 0 0 -1.570447,0.20929 12.630701,7.5047855 64.460823 0 0 -2.389519,13.86221 12.630701,7.5047855 64.460823 0 0 2.782777,4.78369 c 5.14061,-6.79042 2.058924,-18.72768 2.050005,-18.76216 a 12.630701,7.5047855 64.460823 0 0 -0.872816,-0.093 z m -19.664949,49.44092 0.02635,0.0832 1.239718,7.10605 3.207555,9.54154 c -0.723646,0.23852 -1.29821,-0.0582 -1.700155,-0.31576 l 2.442748,9.11315 c 0.0095,0.0386 -0.01275,0.0776 -0.05064,0.0899 -0.698114,0.181 -1.107268,-0.0866 -1.591636,-0.2372 h -0.0031 l 0.0062,0.0206 3.232877,10.96107 c 7.94e-4,0 0.0016,0.003 0.0021,0.004 0.359796,1.80607 0.727395,3.30459 1.10536,4.56044 0.156128,0.46654 0.31763,0.89463 0.481624,1.30587 A 54.066074,54.066074 0 0 1 50.929296,200.18208 l 0.473355,-1.03714 c -0.41934,0.1028 -0.737872,0.17519 -1.012856,0.22995 a 54.066074,54.066074 0 0 1 -0.675413,-1.01078 c 0.05394,-0.11795 0.105828,-0.23141 0.171567,-0.37156 l 6.167583,-11.0417 -1.235067,-0.401 c 1.666523,-2.3336 3.659274,-6.04144 6.200137,-12.05767 z m 68.55137,2.84633 c 2.50011,5.89722 4.46708,9.55032 6.11487,11.85768 l -1.23507,0.401 5.55315,9.94203 a 54.066074,54.066074 0 0 1 -17.92604,16.63052 c 0.20102,-0.8128 0.40035,-1.68161 0.59635,-2.66546 5.3e-4,0 5.3e-4,-0.003 10e-4,-0.004 l 3.23908,-10.98174 h -10e-4 c -0.49917,0.21317 -0.99633,0.63122 -1.50069,0.22376 l -0.0925,0.014 c -0.0379,-0.0122 -0.0596,-0.0513 -0.0501,-0.0899 l 2.54248,-9.48833 h -10e-4 c -0.41315,0.16367 -0.84081,0.3675 -1.10949,0.14263 l -0.0858,0.0114 c -0.0383,-0.0127 -0.0597,-0.0535 -0.0486,-0.0925 l 2.33319,-8.06204 c -0.18692,-0.13041 -0.39281,-0.091 -0.51883,-0.77671 z"
      inkscape:export-filename="/home/e6host/mantis_update.png"
      inkscape:export-xdpi="96.022919"
      inkscape:export-ydpi="96.022919" />
  </g>
</svg>
