<svg width="2180" height="2180" viewBox="0 0 2180 2180" fill="none" xmlns="http://www.w3.org/2000/svg">
<g clip-path="url(#clip0_482_60)">
<path fill-rule="evenodd" clip-rule="evenodd" d="M1082.83 50.5256C1119.64 50.2866 1169.11 52.2465 1192.78 54.8278C1216.44 57.457 1259.46 64.1016 1288.38 69.5511C1317.3 75.0006 1361.38 86.6644 1386.38 95.5079C1411.33 104.304 1464.06 124.62 1503.49 140.634C1542.93 156.648 1596.71 181.17 1623 195.081C1649.29 208.992 1690.16 233.371 1713.83 249.241C1737.49 265.064 1773.91 291.786 1794.8 308.612C1815.69 325.439 1852.26 358.757 1876.07 382.659C1899.87 406.56 1935.77 447.431 1955.75 473.484C1975.78 499.536 2002.55 536.966 2015.27 556.708C2027.98 576.403 2051.74 620.525 2068.14 654.704C2084.49 688.883 2105.28 738.359 2114.36 764.65C2123.49 790.942 2135.44 830.713 2140.94 853.085C2146.49 875.409 2152.08 903.373 2153.42 915.229C2154.9 928.613 2154.28 934.015 2151.65 929.569C2149.4 925.602 2145.91 912.695 2144 900.888C2142.09 889.033 2134.01 856.766 2126.12 829.184C2118.19 801.554 2102.65 756.38 2091.51 728.798C2080.38 701.168 2064.55 665.173 2056.28 648.728C2048.01 632.284 2039.12 617.752 2036.49 616.462C2033.86 615.123 2034.72 621.051 2038.36 629.607C2042.04 638.164 2052.99 662.352 2062.64 683.385C2072.35 704.419 2087.36 742.039 2096.01 767.04C2104.61 791.993 2117.28 836.115 2124.07 865.036C2130.9 893.956 2140.03 942.333 2144.43 972.592C2150.65 1015.28 2151.84 1047.83 2149.83 1118.39C2148.35 1170.64 2143.81 1228.53 2139.17 1254.63C2134.73 1279.58 2125.79 1320.45 2119.29 1345.45C2112.83 1370.41 2099.88 1411.28 2090.51 1436.28C2081.14 1461.23 2065.22 1498.9 2055.14 1519.93C2045.05 1540.97 2034.68 1561.38 2032.14 1565.35C2029.56 1569.26 2018.76 1588.1 2008.1 1607.17C1997.39 1626.25 1986.54 1641.83 1983.91 1641.83C1981.28 1641.83 1979.66 1643.6 1980.33 1645.8C1980.99 1647.95 1969.66 1665.64 1955.23 1685.09C1940.74 1704.55 1920.33 1729.98 1909.82 1741.55C1899.3 1753.16 1878.84 1774.72 1864.4 1789.49C1849.92 1804.22 1827.36 1826.2 1814.21 1838.3C1801.06 1850.39 1779.55 1868.56 1766.41 1878.64C1753.26 1888.68 1726.35 1907.42 1706.65 1920.28C1686.91 1933.09 1643.89 1957.28 1611.05 1973.96C1578.16 1990.6 1525.48 2013.16 1493.93 2024.06C1462.38 2034.91 1410.76 2049.06 1379.21 2055.42C1347.66 2061.82 1294.93 2068.42 1262.09 2070.09C1207.07 2072.87 1199.66 2074.4 1168.87 2089.31C1146.89 2100.02 1114.95 2109.63 1075.66 2117.42C1029.39 2126.64 1000.8 2129.32 948.982 2129.37C897.355 2129.42 867.861 2126.74 819.915 2117.56C785.736 2111.01 739.463 2099.49 717.139 2091.94C694.767 2084.39 659.298 2071.29 638.264 2062.92C617.231 2054.51 583.865 2039.83 564.17 2030.32C544.428 2020.81 526.167 2012.64 523.538 2012.2C520.909 2011.77 505.851 2002.79 490.076 1992.22C474.301 1981.66 445.237 1960.05 425.542 1944.18C405.8 1928.36 369.183 1894.18 344.134 1868.22C319.086 1842.31 288.779 1808.18 276.781 1792.41C264.782 1776.63 234.905 1733.61 210.383 1696.8C185.86 1659.99 146.04 1591.16 121.948 1543.83C97.7594 1496.46 70.2251 1434.13 60.7123 1405.21C51.1518 1376.29 40.1094 1338.62 36.1896 1321.55C31.6483 1301.76 28.7801 1261.8 28.3021 1211.61C27.6807 1148.22 29.9752 1116.76 39.8704 1051.47C46.6105 1006.77 56.4579 950.841 61.7162 927.179C66.9267 903.517 77.8257 866.422 85.8565 844.72C93.8874 823.017 97.9506 806.908 94.8435 808.867C90.6846 811.497 90.2066 809.25 93.0748 800.502C95.2259 793.905 107.559 763.79 120.466 733.578C133.42 703.319 155.983 657.094 170.611 630.802C185.238 604.511 211.243 562.54 228.452 537.587C245.613 512.586 273.052 476.017 289.4 456.323C305.749 436.58 342.653 397.86 371.43 370.278C400.207 342.648 446.767 303.928 474.875 284.233C503.031 264.49 546.961 233.658 572.584 215.684C598.206 197.71 634.201 175.386 652.605 166.065C671.009 156.791 687.119 147.565 688.457 145.653C689.748 143.693 700.504 137.24 712.359 131.217C724.166 125.241 754.282 112.956 779.282 103.921C804.235 94.8865 847.258 82.1232 874.888 75.5264C902.47 68.9774 945.492 60.7554 970.493 57.2658C995.446 53.824 1046.02 50.7646 1082.83 50.5256ZM1042.2 411.531C1014.57 418.367 976.421 430.127 957.347 437.727C938.274 445.328 907.107 459.334 888.034 468.895C868.96 478.407 834.016 499.345 810.354 515.311C785.784 531.946 743.574 568.085 712.024 599.587C675.598 635.917 645.913 671.005 625.071 702.507C607.671 728.798 584.821 768.57 574.352 790.942C563.883 813.265 549.925 847.683 543.328 867.426C536.779 887.121 527.458 921.538 522.678 943.91C515.985 975.125 513.977 1005.62 513.977 1075.61V1166.72C541.321 1221.88 564.744 1263.71 583.626 1295.26C602.508 1326.81 624.115 1365.53 631.668 1381.3C639.268 1397.08 645.435 1413.76 645.435 1418.35C645.435 1422.94 641.658 1428.77 637.069 1431.31C631.715 1434.22 622.633 1434.17 611.973 1431.16C602.747 1428.63 590.414 1423.32 584.486 1419.45C578.559 1415.58 572.106 1413.43 570.146 1414.72C568.186 1416.01 600.978 1451.72 643.045 1494.07C685.111 1536.42 729.185 1581.31 741.04 1593.79C752.847 1606.26 772.208 1624.09 784.063 1633.42C795.87 1642.74 827.611 1663.53 854.572 1679.55C883.205 1696.66 902.757 1711.24 901.609 1714.73C900.414 1718.31 907.633 1723.29 919.535 1727.16C930.482 1730.69 949.747 1738.2 962.319 1743.89C974.891 1749.53 985.121 1754.69 985.025 1755.36C984.93 1756.03 982.348 1761.38 979.289 1767.31C976.229 1773.24 970.302 1780.7 966.143 1783.9C961.936 1787.15 948.839 1793.51 937.031 1798.05C925.176 1802.64 912.987 1809.66 909.927 1813.73C905.386 1819.75 907.059 1823.29 919.105 1833.04C930.674 1842.41 932.968 1847.05 929.909 1854.55C927.71 1859.81 926.323 1866.79 926.706 1870.09C927.136 1873.48 922.308 1876.06 915.52 1876.06C908.923 1876.06 903.569 1878.21 903.569 1880.84C903.569 1883.47 904.095 1885.86 904.764 1886.15C905.434 1886.44 955.435 1888.4 1015.91 1890.45C1087.32 1892.89 1132.16 1896.47 1143.87 1900.68C1154.01 1904.31 1161.85 1910.29 1161.75 1914.3C1161.61 1920.28 1166.1 1920.85 1189.14 1917.7C1204.3 1915.6 1220.45 1915.07 1225.04 1916.5C1229.63 1917.94 1233.46 1920.71 1233.5 1922.67C1233.6 1924.63 1223.37 1931.47 1210.8 1937.78C1194.45 1946.05 1175.18 1950.44 1142.58 1953.26C1117.58 1955.46 1062.75 1959.53 1020.69 1962.35C967.195 1965.93 930.53 1965.98 898.789 1962.49C873.788 1959.77 841.521 1954.12 827.085 1950.01C812.601 1945.85 795.392 1941.07 788.843 1939.4C780.238 1937.2 777.896 1937.92 780.477 1942.03C782.437 1945.19 807.199 1953.03 835.451 1959.48C863.702 1965.93 907.25 1973.39 932.251 1976.07C964.231 1979.46 996.785 1979.32 1042.2 1975.49C1082.97 1972.1 1103.19 1968.7 1097.17 1966.36C1091.91 1964.35 1110.17 1963.92 1137.8 1965.41C1174.08 1967.41 1190.48 1970.28 1196.93 1975.87C1201.86 1980.13 1207.5 1987.92 1209.46 1993.18C1211.99 1999.87 1210.75 2003.84 1205.35 2006.42C1201.05 2008.43 1206.69 2008.95 1217.87 2007.62C1234.46 2005.56 1237.76 2006.42 1235.8 2012.3C1234.08 2017.42 1236.85 2019.47 1245.36 2019.47C1252.82 2019.47 1257.31 2016.75 1257.31 2012.3C1257.31 2008.33 1262.66 2004.03 1269.26 2002.74C1275.81 2001.4 1280.11 1998.2 1278.82 1995.57C1277.48 1992.94 1278.58 1990.79 1281.21 1990.79C1283.84 1990.79 1285.99 1992.94 1285.99 1995.57C1285.99 1998.2 1282.74 2001.4 1278.82 2002.74C1274.85 2004.03 1272.7 2007.28 1274.04 2009.91C1275.33 2012.54 1279.63 2014.69 1283.6 2014.69C1287.52 2014.69 1291.73 2009.86 1292.87 2003.93C1294.55 1995.38 1296.99 1993.9 1304.83 1996.76C1312.57 1999.58 1315.29 1998.06 1317.64 1989.59C1320.03 1980.85 1321.36 1980.18 1324.71 1986.01C1328.2 1992.03 1328.87 1991.89 1328.92 1984.81C1328.97 1980.22 1332.22 1976.45 1336.18 1976.45C1340.1 1976.45 1363.24 1969.9 1387.57 1961.87C1411.9 1953.89 1454.35 1936.53 1481.98 1923.29C1509.56 1910.1 1545.08 1891.55 1560.86 1881.99C1576.63 1872.48 1605.65 1852.97 1625.39 1838.59C1645.08 1824.24 1677.21 1798.29 1696.76 1780.94C1716.31 1763.58 1748.29 1731.08 1767.84 1708.75C1787.39 1686.38 1816.22 1648.76 1831.9 1625.1C1847.58 1601.44 1872 1558.41 1886.2 1529.49C1900.4 1500.57 1920.43 1451.1 1930.71 1419.55C1940.94 1388 1953.36 1340.67 1958.24 1314.38C1965.08 1277.76 1967.18 1244.21 1967.13 1170.97C1967.08 1089.09 1965.46 1067.48 1955.71 1020.39C1949.49 990.135 1935.87 940.66 1925.5 910.448C1915.17 880.189 1898.68 838.266 1888.88 817.233C1879.13 796.2 1858.57 759.631 1843.18 735.968C1827.83 712.306 1802.98 677.888 1787.92 659.484C1772.91 641.08 1745.76 612.159 1727.64 595.189C1709.52 578.267 1676.4 550.876 1654.07 534.337C1631.7 517.797 1588.68 491.458 1558.47 475.826C1528.21 460.147 1479.83 439.448 1450.91 429.792C1421.99 420.136 1377.87 408.138 1352.91 403.214C1326.86 398.051 1277.91 393.319 1238.19 392.076C1200.04 390.929 1151.67 392.028 1130.63 394.514C1109.6 397.047 1069.78 404.696 1042.2 411.531ZM1988.02 1300.04C1982.72 1328.96 1970.81 1376.29 1961.54 1405.21C1952.22 1434.13 1932.9 1482.5 1918.52 1512.76C1904.18 1542.97 1878.98 1588.15 1862.59 1613.15C1846.14 1638.1 1816.51 1677.92 1796.71 1701.58C1776.92 1725.25 1746.95 1756.99 1730.08 1772.09C1713.25 1787.2 1700.54 1800.68 1701.87 1802.02C1703.16 1803.35 1719.32 1791.36 1737.73 1775.34C1756.13 1759.33 1786.82 1728.64 1805.99 1707.18C1825.11 1685.71 1852.31 1651.96 1866.46 1632.27C1880.61 1612.53 1904.84 1571.66 1920.38 1541.44C1935.87 1511.18 1956.33 1462.81 1965.89 1433.89C1975.4 1404.97 1987.73 1359.79 1993.28 1333.5C1998.82 1307.21 2005.13 1266.34 2007.29 1242.68C2009.48 1219.01 2009.48 1197.5 2007.38 1194.87C2005.28 1192.25 2002.22 1203 2000.59 1218.78C1998.97 1234.55 1993.33 1271.12 1988.02 1300.04ZM79.69 1326.33C86 1351.28 100.962 1396.46 113.008 1426.72C125.007 1456.93 147.761 1506.4 163.584 1536.66C179.359 1566.87 205.746 1612.05 222.238 1637.05C238.73 1662 262.679 1692.69 275.538 1705.17C288.349 1717.64 299.391 1726.82 300.06 1725.48C300.73 1724.19 290.309 1709.66 276.972 1693.22C263.587 1676.77 239.733 1643.98 223.911 1620.32C208.136 1596.66 178.259 1542.88 157.561 1500.81C136.862 1458.75 111.383 1398.51 100.914 1366.96C90.4456 1335.41 79.451 1291.87 76.4872 1270.16C73.4756 1248.46 68.9344 1230.73 66.4487 1230.73C63.7239 1230.73 63.1503 1240.81 65.0624 1255.82C66.8311 1269.64 73.4278 1301.33 79.69 1326.33ZM225.154 1486.47C241.215 1515.39 265.738 1556.26 279.696 1577.3C293.607 1598.33 309.621 1619.84 315.262 1625.1C321.428 1630.88 325.396 1632.27 325.3 1628.68C325.205 1625.39 317.126 1611.43 307.326 1597.61C297.479 1583.8 278.071 1555.31 264.113 1534.27C250.202 1513.24 230.747 1479.35 220.947 1458.98C211.1 1438.62 201.491 1421.94 199.579 1421.94C197.667 1421.94 196.09 1424.61 196.042 1427.91C196.042 1431.21 209.14 1457.55 225.154 1486.47ZM1404.45 1971.14C1405.5 1977.83 1406.17 1977.93 1409.8 1971.67C1412.09 1967.7 1416.4 1966.12 1419.31 1968.08C1422.23 1970.04 1424.62 1969.52 1424.62 1966.89C1424.62 1964.26 1427.82 1963.16 1431.79 1964.5C1435.8 1965.84 1439.53 1963.73 1440.25 1959.72C1440.97 1955.75 1440.39 1952.79 1439.06 1953.03C1437.67 1953.31 1429.06 1955.75 1419.93 1958.52C1408.89 1961.82 1403.68 1966.08 1404.45 1971.14Z" fill="#494848"/>
</g>
<defs>
<clipPath id="clip0_482_60">
<rect width="2132" height="2079.42" fill="white" transform="translate(24 50)"/>
</clipPath>
</defs>
</svg>
