<svg width="2180" height="2180" viewBox="0 0 2180 2180" fill="none" xmlns="http://www.w3.org/2000/svg">
<g clip-path="url(#clip0_482_55)">
<path d="M1089 90.729C1642.56 90.729 2091.27 539.44 2091.27 1093C2091.27 1646.56 1642.56 2095.27 1089 2095.27C535.441 2095.27 86.7292 1646.52 86.7292 1092.83C86.7292 539.149 535.441 90.729 1089 90.729ZM1089 23.9999C824.748 24.318 570.033 122.774 374.266 300.269C178.499 477.764 55.6351 721.645 29.5089 984.603C3.38268 1247.56 75.8562 1510.85 232.871 1723.39C389.885 1935.94 620.247 2082.59 879.271 2134.9C1138.29 2187.21 1407.51 2141.44 1634.7 2006.49C1861.9 1871.53 2030.86 1657 2108.83 1404.51C2186.79 1152.02 2168.2 879.573 2056.65 640.017C1945.11 400.462 1748.56 210.876 1505.14 108.037C1373.49 52.3127 1231.95 23.7298 1089 23.9999Z" fill="#BC510A"/>
<path d="M466.501 498.694C510.542 342.965 401.649 397.516 346.514 463.328C338.173 473.295 281.495 552.494 261.935 583.899C177.327 719.526 127.861 874.103 118.009 1033.65C116.757 1053.89 116.118 1074.3 116.09 1094.88C116.036 1176.26 126.237 1257.32 146.452 1336.14C253.635 1753.62 632.49 2062.16 1083.41 2062.16C1617.62 2062.16 2050.69 1629.08 2050.69 1094.88C2050.72 1043.54 2046.97 992.27 2039.47 941.483C2037.01 925.093 2003.15 1151.51 1999.94 1135.46C2054.15 692.542 1896.01 531.641 1752.62 399.017C1877.74 597.411 1853.17 616.429 1864.06 744.174C1793.41 263.182 1385.9 151.744 1067.98 138.148C1347.87 195.244 1448.42 298.507 1508.18 409.903C1317.96 206.087 863.372 146.698 763.279 181.856C763.279 181.856 1653.11 364.652 1647.98 941.316C1652.99 1064.89 1555.19 1080.32 1483.08 992.739C1410.97 905.158 1412.18 810.235 1477.41 770.365C1312.54 766.778 1221.96 953.369 1323.39 1033.11C1334.27 1018.64 1357.5 1014.13 1365.09 1020.6C1448.5 1098.51 1343.49 1194.59 1169.08 1116.52C973.434 1028.94 608.801 752.473 589.783 295.921C556.794 358.48 510.959 744.34 674.029 901.946C502.827 839.388 493.318 505.409 487.813 519.964C392.098 900.987 456.534 1111.02 717.403 1246.89C585.154 1193.43 453.823 1132.75 402.191 961.544C429.341 1494.17 796.226 1551.26 1059.81 1619.16C964.717 1624.62 923.929 1613.74 787.885 1573.28C963.424 1671.33 1151.89 1704.49 1243.48 1716.08C1264.33 1718.71 1303.95 1719.84 1310.71 1720.04C1480.83 1725.3 1720.92 1795.49 1558.15 1878.03C995.121 2186.98 345.763 1865.06 181.86 1341.15C168.064 1299.06 161.493 1254.94 162.425 1210.65C161.925 1063.64 212.055 889.226 304.933 757.937C307.394 754.475 314.734 743.214 316.486 740.921C342.719 707.014 450.403 668.311 358.692 794.429C489.147 668.061 336.963 605.544 270.401 707.473C298.01 580.187 453.906 478.759 403.109 630.943C468.295 524.051 377.71 473.754 328.831 545.78C398.104 409.903 490.065 379.124 466.501 498.694Z" fill="#BC510A"/>
</g>
<path fill-rule="evenodd" clip-rule="evenodd" d="M1090 2180C1691.99 2180 2180 1691.99 2180 1090C2180 488.01 1691.99 0 1090 0C488.01 0 0 488.01 0 1090C0 1691.99 488.01 2180 1090 2180ZM1089 2092C1642.39 2092 2091 1643.39 2091 1090C2091 536.611 1642.39 88 1089 88C535.611 88 87 536.611 87 1090C87 1643.39 535.611 2092 1089 2092Z" fill="#BC510A"/>
<defs>
<clipPath id="clip0_482_55">
<rect width="2138" height="2138" fill="white" transform="translate(20 24)"/>
</clipPath>
</defs>
</svg>
