<svg width="2180" height="2180" viewBox="0 0 2180 2180" fill="none" xmlns="http://www.w3.org/2000/svg">
<g clip-path="url(#clip0_482_61)">
<path d="M1090 1C489.539 1 1 489.539 1 1090.33C1 1691.13 489.539 2179.66 1090.33 2179.66C1691.13 2179.66 2179.66 1691.13 2179.66 1090.66C2179.66 490.203 1690.46 1 1090 1ZM1090 87.3494C1642.9 87.3494 2092.98 537.164 2092.98 1090.33C2093.2 1315.61 2017.19 1534.33 1877.31 1710.92C1809.16 1675.58 1750.77 1623.97 1707.33 1560.67C1707.33 1560.67 1706.54 1559.54 1706.8 1559.08C1707.07 1558.61 1712.18 1555.76 1724.47 1556.95L1747.05 1559.08L1725.53 1550.24C1633.67 1512.85 1612.61 1353.9 1612.61 1352.3L1612.08 1347.79L1607.96 1349.65C1548.25 1375.47 1486.28 1395.73 1422.84 1410.16C1422.23 1410.23 1421.61 1410.13 1421.06 1409.86C1420.5 1409.59 1420.04 1409.16 1419.72 1408.63C1418.79 1407.3 1416.4 1401.99 1424.24 1389.63L1428.49 1382.99L1420.85 1384.45C1404.84 1387.64 1388.17 1391.63 1370.57 1395.81C1339.94 1403.69 1308.89 1409.88 1277.58 1414.34C1280.64 1399.37 1280.64 1383.94 1277.58 1368.98C1347.65 1357.28 1418.13 1343.4 1462.17 1321.42L1468.81 1318.1L1461.77 1315.37C1447.22 1309.73 1445.83 1304.68 1445.69 1303.28C1445.69 1300.89 1448.02 1299.36 1448.82 1298.97C1501.02 1270.27 1539.02 1239.19 1554.69 1212.02C1572.63 1250.28 1634 1280.77 1694.18 1265.16L1698.56 1263.96L1696.11 1260.17C1694.97 1258.78 1694.13 1257.16 1693.66 1255.42C1693.19 1253.68 1693.1 1251.86 1693.38 1250.08C1693.75 1249.21 1694.32 1248.45 1695.03 1247.84C1695.75 1247.23 1696.59 1246.79 1697.5 1246.56C1763.92 1223.04 1828.35 1163.86 1878.17 1079.97L1888.87 1061.97L1873.12 1075.79C1786.77 1151.84 1714.31 1187.38 1658.31 1181.33C1609.49 1176.15 1583.72 1141.48 1566.65 1118.16L1560.6 1110.06L1557.95 1113.58C1482.23 1215.01 1355.62 1289.2 1242.37 1298.63C1235.13 1288.47 1227.23 1277.98 1218.86 1266.95L1216.27 1263.43C1278.66 1227.15 1335.61 1182.25 1385.45 1130.05C1387.87 1130.83 1390.05 1132.23 1391.76 1134.1C1396.22 1138.69 1399.66 1144.17 1401.85 1150.18C1404.05 1156.19 1404.96 1162.59 1404.51 1168.98L1404.11 1178.08L1410.22 1171.43C1496.11 1078.04 1506.01 1058.98 1520.02 796.212L1521.55 767.451L1513.51 795.083C1467.94 952.771 1439.91 1026.96 1408.96 1069.28C1405.83 1061.72 1399.87 1055.69 1392.36 1052.47L1390.3 1051.28L1388.5 1052.8C1349.14 1086.77 1306.72 1117.01 1261.77 1143.14C1261.37 1143.35 1260.92 1143.46 1260.47 1143.46C1260.02 1143.46 1259.58 1143.35 1259.18 1143.14C1258 1142.22 1257.04 1141.05 1256.37 1139.72C1255.69 1138.39 1255.31 1136.93 1255.26 1135.43L1253.93 1127.46L1249.28 1134.1C1232.63 1157.53 1212.31 1178.12 1189.1 1195.08C1206.66 1169.55 1214.68 1138.65 1211.75 1107.8C1205.84 1048.02 1162.87 956.623 1061.31 896.643C1030.88 830.221 1014.08 761.872 1000.53 706.608C997.805 695.648 995.215 685.087 992.624 675.057L991.296 669.876L987.244 673.33C975.487 683.427 971.037 683.427 969.708 682.895C967.317 682.032 966.387 676.652 965.723 672.268L965.125 669.013C941.213 545.6 947.258 452.342 1051.47 369.048L1059.84 362.406L1049.15 363.203C1038.19 364 1035.87 361.21 1035.53 360.347C1035.32 359.15 1035.4 357.919 1035.77 356.761C1036.14 355.603 1036.79 354.554 1037.66 353.704C1067.28 320.726 1104.34 295.299 1145.78 279.54C1187.21 263.781 1231.8 258.146 1275.85 263.104C1359.08 273.333 1428.62 322.021 1471.47 400.2C1430.02 430.356 1409.09 487.613 1403.32 531.784C1398.2 570.442 1403.71 603.52 1417.93 620.192L1421.25 624.111L1423.44 619.462C1437.39 589.97 1472.73 546.397 1496.51 544.47C1499.33 544.206 1502.17 544.746 1504.69 546.028C1507.22 547.309 1509.33 549.279 1510.79 551.71C1516.77 565.991 1509.39 594.819 1490.86 628.827C1445.83 712.453 1345.2 812.22 1230.82 833.741L1207.9 838.059L1231.08 840.317C1316.5 848.553 1414.41 823.711 1499.83 772.101C1581.99 722.417 1641.71 653.736 1659.57 588.442C1681.69 507.207 1639.98 437.198 1542.14 391.1C1492.85 229.56 1371.43 137.366 1208.23 137.366H1202.32C1201.92 137.366 1201.59 137.366 1201.06 136.635C1198.8 133.58 1198.53 123.816 1202.45 111.594L1203.91 106.944L1199.07 107.276C1106.07 113.321 1005.84 161.344 924.475 238.992C840.516 319.098 785.518 420.26 769.51 523.747C769.51 524.743 769.046 524.876 768.78 524.942C765.326 526.403 752.506 521.953 727.93 504.617L723.015 501.163V507.141C718.232 599.668 749.584 649.352 802.722 731.649C854.412 810.405 900.234 892.859 939.818 978.343C948.785 1017.86 940.815 1038.12 932.312 1059.98C919.455 1087.9 916.254 1119.31 923.213 1149.25C907.714 1126.97 895.728 1102.44 887.676 1076.52L885.285 1068.81L881.566 1075.98C879.706 1079.64 877.447 1081.83 875.455 1082.1C875.01 1082.15 874.56 1082.09 874.143 1081.93C873.726 1081.77 873.355 1081.51 873.064 1081.17C838.451 1042.37 807.499 1000.45 780.603 955.959L779.407 953.966L777.083 954.431C768.954 955.156 761.427 959.015 756.093 965.192C740.019 915.175 736.166 836.199 741.547 672.002L742.476 643.241L735.037 671.072C666.755 925.205 670.208 946.394 722.815 1061.84L726.535 1070.07L728.993 1061.37C730.55 1055.16 733.402 1049.34 737.362 1044.3C741.323 1039.27 746.302 1035.12 751.975 1032.15C754.185 1030.9 756.677 1030.24 759.215 1030.22C795.759 1107.36 845.327 1177.62 905.743 1237.92L905.013 1238.39L892.791 1246.76C782.795 1208.5 676.253 1093.45 633.41 966.254L632.015 962.07L623.713 967.915C600.332 984.521 564.929 1009.69 516.905 999.532C461.907 987.842 403.986 931.582 345.534 832.413L334.907 814.346L339.49 834.804C360.745 930.054 403.389 1006.24 459.449 1049.28C460.234 1049.8 460.892 1050.48 461.375 1051.29C461.858 1052.09 462.154 1053 462.239 1053.93C462.239 1056.52 460.313 1059.51 456.527 1062.63L453.006 1065.56L456.859 1068.01C509.333 1101.69 577.084 1091.73 606.044 1060.97C612.687 1091.53 638.923 1133.04 679.707 1176.48C680.391 1177.13 680.897 1177.93 681.176 1178.83C681.456 1179.73 681.499 1180.68 681.301 1181.6C680.77 1182.93 677.847 1187.24 662.238 1188.24L654.732 1188.64L660.112 1193.89C697.641 1230.88 767.85 1269.01 831.549 1302.02C822.502 1314.96 816.05 1329.53 812.552 1344.93C779.341 1331.65 746.13 1311.25 712.918 1291.26C697.508 1281.76 682.895 1272.86 668.747 1264.69L662.105 1260.84L664.098 1268.41C667.02 1279.64 665.16 1285.81 662.504 1287.87C662.031 1288.27 661.456 1288.52 660.844 1288.61C660.232 1288.69 659.61 1288.6 659.05 1288.34C603.245 1254.92 550.637 1216.43 501.893 1173.36L498.572 1170.3L496.646 1174.36C495.982 1175.82 426.57 1320.49 327.667 1327.13L305.017 1328.72L327.135 1333.7C339.224 1336.43 342.944 1339.82 343.276 1341.21C343.608 1342.61 342.545 1342.41 342.28 1342.61C284.888 1386.41 218.181 1416.41 147.329 1430.28C107.747 1321.11 87.517 1205.86 87.5487 1089.73C87.3494 537.164 537.164 87.3494 1090 87.3494ZM1090 2092.65C662.371 2092.65 296.514 1823.51 152.643 1445.76C325.873 1450.41 472.734 1352.17 505.148 1272.66C535.503 1326.93 627.698 1367.85 714.845 1400.92C714.845 1400.92 715.31 1400.92 715.442 1402.05C715.841 1404.78 713.383 1411.29 705.346 1417.2L700.232 1420.92L706.21 1422.98C741.505 1434.89 778.32 1441.71 815.541 1443.24C818.369 1450.18 822.027 1456.76 826.435 1462.83C782.529 1496.37 732.447 1502.68 684.888 1506.14C678.91 1506.6 668.415 1504.74 665.559 1487.61L665.094 1484.62H662.039C585.719 1489.8 513.916 1513.64 505.215 1652.14C423.183 1778.94 490.137 1865.88 537.43 1906.53C638.259 1992.88 812.619 2017.46 882.828 1954.82L889.005 1949.31H880.702C779.208 1945.99 715.841 1926.93 681.434 1889.53C658.252 1864.22 648.223 1829.75 650.016 1784.25C679.906 1777.61 704.018 1780.73 721.686 1793.28C742.011 1807.63 754.897 1835 758.949 1874.52L759.946 1883.15L764.994 1876.05C809.165 1813.67 816.139 1747.19 784.123 1693.65C752.108 1640.11 686.084 1609.16 615.011 1614.54C660.644 1576.61 682.696 1584.52 704.084 1592.09C735.236 1603.12 764.728 1613.61 851.144 1494.51C852.605 1498.37 854.266 1502.29 856.126 1506.14C845.498 1516.83 825.571 1542.01 830.221 1575.62C835.734 1615.87 873.86 1655.32 943.538 1692.72L959.546 1701.35L947.59 1687.6C918.762 1654.39 905.743 1627.82 908.865 1607.9C909.557 1603.46 911.197 1599.22 913.673 1595.47C916.148 1591.73 919.402 1588.56 923.213 1586.18C948.713 1606.02 978.596 1619.45 1010.36 1625.37C1039.81 1629.55 1069.85 1625.98 1097.51 1615C1100.12 1618.45 1102 1622.4 1103 1626.61C1104.01 1630.82 1104.13 1635.19 1103.35 1639.45C1099.9 1659.38 1079.24 1680.3 1041.91 1702.55L1026.23 1711.92L1044.23 1708.66C1123.94 1694.45 1172.56 1668.01 1189.37 1630.28C1204.25 1596.74 1189.37 1564.79 1182.39 1553.17C1184.79 1550.04 1187.11 1546.92 1189.04 1543.73C1235 1688.67 1266.62 1687.74 1300.03 1687.01C1322.61 1686.34 1346.13 1685.81 1377.68 1736.03C1311.79 1708.79 1240.05 1717.23 1192.36 1758.68C1144.67 1800.12 1131.25 1864.95 1153.9 1938.02L1156.42 1946.32L1160.08 1938.35C1176.55 1902.22 1196.94 1880.1 1220.79 1872.72C1241.44 1866.08 1265.29 1871 1291.66 1886.41C1279.5 1930.38 1258.98 1959.94 1229.09 1976.74C1184.59 2001.85 1118.43 2000.32 1020.99 1971.89L1013.02 1969.57L1017.2 1976.74C1048.75 2031.08 1136.76 2063.09 1227.96 2063.09C1273.44 2063.53 1318.56 2055.09 1360.81 2038.25C1418.33 2014.4 1509.06 1952.5 1470.4 1806.5C1505.21 1672.19 1444.36 1627.16 1373.43 1598.6L1370.64 1597.47L1369.24 1600.13C1361.2 1615.54 1350.71 1614.01 1345.13 1611.68C1297.97 1592.35 1249.41 1569.24 1218.46 1518.16C1222.58 1515.5 1226.37 1512.85 1229.89 1510.06C1264.52 1519.45 1300.28 1524.05 1336.16 1523.74H1342.47L1338.82 1518.63C1336.68 1516.28 1335.12 1513.46 1334.26 1510.41C1333.39 1507.36 1333.25 1504.14 1333.84 1501.02C1334.24 1500.23 1334.63 1500.23 1334.83 1500.16C1427.83 1495.84 1528.26 1485.55 1573.96 1443.44C1580.27 1531.45 1695.18 1675.91 1869.07 1721.35C1775.13 1837.42 1656.4 1931.01 1521.6 1995.26C1386.8 2059.51 1239.33 2092.78 1090 2092.65Z" fill="#742425"/>
</g>
<defs>
<clipPath id="clip0_482_61">
<rect width="2178" height="2178" fill="white" transform="translate(1 1)"/>
</clipPath>
</defs>
</svg>
