<svg width="2202" height="2205" viewBox="0 0 2202 2205" fill="none" xmlns="http://www.w3.org/2000/svg">
<g clip-path="url(#clip0_482_59)">
<path d="M-2.1416 1115.64C-2.1416 1716.88 487.031 2206.03 1088.25 2206.03C1689.47 2206.03 2178.65 1716.86 2178.65 1115.64C2178.65 514.417 1689.47 25.2437 1088.25 25.2437C487.031 25.2437 -2.1416 514.417 -2.1416 1115.64ZM2092.04 1115.64C2092.04 1178.9 2086.14 1240.87 2074.86 1300.9C2036.66 1254.11 2006.05 1248.42 1980.55 1231.24C1963.77 1164.75 1971.69 1110.85 2013.69 1109.78C1993.78 1029.88 1906.28 1074.48 1900.95 1044.37C1870.94 980.032 1955.76 936.411 2007.02 950.959C1995.13 899.558 1871.69 838.893 1826.59 845.061C1797.42 786.895 1823.05 690.452 1887.62 652.02C1826.59 597.525 1708.09 661.321 1688.62 636.763C1669.16 612.206 1670.9 533.691 1715.1 510.383C1599.27 448.643 1494.01 568.011 1473.7 591.358C1447.22 579.464 1409.19 387.404 1479.02 368.745C1311.88 365.612 1293.26 564.916 1293.26 564.916C1293.26 564.916 1120.17 495.663 1229.6 400.91C1200.43 391.072 1100.26 447.355 1107.6 538.437C1083.71 536.918 1058.52 476.965 1083.71 452.812C1004.79 427.889 990.883 547.795 993.515 571.142C913.925 561.035 925.877 481.617 955.045 477.735C834.967 452.812 857.563 618.663 880.777 634.993C820.419 664.565 810.179 582.111 826.819 561.801C762.082 628.729 804.356 690.372 813.349 704.918C740.023 679.554 543.755 598.712 370.889 414.204C553.246 227.774 807.354 111.904 1088.13 111.904C1641.64 111.904 2091.92 562.241 2091.92 1115.69L2092.04 1115.64ZM772.969 1189.29C775.293 1169.52 859.632 1139 864.051 1155.64C834.881 1177.74 835.285 1193.5 814.13 1207.01C793.376 1216.13 770.952 1206.6 772.969 1189.29ZM2018.58 1388.23C2018.58 1388.23 2025.38 1352.93 2068.33 1332.72C2062.33 1359.87 2055.26 1386.67 2047.07 1412.88C2036.2 1392.97 2018.58 1388.23 2018.58 1388.23V1388.23ZM84.4525 1115.64C84.4525 849.31 188.736 606.924 358.563 427.027C366.575 708.517 687.708 982.223 688.016 982.492C697.449 1002.63 703.541 1033.05 673.565 1049.42C647.797 1049.42 593.127 1093.85 631.426 1172.23C631.867 1173.21 634.019 1177.51 640.283 1179.34C664.705 1186.95 692.05 1201.43 693.338 1212.62C695.086 1227.61 678.485 1236.77 660.499 1233.03C658.848 1232.72 658.078 1232.89 657.463 1233.6C656.751 1234.31 656.08 1235.12 655.407 1235.93C646.55 1246.98 645.165 1264.38 658.405 1286.12C654.734 1304.01 618.724 1341.15 595.723 1338.15C495.244 1346.88 555.543 1435.19 547.625 1458.54C543.514 1473.7 557.194 1493.74 577.737 1496.74C546.242 1599.81 638.266 1729.11 573.357 1906.18C555.235 1959.07 568.475 1969.04 586.422 1913.29C636.036 1793.22 607.847 1678.73 608.251 1588.76C616.706 1603.48 627.852 1618.6 641.802 1631.03C652.543 1662.53 660.325 1714.43 642.109 1789.99C663.4 1794.64 700.987 1699.89 700.987 1699.89C700.987 1699.89 716.82 1723.19 708.231 1751.92C800.524 1716.76 787.996 1676.23 796.95 1629.82C803.214 1626.83 809.478 1623.52 815.742 1619.99C858.651 1699.58 910.994 1791.2 905.442 1930.74C904.095 1999.28 922.716 2003.93 922.716 1932.26C933.188 1798.67 883.843 1696.48 848.678 1607.28C872.562 1620.22 896.505 1643.56 898.427 1685.66C920.122 1687.18 919.718 1603.04 896.371 1557.13C895.391 1555.21 894.315 1553.42 893.202 1551.58C908.766 1567.95 923.89 1589.16 938.031 1617.56C923.178 1477.27 903.674 1458.61 875.216 1432.61C876.061 1421.56 877.407 1409.13 879.693 1394.68C888.417 1362.82 904.655 1360.73 926.483 1364.26C953.058 1366.69 967.68 1382.79 968.719 1427.93C990.376 1427.93 1004.59 1396.84 1010.95 1379.29C1011.13 1379.29 1011.4 1379.33 1011.63 1379.33C1018.57 1408.9 1032.51 1455.29 1052.08 1455.29C1044.97 1427.46 1073.87 1398.74 1105.94 1375.7C1120.56 1399.01 1128.57 1429.43 1120.83 1468.49C1287.39 1274.68 1121.14 1187 1230.4 1058.24C1197.79 1104.58 1201.23 1170.84 1224.23 1237.46C1360.37 1583.51 755.235 1814.85 996.734 2115C485.963 2068.56 84.5686 1638.05 84.5686 1115.46L84.4525 1115.64Z" fill="#4E2E6A"/>
</g>
<defs>
<clipPath id="clip0_482_59">
<rect width="2202" height="2202" fill="white"/>
</clipPath>
</defs>
</svg>
